<?xml version="1.0" encoding="UTF-8" standalone="no"?>
<svg
   width="64"
   height="64"
   version="1.1"
   viewBox="0 0 16.933 16.933"
   id="svg7"
   sodipodi:docname="camera-video.svg"
   inkscape:version="1.4.4 (dcaf3e7d9e, 2026-05-05)"
   xmlns:inkscape="http://www.inkscape.org/namespaces/inkscape"
   xmlns:sodipodi="http://sodipodi.sourceforge.net/DTD/sodipodi-0.dtd"
   xmlns="http://www.w3.org/2000/svg"
   xmlns:svg="http://www.w3.org/2000/svg"
   xmlns:rdf="http://www.w3.org/1999/02/22-rdf-syntax-ns#"
   xmlns:cc="http://creativecommons.org/ns#"
   xmlns:dc="http://purl.org/dc/elements/1.1/">
  <sodipodi:namedview
     id="namedview7"
     pagecolor="#9c4444"
     bordercolor="#000000"
     borderopacity="0.25"
     inkscape:showpageshadow="2"
     inkscape:pageopacity="0.0"
     inkscape:pagecheckerboard="0"
     inkscape:deskcolor="#d1d1d1"
     inkscape:zoom="6.15625"
     inkscape:cx="41.502538"
     inkscape:cy="27.28934"
     inkscape:window-width="2560"
     inkscape:window-height="1388"
     inkscape:window-x="0"
     inkscape:window-y="0"
     inkscape:window-maximized="1"
     inkscape:current-layer="svg7"
     showgrid="false" />
  <defs
     id="defs2">
    <style
       id="current-color-scheme"
       type="text/css">.ColorScheme-Text {color:#d8dee9} .ColorScheme-Highlight {color:#3b4252}</style>
  </defs>
  <metadata
     id="metadata2">
    <rdf:RDF>
      <cc:Work
         rdf:about="">
        <dc:format>image/svg+xml</dc:format>
        <dc:type
           rdf:resource="http://purl.org/dc/dcmitype/StillImage" />
      </cc:Work>
    </rdf:RDF>
  </metadata>
  <path
     style="fill:currentColor;stroke-width:0.661445"
     class="ColorScheme-Text"
     d="m 6.482165,3.1749375 c -0.916102,0 -1.653615,0.7375115 -1.653615,1.6536133 v 7.2758982 c 0,0.916102 0.737513,1.653613 1.653615,1.653613 h 5.291563 c 0.9161,0 1.653612,-0.737511 1.653612,-1.653613 V 4.8285508 c 0,-0.9161018 -0.737512,-1.6536133 -1.653612,-1.6536133 z M 12.10445,3.8363828 A 0.66144531,0.66144531 0 0 1 12.765895,4.497828 0.66144531,0.66144531 0 0 1 12.10445,5.1592735 0.66144531,0.66144531 0 0 1 11.443003,4.497828 0.66144531,0.66144531 0 0 1 12.10445,3.8363828 Z M 3.836383,5.1592735 c -0.183225,0 -0.330723,0.1475025 -0.330723,0.3307225 v 5.953008 c 0,0.18322 0.1475,0.330723 0.330723,0.330723 0.183225,0 0.330722,-0.147503 0.330722,-0.330723 V 5.489996 c 0,-0.18322 -0.1475,-0.3307225 -0.330722,-0.3307225 z M 9.127945,5.8207188 A 2.3150586,2.3150586 0 0 1 11.443003,8.1357773 2.3150586,2.3150586 0 0 1 9.127945,10.450836 2.3150586,2.3150586 0 0 1 6.812888,8.1357773 2.3150586,2.3150586 0 0 1 9.127945,5.8207188 Z m 0,0.6614453 A 1.6536133,1.6536133 0 0 0 7.474333,8.1357773 1.6536133,1.6536133 0 0 0 9.127945,9.7893906 1.6536133,1.6536133 0 0 0 10.781558,8.1357773 1.6536133,1.6536133 0 0 0 9.127945,6.4821641 Z m 0,0.6614452 A 0.99216797,0.99216797 0 0 1 10.120113,8.1357773 0.99216797,0.99216797 0 0 1 9.127945,9.1279454 0.99216797,0.99216797 0 0 1 8.135778,8.1357773 0.99216797,0.99216797 0 0 1 9.127945,7.1436093 Z M 5.820718,11.773727 A 0.33072266,0.33072266 0 0 1 6.15144,12.104449 0.33072266,0.33072266 0 0 1 5.820718,12.435172 0.33072266,0.33072266 0 0 1 5.489995,12.104449 0.33072266,0.33072266 0 0 1 5.820718,11.773727 Z m 1.322892,0 A 0.33072266,0.33072266 0 0 1 7.474333,12.104449 0.33072266,0.33072266 0 0 1 7.14361,12.435172 0.33072266,0.33072266 0 0 1 6.812888,12.104449 0.33072266,0.33072266 0 0 1 7.14361,11.773727 Z m 1.32289,0 A 0.33072266,0.33072266 0 0 1 8.797223,12.104449 0.33072266,0.33072266 0 0 1 8.4665,12.435172 0.33072266,0.33072266 0 0 1 8.135778,12.104449 0.33072266,0.33072266 0 0 1 8.4665,11.773727 Z M 6.482165,12.435172 A 0.33072266,0.33072266 0 0 1 6.812888,12.765894 0.33072266,0.33072266 0 0 1 6.482165,13.096617 0.33072266,0.33072266 0 0 1 6.15144,12.765894 0.33072266,0.33072266 0 0 1 6.482165,12.435172 Z m 1.32289,0 a 0.33072266,0.33072266 0 0 1 0.330723,0.330722 0.33072266,0.33072266 0 0 1 -0.330723,0.330723 0.33072266,0.33072266 0 0 1 -0.330722,-0.330723 0.33072266,0.33072266 0 0 1 0.330722,-0.330722 z"
     id="path5" />
</svg>
