<?xml version="1.0" encoding="UTF-8" standalone="no"?>
<svg
   width="64"
   height="64"
   version="1.1"
   viewBox="0 0 16.933 16.933"
   id="svg7"
   sodipodi:docname="avidemux.svg"
   inkscape:version="1.4.3 (0d15f75042, 2025-12-25)"
   xmlns:inkscape="http://www.inkscape.org/namespaces/inkscape"
   xmlns:sodipodi="http://sodipodi.sourceforge.net/DTD/sodipodi-0.dtd"
   xmlns="http://www.w3.org/2000/svg"
   xmlns:svg="http://www.w3.org/2000/svg"
   xmlns:rdf="http://www.w3.org/1999/02/22-rdf-syntax-ns#"
   xmlns:cc="http://creativecommons.org/ns#"
   xmlns:dc="http://purl.org/dc/elements/1.1/">
  <sodipodi:namedview
     id="namedview7"
     pagecolor="#9c4444"
     bordercolor="#000000"
     borderopacity="0.25"
     inkscape:showpageshadow="2"
     inkscape:pageopacity="0.0"
     inkscape:pagecheckerboard="0"
     inkscape:deskcolor="#d1d1d1"
     inkscape:zoom="4.3531262"
     inkscape:cx="89.705646"
     inkscape:cy="36.066035"
     inkscape:window-width="2560"
     inkscape:window-height="1388"
     inkscape:window-x="0"
     inkscape:window-y="0"
     inkscape:window-maximized="1"
     inkscape:current-layer="svg7"
     showgrid="false" />
  <defs
     id="defs2">
    <style
       id="current-color-scheme"
       type="text/css">.ColorScheme-Text {color:#d8dee9} .ColorScheme-Highlight {color:#3b4252}</style>
  </defs>
  <metadata
     id="metadata2">
    <rdf:RDF>
      <cc:Work
         rdf:about="">
        <dc:format>image/svg+xml</dc:format>
        <dc:type
           rdf:resource="http://purl.org/dc/dcmitype/StillImage" />
      </cc:Work>
    </rdf:RDF>
  </metadata>
  <path
     id="path5"
     style="fill:currentColor;stroke-width:0.283476"
     d="m 1.3795865,1.6630627 c -0.471138,0 -0.85043,0.3792916 -0.85043,0.8504296 v 0.067547 2.4837419 9.3547268 c 0,0.471138 0.379292,0.850429 0.85043,0.850429 H 15.553414 c 0.471138,0 0.850429,-0.379291 0.850429,-0.850429 V 5.0647813 3.363922 2.5810394 c 0,-0.5110531 -0.439656,-0.9179767 -0.970575,-0.9179767 H 14.702984 12.435172 10.734313 8.4665005 6.7656415 4.4978285 2.2300165 1.4997315 Z m 1.120064,0.2696349 h 2.267813 L 6.1986885,3.363922 4.7674635,4.7951464 H 3.9308755 V 3.363922 Z m 4.535625,0 h 1.70086 L 10.16736,3.363922 8.7361355,4.7951464 h -1.70086 L 8.4665005,3.363922 Z m 3.9686715,0 h 1.70086 l 1.431224,1.4312244 -1.431224,1.4312244 h -1.70086 L 12.435172,3.363922 Z m 3.968673,0 h 0.460648 c 0.39535,0 0.700941,0.2918235 0.700941,0.6483418 V 3.0942871 Z M 16.134209,3.633557 V 4.7951464 H 14.97262 Z M 5.0647815,6.7656407 H 10.16736 c 0.314091,0 0.566953,0.2528611 0.566953,0.5669531 V 9.6004062 L 13.002125,7.8995469 V 11.301266 L 10.734313,9.6004062 v 2.2678128 c 0,0.314092 -0.252862,0.566953 -0.566953,0.566953 H 5.0647815 c -0.314091,0 -0.566953,-0.252861 -0.566953,-0.566953 V 7.3325938 c 0,-0.314092 0.252862,-0.5669531 0.566953,-0.5669531 z"
     class="ColorScheme-Text" />
</svg>
