<?xml version="1.0" encoding="UTF-8" standalone="no"?>
<svg
   width="64"
   height="64"
   version="1.1"
   viewBox="0 0 16.933 16.933"
   id="svg7"
   sodipodi:docname="calendar.svg"
   inkscape:version="1.4.4 (dcaf3e7d9e, 2026-05-05)"
   xmlns:inkscape="http://www.inkscape.org/namespaces/inkscape"
   xmlns:sodipodi="http://sodipodi.sourceforge.net/DTD/sodipodi-0.dtd"
   xmlns="http://www.w3.org/2000/svg"
   xmlns:svg="http://www.w3.org/2000/svg"
   xmlns:rdf="http://www.w3.org/1999/02/22-rdf-syntax-ns#"
   xmlns:cc="http://creativecommons.org/ns#"
   xmlns:dc="http://purl.org/dc/elements/1.1/">
  <sodipodi:namedview
     id="namedview7"
     pagecolor="#9c4444"
     bordercolor="#000000"
     borderopacity="0.25"
     inkscape:showpageshadow="2"
     inkscape:pageopacity="0.0"
     inkscape:pagecheckerboard="0"
     inkscape:deskcolor="#d1d1d1"
     inkscape:zoom="4.3531262"
     inkscape:cx="90.165086"
     inkscape:cy="34.917435"
     inkscape:window-width="2560"
     inkscape:window-height="1388"
     inkscape:window-x="0"
     inkscape:window-y="0"
     inkscape:window-maximized="1"
     inkscape:current-layer="svg7"
     showgrid="false" />
  <defs
     id="defs2">
    <style
       id="current-color-scheme"
       type="text/css">.ColorScheme-Text {color:#d8dee9} .ColorScheme-Highlight {color:#3b4252}</style>
  </defs>
  <metadata
     id="metadata2">
    <rdf:RDF>
      <cc:Work
         rdf:about="">
        <dc:format>image/svg+xml</dc:format>
        <dc:type
           rdf:resource="http://purl.org/dc/dcmitype/StillImage" />
      </cc:Work>
    </rdf:RDF>
  </metadata>
  <path
     id="path5"
     style="fill:currentColor;fill-opacity:1;stroke-width:0.250404"
     d="m 3.9592229,2.9576046 c -0.276697,0 -0.500809,0.224112 -0.500809,0.5008087 v 1.0016172 c 0,0.2766969 0.224112,0.5008086 0.500809,0.5008086 0.2766969,0 0.500808,-0.2241117 0.500808,-0.5008086 V 3.4584133 c 0,-0.2766967 -0.2241111,-0.5008087 -0.500808,-0.5008087 z m 9.0145541,0 c -0.276697,0 -0.500808,0.224112 -0.500808,0.5008087 v 1.0016172 c 0,0.2766969 0.224111,0.5008086 0.500808,0.5008086 0.276698,0 0.50081,-0.2241117 0.50081,-0.5008086 V 3.4584133 c 0,-0.2766967 -0.224112,-0.5008087 -0.50081,-0.5008087 z M 2.9576048,1.4551787 c -0.8298401,0 -1.5024251,0.6725861 -1.5024251,1.5024259 V 3.9592219 H 3.2080088 V 3.4584133 c 0,-0.2245325 0.098349,-0.4257951 0.2543161,-0.5634098 0.03085,-0.2470539 0.2414529,-0.4382076 0.496898,-0.4382076 0.255445,0 0.466047,0.1911537 0.496897,0.4382076 0.155969,0.1376147 0.2543151,0.3388773 0.2543151,0.5634098 v 0.5008086 h 7.51213 V 3.4584133 c 0,-0.2245325 0.09835,-0.4257951 0.254315,-0.5634098 0.03085,-0.2470539 0.241453,-0.4382076 0.496897,-0.4382076 0.255445,0 0.466047,0.1911537 0.496897,0.4382076 0.155969,0.1376147 0.254315,0.3388773 0.254315,0.5634098 V 3.9592219 H 15.47782 V 2.9576046 c 0,-0.8298398 -0.672586,-1.5024259 -1.502425,-1.5024259 z M 1.4551797,4.2096262 v 9.7657688 c 0,0.82984 0.672585,1.502426 1.5024251,1.502426 H 13.975395 c 0.829839,0 1.502425,-0.672586 1.502425,-1.502426 V 4.2096262 h -1.752831 v 0.2504043 c 0,0.2245326 -0.09835,0.4257948 -0.254315,0.5634097 -0.03085,0.2470539 -0.241452,0.4382074 -0.496897,0.4382074 -0.255444,0 -0.466047,-0.1911535 -0.496897,-0.4382074 C 12.320911,4.8858253 12.222565,4.684563 12.222565,4.4600304 V 4.2096262 h -7.51213 v 0.2504043 c 0,0.2245326 -0.09835,0.4257948 -0.2543151,0.5634097 -0.03085,0.2470539 -0.241452,0.4382074 -0.496897,0.4382074 -0.2554451,0 -0.466048,-0.1911535 -0.496898,-0.4382074 C 3.3063558,4.8858253 3.2080088,4.684563 3.2080088,4.4600304 V 4.2096262 Z m 2.0032342,2.2536387 h 0.500809 c 0.2766969,0 0.500808,0.2241118 0.500808,0.5008088 v 0.5008086 c 0,0.2766967 -0.2241111,0.5008084 -0.500808,0.5008084 h -0.500809 c -0.2766971,0 -0.5008091,-0.2241117 -0.5008091,-0.5008084 V 6.9640737 c 0,-0.2766969 0.224112,-0.5008088 0.5008091,-0.5008088 z m 2.5040432,0 H 6.463266 c 0.2766961,0 0.500808,0.2241118 0.500808,0.5008088 v 0.5008086 c 0,0.2766967 -0.2241119,0.5008084 -0.500808,0.5008084 H 5.9624571 C 5.6857599,7.9656907 5.461649,7.741579 5.461649,7.4648823 V 6.9640737 c 0,-0.2766969 0.2241109,-0.5008088 0.5008081,-0.5008088 z m 2.5040431,0 h 0.500808 c 0.276697,0 0.500809,0.2241118 0.500809,0.5008088 v 0.5008086 c 0,0.2766967 -0.224112,0.5008084 -0.500809,0.5008084 h -0.500808 c -0.276697,0 -0.500808,-0.2241117 -0.500808,-0.5008084 V 6.9640737 c 0,-0.2766969 0.224111,-0.5008088 0.500808,-0.5008088 z m 2.5040438,0 h 0.500807 c 0.276697,0 0.500809,0.2241118 0.500809,0.5008088 v 0.5008086 c 0,0.2766967 -0.224112,0.5008084 -0.500809,0.5008084 h -0.500807 c -0.276698,0 -0.50081,-0.2241117 -0.50081,-0.5008084 V 6.9640737 c 0,-0.2766969 0.224112,-0.5008088 0.50081,-0.5008088 z M 3.4584139,8.9673084 h 0.500809 c 0.2766969,0 0.500808,0.224112 0.500808,0.500808 v 0.500809 c 0,0.2766966 -0.2241111,0.5008076 -0.500808,0.5008076 h -0.500809 c -0.2766971,0 -0.5008091,-0.224111 -0.5008091,-0.5008076 v -0.500809 c 0,-0.276696 0.224112,-0.500808 0.5008091,-0.500808 z m 2.5040432,0 H 6.463266 c 0.2766961,0 0.500808,0.224112 0.500808,0.500808 v 0.500809 c 0,0.2766966 -0.2241119,0.5008076 -0.500808,0.5008076 H 5.9624571 c -0.2766972,0 -0.5008081,-0.224111 -0.5008081,-0.5008076 v -0.500809 c 0,-0.276696 0.2241109,-0.500808 0.5008081,-0.500808 z m 2.5040431,0 h 0.500808 c 0.276697,0 0.500809,0.224112 0.500809,0.500808 v 0.500809 c 0,0.2766966 -0.224112,0.5008076 -0.500809,0.5008076 h -0.500808 c -0.276697,0 -0.500808,-0.224111 -0.500808,-0.5008076 v -0.500809 c 0,-0.276696 0.224111,-0.500808 0.500808,-0.500808 z m 5.8072288,1.002105 a 0.60982842,0.60982842 0 0 1 0.437227,0.1633506 0.60982842,0.60982842 0 0 1 0.03032,0.861743 l -3.064021,3.287535 a 0.60988938,0.60988938 0 0 1 -0.914073,-0.02446 L 9.5375692,12.790364 a 0.60982842,0.60982842 0 0 1 0.07728,-0.858809 0.60982842,0.60982842 0 0 1 0.8588068,0.07678 l 0.782512,0.937057 2.592566,-2.782325 A 0.60982842,0.60982842 0 0 1 14.273736,9.9693983 Z M 3.4584139,11.471352 h 0.500809 c 0.2766969,0 0.500808,0.22411 0.500808,0.500807 v 0.500809 c 0,0.276696 -0.2241111,0.500809 -0.500808,0.500809 h -0.500809 c -0.2766971,0 -0.5008091,-0.224113 -0.5008091,-0.500809 v -0.500809 c 0,-0.276697 0.224112,-0.500807 0.5008091,-0.500807 z m 2.5040432,0 H 6.463266 c 0.2766961,0 0.500808,0.22411 0.500808,0.500807 v 0.500809 c 0,0.276696 -0.2241119,0.500809 -0.500808,0.500809 H 5.9624571 c -0.2766972,0 -0.5008081,-0.224113 -0.5008081,-0.500809 v -0.500809 c 0,-0.276697 0.2241109,-0.500807 0.5008081,-0.500807 z"
     class="ColorScheme-Text" />
</svg>
