<?xml version="1.0" encoding="UTF-8" standalone="no"?>
<svg
   width="64"
   height="64"
   version="1.1"
   viewBox="0 0 16.933 16.933"
   id="svg7"
   sodipodi:docname="cantor.svg"
   inkscape:version="1.4.3 (0d15f75042, 2025-12-25)"
   xmlns:inkscape="http://www.inkscape.org/namespaces/inkscape"
   xmlns:sodipodi="http://sodipodi.sourceforge.net/DTD/sodipodi-0.dtd"
   xmlns="http://www.w3.org/2000/svg"
   xmlns:svg="http://www.w3.org/2000/svg"
   xmlns:rdf="http://www.w3.org/1999/02/22-rdf-syntax-ns#"
   xmlns:cc="http://creativecommons.org/ns#"
   xmlns:dc="http://purl.org/dc/elements/1.1/">
  <sodipodi:namedview
     id="namedview7"
     pagecolor="#9c4444"
     bordercolor="#000000"
     borderopacity="0.25"
     inkscape:showpageshadow="2"
     inkscape:pageopacity="0.0"
     inkscape:pagecheckerboard="0"
     inkscape:deskcolor="#d1d1d1"
     inkscape:zoom="4.3531262"
     inkscape:cx="89.705646"
     inkscape:cy="36.066035"
     inkscape:window-width="2560"
     inkscape:window-height="1388"
     inkscape:window-x="0"
     inkscape:window-y="0"
     inkscape:window-maximized="1"
     inkscape:current-layer="svg7"
     showgrid="false" />
  <defs
     id="defs2">
    <style
       id="current-color-scheme"
       type="text/css">.ColorScheme-Text {color:#d8dee9} .ColorScheme-Highlight {color:#3b4252}</style>
  </defs>
  <metadata
     id="metadata2">
    <rdf:RDF>
      <cc:Work
         rdf:about="">
        <dc:format>image/svg+xml</dc:format>
        <dc:type
           rdf:resource="http://purl.org/dc/dcmitype/StillImage" />
      </cc:Work>
    </rdf:RDF>
  </metadata>
  <path
     id="path5"
     style="fill:currentColor;stroke-width:0.250404"
     d="m 2.5066825,1.4551796 c -0.58264,0 -1.051503,0.4688617 -1.051503,1.0515024 v 11.919635 c 0,0.582641 0.468863,1.051503 1.051503,1.051503 H 14.426318 c 0.58264,0 1.051502,-0.468862 1.051502,-1.051503 V 2.506682 c 0,-0.5826407 -0.468862,-1.0515024 -1.051502,-1.0515024 z m 5.959818,3.2552559 h 4.6324785 a 0.37564401,0.37564401 0 0 1 0.375607,0.3756065 v 0.7512128 a 0.37564401,0.37564401 0 1 1 -0.751212,0 V 5.4616484 H 8.6772895 l -2.644895,4.3272992 a 0.37564401,0.37564401 0 0 1 -0.646551,-0.00929 L 4.4923105,8.2160942 h -0.908695 a 0.37564401,0.37564401 0 1 1 0,-0.7512129 h 1.12682 a 0.37564401,0.37564401 0 0 1 0.326211,0.1892704 l 0.686655,1.201158 2.422857,-3.9648976 a 0.37564401,0.37564401 0 0 1 0.320342,-0.179978 z M 11.590684,6.4578858 A 0.37564401,0.37564401 0 0 1 11.97216,6.838872 V 9.5933192 A 0.37564401,0.37564401 0 0 1 11.224859,9.6505402 1.75283,1.75283 0 0 1 10.21933,9.9689252 1.75283,1.75283 0 0 1 8.4665005,8.2160952 1.75283,1.75283 0 0 1 10.21933,6.463265 1.75283,1.75283 0 0 1 11.22437,6.7826285 0.37564401,0.37564401 0 0 1 11.590684,6.4578858 Z M 10.21933,7.2144784 A 1.0016172,1.0016172 0 0 0 9.2177125,8.2160957 1.0016172,1.0016172 0 0 0 10.21933,9.2177129 1.0016172,1.0016172 0 0 0 11.220947,8.2160957 1.0016172,1.0016172 0 0 0 10.21933,7.2144784 Z M 3.8340215,10.469735 h 9.2649575 a 0.37564401,0.37564401 0 1 1 0,0.751212 H 3.8340215 a 0.37564401,0.37564401 0 1 1 0,-0.751212 z m 4.256873,1.25202 h 0.751212 a 0.37564401,0.37564401 0 1 1 0,0.751214 h -0.751212 a 0.37564401,0.37564401 0 1 1 0,-0.751214 z"
     class="ColorScheme-Text" />
</svg>
