<?xml version="1.0" encoding="UTF-8" standalone="no"?>
<svg
   width="64"
   height="64"
   version="1.1"
   viewBox="0 0 16.933 16.933"
   id="svg7"
   sodipodi:docname="chipedit.svg"
   inkscape:version="1.4.4 (dcaf3e7d9e, 2026-05-05)"
   xmlns:inkscape="http://www.inkscape.org/namespaces/inkscape"
   xmlns:sodipodi="http://sodipodi.sourceforge.net/DTD/sodipodi-0.dtd"
   xmlns="http://www.w3.org/2000/svg"
   xmlns:svg="http://www.w3.org/2000/svg"
   xmlns:rdf="http://www.w3.org/1999/02/22-rdf-syntax-ns#"
   xmlns:cc="http://creativecommons.org/ns#"
   xmlns:dc="http://purl.org/dc/elements/1.1/">
  <sodipodi:namedview
     id="namedview7"
     pagecolor="#9c4444"
     bordercolor="#000000"
     borderopacity="0.25"
     inkscape:showpageshadow="2"
     inkscape:pageopacity="0.0"
     inkscape:pagecheckerboard="0"
     inkscape:deskcolor="#d1d1d1"
     inkscape:zoom="12.3125"
     inkscape:cx="24"
     inkscape:cy="37.360406"
     inkscape:window-width="2560"
     inkscape:window-height="1388"
     inkscape:window-x="0"
     inkscape:window-y="0"
     inkscape:window-maximized="1"
     inkscape:current-layer="svg7"
     showgrid="false" />
  <defs
     id="defs2">
    <style
       id="current-color-scheme"
       type="text/css">.ColorScheme-Text {color:#d8dee9} .ColorScheme-Highlight {color:#3b4252}</style>
  </defs>
  <metadata
     id="metadata2">
    <rdf:RDF>
      <cc:Work
         rdf:about="">
        <dc:format>image/svg+xml</dc:format>
        <dc:type
           rdf:resource="http://purl.org/dc/dcmitype/StillImage" />
      </cc:Work>
    </rdf:RDF>
  </metadata>
  <path
     id="path5"
     style="fill:currentColor"
     d="m 13.83686,1.4551796 -0.631233,0.6318428 1.648897,1.649507 0.631843,-0.6318428 C 14.960431,1.8560598 13.83686,1.4551796 13.83686,1.4551796 Z M 12.924808,2.3672312 6.6729204,8.6197294 c -0.033644,0.02678 -0.059106,0.06311 -0.070815,0.10806 L 6.1155558,10.574479 c -0.00106,0.0033 -0.00116,0.007 -0.00184,0.0104 -0.00163,0.0071 -0.00222,0.01458 -0.00306,0.02197 -5.314e-4,0.0069 -6.251e-4,0.01308 -6.251e-4,0.01954 0,0.0069 8.48e-5,0.01342 6.251e-4,0.02014 9.377e-4,0.0074 0.00156,0.01485 0.00306,0.02197 6.876e-4,0.0037 7.813e-4,0.007 0.00184,0.0104 5.314e-4,0.0027 0.00224,0.0052 0.00306,0.0079 0.00216,0.0069 0.00484,0.01342 0.00794,0.02014 0.00256,0.006 0.00484,0.01219 0.00794,0.01771 0.0031,0.0058 0.0066,0.01099 0.010372,0.01648 0.0035,0.0056 0.00756,0.01146 0.011601,0.01648 0.00417,0.0052 0.00919,0.0093 0.014041,0.01403 0.00484,0.0047 0.00879,0.0091 0.01404,0.01343 0.00497,0.0041 0.010821,0.0083 0.016481,0.01158 0.00552,0.0039 0.011034,0.0079 0.017094,0.01099 0.00552,0.0028 0.011176,0.0056 0.017094,0.0079 0.00686,0.0031 0.013146,0.0058 0.020145,0.0079 0.00256,8.11e-4 0.00525,0.0019 0.00794,0.0025 0.0035,8.12e-4 0.00688,0.0014 0.010372,0.0025 0.00714,0.0013 0.014575,0.0018 0.021977,0.0025 0.00686,8.13e-4 0.012939,0.0012 0.019535,0.0012 0.00659,0 0.013416,-8.4e-5 0.020145,-6.25e-4 0.00741,-0.0011 0.014234,-0.0019 0.021367,-0.0031 0.00337,-0.0011 0.00749,-0.0017 0.010987,-0.0025 l 1.8466907,-0.48594 c 0.044681,-0.01169 0.081273,-0.03751 0.1080537,-0.07142 L 14.574315,4.0167379 Z M 4.7804441,2.9752654 c -0.4617612,0 -0.8333002,0.3715394 -0.8333002,0.8333003 V 14.643908 c 0,0.461761 0.371539,0.833912 0.8333002,0.833912 h 5.0010217 c 0.4617612,0 0.8333002,-0.372151 0.8333002,-0.833912 V 8.8602574 L 8.785779,10.689243 c -0.00106,0.0012 -0.002,0.0025 -0.00306,0.0037 l -0.018314,0.01771 c -0.1009365,0.107655 -0.2306648,0.192285 -0.3913146,0.234384 l -1.8497428,0.48655 -0.00549,0.0012 -0.014041,0.0048 -0.042123,0.0067 c -0.013834,0.0024 -0.036833,0.006 -0.037239,0.0061 l -0.020145,0.0025 -0.020145,0.0019 c -0.029953,0.0024 -0.058528,0.0025 -0.068983,0.0025 -0.033324,0 -0.058817,-0.002 -0.084856,-0.0048 -0.00926,-9.68e-4 -0.046207,-0.0047 -0.072647,-0.0098 l -0.015262,-0.0031 -0.017704,-0.0031 -0.018314,-0.0056 c -0.00867,-0.0022 -0.00607,-0.0017 -0.012821,-0.0037 -7.189e-4,-2.18e-4 -0.00113,-3.74e-4 -0.00184,-6.25e-4 -0.010798,-0.0032 -0.024577,-0.0071 -0.025639,-0.0073 h -6.251e-4 v -6.25e-4 h -6.308e-4 c -0.034787,-0.01111 -0.063024,-0.02297 -0.078751,-0.02991 -0.021491,-0.0092 -0.039163,-0.01793 -0.05189,-0.02442 -0.026389,-0.01348 -0.049306,-0.028 -0.067153,-0.03968 -0.00646,-0.0043 -0.011778,-0.0076 -0.015872,-0.0104 -0.020724,-0.01376 -0.043051,-0.02962 -0.06349,-0.04639 l -6.251e-4,-6.25e-4 -6.252e-4,-6.25e-4 h -6.25e-4 l -6.252e-4,-6.25e-4 -6.251e-4,-6.25e-4 -6.252e-4,-6.24e-4 h -6.25e-4 l -6.252e-4,-6.27e-4 c -0.018103,-0.01539 -0.04039,-0.03695 -0.047007,-0.04334 0.0038,0.0038 -0.037706,-0.03587 -0.065321,-0.06959 v -6.25e-4 l -6.251e-4,-6.25e-4 c -6.252e-4,-7.2e-4 -0.00125,-0.0018 -0.00184,-0.0025 -0.014113,-0.01774 -0.028653,-0.03836 -0.03907,-0.05373 -1.25e-4,-2.18e-4 -0.00103,-0.0015 -0.00122,-0.0019 -0.00461,-0.0069 -0.00855,-0.01204 -0.010987,-0.01588 -0.00753,-0.01146 -0.016647,-0.02652 -0.027472,-0.04579 -0.00178,-0.0032 -0.00361,-0.0063 -0.00549,-0.0098 -2.499e-4,-4.38e-4 -3.75e-4,-7.81e-4 -6.25e-4,-0.0012 -0.0095,-0.01822 -0.018092,-0.03721 -0.024421,-0.05128 v -6.25e-4 l -6.252e-4,-6.25e-4 v -6.25e-4 c -0.00103,-0.0022 -0.0035,-0.0067 -0.00428,-0.0085 -10e-4,-0.0022 -0.00203,-0.005 -0.00306,-0.0073 -0.00878,-0.02014 -0.018597,-0.04406 -0.028081,-0.07387 -9.38e-5,-1.56e-4 -4.376e-4,-0.002 -6.252e-4,-0.0025 l -0.00122,-0.0037 v -6.25e-4 L 5.520091,10.86883 c -1.25e-4,-2.81e-4 -5e-4,-0.0014 -6.25e-4,-0.0019 v -5.01e-4 c -8.17e-5,-3.75e-4 -4.689e-4,-0.0014 -6.252e-4,-0.0019 -0.0045,-0.01477 -0.012384,-0.04089 -0.017094,-0.06472 -0.00169,-0.0082 -0.00243,-0.014 -0.00306,-0.01771 -2.188e-4,-0.0013 -0.00116,-0.0043 -0.00122,-0.0048 h 6.251e-4 c -0.00402,-0.02416 -0.00796,-0.05294 -0.00794,-0.0525 l -0.00184,-0.01526 -0.00122,-0.01465 c -0.00241,-0.03088 -0.00243,-0.05772 -0.00243,-0.06898 0,-0.01158 3.51e-5,-0.03673 0.00243,-0.06776 l 6.251e-4,-0.0104 0.00122,-0.0104 c -2.313e-4,0.0021 0.00586,-0.04448 0.012208,-0.07813 -0.0015,0.0073 -0.00269,0.0099 -0.00306,0.01099 3.439e-4,-0.0025 0.00287,-0.01099 0.00428,-0.01771 0.00203,-0.0098 0.00437,-0.02224 0.00854,-0.03785 l 6.251e-4,-0.0019 c 6.252e-4,-0.0022 5.627e-4,-0.0031 0.00122,-0.0056 2.188e-4,-7.82e-4 3.751e-4,-0.0017 6.25e-4,-0.0025 L 5.9974828,8.5677254 c 0.04114,-0.157943 0.1257317,-0.289424 0.2332021,-0.390704 l 0.00306,-0.0025 c 0.00494,-0.0046 0.00901,-0.01016 0.014041,-0.01465 L 10.613897,3.7942396 C 10.606211,3.339231 10.238122,2.9749804 9.7812074,2.9749804 Z M 1.6548054,3.8085657 c -0.1154397,0 -0.2081725,0.092731 -0.2081725,0.2081722 v 0.4169555 c 0,0.1154408 0.092733,0.208172 0.2081725,0.208172 H 3.1132332 V 3.8085657 Z m 0,1.6665997 c -0.1154397,0 -0.2081725,0.09334 -0.2081725,0.208783 v 0.416345 c 0,0.115443 0.092733,0.208783 0.2081725,0.208783 h 1.4584278 v -0.833911 z m 0,1.667212 c -0.1154397,0 -0.2081725,0.09274 -0.2081725,0.208172 v 0.416955 c 0,0.115443 0.092733,0.208172 0.2081725,0.208172 h 1.4584278 v -0.833299 z m 10.6778406,0 -0.8333,0.833299 h 1.407758 c 0.115441,0 0.208173,-0.09274 0.208173,-0.208172 v -0.416955 c 0,-0.115443 -0.09273,-0.208172 -0.208173,-0.208172 z m -10.6778406,1.66721 c -0.1154397,0 -0.2081725,0.09274 -0.2081725,0.208172 v 0.416956 c 0,0.115443 0.092733,0.208173 0.2081725,0.208173 h 1.4584278 v -0.833301 z m 9.7938716,0 v 0.833301 h 1.458427 c 0.115441,0 0.208173,-0.09274 0.208173,-0.208173 v -0.416956 c 0,-0.115443 -0.09273,-0.208172 -0.208173,-0.208172 z M 6.969612,8.9487754 7.9927701,9.9719344 6.919553,10.254584 c 0.00875,-0.06177 -0.010219,-0.126954 -0.057996,-0.174595 -0.047506,-0.04764 -0.1120786,-0.066 -0.1739858,-0.05738 z M 1.6548055,10.476187 c -0.1154397,0 -0.2081725,0.09334 -0.2081725,0.208783 v 0.416345 c 0,0.115443 0.092733,0.208783 0.2081725,0.208783 h 1.4584277 v -0.833911 z m 9.7938715,0 v 0.833911 h 1.458427 c 0.115441,0 0.208173,-0.09334 0.208173,-0.208783 V 10.68497 c 0,-0.115443 -0.09273,-0.208783 -0.208173,-0.208783 z m -9.7938715,1.667211 c -0.1154397,0 -0.2081725,0.09273 -0.2081725,0.208173 v 0.416955 c 0,0.115443 0.092733,0.208172 0.2081725,0.208172 h 1.4584277 v -0.8333 z m 9.7938715,0 v 0.8333 h 1.458427 c 0.115441,0 0.208173,-0.09274 0.208173,-0.208172 v -0.416955 c 0,-0.115443 -0.09273,-0.208173 -0.208173,-0.208173 z m -9.7938715,1.667211 c -0.1154397,0 -0.2081725,0.09274 -0.2081725,0.208172 v 0.416955 c 0,0.115443 0.092733,0.208172 0.2081725,0.208172 h 1.4584277 v -0.833299 z m 9.7938715,0 v 0.833299 h 1.458427 c 0.115441,0 0.208173,-0.09274 0.208173,-0.208172 v -0.416955 c 0,-0.115443 -0.09273,-0.208172 -0.208173,-0.208172 z"
     class="ColorScheme-Text" />
</svg>
