<?xml version="1.0" encoding="UTF-8" standalone="no"?>
<svg
   width="64"
   height="64"
   version="1.1"
   viewBox="0 0 16.933 16.933"
   id="svg7"
   sodipodi:docname="collaboraoffice-draw.svg"
   inkscape:version="1.4.4 (dcaf3e7d9e, 2026-05-05)"
   xmlns:inkscape="http://www.inkscape.org/namespaces/inkscape"
   xmlns:sodipodi="http://sodipodi.sourceforge.net/DTD/sodipodi-0.dtd"
   xmlns="http://www.w3.org/2000/svg"
   xmlns:svg="http://www.w3.org/2000/svg"
   xmlns:rdf="http://www.w3.org/1999/02/22-rdf-syntax-ns#"
   xmlns:cc="http://creativecommons.org/ns#"
   xmlns:dc="http://purl.org/dc/elements/1.1/">
  <sodipodi:namedview
     id="namedview7"
     pagecolor="#9c4444"
     bordercolor="#000000"
     borderopacity="0.25"
     inkscape:showpageshadow="2"
     inkscape:pageopacity="0.0"
     inkscape:pagecheckerboard="0"
     inkscape:deskcolor="#d1d1d1"
     inkscape:zoom="4.3531262"
     inkscape:cx="89.590787"
     inkscape:cy="35.836315"
     inkscape:window-width="2560"
     inkscape:window-height="1388"
     inkscape:window-x="0"
     inkscape:window-y="0"
     inkscape:window-maximized="1"
     inkscape:current-layer="svg7"
     showgrid="false" />
  <defs
     id="defs2">
    <style
       id="current-color-scheme"
       type="text/css">.ColorScheme-Text {color:#d8dee9} .ColorScheme-Highlight {color:#3b4252}</style>
  </defs>
  <metadata
     id="metadata2">
    <rdf:RDF>
      <cc:Work
         rdf:about="">
        <dc:format>image/svg+xml</dc:format>
        <dc:type
           rdf:resource="http://purl.org/dc/dcmitype/StillImage" />
      </cc:Work>
    </rdf:RDF>
  </metadata>
  <path
     id="path5"
     style="fill:currentColor"
     d="m 3.2988366,1.4551795 c -0.098974,0 -0.1829883,0.08401 -0.1829883,0.182988 V 15.294831 c 0,0.09897 0.084014,0.182989 0.1829883,0.182989 H 13.634163 c 0.09897,0 0.182989,-0.08402 0.182989,-0.182989 V 4.3210825 l -0.276796,-0.281778 -2.266548,-2.307332 -0.271897,-0.276793 z m 10.5183154,2.865903 v -2.682915 c 0,-0.0042 0,-0.0083 -4.56e-4,-0.01242 z M 3.3926395,1.7319725 h 7.6092715 l 4.56e-4,2.58911 h 2.537998 V 11.234295 H 3.3926487 Z m 2.6424049,3.455201 a 0.12163671,0.12163671 0 0 0 -0.1216323,0.121628 v 0.460416 a 0.12163671,0.12163671 0 0 0 0.1216323,0.121628 h 0.1562521 v 2.465671 H 6.0350444 a 0.12163671,0.12163671 0 0 0 -0.1216323,0.121536 v 0.460056 a 0.12163671,0.12163671 0 0 0 0.1216323,0.121993 H 6.495096 a 0.12163671,0.12163671 0 0 0 0.1216278,-0.121993 v -0.135586 h 3.361396 v 0.135586 a 0.12163671,0.12163671 0 0 0 0.1216272,0.121993 h 0.460057 a 0.12163671,0.12163671 0 0 0 0.1219,-0.121993 v -0.460056 a 0.12163671,0.12163671 0 0 0 -0.1219,-0.121536 h -0.153807 v -2.465671 h 0.153807 a 0.12163671,0.12163671 0 0 0 0.1219,-0.121628 v -0.460416 a 0.12163671,0.12163671 0 0 0 -0.1219,-0.121628 h -0.460057 a 0.12163671,0.12163671 0 0 0 -0.1216272,0.121628 v 0.154531 H 6.6167238 V 5.3088015 A 0.12163671,0.12163671 0 0 0 6.495096,5.1871735 Z m 0.5816794,0.422079 h 3.361396 v 0.159965 a 0.12163671,0.12163671 0 0 0 0.1216272,0.121628 h 0.16033 v 2.465671 h -0.16033 a 0.12163671,0.12163671 0 0 0 -0.1216272,0.121536 v 0.178458 H 6.6167238 V 8.4780525 A 0.12163671,0.12163671 0 0 0 6.495096,8.3565165 H 6.3372157 V 5.8908455 H 6.495096 a 0.12163671,0.12163671 0 0 0 0.1216278,-0.121628 z m 3.1889203,0.466666 a 0.12162455,0.12162455 0 0 0 -0.060452,0.01767 l -0.6995016,0.426156 a 0.12163671,0.12163671 0 0 0 -0.052748,0.0668 L 8.5867232,7.8553125 8.084888,7.1219115 a 0.12163671,0.12163671 0 0 0 -0.2045582,0.0058 l -0.3465793,0.572435 -0.512168,0.152811 a 0.12162455,0.12162455 0 0 0 -0.081842,0.151353 0.12162455,0.12162455 0 0 0 0.1513578,0.08184 l 0.5570282,-0.166129 a 0.12163671,0.12163671 0 0 0 0.069156,-0.05374 l 0.2733453,-0.451172 0.535463,0.782796 a 0.12163671,0.12163671 0 0 0 0.2165194,-0.03154 L 9.2108221,6.7039995 9.8716262,6.3014985 A 0.12162455,0.12162455 0 0 0 9.9124082,6.1343735 0.12162455,0.12162455 0 0 0 9.805643,6.0759135 Z M 7.6625373,12.110081 H 8.677177 c 0.2463832,0 0.4636822,0.04927 0.6518322,0.14782 0.1903874,0.09855 0.3381933,0.237452 0.4434638,0.41664 0.1052751,0.17695 0.1578849,0.380793 0.1578849,0.611501 0,0.230704 -0.053726,0.435664 -0.1612385,0.614851 -0.1052705,0.179192 -0.2553043,0.317998 -0.4501709,0.416552 -0.1926292,0.09855 -0.4143841,0.14782 -0.6652464,0.14782 H 7.6625373 Z m 0.6148553,0.500654 v 1.357322 h 0.41664 c 0.1187123,0 0.2239322,-0.02802 0.3157655,-0.08402 0.091833,-0.056 0.1635541,-0.135513 0.2150708,-0.238546 0.051517,-0.103034 0.077219,-0.220593 0.077219,-0.352743 0,-0.134391 -0.027931,-0.253154 -0.083927,-0.356188 -0.053754,-0.103033 -0.1288145,-0.18255 -0.2251314,-0.238545 -0.096312,-0.05824 -0.2060758,-0.08728 -0.3292674,-0.08728 z"
     class="ColorScheme-Text" />
</svg>
