<?xml version="1.0" encoding="UTF-8" standalone="no"?>
<svg
   width="64"
   height="64"
   version="1.1"
   viewBox="0 0 16.933 16.933"
   id="svg7"
   sodipodi:docname="collaboraoffice-calc.svg"
   inkscape:version="1.4.4 (dcaf3e7d9e, 2026-05-05)"
   xmlns:inkscape="http://www.inkscape.org/namespaces/inkscape"
   xmlns:sodipodi="http://sodipodi.sourceforge.net/DTD/sodipodi-0.dtd"
   xmlns="http://www.w3.org/2000/svg"
   xmlns:svg="http://www.w3.org/2000/svg"
   xmlns:rdf="http://www.w3.org/1999/02/22-rdf-syntax-ns#"
   xmlns:cc="http://creativecommons.org/ns#"
   xmlns:dc="http://purl.org/dc/elements/1.1/">
  <sodipodi:namedview
     id="namedview7"
     pagecolor="#9c4444"
     bordercolor="#000000"
     borderopacity="0.25"
     inkscape:showpageshadow="2"
     inkscape:pageopacity="0.0"
     inkscape:pagecheckerboard="0"
     inkscape:deskcolor="#d1d1d1"
     inkscape:zoom="4.3531262"
     inkscape:cx="89.705646"
     inkscape:cy="35.376875"
     inkscape:window-width="2560"
     inkscape:window-height="1388"
     inkscape:window-x="0"
     inkscape:window-y="0"
     inkscape:window-maximized="1"
     inkscape:current-layer="svg7"
     showgrid="false" />
  <defs
     id="defs2">
    <style
       id="current-color-scheme"
       type="text/css">.ColorScheme-Text {color:#d8dee9} .ColorScheme-Highlight {color:#3b4252}</style>
  </defs>
  <metadata
     id="metadata2">
    <rdf:RDF>
      <cc:Work
         rdf:about="">
        <dc:format>image/svg+xml</dc:format>
        <dc:type
           rdf:resource="http://purl.org/dc/dcmitype/StillImage" />
      </cc:Work>
    </rdf:RDF>
  </metadata>
  <path
     id="path5"
     style="fill:currentColor"
     d="m 3.2988343,1.4551795 c -0.098965,0 -0.1829883,0.08402 -0.1829883,0.182988 V 15.294831 c 0,0.09898 0.084014,0.182989 0.1829883,0.182989 H 13.634166 c 0.09897,0 0.182988,-0.08401 0.182988,-0.182989 V 4.3209945 l -0.276796,-0.281777 -2.266547,-2.307245 -0.271902,-0.276793 z m 10.5183197,2.865815 v -2.682827 c 0,-0.0038 0,-0.0075 -4.56e-4,-0.01124 z M 3.3925496,1.7319725 h 7.6093594 l 4.56e-4,2.589022 h 2.537998 V 11.234201 H 3.3925542 Z m 0.8863924,2.706845 v 5.416585 h 7.971346 v -4.494033 l -5.1686159,0.01396 -0.00198,-0.935243 z m 0.3587252,0.489509 h 1.9798755 v 0.51262 H 4.6376672 Z m 0,1.00004 h 1.9798755 v 0.51262 H 4.6376672 Z m 2.4749112,0 h 4.6423096 v 0.51262 H 7.1125784 Z m -2.4749112,0.974941 h 1.9798755 v 0.51262 H 4.6376672 Z m 2.4749112,0 h 4.6423096 v 0.51262 H 7.1125784 Z m -2.4749112,0.974937 h 1.9798755 v 0.512712 H 4.6376672 Z m 2.4749112,0 h 4.6423096 v 0.512712 H 7.1125784 Z m -2.4749112,0.975029 h 1.9798755 v 0.51262 H 4.6376672 Z m 2.4749112,0 h 4.6423096 v 0.51262 H 7.1125784 Z m 1.4638142,3.2097655 c 0.1702291,0 0.3382624,0.02459 0.5040079,0.07387 0.1657499,0.04704 0.3113277,0.110875 0.4367611,0.191508 l -0.2318387,0.490598 c -0.1254334,-0.07392 -0.2597835,-0.13441 -0.4031333,-0.181447 -0.1411126,-0.04704 -0.2598758,-0.07061 -0.3561882,-0.07061 -0.076154,0 -0.1366518,0.01458 -0.1814475,0.04368 -0.042559,0.02688 -0.063805,0.06724 -0.063805,0.120996 0,0.05152 0.019019,0.09513 0.057098,0.130964 0.038079,0.0336 0.085117,0.06162 0.1411173,0.08402 0.055996,0.02016 0.1388522,0.04706 0.2486018,0.08066 0.1635128,0.04704 0.297955,0.09408 0.4032301,0.141117 0.1075126,0.04704 0.1993688,0.119784 0.2755228,0.218332 0.076154,0.09632 0.1141965,0.222876 0.1141965,0.379664 0,0.156791 -0.041474,0.291233 -0.1243495,0.403226 -0.082875,0.109753 -0.1970898,0.19261 -0.3426815,0.248605 -0.14335,0.056 -0.3034953,0.08402 -0.4804453,0.08402 -0.1948664,0 -0.3897145,-0.03359 -0.5845809,-0.100786 -0.1926293,-0.06943 -0.3595463,-0.163518 -0.5006588,-0.282229 l 0.2385457,-0.480445 c 0.1187125,0.105274 0.2587227,0.191471 0.4199935,0.258666 0.163508,0.06719 0.3079743,0.100782 0.4334077,0.100782 0.091833,0 0.1635542,-0.0168 0.2150708,-0.05039 0.053758,-0.0336 0.080665,-0.08287 0.080665,-0.147824 0,-0.05375 -0.020227,-0.09857 -0.060544,-0.134405 -0.038079,-0.03584 -0.087345,-0.06386 -0.1478244,-0.08402 -0.058233,-0.0224 -0.1410895,-0.0481 -0.2486066,-0.07722 -0.1612662,-0.04479 -0.2945046,-0.08961 -0.3997797,-0.134406 -0.1052751,-0.04704 -0.1960152,-0.116443 -0.2721692,-0.208276 -0.073917,-0.09408 -0.1108474,-0.218402 -0.1108474,-0.372956 0,-0.145592 0.038042,-0.273261 0.114201,-0.383012 0.078391,-0.109753 0.1881548,-0.193722 0.3292674,-0.25196 0.1433497,-0.06048 0.3090628,-0.09073 0.497213,-0.09073 z"
     class="ColorScheme-Text" />
</svg>
