<?xml version="1.0" encoding="UTF-8" standalone="no"?>
<svg
   width="64"
   height="64"
   version="1.1"
   viewBox="0 0 16.933 16.933"
   id="svg7"
   sodipodi:docname="collaboraoffice-impress.svg"
   inkscape:version="1.4.4 (dcaf3e7d9e, 2026-05-05)"
   xmlns:inkscape="http://www.inkscape.org/namespaces/inkscape"
   xmlns:sodipodi="http://sodipodi.sourceforge.net/DTD/sodipodi-0.dtd"
   xmlns="http://www.w3.org/2000/svg"
   xmlns:svg="http://www.w3.org/2000/svg"
   xmlns:rdf="http://www.w3.org/1999/02/22-rdf-syntax-ns#"
   xmlns:cc="http://creativecommons.org/ns#"
   xmlns:dc="http://purl.org/dc/elements/1.1/">
  <sodipodi:namedview
     id="namedview7"
     pagecolor="#9c4444"
     bordercolor="#000000"
     borderopacity="0.25"
     inkscape:showpageshadow="2"
     inkscape:pageopacity="0.0"
     inkscape:pagecheckerboard="0"
     inkscape:deskcolor="#d1d1d1"
     inkscape:zoom="4.3531262"
     inkscape:cx="89.705646"
     inkscape:cy="35.606595"
     inkscape:window-width="2560"
     inkscape:window-height="1388"
     inkscape:window-x="0"
     inkscape:window-y="0"
     inkscape:window-maximized="1"
     inkscape:current-layer="svg7"
     showgrid="false" />
  <defs
     id="defs2">
    <style
       id="current-color-scheme"
       type="text/css">.ColorScheme-Text {color:#d8dee9} .ColorScheme-Highlight {color:#3b4252}</style>
  </defs>
  <metadata
     id="metadata2">
    <rdf:RDF>
      <cc:Work
         rdf:about="">
        <dc:format>image/svg+xml</dc:format>
        <dc:type
           rdf:resource="http://purl.org/dc/dcmitype/StillImage" />
      </cc:Work>
    </rdf:RDF>
  </metadata>
  <path
     id="path5"
     style="fill:currentColor"
     d="m 3.298835,1.4551795 c -0.098974,0 -0.1829883,0.08401 -0.1829883,0.182988 V 15.294832 c 0,0.09897 0.084014,0.182989 0.1829883,0.182989 h 10.335329 c 0.09897,0 0.182989,-0.08402 0.182989,-0.182989 V 4.3210845 l -0.276792,-0.281778 -2.266548,-2.307334 -0.271901,-0.276793 z m 10.518318,2.865905 v -2.682917 c 0,-0.0042 0,-0.0083 -4.56e-4,-0.01242 z M 3.392638,1.7319725 h 7.609274 l 4.56e-4,2.589112 h 2.538003 V 11.234206 H 3.3926472 Z m 4.6208331,2.706846 v 0.522497 H 5.4864429 v 3.719485 h 1.5086749 l -0.529568,0.916847 -0.1130201,0.196038 0.3919887,0.2261285 0.1131125,-0.1960385 0.6368773,-1.102552 0.02329,-0.04042 h 1.5548083 l 0.023295,0.04042 0.6368774,1.102552 L 9.8458867,10.019814 10.237968,9.7936855 10.124855,9.5976475 9.5952873,8.6808005 H 11.042786 V 4.9613155 H 8.5157584 v -0.522497 z m -2.0748599,0.974665 h 4.6520068 v 2.815061 H 5.9386112 Z m 1.7239305,6.6965975 h 1.0347567 c 0.3001417,0 0.5331198,0.07275 0.6988697,0.218337 0.1657501,0.14335 0.2486067,0.346086 0.2486067,0.608148 0,0.277742 -0.082857,0.493925 -0.2486067,0.648479 -0.1657499,0.152308 -0.398728,0.228393 -0.6988697,0.228393 H 8.2773048 V 14.46527 H 7.6625417 Z m 0.6147631,0.490506 v 0.722345 h 0.3898114 c 0.1254335,0 0.2217413,-0.03136 0.288937,-0.09408 0.069433,-0.06272 0.1041404,-0.153457 0.1041404,-0.272174 0,-0.114229 -0.034707,-0.201541 -0.1041404,-0.262016 -0.067196,-0.06272 -0.1635035,-0.09408 -0.288937,-0.09408 z"
     class="ColorScheme-Text" />
</svg>
