<?xml version="1.0" encoding="UTF-8" standalone="no"?>
<svg
   width="64"
   height="64"
   version="1.1"
   viewBox="0 0 16.933 16.933"
   id="svg7"
   sodipodi:docname="collaboraoffice-writer.svg"
   inkscape:version="1.4.4 (dcaf3e7d9e, 2026-05-05)"
   xmlns:inkscape="http://www.inkscape.org/namespaces/inkscape"
   xmlns:sodipodi="http://sodipodi.sourceforge.net/DTD/sodipodi-0.dtd"
   xmlns="http://www.w3.org/2000/svg"
   xmlns:svg="http://www.w3.org/2000/svg"
   xmlns:rdf="http://www.w3.org/1999/02/22-rdf-syntax-ns#"
   xmlns:cc="http://creativecommons.org/ns#"
   xmlns:dc="http://purl.org/dc/elements/1.1/">
  <sodipodi:namedview
     id="namedview7"
     pagecolor="#9c4444"
     bordercolor="#000000"
     borderopacity="0.25"
     inkscape:showpageshadow="2"
     inkscape:pageopacity="0.0"
     inkscape:pagecheckerboard="0"
     inkscape:deskcolor="#d1d1d1"
     inkscape:zoom="4.3531262"
     inkscape:cx="89.705646"
     inkscape:cy="35.147155"
     inkscape:window-width="2560"
     inkscape:window-height="1388"
     inkscape:window-x="0"
     inkscape:window-y="0"
     inkscape:window-maximized="1"
     inkscape:current-layer="svg7"
     showgrid="false" />
  <defs
     id="defs2">
    <style
       id="current-color-scheme"
       type="text/css">.ColorScheme-Text {color:#d8dee9} .ColorScheme-Highlight {color:#3b4252}</style>
  </defs>
  <metadata
     id="metadata2">
    <rdf:RDF>
      <cc:Work
         rdf:about="">
        <dc:format>image/svg+xml</dc:format>
        <dc:type
           rdf:resource="http://purl.org/dc/dcmitype/StillImage" />
      </cc:Work>
    </rdf:RDF>
  </metadata>
  <path
     id="path5"
     style="fill:currentColor"
     d="m 3.2988355,1.4551795 c -0.09896,0 -0.182988,0.08402 -0.182988,0.182988 V 15.294832 c 0,0.09897 0.08402,0.182989 0.182988,0.182989 H 13.634165 c 0.09897,0 0.182987,-0.08402 0.182987,-0.182989 V 4.3209935 L 13.54036,4.0392155 11.27381,1.7319725 11.001911,1.4551795 Z m 10.5183165,2.865814 v -2.682826 c 0,-0.0038 -1.76e-4,-0.0076 -5.26e-4,-0.01142 z M 3.3925495,1.7319725 h 7.6093615 l 5.27e-4,2.589021 h 2.537996 V 11.14629 c -0.0056,-0.0027 -0.01187,-0.0042 -0.01849,-0.0042 H 3.3925495 Z m 1.497348,2.613854 c -0.06057,0 -0.109304,0.04874 -0.109304,0.109304 v 0.168486 c 0,0.06057 0.04874,0.109304 0.109304,0.109304 h 2.114739 c 0.06057,0 0.109302,-0.04874 0.109302,-0.109304 v -0.168486 c 0,-0.06057 -0.04874,-0.109304 -0.109302,-0.109304 z m 2.595002,1.225087 a 0.19374487,0.19374487 0 0 0 -0.193773,0.193682 0.19374487,0.19374487 0 0 0 0.193773,0.193773 0.19374487,0.19374487 0 0 0 0.193773,-0.193773 0.19374487,0.19374487 0 0 0 -0.193773,-0.193682 z m -2.595002,3.51e-4 c -0.06057,0 -0.109304,0.04874 -0.109304,0.109304 v 0.168487 c 0,0.06057 0.04874,0.109302 0.109304,0.109302 h 1.743506 c 0.06057,0 0.109393,-0.04874 0.109393,-0.109302 v -0.168487 c 0,-0.06057 -0.04883,-0.109304 -0.109393,-0.109304 z m 3.322422,0 c -0.06055,0 -0.109303,0.04874 -0.109303,0.109304 v 0.168487 c 0,0.06057 0.04875,0.109302 0.109303,0.109302 h 2.0793925 c 0.06057,0 0.109302,-0.04874 0.109302,-0.109302 v -0.168487 c 0,-0.06057 -0.04874,-0.109304 -0.109302,-0.109304 z m 2.8274765,0 c -0.06056,0 -0.109395,0.04874 -0.109395,0.109304 v 0.168487 c 0,0.06057 0.04884,0.109302 0.109395,0.109302 h 1.014726 c 0.06056,0 0.109304,-0.04874 0.109304,-0.109302 v -0.168487 c 0,-0.06057 -0.04875,-0.109304 -0.109304,-0.109304 z m -6.1498985,1.274481 c -0.06057,0 -0.109304,0.04874 -0.109304,0.109303 v 0.168488 c 0,0.06056 0.04874,0.109393 0.109304,0.109393 h 4.371591 c 0.06056,0 0.109393,-0.04884 0.109393,-0.109393 v -0.168488 c 0,-0.06057 -0.04884,-0.109303 -0.109393,-0.109303 z m 5.049887,0 c -0.06056,0 -0.109304,0.04874 -0.109304,0.109303 v 0.168488 c 0,0.06056 0.04875,0.109393 0.109304,0.109393 h 2.1147375 c 0.06056,0 0.109304,-0.04884 0.109304,-0.109393 v -0.168488 c 0,-0.06057 -0.04875,-0.109303 -0.109304,-0.109303 z m -5.049887,1.349978 c -0.06057,0 -0.109304,0.04874 -0.109304,0.109302 v 0.168488 c 0,0.06057 0.04874,0.109304 0.109304,0.109304 h 1.239768 c 0.06057,0 0.109303,-0.04874 0.109303,-0.109304 v -0.168488 c 0,-0.06056 -0.04874,-0.109302 -0.109303,-0.109302 z m 1.799969,0 c -0.06057,0 -0.109302,0.04874 -0.109302,0.109302 v 0.168488 c 0,0.06057 0.04874,0.109304 0.109302,0.109304 h 1.989757 c 0.06057,0 0.109304,-0.04874 0.109304,-0.109304 v -0.168488 c 0,-0.06056 -0.04874,-0.109302 -0.109304,-0.109302 z m 2.649928,0 c -0.06057,0 -0.109304,0.04874 -0.109304,0.109302 v 0.168488 c 0,0.06057 0.04874,0.109304 0.109304,0.109304 h 2.7147275 c 0.06056,0 0.109304,-0.04874 0.109304,-0.109304 v -0.168488 c 0,-0.06056 -0.04875,-0.109302 -0.109304,-0.109302 z m -4.317301,1.287532 a 0.19374487,0.19374487 0 0 0 -0.193774,0.193772 0.19374487,0.19374487 0 0 0 0.193774,0.193775 0.19374487,0.19374487 0 0 0 0.193682,-0.193775 0.19374487,0.19374487 0 0 0 -0.193682,-0.193772 z m 0.725879,3.5e-4 c -0.06056,0 -0.109303,0.04874 -0.109303,0.109304 v 0.168486 c 0,0.06057 0.04875,0.109395 0.109303,0.109395 h 2.272803 c 0.06057,0 0.109302,-0.04883 0.109302,-0.109395 v -0.168486 c 0,-0.06057 -0.04874,-0.109304 -0.109302,-0.109304 z m 1.77976,2.6330695 h 1.854531 v 0.453618 h -0.665155 v 1.894862 h -0.52413 v -1.894862 h -0.665246 z"
     class="ColorScheme-Text" />
</svg>
