<?xml version="1.0" encoding="UTF-8" standalone="no"?>
<svg
   width="64"
   height="64"
   version="1.1"
   viewBox="0 0 16.933 16.933"
   id="svg7"
   sodipodi:docname="com.cassidyjames.butler.svg"
   inkscape:version="1.4.4 (dcaf3e7d9e, 2026-05-05)"
   xmlns:inkscape="http://www.inkscape.org/namespaces/inkscape"
   xmlns:sodipodi="http://sodipodi.sourceforge.net/DTD/sodipodi-0.dtd"
   xmlns="http://www.w3.org/2000/svg"
   xmlns:svg="http://www.w3.org/2000/svg"
   xmlns:rdf="http://www.w3.org/1999/02/22-rdf-syntax-ns#"
   xmlns:cc="http://creativecommons.org/ns#"
   xmlns:dc="http://purl.org/dc/elements/1.1/">
  <sodipodi:namedview
     id="namedview7"
     pagecolor="#9c4444"
     bordercolor="#000000"
     borderopacity="0.25"
     inkscape:showpageshadow="2"
     inkscape:pageopacity="0.0"
     inkscape:pagecheckerboard="0"
     inkscape:deskcolor="#d1d1d1"
     inkscape:zoom="12.3125"
     inkscape:cx="21.319797"
     inkscape:cy="37.116751"
     inkscape:window-width="2560"
     inkscape:window-height="1392"
     inkscape:window-x="0"
     inkscape:window-y="0"
     inkscape:window-maximized="1"
     inkscape:current-layer="svg7"
     showgrid="true">
    <inkscape:grid
       id="grid19"
       units="px"
       originx="0"
       originy="0"
       spacingx="0.26457812"
       spacingy="0.26457812"
       empcolor="#0099e5"
       empopacity="0.30196078"
       color="#0099e5"
       opacity="0.14902"
       empspacing="5"
       enabled="true"
       visible="true" />
  </sodipodi:namedview>
  <defs
     id="defs2">
    <inkscape:path-effect
       effect="offset"
       id="path-effect18"
       is_visible="true"
       lpeversion="1.3"
       linejoin_type="miter"
       unit="mm"
       offset="-0.13229167"
       miter_limit="4"
       attempt_force_join="false"
       update_on_knot_move="true" />
    <style
       id="current-color-scheme"
       type="text/css">.ColorScheme-Text {color:#d8dee9} .ColorScheme-Highlight {color:#3b4252}</style>
  </defs>
  <metadata
     id="metadata2">
    <rdf:RDF>
      <cc:Work
         rdf:about="">
        <dc:format>image/svg+xml</dc:format>
        <dc:type
           rdf:resource="http://purl.org/dc/dcmitype/StillImage" />
      </cc:Work>
    </rdf:RDF>
  </metadata>
  <path
     id="path5"
     style="fill:currentColor"
     d="m 2.2521744,1.4560186 a 1.5474409,1.5474409 0 0 0 -1.496565,1.546583 v 4.242921 a 1.5836962,1.5836962 0 0 0 2.173999,1.469631 l 2.416528,-0.970511 a 1.4856167,1.4856167 0 0 0 0.932036,-1.378618 v -0.111844 c 0,0.602125 0.484743,1.086867 1.086867,1.086867 h 2.203055 c 0.6017756,0 1.0863076,-0.484164 1.0868656,-1.085806 v 0.07947 a 1.4868491,1.4868491 0 0 0 0.926464,1.377291 l 2.465352,1.003149 a 1.5474409,1.5474409 0 0 0 2.130615,-1.433411 v -4.242788 a 1.5836962,1.5836962 0 0 0 -1.525753,-1.58267 1.5836962,1.5836962 0 0 0 -0.648114,0.113038 l -2.416528,0.970512 a 1.4856167,1.4856167 0 0 0 -0.932036,1.378485 v 0.117018 c -5.39e-4,-0.601641 -0.48509,-1.085805 -1.0868656,-1.085805 h -2.203055 c -0.602124,0 -1.086867,0.484742 -1.086867,1.086866 v -0.08677 a 1.4868491,1.4868491 0 0 0 -0.926464,-1.377158 l -2.465352,-1.00315 a 1.5474409,1.5474409 0 0 0 -0.634182,-0.113304 z m 8.2786026,6.11429 c -0.269718,0.19755 -0.6025396,0.314173 -0.9626826,0.314173 h -0.887458 a 0.58749559,0.55812082 0 0 1 0.358751,0.513979 0.58749559,0.55812082 0 0 1 -0.587481,0.55816 0.58749559,0.55812082 0 0 1 -0.587482,-0.55816 0.58749559,0.55812082 0 0 1 0.358751,-0.513979 h -0.858136 c -0.353229,0 -0.68013,-0.112195 -0.947029,-0.302896 -0.188308,0.251757 -0.435698,0.460312 -0.727585,0.604066 0.675323,2.7304574 1.704394,5.1366814 2.83485,7.2186694 -1.65478,-0.5826 -3.280113,-1.60581 -4.567707,-3.157778 l 1.968089,-2.14428 -2.658393,0.396563 C 3.0265454,10.23528 2.8543834,9.8213696 2.7307304,9.3375286 c -0.472094,0.08993 -0.940729,0.0124 -1.343459,-0.190255 v 5.2436824 c 0,0.602124 0.484742,1.086867 1.086867,1.086867 H 14.429674 c 0.602124,0 1.086867,-0.484743 1.086867,-1.086867 V 9.1747376 c -0.328017,0.154622 -0.697565,0.225894 -1.07506,0.191051 -0.190117,0.8027924 -0.447065,1.5331944 -0.738862,1.8526624 l -2.526249,-0.220239 1.953494,1.615573 c -1.287595,1.551968 -2.780916,2.207936 -4.4356956,2.790536 1.118945,-2.060788 2.1386006,-4.439231 2.8141526,-7.1353504 l -0.131746,-0.0536 C 11.034737,8.0762756 10.745854,7.8508296 10.530777,7.5703086 Z M 8.4519064,10.043488 a 0.58749559,0.55812082 0 0 1 0.587481,0.558161 0.58749559,0.55812082 0 0 1 -0.587481,0.558027 0.58749559,0.55812082 0 0 1 -0.587482,-0.558027 0.58749559,0.55812082 0 0 1 0.587482,-0.558161 z m 0,2.173734 a 0.58749559,0.55812082 0 0 1 0.587481,0.558161 0.58749559,0.55812082 0 0 1 -0.587481,0.558027 0.58749559,0.55812082 0 0 1 -0.587482,-0.558027 0.58749559,0.55812082 0 0 1 0.587482,-0.558161 z"
     class="ColorScheme-Text" />
</svg>
