<?xml version="1.0" encoding="UTF-8" standalone="no"?>
<svg
   width="64"
   height="64"
   version="1.1"
   viewBox="0 0 16.933 16.933"
   id="svg7"
   sodipodi:docname="com.github.neithern.g4music.svg"
   inkscape:version="1.4.4 (dcaf3e7d9e, 2026-05-05)"
   xmlns:inkscape="http://www.inkscape.org/namespaces/inkscape"
   xmlns:sodipodi="http://sodipodi.sourceforge.net/DTD/sodipodi-0.dtd"
   xmlns="http://www.w3.org/2000/svg"
   xmlns:svg="http://www.w3.org/2000/svg"
   xmlns:rdf="http://www.w3.org/1999/02/22-rdf-syntax-ns#"
   xmlns:cc="http://creativecommons.org/ns#"
   xmlns:dc="http://purl.org/dc/elements/1.1/">
  <sodipodi:namedview
     id="namedview7"
     pagecolor="#9c4444"
     bordercolor="#000000"
     borderopacity="0.25"
     inkscape:showpageshadow="2"
     inkscape:pageopacity="0.0"
     inkscape:pagecheckerboard="0"
     inkscape:deskcolor="#d1d1d1"
     inkscape:zoom="12.3125"
     inkscape:cx="21.319797"
     inkscape:cy="36.954315"
     inkscape:window-width="2560"
     inkscape:window-height="1392"
     inkscape:window-x="0"
     inkscape:window-y="0"
     inkscape:window-maximized="1"
     inkscape:current-layer="svg7"
     showgrid="true">
    <inkscape:grid
       id="grid19"
       units="px"
       originx="0"
       originy="0"
       spacingx="0.26457812"
       spacingy="0.26457812"
       empcolor="#0099e5"
       empopacity="0.30196078"
       color="#0099e5"
       opacity="0.14902"
       empspacing="5"
       enabled="true"
       visible="true" />
  </sodipodi:namedview>
  <defs
     id="defs2">
    <inkscape:path-effect
       effect="offset"
       id="path-effect18"
       is_visible="true"
       lpeversion="1.3"
       linejoin_type="miter"
       unit="mm"
       offset="-0.13229167"
       miter_limit="4"
       attempt_force_join="false"
       update_on_knot_move="true" />
    <style
       id="current-color-scheme"
       type="text/css">.ColorScheme-Text {color:#d8dee9} .ColorScheme-Highlight {color:#3b4252}</style>
  </defs>
  <metadata
     id="metadata2">
    <rdf:RDF>
      <cc:Work
         rdf:about="">
        <dc:format>image/svg+xml</dc:format>
        <dc:type
           rdf:resource="http://purl.org/dc/dcmitype/StillImage" />
      </cc:Work>
    </rdf:RDF>
  </metadata>
  <path
     id="path5"
     style="fill:currentColor"
     d="M 14.166815 1.4551797 L 14.166815 1.4556964 C 13.411069 1.4556964 12.798967 2.0677995 12.798967 2.8235447 C 12.800367 2.7852357 12.802835 2.7477106 12.807235 2.7098588 C 12.810035 2.7435508 12.815034 2.7761796 12.820154 2.8090756 C 12.819926 2.8100856 12.819853 2.8110661 12.819637 2.8121761 C 12.820327 2.8164061 12.822037 2.8203752 12.822737 2.8245782 C 12.831537 2.8762552 12.842027 2.9275908 12.856327 2.9770207 C 12.869937 3.0241407 12.886551 3.0691514 12.904901 3.1139605 C 12.909501 3.1252915 12.914481 3.1363795 12.919371 3.1475495 C 12.957481 3.2338665 13.005203 3.3147654 13.059411 3.390424 C 13.093881 3.438401 13.130278 3.4843707 13.170513 3.5273638 C 13.172413 3.5293838 13.173781 3.5315549 13.175681 3.5335649 C 13.188551 3.5471949 13.203611 3.5592354 13.217021 3.5723214 C 13.248621 3.6030594 13.280794 3.6325966 13.315204 3.6601696 C 13.337384 3.6779836 13.360652 3.6949053 13.383932 3.7113283 C 13.413592 3.7322173 13.443561 3.7517093 13.474881 3.7702383 C 13.503401 3.7871443 13.531389 3.8044899 13.561179 3.8193299 C 13.609549 3.8434349 13.659683 3.8655962 13.711038 3.8839242 L 13.711038 3.8844409 C 13.713438 3.8852937 13.715872 3.885708 13.718272 3.886508 C 13.738892 3.893768 13.75975 3.8998946 13.7808 3.9061446 C 13.7879 3.9082646 13.794857 3.9103357 13.801987 3.9123457 L 13.802503 3.9123457 C 13.803026 3.9124257 13.804587 3.9127827 13.805087 3.9128624 C 13.837257 3.9217324 13.869714 3.9300701 13.902754 3.9366331 C 13.908254 3.9378431 13.914187 3.9392404 13.919807 3.9402504 L 13.920323 3.9402504 L 13.92084 3.9402504 C 13.94726 3.9450904 13.974027 3.9488037 14.000937 3.9521357 C 14.002037 3.9522728 14.002937 3.9525164 14.004037 3.9526525 C 14.016027 3.9540625 14.02813 3.9556765 14.04021 3.9567865 L 14.040727 3.9567865 L 14.041244 3.9567865 L 14.041761 3.9573033 L 14.042277 3.9573033 C 14.083247 3.9611333 14.124936 3.9634043 14.166815 3.9635043 C 14.209035 3.9633975 14.25059 3.9611333 14.29187 3.9573033 C 14.29657 3.9568597 14.301052 3.9557363 14.305822 3.9552363 C 14.316602 3.9538263 14.327587 3.9525122 14.338377 3.9511022 C 14.363727 3.9478722 14.38942 3.9448304 14.41434 3.9402504 C 14.43276 3.9368204 14.450439 3.9320113 14.468599 3.9278483 C 14.489909 3.9230083 14.51123 3.9181537 14.53216 3.9123457 L 14.532677 3.9118289 L 14.533194 3.9118289 C 14.551544 3.9066889 14.569433 3.9011808 14.587453 3.8952928 C 14.599093 3.8914628 14.611082 3.8884909 14.622592 3.8844409 C 14.783373 3.8271079 14.930282 3.739868 15.057182 3.6301979 L 15.057699 3.6296812 L 15.057699 3.6291644 L 15.058216 3.6291644 L 15.058216 3.6286476 L 15.058733 3.6286476 L 15.059249 3.6281309 C 15.140609 3.5575509 15.212894 3.4773332 15.275769 3.3893905 C 15.280369 3.3829405 15.284655 3.3768646 15.289205 3.3702706 C 15.347135 3.2861716 15.396733 3.1954835 15.43493 3.0989746 C 15.43963 3.0870286 15.443925 3.0744031 15.448365 3.0622851 C 15.465705 3.0145701 15.481283 2.9666567 15.493323 2.9165604 C 15.501523 2.8824654 15.508383 2.8472548 15.513993 2.8121761 C 15.520393 2.7721531 15.525065 2.7313914 15.527945 2.6902221 C 15.460969 1.9970619 14.877582 1.4551797 14.166815 1.4551797 z M 8.2380947 1.7972709 A 6.8403108 6.8403108 0 0 0 1.3983367 8.6375456 A 6.8403108 6.8403108 0 0 0 8.2380947 15.47782 A 6.8403108 6.8403108 0 0 0 15.078369 8.6375456 A 6.8403108 6.8403108 0 0 0 14.622592 6.1819299 L 14.622592 9.2080422 A 0.45590953 0.45590953 0 0 1 14.48927 9.52998 L 12.031587 11.988696 L 11.386678 11.34327 L 13.711038 9.0189102 L 13.711038 5.103464 L 14.094986 5.103464 A 6.8403108 6.8403108 0 0 0 13.951329 4.8755754 L 13.711038 4.8755754 C 13.584491 4.8755754 13.482633 4.7742334 13.482633 4.6476868 L 13.482633 4.2461689 A 6.8403108 6.8403108 0 0 0 13.46713 4.227049 C 13.24837 4.0966 13.068987 3.9072488 12.951409 3.6803231 A 6.8403108 6.8403108 0 0 0 8.2380947 1.7972709 z M 12.951409 3.6803231 A 6.8403108 6.8403108 0 0 1 13.46713 4.227049 C 13.47233 4.230179 13.477343 4.2332905 13.482633 4.2363505 L 13.482633 4.2461689 A 6.8403108 6.8403108 0 0 1 13.951329 4.8755754 L 14.622592 4.8755754 C 14.749139 4.8755754 14.850998 4.7742334 14.850998 4.6476868 L 14.850998 4.2363505 C 15.259959 3.9998568 15.534663 3.5579673 15.534663 3.0514333 C 15.534663 3.0130433 15.533012 2.9748195 15.530012 2.9372306 C 15.483852 3.4971706 15.100791 3.9610504 14.583836 4.1262819 C 14.568096 4.1313219 14.552274 4.1357383 14.536294 4.1402343 C 14.511314 4.1471943 14.485871 4.1532514 14.460331 4.1588374 C 14.446011 4.1619674 14.431404 4.165419 14.416924 4.168139 C 14.388604 4.173379 14.360033 4.1775948 14.331143 4.1810578 C 14.318563 4.1825578 14.3061 4.1845486 14.29342 4.1857086 C 14.25168 4.1895386 14.209547 4.1919097 14.166815 4.1919097 C 14.124075 4.1919088 14.081943 4.1895286 14.04021 4.1857086 C 14.02753 4.1845486 14.015067 4.1825578 14.002487 4.1810578 C 13.973587 4.1775878 13.945036 4.173382 13.916706 4.168139 C 13.902226 4.165519 13.887619 4.1619674 13.873299 4.1588374 C 13.847759 4.1532974 13.822316 4.1472213 13.797336 4.1402343 C 13.781356 4.1357943 13.765534 4.1312779 13.749794 4.1262819 C 13.232848 3.9610444 12.849777 3.4971635 12.803618 2.9372306 C 12.800518 2.9748236 12.798967 3.0130374 12.798967 3.0514333 C 12.798967 3.2781329 12.853879 3.4920796 12.951409 3.6803231 z M 14.094986 5.103464 A 6.8403108 6.8403108 0 0 1 14.622592 6.1819299 L 14.622592 5.103464 L 14.094986 5.103464 z M 7.8515626 2.675753 L 7.8515626 3.2400485 L 7.7637144 3.2519339 C 6.4590922 3.4318048 5.318746 4.0112503 4.4570045 4.8729916 C 3.5951828 5.7348123 3.0157971 6.8767907 2.8359468 8.1812517 L 2.8240614 8.2690999 L 2.2576989 8.2690999 L 2.2732015 8.1538637 C 2.6486025 5.3060672 4.8890362 3.0665868 7.7363264 2.6912556 L 7.8515626 2.675753 z M 7.8515626 4.1381672 L 7.8515626 4.6988455 L 7.7693987 4.7127979 C 5.9669855 5.037837 4.6192264 6.428511 4.2968108 8.1853857 L 4.2813081 8.2690999 L 3.7206299 8.2690999 L 3.7402665 8.1502465 C 4.0840135 6.1363013 5.6670375 4.5043982 7.7342594 4.1578039 L 7.8515626 4.1381672 z M 8.2267261 7.6603635 C 8.2597221 7.659997 8.2933852 7.6614576 8.3269764 7.6644976 C 8.8642595 7.7129416 9.2607806 8.1857537 9.2121762 8.7212598 L 9.2111427 8.7290111 C 9.1625205 9.2645155 8.6875316 9.6595544 8.1502465 9.6111104 C 7.6129743 9.5626663 7.2164424 9.0893371 7.2650466 8.5538315 L 7.2660801 8.5465969 C 7.3116296 8.0445555 7.7316587 7.6657879 8.2267261 7.6603635 z M 11.10298 11.398046 A 0.22801177 0.22801177 0 0 1 11.264724 11.465224 L 11.909633 12.110134 A 0.22801177 0.22801177 0 0 1 11.909633 12.432071 L 10.619815 13.722406 A 0.22801177 0.22801177 0 0 1 10.29736 13.722406 L 9.6524508 13.077497 A 0.22801177 0.22801177 0 0 1 9.6524508 12.754526 L 10.942269 11.465224 A 0.22801177 0.22801177 0 0 1 11.10298 11.398046 z M 11.694663 12.890949 L 11.815067 13.010319 A 0.11402898 0.11402898 0 0 1 11.65384 13.171547 L 11.533953 13.05166 L 11.694663 12.890949 z M 9.6917241 13.360162 L 10.014179 13.682616 L 9.8136781 13.883117 A 0.22801177 0.22801177 0 1 1 9.4912235 13.561179 L 9.6917241 13.360162 z "
     class="ColorScheme-Text" />
</svg>
