<?xml version="1.0" encoding="UTF-8" standalone="no"?>
<svg
   width="64"
   height="64"
   version="1.1"
   viewBox="0 0 16.933 16.933"
   id="svg7"
   sodipodi:docname="com.dekomote.vermouth.svg"
   inkscape:version="1.4.4 (dcaf3e7d9e, 2026-05-05)"
   xmlns:inkscape="http://www.inkscape.org/namespaces/inkscape"
   xmlns:sodipodi="http://sodipodi.sourceforge.net/DTD/sodipodi-0.dtd"
   xmlns="http://www.w3.org/2000/svg"
   xmlns:svg="http://www.w3.org/2000/svg"
   xmlns:rdf="http://www.w3.org/1999/02/22-rdf-syntax-ns#"
   xmlns:cc="http://creativecommons.org/ns#"
   xmlns:dc="http://purl.org/dc/elements/1.1/">
  <sodipodi:namedview
     id="namedview7"
     pagecolor="#9c4444"
     bordercolor="#000000"
     borderopacity="0.25"
     inkscape:showpageshadow="2"
     inkscape:pageopacity="0.0"
     inkscape:pagecheckerboard="0"
     inkscape:deskcolor="#d1d1d1"
     inkscape:zoom="12.3125"
     inkscape:cx="21.319797"
     inkscape:cy="37.035533"
     inkscape:window-width="2560"
     inkscape:window-height="1392"
     inkscape:window-x="0"
     inkscape:window-y="0"
     inkscape:window-maximized="1"
     inkscape:current-layer="svg7"
     showgrid="true">
    <inkscape:grid
       id="grid19"
       units="px"
       originx="0"
       originy="0"
       spacingx="0.26457812"
       spacingy="0.26457812"
       empcolor="#0099e5"
       empopacity="0.30196078"
       color="#0099e5"
       opacity="0.14902"
       empspacing="5"
       enabled="true"
       visible="true" />
  </sodipodi:namedview>
  <defs
     id="defs2">
    <inkscape:path-effect
       effect="offset"
       id="path-effect18"
       is_visible="true"
       lpeversion="1.3"
       linejoin_type="miter"
       unit="mm"
       offset="-0.13229167"
       miter_limit="4"
       attempt_force_join="false"
       update_on_knot_move="true" />
    <style
       id="current-color-scheme"
       type="text/css">.ColorScheme-Text {color:#d8dee9} .ColorScheme-Highlight {color:#3b4252}</style>
  </defs>
  <metadata
     id="metadata2">
    <rdf:RDF>
      <cc:Work
         rdf:about="">
        <dc:format>image/svg+xml</dc:format>
        <dc:type
           rdf:resource="http://purl.org/dc/dcmitype/StillImage" />
      </cc:Work>
    </rdf:RDF>
  </metadata>
  <path
     id="path5"
     d="m 2.8245785,1.4551795 c -0.758647,0 -1.369399,0.610752 -1.369399,1.369399 V 14.108421 c 0,0.758648 0.610752,1.3694 1.369399,1.3694 H 14.108421 c 0.758647,0 1.3694,-0.610752 1.3694,-1.3694 V 2.8245785 c 0,-0.758647 -0.610753,-1.369399 -1.3694,-1.369399 z m 8.1535375,0.849027 a 0.03309846,0.03309846 0 0 1 0.01658,0.0047 l 1.654779,0.992868 a 0.03309846,0.03309846 0 0 1 0,0.05676 l -1.654779,0.992867 a 0.03309846,0.03309846 0 0 1 -0.05007,-0.0284 v -1.985681 a 0.03309846,0.03309846 0 0 1 0.0168,-0.02878 0.03309846,0.03309846 0 0 1 0.01669,-0.0043 z m -4.7516525,0.729686 a 0.06453555,0.06453555 0 0 1 0.0085,3.73e-4 0.06453555,0.06453555 0 0 1 0.04349,0.02332 l 0.776385,0.948951 a 0.60233183,0.60233183 0 0 1 0.378403,-0.133677 0.60233183,0.60233183 0 0 1 0.602268,0.602321 0.60233183,0.60233183 0 0 1 -0.21782,0.463724 l 0.148601,0.181605 H 12.147877 L 8.3781265,10.818975 a 0.1720948,0.1720948 0 0 1 0.0016,0.0237 v 3.098478 a 2.581422,0.34418957 0 0 1 2.4093395,0.34342 2.581422,0.34418957 0 0 1 -2.5814235,0.344222 2.581422,0.34418957 0 0 1 -2.581423,-0.344222 2.581422,0.34418957 0 0 1 2.409285,-0.34342 v -3.098478 a 0.1720948,0.1720948 0 0 1 0.0017,-0.0237 v -5.5e-5 L 4.2674535,5.1205115 h 3.532193 l -0.09008,-0.11014 a 0.60233183,0.60233183 0 0 1 -0.27634,0.06719 0.60233183,0.60233183 0 0 1 -0.602375,-0.602375 0.60233183,0.60233183 0 0 1 0.132446,-0.376852 l -0.784676,-0.95906 a 0.06453555,0.06453555 0 0 1 0.009,-0.09072 0.06453555,0.06453555 0 0 1 0.03878,-0.01466 z m 1.573203,2.086621 0.0528,0.06457 h 0.166735 l -0.0529,-0.06457 z m 0.219532,0.06457 0.10554,0.129023 h 3.7829105 a 0.06453555,0.06453555 0 0 0 0.06462,-0.06451 0.06453555,0.06453555 0 0 0 -0.06462,-0.06451 z m 0.10554,0.129023 h -0.166628 l 0.184708,0.22579 a 0.60233183,0.60233183 0 0 0 -0.150259,0.398142 0.60233183,0.60233183 0 0 0 0.602321,0.602268 0.60233183,0.60233183 0 0 0 0.30068,-0.0804 l 0.417773,0.510636 h 0.166628 l -0.480092,-0.586756 a 0.60233183,0.60233183 0 0 0 0.197279,-0.44575 0.60233183,0.60233183 0 0 0 -0.602268,-0.602374 0.60233183,0.60233183 0 0 0 -0.356792,0.11704 z m 1.355223,1.656438 0.6706315,0.819659 a 0.06453555,0.06453555 0 0 1 -0.009,0.09072 0.06453555,0.06453555 0 0 1 -0.09078,-0.009 L 9.3133705,6.9705815 h -3.730113 l 2.527878,3.7296845 a 0.1720948,0.1720948 0 0 1 0.09655,-0.02958 0.1720948,0.1720948 0 0 1 0.0965,0.02963 L 10.832117,6.9705785 Z m -1.521851,-1.656438 -0.105647,-0.129023 h -3.344863 a 0.06453555,0.06453555 0 0 0 -0.06451,0.06451 0.06453555,0.06453555 0 0 0 0.06451,0.06451 z m 0.0774,8.6270505 v 0.278908 h 0.344222 v -0.278908 a 2.581422,0.34418957 0 0 0 -0.172084,-7.45e-4 2.581422,0.34418957 0 0 0 -0.172138,7.45e-4 z m 0.344222,0.278908 v 0.06451 a 0.1720948,0.1720948 0 0 1 -0.01252,0.06451 h 1.9916195 a 0.06453555,0.06453555 0 0 0 0.06451,-0.06451 0.06453555,0.06453555 0 0 0 -0.06451,-0.06451 z m -0.01252,0.129023 h -0.319134 a 0.1720948,0.1720948 0 0 0 0.159567,0.107573 0.1720948,0.1720948 0 0 0 0.159567,-0.107573 z m -0.319134,0 a 0.1720948,0.1720948 0 0 1 -0.01257,-0.06451 v -0.06451 h -1.979048 a 0.06453555,0.06453555 0 0 0 -0.06457,0.06451 0.06453555,0.06453555 0 0 0 0.06457,0.06451 z M 7.4332395,4.2170905 a 0.21511851,0.2581422 0 0 0 -0.148119,0.07088 0.21511851,0.2581422 0 0 0 -0.03199,0.04611 0.21511851,0.2581422 0 0 0 -0.01246,0.02605 0.21511851,0.2581422 0 0 0 -0.01696,0.05649 0.21511851,0.2581422 0 0 0 -0.0056,0.05857 0.21511851,0.2581422 0 0 0 0.215145,0.258153 0.21511851,0.2581422 0 0 0 0.05135,-0.0078 0.21511851,0.2581422 0 0 0 0.01043,-0.0034 0.21511851,0.2581422 0 0 0 0.01498,-0.0062 0.21511851,0.2581422 0 0 0 0.01059,-0.0052 0.21511851,0.2581422 0 0 0 0.01396,-0.0083 0.21511851,0.2581422 0 0 0 0.0099,-0.0065 0.21511851,0.2581422 0 0 0 0.0146,-0.01188 0.21511851,0.2581422 0 0 0 0.0074,-0.0063 0.21511851,0.2581422 0 0 0 0.02006,-0.0214 0.21511851,0.2581422 0 0 0 0.06184,-0.181124 0.21511851,0.2581422 0 0 0 -0.215091,-0.2581 z m -2.081699,1.330402 a 0.09928546,0.09928546 0 0 0 -0.09928,0.09928 0.09928546,0.09928546 0 0 0 0.09928,0.09928 0.09928546,0.09928546 0 0 0 0.09928,-0.09928 0.09928546,0.09928546 0 0 0 -0.09928,-0.09928 z m 3.243334,0.13234 a 0.21511851,0.2581422 0 0 1 0.215092,0.258206 0.21511851,0.2581422 0 0 1 -0.215092,0.2581 0.21511851,0.2581422 0 0 1 -0.215145,-0.2581 0.21511851,0.2581422 0 0 1 0.215145,-0.258206 z m 2.0518515,0.397179 a 0.06619031,0.06619031 0 0 0 -0.06617,0.06617 0.06619031,0.06619031 0 0 0 0.06617,0.06622 0.06619031,0.06619031 0 0 0 0.06622,-0.06622 0.06619031,0.06619031 0 0 0 -0.06622,-0.06617 z m -4.4181825,1.32377 h 0.215146 l 1.075566,2.151186 z m -0.215092,4.4678765 a 0.06619031,0.06619031 0 0 1 0.06617,0.06617 0.06619031,0.06619031 0 0 1 -0.06617,0.06622 0.06619031,0.06619031 0 0 1 -0.06622,-0.06622 0.06619031,0.06619031 0 0 1 0.06622,-0.06617 z"
     style="fill:currentColor"
     class="ColorScheme-Text" />
</svg>
