<?xml version="1.0" encoding="UTF-8" standalone="no"?>
<svg
   width="64"
   height="64"
   version="1.1"
   viewBox="0 0 16.933 16.933"
   id="svg7"
   sodipodi:docname="dialog-information.svg"
   inkscape:version="1.4.4 (dcaf3e7d9e, 2026-05-05)"
   xmlns:inkscape="http://www.inkscape.org/namespaces/inkscape"
   xmlns:sodipodi="http://sodipodi.sourceforge.net/DTD/sodipodi-0.dtd"
   xmlns="http://www.w3.org/2000/svg"
   xmlns:svg="http://www.w3.org/2000/svg"
   xmlns:rdf="http://www.w3.org/1999/02/22-rdf-syntax-ns#"
   xmlns:cc="http://creativecommons.org/ns#"
   xmlns:dc="http://purl.org/dc/elements/1.1/">
  <sodipodi:namedview
     id="namedview7"
     pagecolor="#9c4444"
     bordercolor="#000000"
     borderopacity="0.25"
     inkscape:showpageshadow="2"
     inkscape:pageopacity="0.0"
     inkscape:pagecheckerboard="0"
     inkscape:deskcolor="#d1d1d1"
     inkscape:zoom="4.3531262"
     inkscape:cx="89.705646"
     inkscape:cy="34.917435"
     inkscape:window-width="2560"
     inkscape:window-height="1388"
     inkscape:window-x="0"
     inkscape:window-y="0"
     inkscape:window-maximized="1"
     inkscape:current-layer="svg7"
     showgrid="false" />
  <defs
     id="defs2">
    <style
       id="current-color-scheme"
       type="text/css">.ColorScheme-Text {color:#d8dee9} .ColorScheme-Highlight {color:#3b4252}</style>
  </defs>
  <metadata
     id="metadata2">
    <rdf:RDF>
      <cc:Work
         rdf:about="">
        <dc:format>image/svg+xml</dc:format>
        <dc:type
           rdf:resource="http://purl.org/dc/dcmitype/StillImage" />
      </cc:Work>
    </rdf:RDF>
  </metadata>
  <path
     id="path5"
     d="m 8.466498,1.4551794 c -3.893654,0 -7.011318,3.1176641 -7.011318,7.0113211 0,3.8936565 3.117664,7.0113205 7.011318,7.0113205 3.893659,0 7.011322,-3.117664 7.011322,-7.0113205 0,-3.893657 -3.117663,-7.0113211 -7.011322,-7.0113211 z m 0,2.1910372 c 0.725782,9e-7 1.314625,0.588843 1.314625,1.314623 0,0.7257819 -0.588843,1.314623 -1.314625,1.314623 -0.725778,0 -1.314621,-0.5888411 -1.314621,-1.314623 0,-0.72578 0.588843,-1.314623 1.314621,-1.314623 z M 6.686281,7.2979465 h 0.02738 2.921387 v 4.6742155 h 0.584276 c 0.324095,0 0.584277,0.260185 0.584277,0.584276 0,0.324095 -0.260186,0.584277 -0.584277,0.584277 H 6.713661 c -0.324095,0 -0.584276,-0.260186 -0.584276,-0.584277 0,-0.324095 0.260185,-0.584276 0.584276,-0.584276 H 7.297937 V 8.4665005 H 6.713661 c -0.324095,0 -0.584276,-0.260186 -0.584276,-0.584277 0,-0.314961 0.246494,-0.570582 0.556893,-0.584277 z"
     style="fill:currentColor"
     class="ColorScheme-Text" />
</svg>
