<?xml version="1.0" encoding="UTF-8" standalone="no"?>
<svg
   width="64"
   height="64"
   version="1.1"
   viewBox="0 0 16.933 16.933"
   id="svg7"
   sodipodi:docname="drawy.svg"
   inkscape:version="1.4.4 (dcaf3e7d9e, 2026-05-05)"
   xmlns:inkscape="http://www.inkscape.org/namespaces/inkscape"
   xmlns:sodipodi="http://sodipodi.sourceforge.net/DTD/sodipodi-0.dtd"
   xmlns="http://www.w3.org/2000/svg"
   xmlns:svg="http://www.w3.org/2000/svg"
   xmlns:rdf="http://www.w3.org/1999/02/22-rdf-syntax-ns#"
   xmlns:cc="http://creativecommons.org/ns#"
   xmlns:dc="http://purl.org/dc/elements/1.1/">
  <sodipodi:namedview
     id="namedview7"
     pagecolor="#9c4444"
     bordercolor="#000000"
     borderopacity="0.25"
     inkscape:showpageshadow="2"
     inkscape:pageopacity="0.0"
     inkscape:pagecheckerboard="0"
     inkscape:deskcolor="#d1d1d1"
     inkscape:zoom="12.3125"
     inkscape:cx="21.319797"
     inkscape:cy="37.116751"
     inkscape:window-width="2560"
     inkscape:window-height="1392"
     inkscape:window-x="0"
     inkscape:window-y="0"
     inkscape:window-maximized="1"
     inkscape:current-layer="svg7"
     showgrid="true">
    <inkscape:grid
       id="grid19"
       units="px"
       originx="0"
       originy="0"
       spacingx="0.26457812"
       spacingy="0.26457812"
       empcolor="#0099e5"
       empopacity="0.30196078"
       color="#0099e5"
       opacity="0.14902"
       empspacing="5"
       enabled="true"
       visible="true" />
  </sodipodi:namedview>
  <defs
     id="defs2">
    <inkscape:path-effect
       effect="offset"
       id="path-effect18"
       is_visible="true"
       lpeversion="1.3"
       linejoin_type="miter"
       unit="mm"
       offset="-0.13229167"
       miter_limit="4"
       attempt_force_join="false"
       update_on_knot_move="true" />
    <style
       id="current-color-scheme"
       type="text/css">.ColorScheme-Text {color:#d8dee9} .ColorScheme-Highlight {color:#3b4252}</style>
  </defs>
  <metadata
     id="metadata2">
    <rdf:RDF>
      <cc:Work
         rdf:about="">
        <dc:format>image/svg+xml</dc:format>
        <dc:type
           rdf:resource="http://purl.org/dc/dcmitype/StillImage" />
      </cc:Work>
    </rdf:RDF>
  </metadata>
  <path
     id="path5"
     style="fill:currentColor"
     d="m 1.6304625,1.4551795 c -0.097107,0 -0.1752829,0.078176 -0.1752829,0.1752829 V 15.302537 c 0,0.09711 0.078176,0.175283 0.1752829,0.175283 H 15.302537 c 0.09711,0 0.175283,-0.07817 0.175283,-0.175283 V 1.6304624 c 0,-0.097107 -0.07817,-0.1752829 -0.175283,-0.1752829 z M 11.407282,3.2531996 13.387433,5.23335 9.2456894,9.3750955 h -1.980152 v -1.98015 z m 0,1.1619345 -0.747007,0.7476918 0.81753,0.8182155 L 12.2255,5.23335 Z m -1.328315,1.3290014 -1.9917906,1.991105 v 0.818216 h 0.818214 L 10.897181,6.5616663 Z M 4.8464955,9.4339795 H 5.9420144 V 10.392558 H 4.8464955 c 0,0 -0.1054157,0.0065 -0.1965097,0.05203 -0.091095,0.04554 -0.145839,0.03926 -0.145839,0.290313 0,0.242674 0.051974,0.240103 0.1369381,0.285519 0.090835,0.04855 0.2054106,0.05683 0.2054106,0.05683 h 5.8884115 1.095519 c 0,0 0.305406,-0.0065 0.625132,0.153373 0.319727,0.159864 0.675797,0.576974 0.675797,1.147556 0,0.570582 -0.35607,0.987692 -0.675797,1.147556 -0.319726,0.159865 -0.625132,0.153373 -0.625132,0.153373 h -1.095519 v -0.95858 h 1.095519 c 0,0 0.105417,-0.0065 0.196509,-0.05203 0.09109,-0.04554 0.145843,-0.03926 0.145843,-0.290313 0,-0.251057 -0.05475,-0.244767 -0.145843,-0.290313 -0.09109,-0.04554 -0.196509,-0.05203 -0.196509,-0.05203 H 10.734907 4.8464955 c 0,0 -0.3240807,0.0083 -0.6573113,-0.169805 -0.3117021,-0.166618 -0.6436181,-0.579587 -0.6436181,-1.131126 0,-0.570585 0.3560663,-0.9876935 0.6757967,-1.1475555 0.3197267,-0.159861 0.6251327,-0.153373 0.6251327,-0.153373 z"
     class="ColorScheme-Text" />
</svg>
