<?xml version="1.0" encoding="UTF-8" standalone="no"?>
<svg
   width="64"
   height="64"
   version="1.1"
   viewBox="0 0 16.933 16.933"
   id="svg7"
   sodipodi:docname="electron.svg"
   inkscape:version="1.4.4 (dcaf3e7d9e, 2026-05-05)"
   xmlns:inkscape="http://www.inkscape.org/namespaces/inkscape"
   xmlns:sodipodi="http://sodipodi.sourceforge.net/DTD/sodipodi-0.dtd"
   xmlns="http://www.w3.org/2000/svg"
   xmlns:svg="http://www.w3.org/2000/svg"
   xmlns:rdf="http://www.w3.org/1999/02/22-rdf-syntax-ns#"
   xmlns:cc="http://creativecommons.org/ns#"
   xmlns:dc="http://purl.org/dc/elements/1.1/">
  <sodipodi:namedview
     id="namedview7"
     pagecolor="#9c4444"
     bordercolor="#000000"
     borderopacity="0.25"
     inkscape:showpageshadow="2"
     inkscape:pageopacity="0.0"
     inkscape:pagecheckerboard="0"
     inkscape:deskcolor="#d1d1d1"
     inkscape:zoom="12.3125"
     inkscape:cx="31.309645"
     inkscape:cy="26.395939"
     inkscape:window-width="2560"
     inkscape:window-height="1388"
     inkscape:window-x="0"
     inkscape:window-y="0"
     inkscape:window-maximized="1"
     inkscape:current-layer="svg7"
     showgrid="false" />
  <defs
     id="defs2">
    <style
       id="current-color-scheme"
       type="text/css">.ColorScheme-Text {color:#d8dee9} .ColorScheme-Highlight {color:#3b4252}</style>
  </defs>
  <metadata
     id="metadata2">
    <rdf:RDF>
      <cc:Work
         rdf:about="">
        <dc:format>image/svg+xml</dc:format>
        <dc:type
           rdf:resource="http://purl.org/dc/dcmitype/StillImage" />
      </cc:Work>
    </rdf:RDF>
  </metadata>
  <path
     id="path5"
     style="fill:currentColor;fill-opacity:1;stroke-width:0.44118"
     d="m 8.4675335,1.4551798 c -0.656467,0 -1.193186,0.5342612 -1.193186,1.1916351 0,0.6573748 0.535812,1.1931854 1.193186,1.1931854 0.340816,0 0.648244,-0.1453314 0.865563,-0.3767139 0.383016,0.3256934 0.7677865,0.8749373 1.0634795,1.6050384 0.401953,0.9895776 0.653693,2.2890678 0.653693,3.7071943 0,1.1562209 -0.167496,2.2327659 -0.446991,3.1279129 l -0.03204,0.104384 c 0.04377,0.0073 0.08716,0.01392 0.130222,0.02016 0.329661,0.04794 0.637225,0.06404 0.914654,0.05478 0.290445,-0.976126 0.455262,-2.1065277 0.455262,-3.3051586 0,-1.5318786 -0.267863,-2.9585682 -0.728624,-4.0932096 C 10.937284,3.684972 10.366329,2.8674684 9.6379775,2.4240988 9.5324405,1.8740155 9.0480075,1.4563028 8.4675295,1.4551848 Z m 0,0.7813323 c 0.116016,0 0.217015,0.04541 0.290932,0.1193702 0.07392,0.073961 0.118854,0.1751252 0.118854,0.2909326 0,0.1157497 -0.04477,0.2180566 -0.118854,0.2924828 -0.07408,0.074426 -0.175412,0.1193703 -0.290932,0.1193703 -0.115787,0 -0.216919,-0.044971 -0.290933,-0.1193703 -0.07402,-0.074398 -0.11937,-0.1766755 -0.11937,-0.2924828 0,-0.1157496 0.04538,-0.2169441 0.11937,-0.2909326 0.07399,-0.073987 0.175183,-0.1193702 0.290933,-0.1193702 z m -3.385257,1.9223254 v 0.012403 c -0.258425,0.015956 -0.517725,0.051408 -0.773064,0.1100681 -0.70797,0.1706016 -1.308007,0.5333789 -1.65568,1.1337587 -0.509234,0.88292 -0.300598,1.9791362 0.287315,3.0049254 l 0.06408,0.1126524 c 0.07344,-0.1070288 0.150306,-0.213212 0.23047,-0.3178042 0.141116,-0.1842967 0.294472,-0.3675273 0.458877,-0.548793 -0.362114,-0.7336782 -0.389606,-1.3318761 -0.155543,-1.7373274 0.176364,-0.305566 0.497371,-0.5283956 1.010772,-0.6521437 0.509829,-0.1231707 1.196278,-0.1273498 1.964182,0.012402 l 0.191199,0.034622 h 5.17e-4 c 0.06041,-0.033668 0.120845,-0.067213 0.181381,-0.099733 h 5.16e-4 l 0.157094,-0.8774485 -0.35036,-0.063044 C 6.2577235,4.2038392 5.8385935,4.1622601 5.4398705,4.1603878 Z m 6.3224865,0.00982 c 0.06467,0.1354953 0.125952,0.2742692 0.183448,0.4159871 0.08031,0.1977699 0.154831,0.4040376 0.223238,0.6175212 0.811799,0.054685 1.338872,0.3303026 1.572482,0.7348244 0.176287,0.3041916 0.20788,0.6923267 0.05942,1.1968026 -0.147926,0.5031062 -0.484011,1.0958999 -0.986482,1.6892697 l -0.121953,0.1436576 c -9.87e-4,0.072052 -0.003,0.1439468 -0.0052,0.2154865 v 5.167e-4 L 13.00718,9.75322 13.236619,9.481924 C 13.803391,8.8123854 14.222913,8.1050698 14.424674,7.4211065 14.630426,6.7236217 14.614388,6.0226429 14.268614,5.4238517 13.767808,4.555559 12.740067,4.1867806 11.582526,4.1712396 Z M 9.7594185,4.3903453 c -0.994011,0.2365753 -2.057318,0.6618971 -3.098458,1.2629472 -1.347849,0.7784563 -2.46241,1.73958 -3.215244,2.7227776 -0.666724,0.8698947 -1.082525,1.7962489 -1.068648,2.6633509 -0.302255,0.221213 -0.489892,0.576812 -0.490916,0.962196 0,0.657602 0.536974,1.191118 1.193185,1.191118 0.656439,0 1.190085,-0.535587 1.190085,-1.191118 0,-0.542783 -0.36522,-1.004763 -0.864013,-1.147711 0.04943,-0.512493 0.326558,-1.1738572 0.849544,-1.8556639 0.655218,-0.8561766 1.669184,-1.7393333 2.917594,-2.4597497 1.028399,-0.5932908 2.070788,-0.9935304 3.0049255,-1.1937021 l 0.03928,-0.00827 C 10.195342,5.2793963 10.173472,5.2230831 10.151123,5.1680618 10.032799,4.8759088 9.8993295,4.6155777 9.7594225,4.3903467 Z m -1.292402,3.317045 A 1.1321298,1.1321298 0 0 0 7.3353245,8.8395966 1.1321298,1.1321298 0 0 0 8.4670165,9.971805 1.1321298,1.1321298 0 0 0 9.5992245,8.8395966 1.1321298,1.1321298 0 0 0 8.4670165,7.7073883 Z m -3.858087,1.2712132 c -0.04977,0.060458 -0.09769,0.1208011 -0.143657,0.180864 -0.180087,0.2347751 -0.328185,0.4662023 -0.445959,0.686766 0.70092,0.7399725 1.59871,1.4455105 2.636479,2.0447965 1.308846,0.756042 2.660846,1.234293 3.8617035,1.408671 1.028439,0.14883 1.988549,0.08172 2.731563,-0.276463 0.176529,0.106726 0.382085,0.169495 0.606152,0.169495 0.656695,0 1.191636,-0.534907 1.191636,-1.191118 0,-0.656211 -0.534033,-1.193186 -1.191636,-1.193186 -0.65763,0 -1.191635,0.536948 -1.191635,1.193186 0,0.05372 0.0038,0.106742 0.01085,0.15761 -0.48371,0.185812 -1.186996,0.249639 -2.011724,0.129705 C 9.6130075,12.137117 8.3799315,11.706704 7.1673775,11.006347 6.1502125,10.41911 5.2875095,9.7242629 4.6492315,9.0230443 Z m -1.529592,2.6111585 c 0.115578,0 0.217313,0.04511 0.290933,0.11937 0.07362,0.07426 0.117303,0.176238 0.117303,0.292483 0,0.116246 -0.04378,0.217109 -0.117303,0.290932 -0.07352,0.07381 -0.175126,0.118854 -0.290933,0.118854 -0.231499,0 -0.413403,-0.179204 -0.413403,-0.409786 0,-0.230698 0.181827,-0.411853 0.413403,-0.411853 z m 10.7758735,0 c 0.231155,0 0.411853,0.180279 0.411853,0.411853 0,0.115787 -0.04497,0.216921 -0.11937,0.290932 -0.0744,0.07401 -0.176676,0.118854 -0.292483,0.118854 -0.116016,0 -0.217019,-0.0449 -0.290932,-0.118854 -0.07391,-0.07396 -0.118853,-0.175125 -0.118853,-0.290932 0,-0.11575 0.04477,-0.218059 0.118853,-0.292483 0.07408,-0.07442 0.175412,-0.11937 0.290932,-0.11937 z m -7.6743155,0.327105 -0.836108,0.296617 0.120921,0.334857 c 0.295914,0.827463 0.698579,1.547784 1.191635,2.065466 0.501252,0.527324 1.114755,0.864013 1.806572,0.864013 0.994812,0 1.8260805,-0.693276 2.4163435,-1.675317 l 0.111101,-0.184481 c -0.169432,-0.01286 -0.340776,-0.03197 -0.512619,-0.05684 -0.192242,-0.02792 -0.38797,-0.06369 -0.5865165,-0.106451 -0.454933,0.681431 -0.959606,1.003536 -1.428309,1.003536 -0.352696,0 -0.704827,-0.166959 -1.068647,-0.548793 -0.362224,-0.380551 -0.70661,-0.971068 -0.969431,-1.704773 l -0.06356,-0.178281 c -0.06093,-0.03632 -0.121436,-0.07253 -0.181382,-0.109553 z"
     class="ColorScheme-Text" />
</svg>
