<?xml version="1.0" encoding="UTF-8" standalone="no"?>
<svg
   width="64"
   height="64"
   version="1.1"
   viewBox="0 0 16.933 16.933"
   id="svg7"
   sodipodi:docname="etcher.svg"
   inkscape:version="1.4.4 (dcaf3e7d9e, 2026-05-05)"
   xmlns:inkscape="http://www.inkscape.org/namespaces/inkscape"
   xmlns:sodipodi="http://sodipodi.sourceforge.net/DTD/sodipodi-0.dtd"
   xmlns="http://www.w3.org/2000/svg"
   xmlns:svg="http://www.w3.org/2000/svg"
   xmlns:rdf="http://www.w3.org/1999/02/22-rdf-syntax-ns#"
   xmlns:cc="http://creativecommons.org/ns#"
   xmlns:dc="http://purl.org/dc/elements/1.1/">
  <sodipodi:namedview
     id="namedview7"
     pagecolor="#9c4444"
     bordercolor="#000000"
     borderopacity="0.25"
     inkscape:showpageshadow="2"
     inkscape:pageopacity="0.0"
     inkscape:pagecheckerboard="0"
     inkscape:deskcolor="#d1d1d1"
     inkscape:zoom="4.3531262"
     inkscape:cx="89.705646"
     inkscape:cy="34.687715"
     inkscape:window-width="2560"
     inkscape:window-height="1388"
     inkscape:window-x="0"
     inkscape:window-y="0"
     inkscape:window-maximized="1"
     inkscape:current-layer="svg7"
     showgrid="false" />
  <defs
     id="defs2">
    <style
       id="current-color-scheme"
       type="text/css">.ColorScheme-Text {color:#d8dee9} .ColorScheme-Highlight {color:#3b4252}</style>
  </defs>
  <metadata
     id="metadata2">
    <rdf:RDF>
      <cc:Work
         rdf:about="">
        <dc:format>image/svg+xml</dc:format>
        <dc:type
           rdf:resource="http://purl.org/dc/dcmitype/StillImage" />
      </cc:Work>
    </rdf:RDF>
  </metadata>
  <path
     id="path5"
     style="fill:currentColor"
     d="m 8.4983175,1.4551998 c -0.305942,-0.00134 -0.612763,0.064002 -0.846581,0.1966062 l -4.695075,2.6629879 c -0.181288,0.102827 -0.348735,0.2646414 -0.487114,0.4538572 l 1.153717,0.6675809 a 0.50269408,0.49892901 0 0 1 0.03766,-0.056243 c 0.123781,-0.1568008 0.287894,-0.3139827 0.475864,-0.4206005 l 1.738645,-0.9864548 1.738645,-0.9844986 c 0.266384,-0.1510793 0.586707,-0.2125479 0.877882,-0.2112784 0.288764,0.00127 0.608964,0.062559 0.875924,0.2171473 l 3.4601725,2.0037211 c 0.171544,0.099336 0.318402,0.2403957 0.43087,0.3760951 a 0.50269408,0.49892901 0 0 1 0.04598,0.065046 l 1.15322,-0.6675807 C 14.328899,4.6030803 14.177258,4.4587897 14.013074,4.3637008 L 11.677763,3.0119105 9.3419635,1.659142 C 9.1093505,1.5244419 8.8042595,1.456544 8.4983175,1.4551998 Z m -0.0083,1.8203197 c -0.226623,-9.843e-4 -0.4533,0.047515 -0.626495,0.1457428 l -1.739134,0.9859658 -1.739135,0.9864548 c -0.12033,0.068253 -0.231807,0.1720003 -0.327676,0.2934422 l 0.07385,0.043038 3.28802,1.9024832 c 0.444923,0.257626 0.814278,0.695477 1.0471,1.187952 0.232792,-0.492398 0.602667,-0.930325 1.047589,-1.187952 l 3.2875305,-1.9024831 0.06896,-0.040104 C 12.782437,5.583678 12.683306,5.4921877 12.575696,5.4298741 L 9.1155245,3.4266422 C 8.9432195,3.3268651 8.7166175,3.2765153 8.4900035,3.2755195 Z M 14.71981,5.2220193 13.560713,5.8925346 a 0.50269408,0.49892901 0 0 1 0.0406,0.088033 c 0.05452,0.1555006 0.09957,0.3414643 0.09879,0.5301522 l -0.0098,1.9885595 -0.0098,1.9866037 c -0.0026,0.570292 -0.38341,1.223062 -0.883751,1.506826 l -1.738644,0.984497 -1.7386445,0.986455 c -0.154417,0.08754 -0.325929,0.139284 -0.475377,0.169219 a 0.50269408,0.49892901 0 0 1 -0.09781,0.0094 l 0.0063,1.327827 c 0.193167,-0.02931 0.376789,-0.08405 0.528685,-0.170197 l 4.6950755,-2.662988 c 0.467635,-0.265219 0.849086,-0.914595 0.851471,-1.449115 l 0.01223,-2.6840177 0.01174,-2.6830394 C 14.852693,5.6286662 14.803138,5.421336 14.719774,5.2220835 Z m -12.4996595,0.00391 c -0.07042,0.1802644 -0.11419,0.3648294 -0.11496,0.537976 l -0.01223,2.684017 -0.01174,2.6830407 c -0.0024,0.534598 0.373041,1.187124 0.838267,1.456451 l 2.3358,1.352279 2.3358,1.35228 c 0.167594,0.09702 0.373117,0.157978 0.589329,0.185847 l 0.0063,-1.328316 a 0.50269408,0.49892901 0 0 1 -0.08558,-0.0074 c -0.173191,-0.03052 -0.367475,-0.08739 -0.537488,-0.185811 l -3.459683,-2.002254 c -0.50116,-0.29011 -0.873139,-0.937266 -0.870545,-1.512694 l 0.0098,-1.9885607 0.0079,-1.9885597 c 7.33e-4,-0.1657077 0.03297,-0.3262952 0.07923,-0.4699966 a 0.50269408,0.49892901 0 0 1 0.04499,-0.09977 z m 10.9072465,0.9170068 -0.06261,0.036681 -3.2855735,1.9019952 c -0.546336,0.316338 -1.049903,1.187026 -1.051502,1.816895 2e-6,0.0035 10e-4,0.0072 9.47e-4,0.01076 l -4.9e-4,0.1755757 0.01614,3.558476 c 0.118177,-0.02367 0.230936,-0.05924 0.325721,-0.112975 l 1.7391345,-0.985966 1.738645,-0.986454 c 0.346391,-0.196452 0.629119,-0.67758 0.6309,-1.07351 l 0.0093,-1.9875817 0.0083,-1.9880713 c 5.23e-4,-0.1174739 -0.02576,-0.2421516 -0.06896,-0.3653356 z m -9.3167895,0.00342 c -0.03488,0.1083758 -0.0553,0.2174623 -0.05575,0.3208302 l -0.0093,1.987581 -0.0088,1.9880717 c -0.0018,0.395983 0.27651,0.879402 0.621119,1.078889 l 3.460173,2.003233 c 0.10682,0.06184 0.235153,0.102259 0.370715,0.126178 l 0.01663,-3.566788 -4.89e-4,-0.1750887 c -1.6e-5,-0.0035 9.46e-4,-0.0072 9.46e-4,-0.01076 -0.0016,-0.629866 -0.505171,-1.500554 -1.051506,-1.816893 L 3.8687785,6.179619 Z"
     class="ColorScheme-Text" />
</svg>
