<?xml version="1.0" encoding="UTF-8" standalone="no"?>
<svg
   width="64"
   height="64"
   version="1.1"
   viewBox="0 0 16.933 16.933"
   id="svg7"
   sodipodi:docname="GammaRay.svg"
   inkscape:version="1.4.4 (dcaf3e7d9e, 2026-05-05)"
   xmlns:inkscape="http://www.inkscape.org/namespaces/inkscape"
   xmlns:sodipodi="http://sodipodi.sourceforge.net/DTD/sodipodi-0.dtd"
   xmlns="http://www.w3.org/2000/svg"
   xmlns:svg="http://www.w3.org/2000/svg"
   xmlns:rdf="http://www.w3.org/1999/02/22-rdf-syntax-ns#"
   xmlns:cc="http://creativecommons.org/ns#"
   xmlns:dc="http://purl.org/dc/elements/1.1/">
  <sodipodi:namedview
     id="namedview7"
     pagecolor="#9c4444"
     bordercolor="#000000"
     borderopacity="0.25"
     inkscape:showpageshadow="2"
     inkscape:pageopacity="0.0"
     inkscape:pagecheckerboard="0"
     inkscape:deskcolor="#d1d1d1"
     inkscape:zoom="4.3531262"
     inkscape:cx="89.705646"
     inkscape:cy="34.917435"
     inkscape:window-width="2560"
     inkscape:window-height="1388"
     inkscape:window-x="0"
     inkscape:window-y="0"
     inkscape:window-maximized="1"
     inkscape:current-layer="svg7"
     showgrid="false" />
  <defs
     id="defs2">
    <style
       id="current-color-scheme"
       type="text/css">.ColorScheme-Text {color:#d8dee9} .ColorScheme-Highlight {color:#3b4252}</style>
  </defs>
  <metadata
     id="metadata2">
    <rdf:RDF>
      <cc:Work
         rdf:about="">
        <dc:format>image/svg+xml</dc:format>
        <dc:type
           rdf:resource="http://purl.org/dc/dcmitype/StillImage" />
      </cc:Work>
    </rdf:RDF>
  </metadata>
  <path
     id="path5"
     style="fill:currentColor"
     d="m 13.792119,1.4551803 -2.476806,0.74581 1.125364,1.446151 c 0.458982,-0.725277 0.912289,-1.453621 1.351442,-2.191961 z m -2.254441,0.0121 c -0.08303,0.182826 -0.165813,0.357788 -0.248723,0.535785 l 1.254638,-0.377817 z m -0.389858,0.83956 c -0.22376,0.468636 -0.445458,0.938084 -0.665477,1.408232 l 1.744835,-0.02127 z m -5.8741638,1.432193 c -0.112408,0.003 -0.230139,0.01221 -0.353376,0.0281 -0.606789,0.119368 -1.3263102,0.474146 -1.6711522,1.691041 -0.071986,0.267377 -0.1032022,0.514764 -0.1082473,0.7518 l 0.5733449,0.440117 c 0.082004,-1.141616 0.7863323,-1.616877 1.4846106,-1.649527 1.626947,0.07074 1.937498,2.665689 2.354182,4.788038 l 0.550462,-1.173826 c -0.227685,-1.447895 -0.279681,-2.872555 -1.200365,-4.184502 -0.31721,-0.428427 -0.842598,-0.71215 -1.629459,-0.691237 z m 7.0128868,0.151199 -1.738965,0.02115 0.945471,1.222888 c 0.264961,-0.414786 0.52999,-0.829036 0.793494,-1.244035 z m -1.930599,0.09549 c -0.190106,0.407612 -0.3790698,0.815774 -0.5671138,1.224446 l 1.4894018,-0.03151 z m 0.98369,1.388763 -1.5115668,0.03205 0.6208488,1.374446 c 0.294884,-0.471061 0.592561,-0.939294 0.890718,-1.406496 z m -1.6848108,0.127297 c -0.227784,0.496401 -0.454326,0.993534 -0.680214,1.49138 l 1.2886028,-0.14443 z m -6.5107676,0.942656 c 0.00723,0.15462 0.024016,0.306015 0.045947,0.45707 l 0.3877013,-0.124182 z m 0.4700098,0.514458 -0.3951293,0.126578 c 0.019748,0.117564 0.04158,0.235642 0.063379,0.355533 z m 6.6702336,0.0859 -1.4045178,0.157429 c -0.715397,1.578593 -1.424556,3.1640827 -2.143918,4.7548507 -0.264402,0.643115 -1.119637,2.269029 -0.534587,3.123055 0.223428,0.405733 1.210161,0.608598 1.765502,0.07734 0.552803,-0.64046 0.665176,-1.68449 0.65164,-2.859296 l -0.815838,0.567714 c -0.06761,0.711703 -0.162655,1.469826 -0.569631,1.524926 -0.865945,-0.134988 0.284447,-2.213325 0.581432,-3.010495 0.755092,-1.5055747 1.598386,-2.9346467 2.4699178,-4.3355197 z m -1.7524428,3.1913467 -0.583589,1.179697 0.663501,0.555852 c -0.01604,-0.564526 -0.05369,-1.152607 -0.07991,-1.735549 z m -0.654935,1.377021 c -0.01589,0.310196 -0.02837,0.656683 -0.05314,0.997768 l 0.679615,-0.472885 z"
     class="ColorScheme-Text" />
</svg>
