<?xml version="1.0" encoding="UTF-8" standalone="no"?>
<svg
   width="64"
   height="64"
   version="1.1"
   viewBox="0 0 16.933 16.933"
   id="svg7"
   sodipodi:docname="gimp.svg"
   inkscape:version="1.4.4 (dcaf3e7d9e, 2026-05-05)"
   xmlns:inkscape="http://www.inkscape.org/namespaces/inkscape"
   xmlns:sodipodi="http://sodipodi.sourceforge.net/DTD/sodipodi-0.dtd"
   xmlns="http://www.w3.org/2000/svg"
   xmlns:svg="http://www.w3.org/2000/svg"
   xmlns:rdf="http://www.w3.org/1999/02/22-rdf-syntax-ns#"
   xmlns:cc="http://creativecommons.org/ns#"
   xmlns:dc="http://purl.org/dc/elements/1.1/">
  <sodipodi:namedview
     id="namedview7"
     pagecolor="#9c4444"
     bordercolor="#000000"
     borderopacity="0.25"
     inkscape:showpageshadow="2"
     inkscape:pageopacity="0.0"
     inkscape:pagecheckerboard="0"
     inkscape:deskcolor="#d1d1d1"
     inkscape:zoom="3.078125"
     inkscape:cx="177.21827"
     inkscape:cy="12.345178"
     inkscape:window-width="2560"
     inkscape:window-height="1388"
     inkscape:window-x="0"
     inkscape:window-y="0"
     inkscape:window-maximized="1"
     inkscape:current-layer="svg7"
     showgrid="false" />
  <defs
     id="defs2">
    <style
       id="current-color-scheme"
       type="text/css">.ColorScheme-Text {color:#d8dee9} .ColorScheme-Highlight {color:#3b4252}</style>
  </defs>
  <metadata
     id="metadata2">
    <rdf:RDF>
      <cc:Work
         rdf:about="">
        <dc:format>image/svg+xml</dc:format>
        <dc:type
           rdf:resource="http://purl.org/dc/dcmitype/StillImage" />
      </cc:Work>
    </rdf:RDF>
  </metadata>
  <path
     id="path5"
     class="ColorScheme-Text"
     d="m 14.429478,2.4334454 c -0.08371,-0.003 -0.165323,0.028982 -0.190926,0.1057967 -0.585213,1.1704271 -1.75564,2.6334592 -3.97945,3.2771942 C 9.7909309,5.4067872 9.1471969,5.1141799 8.4449415,5.1141799 c -0.6437349,0 -1.2874699,0.2926073 -1.7556394,0.7022564 C 6.3381733,5.4653086 5.8114823,5.2897443 5.2847903,5.2897443 4.6410553,4.7630522 4.3484491,4.0607968 4.1143633,3.5341048 v -0.05852 C 4.0558429,3.3000211 3.8802785,3.3585415 3.8802785,3.5341048 V 5.7579149 C 3.5291508,6.0505211 3.2365435,6.5186917 3.1195017,6.9868623 3.295065,7.0453827 3.4121079,7.1624266 3.5876723,7.2794696 3.7047141,6.4016498 4.465492,5.7579149 5.3433117,5.7579149 c 0.4096492,0 0.8192983,0.1755643 1.1119045,0.4096491 0.117043,0.05852 0.2340859,0.2340858 0.3511277,0.3511277 0.1170429,-0.1755633 0.2340859,-0.2926062 0.3511277,-0.4096492 0.3511288,-0.3511276 0.8778197,-0.526692 1.4045118,-0.526692 0.9363415,0 1.6971186,0.5852135 1.9897266,1.4045118 0.05852,0.2340858 0.117041,0.4681706 0.117041,0.7022564 0,0.1170418 -0.05852,0.2926062 -0.05852,0.4096491 -0.175564,0.9948616 -1.0533851,1.6971181 -2.0482476,1.6971181 -0.8192983,0 -1.5215536,-0.4681706 -1.8726813,-1.1119056 -0.3511288,0.3511287 -0.8192994,0.5852135 -1.3459904,0.5852135 -0.1170429,0 -0.2340858,-0.05852 -0.3511287,-0.05852 0,0.1170429 0.05852,0.2340858 0.05852,0.3511277 0.05852,0.5852135 -0.05852,1.2289485 -0.526691,1.6971175 -0.2340858,0.175565 -0.4681706,0.292607 -0.7022564,0.351129 1.1119055,0.87782 2.867545,1.521554 5.6180461,1.521554 1.1119063,0 1.9897263,-0.234085 2.6919823,-0.526692 -0.468171,-0.351128 -0.87782,-0.643734 -1.170426,-0.936341 -0.234086,-0.175564 -0.40965,-0.351128 -0.526692,-0.46817 -0.05852,-0.05852 -0.117043,-0.175565 -0.175565,-0.234086 -0.9363412,0.468171 -2.0482468,0.643735 -3.1016309,0.585213 H 6.8648643 C 6.7478214,11.493006 6.6307795,11.375962 6.6307795,11.258919 6.6892999,11.141877 6.8063429,11.024834 6.9233858,11.024834 H 7.215992 c 1.2289485,0.05852 2.3993749,-0.234084 3.394238,-0.877819 h -0.05852 c -0.175565,0 -0.234086,-0.1755651 -0.175565,-0.2926071 0,-0.175564 0.175565,-0.234085 0.292606,-0.175564 0.409651,0.117043 0.702257,0.4681711 0.8193,0.8192981 v 0.117043 c 0.05852,0 0.05852,0.05852 0.117042,0.05852 0.409649,0.234084 0.994862,0.526692 1.580076,0.936341 1.638596,-1.9897251 1.814161,-5.5595259 1.463032,-9.0122834 0,-0.098757 -0.111096,-0.1604593 -0.218723,-0.1643172 z M 5.4603536,6.6357335 c 0.2340858,0.05852 0.4096491,0.2926062 0.4096491,0.5852135 0,0.3511277 -0.2926062,0.5852125 -0.5852124,0.5852125 -0.2340858,0 -0.4681706,-0.1755633 -0.5852135,-0.4096492 v 0.2340859 c 0,0.526692 0.4681706,0.9948616 0.9948626,0.9948616 0.5852125,0 0.9948627,-0.4681696 0.9948627,-0.9948616 0,-0.5852135 -0.4681706,-0.9948627 -0.9948627,-0.9948627 z m 3.2771942,0.1170429 c 0.2926062,0.05852 0.526692,0.3511277 0.526692,0.6437339 0,0.3511277 -0.2926073,0.7022565 -0.7022564,0.7022565 -0.3511277,0 -0.7022554,-0.2926073 -0.7022554,-0.7022565 V 7.2794685 C 7.7426851,7.4550318 7.6841637,7.6891176 7.6841637,7.9232024 c 0.05852,0.643735 0.5852135,1.170426 1.2289484,1.170426 0.6437338,0 1.1704259,-0.526691 1.1704259,-1.170426 0,-0.6437339 -0.5266921,-1.170426 -1.1704259,-1.170426 z M 1.861293,7.1258498 C 1.4955352,7.1039073 1.1590376,7.1916879 0.89569158,7.3965103 0.25195663,7.9817239 0.48604248,9.2106713 1.3638622,10.205534 c 0.8778197,0.994863 2.1067672,1.287469 2.7505011,0.702255 l 0.1755643,-0.175563 c 0.1755644,-0.175564 0.2340859,-0.351129 0.2926063,-0.526692 0,-0.3511281 -0.05852,-0.7607769 -0.2340848,-1.170426 C 4.2314062,8.7425007 3.9973214,8.4498945 3.7632356,8.1572882 L 3.5876723,7.9817239 C 3.4121079,7.8061595 3.1780231,7.6305962 3.0024588,7.5135533 2.6220698,7.2794685 2.2270508,7.1477955 1.861293,7.1258498 Z m -0.2048246,0.329182 c 0.4096492,0 0.7022554,0.3511277 0.7022554,0.8192983 0,0.4681706 -0.2926062,0.8192983 -0.7022554,0.8192983 -0.4096491,0 -0.70225532,-0.3511277 -0.70225532,-0.8192983 0,-0.4681706 0.29260622,-0.8192983 0.70225532,-0.8192983 z M 10.60895,10.530738 c -0.03295,0.0016 -0.05724,0.02592 -0.05724,0.02592 v 0.05852 c 0.05852,0.05852 0.117042,0.117043 0.175563,0.234085 l 0.117043,0.117043 c 0.351128,0.292606 0.936341,0.760777 1.638597,1.287469 0.117043,0.117042 0.292607,0.234085 0.409649,0.351127 0.643735,0.409649 1.228948,0.8193 1.697119,1.053384 -0.409649,1.053384 1.814161,0.819299 1.814161,0.819299 0,0 -0.877821,-2.048246 -1.580076,-1.287469 -0.40965,-0.292606 -0.936342,-0.760777 -1.580076,-1.170426 -0.117042,-0.05852 -0.234085,-0.175565 -0.351128,-0.234086 -0.760777,-0.526692 -1.521554,-0.936341 -1.931203,-1.111905 -0.05852,0 -0.05852,-0.05852 -0.117043,-0.05852 -0.05852,0 -0.117043,-0.05852 -0.175564,-0.05852 -0.01828,-0.01828 -0.03658,-0.02513 -0.05307,-0.02592 -0.0022,-1.07e-4 -0.0045,-1.07e-4 -0.0067,0 z"
     style="fill:currentColor;fill-opacity:1;stroke-width:0.585212" />
</svg>
