<?xml version="1.0" encoding="UTF-8" standalone="no"?>
<svg
   width="64"
   height="64"
   version="1.1"
   viewBox="0 0 16.933 16.933"
   id="svg7"
   sodipodi:docname="git.svg"
   inkscape:version="1.4.3 (0d15f75042, 2025-12-25)"
   xmlns:inkscape="http://www.inkscape.org/namespaces/inkscape"
   xmlns:sodipodi="http://sodipodi.sourceforge.net/DTD/sodipodi-0.dtd"
   xmlns="http://www.w3.org/2000/svg"
   xmlns:svg="http://www.w3.org/2000/svg"
   xmlns:rdf="http://www.w3.org/1999/02/22-rdf-syntax-ns#"
   xmlns:cc="http://creativecommons.org/ns#"
   xmlns:dc="http://purl.org/dc/elements/1.1/">
  <sodipodi:namedview
     id="namedview7"
     pagecolor="#9c4444"
     bordercolor="#000000"
     borderopacity="0.25"
     inkscape:showpageshadow="2"
     inkscape:pageopacity="0.0"
     inkscape:pagecheckerboard="0"
     inkscape:deskcolor="#d1d1d1"
     inkscape:zoom="12.3125"
     inkscape:cx="15.878172"
     inkscape:cy="34.436548"
     inkscape:window-width="2560"
     inkscape:window-height="1388"
     inkscape:window-x="0"
     inkscape:window-y="0"
     inkscape:window-maximized="1"
     inkscape:current-layer="svg7"
     showgrid="false" />
  <defs
     id="defs2">
    <style
       id="current-color-scheme"
       type="text/css">.ColorScheme-Text {color:#d8dee9} .ColorScheme-Highlight {color:#3b4252}</style>
  </defs>
  <metadata
     id="metadata2">
    <rdf:RDF>
      <cc:Work
         rdf:about="">
        <dc:format>image/svg+xml</dc:format>
        <dc:type
           rdf:resource="http://purl.org/dc/dcmitype/StillImage" />
      </cc:Work>
    </rdf:RDF>
  </metadata>
  <path
     d="m 8.4489665,1.4551815 q -0.368094,0 -0.631019,0.262924 l -1.279566,1.279566 1.612604,1.612604 q 0.297981,-0.10517 0.595962,-0.03506 0.297981,0.07011 0.517085,0.289217 0.219104,0.219103 0.280453,0.517084 0.06135,0.297981 -0.02629,0.595963 l 1.5424905,1.54249 q 0.297981,-0.08764 0.595962,-0.02629 0.297981,0.06135 0.525849,0.289217 0.315509,0.315509 0.315509,0.762481 0,0.446971 -0.315509,0.753717 -0.315509,0.306745 -0.762481,0.306745 -0.446972,0 -0.762481,-0.297981 -0.227868,-0.245396 -0.289217,-0.560906 -0.06135,-0.315509 0.06135,-0.61349 L 8.9748195,6.6786135 v 3.8211695 q 0.157755,0.07011 0.280453,0.192812 0.315509,0.315509 0.315509,0.762481 0,0.446971 -0.315509,0.762481 -0.31551,0.315509 -0.762481,0.315509 -0.446972,0 -0.753717,-0.315509 -0.306745,-0.315511 -0.306745,-0.762481 0,-0.446972 0.315509,-0.762481 0.140226,-0.140227 0.350566,-0.227868 V 6.6084995 q -0.21034,-0.07011 -0.350566,-0.227868 -0.245396,-0.227867 -0.306745,-0.552141 -0.06135,-0.324274 0.06135,-0.622255 l -1.577547,-1.595075 -4.206793,4.206792 q -0.262924,0.262925 -0.262924,0.639783 0,0.376859 0.262924,0.639783 l 6.117377,6.1173765 q 0.262925,0.262925 0.639783,0.262925 0.376859,0 0.639783,-0.262925 L 15.214895,9.1150465 q 0.262925,-0.262924 0.262925,-0.639783 0,-0.376858 -0.262925,-0.639783 L 9.0975185,1.7181035 q -0.262924,-0.262924 -0.648547,-0.262924 z"
     id="path5"
     style="fill:currentColor"
     class="ColorScheme-Text" />
</svg>
