<?xml version="1.0" encoding="UTF-8" standalone="no"?>
<svg
   width="64"
   height="64"
   version="1.1"
   viewBox="0 0 16.933 16.933"
   id="svg7"
   sodipodi:docname="github-copilot.svg"
   inkscape:version="1.4.3 (0d15f75042, 2025-12-25)"
   xmlns:inkscape="http://www.inkscape.org/namespaces/inkscape"
   xmlns:sodipodi="http://sodipodi.sourceforge.net/DTD/sodipodi-0.dtd"
   xmlns="http://www.w3.org/2000/svg"
   xmlns:svg="http://www.w3.org/2000/svg"
   xmlns:rdf="http://www.w3.org/1999/02/22-rdf-syntax-ns#"
   xmlns:cc="http://creativecommons.org/ns#"
   xmlns:dc="http://purl.org/dc/elements/1.1/">
  <sodipodi:namedview
     id="namedview7"
     pagecolor="#9c4444"
     bordercolor="#000000"
     borderopacity="0.25"
     inkscape:showpageshadow="2"
     inkscape:pageopacity="0.0"
     inkscape:pagecheckerboard="0"
     inkscape:deskcolor="#d1d1d1"
     inkscape:zoom="4.3531262"
     inkscape:cx="89.590787"
     inkscape:cy="35.147155"
     inkscape:window-width="2560"
     inkscape:window-height="1388"
     inkscape:window-x="0"
     inkscape:window-y="0"
     inkscape:window-maximized="1"
     inkscape:current-layer="svg7"
     showgrid="false" />
  <defs
     id="defs2">
    <style
       id="current-color-scheme"
       type="text/css">.ColorScheme-Text {color:#d8dee9} .ColorScheme-Highlight {color:#3b4252}</style>
  </defs>
  <metadata
     id="metadata2">
    <rdf:RDF>
      <cc:Work
         rdf:about="">
        <dc:format>image/svg+xml</dc:format>
        <dc:type
           rdf:resource="http://purl.org/dc/dcmitype/StillImage" />
      </cc:Work>
    </rdf:RDF>
  </metadata>
  <path
     id="path5"
     d="m 8.4665002,2.0174575 c -0.912788,0 -3.12548,0.178888 -4.792031,1.944717 -0.875271,0.922399 -1.241299,2.182768 -1.395952,3.948597 -0.409979,0 -0.795107,0.09297 -1.053565,0.443699 l -0.48318195,0.653769 a 1.0959341,1.0959341 0 0 0 -0.212614,0.648683 v 1.7791545 c 6.56e-4,0.229809 0.114622,0.453843 0.299877,0.589459 1.54873095,1.136891 4.59469695,2.890006 7.63746695,2.890006 2.7499888,0 5.4496588,-1.288472 7.6375278,-2.890067 0.185224,-0.135585 0.299195,-0.35962 0.299816,-0.589398 V 9.6568625 c 0,-0.233623 -0.0745,-0.458934 -0.213281,-0.647351 L 15.707381,8.3544705 C 15.448303,8.0018195 15.065763,7.9107715 14.654543,7.9107715 14.499859,6.1449425 14.132561,4.8845735 13.25853,3.9621745 11.592011,2.1963765 9.3793182,2.0174575 8.4665002,2.0174575 Z m -2.413183,1.740762 c 0.453137,0.0134 0.830839,0.112123 1.024194,0.283526 0.238088,0.197967 0.396623,0.664533 0.416994,1.229785 0.01975,0.704713 -0.159182,1.399227 -0.446909,1.676753 -0.655011,0.665213 -1.448189,0.754294 -1.865145,0.754294 -0.545502,0 -1.051553,-0.178825 -1.31953,-0.446182 -0.367316,-0.377485 -0.506106,-2.163039 0.138736,-2.867721 0.297896,-0.317646 0.882898,-0.545563 1.57738,-0.614953 0.16376,-0.01496 0.323234,-0.01997 0.47428,-0.0155 z m 4.8264258,0 c 0.151046,-0.0045 0.310519,5.39e-4 0.47428,0.0155 0.694481,0.06939 1.279484,0.297307 1.57738,0.614953 0.644842,0.704682 0.506052,2.490236 0.138735,2.867721 -0.267976,0.267357 -0.774026,0.446182 -1.31959,0.446182 -0.416924,0 -1.210724,-0.08911 -1.8650847,-0.754294 -0.2877265,-0.277557 -0.4666581,-0.972071 -0.4469081,-1.676753 0.02037,-0.565252 0.1789057,-1.031818 0.4169933,-1.229785 0.1933545,-0.171403 0.5710575,-0.270128 1.0241945,-0.283526 z m -2.4131828,1.731678 c 0.158498,0 0.34691,0.01023 0.555729,0.02998 -0.01975,0.108827 -0.02995,0.227844 -0.04015,0.357042 0,0.08914 3.1e-5,0.178934 0.01023,0.277591 -0.198618,-0.01972 -0.367316,-0.01974 -0.525813,-0.01974 -0.158498,0 -0.327196,2.2e-5 -0.525814,0.01974 0.0096,-0.09866 0.0095,-0.188452 0.0095,-0.277591 -0.0095,-0.129198 -0.01973,-0.248215 -0.03948,-0.357042 0.208167,-0.01975 0.397291,-0.02998 0.555789,-0.02998 z m 0.0013,1.410002 a 6.601029,6.601029 0 0 1 0.634633,0.03373 c 0.08148,0.303632 0.201139,0.577407 0.376845,0.75181 0.6957518,0.694482 1.5321768,0.802073 1.9803238,0.802073 0.42204,0 0.862588,-0.08913 1.223487,-0.315742 0.342481,0.112672 0.671596,0.271797 0.692586,0.67666 h -0.0013 c 0.05476,1.141326 0.07068,2.2878325 0.05093,3.4298085 -0.0013,0.222181 -0.13558,0.428409 -0.337361,0.52006 -1.641064,0.747965 -3.1936301,1.124779 -4.6201708,1.124779 -1.429083,0 -2.981711,-0.376814 -4.624046,-1.124779 -0.201781,-0.09165 -0.335439,-0.297879 -0.337361,-0.52006 0.0064,-0.38192 0.0076,-0.764539 0.0089,-1.146459 0.0032,-0.760708 0.0064,-1.5220215 0.04263,-2.2833495 0.02229,-0.402941 0.349499,-0.564639 0.690709,-0.67666 0.36093,0.227236 0.802719,0.315742 1.224759,0.315742 0.448146,0 1.285812,-0.10756 1.980324,-0.802073 0.175054,-0.174403 0.295363,-0.448178 0.376844,-0.75181 0.231049,-0.02291 0.448169,-0.03373 0.637238,-0.03373 z m -1.671001,2.723838 c -0.356496,0 -0.645474,0.289009 -0.645474,0.6454745 v 1.189756 c 0,0.356496 0.289009,0.645474 0.645474,0.645474 0.356495,0 0.645473,-0.289009 0.645473,-0.645474 v -1.189756 c 0,-0.3564655 -0.288978,-0.6454745 -0.645473,-0.6454745 z m 3.3069388,0 c -0.3558449,0 -0.6448078,0.289009 -0.6448078,0.6454745 v 1.189756 c 0,0.356465 0.2889318,0.645474 0.6448078,0.645474 0.356464,0 0.645473,-0.288978 0.645473,-0.645474 v -1.189756 c 0,-0.3564655 -0.288978,-0.6454745 -0.645473,-0.6454745 z"
     style="fill:currentColor"
     class="ColorScheme-Text" />
</svg>
