<?xml version="1.0" encoding="UTF-8" standalone="no"?>
<svg
   width="64"
   height="64"
   version="1.1"
   viewBox="0 0 16.933 16.933"
   id="svg7"
   sodipodi:docname="gpu-screen-recorder.svg"
   inkscape:version="1.4.4 (dcaf3e7d9e, 2026-05-05)"
   xmlns:inkscape="http://www.inkscape.org/namespaces/inkscape"
   xmlns:sodipodi="http://sodipodi.sourceforge.net/DTD/sodipodi-0.dtd"
   xmlns="http://www.w3.org/2000/svg"
   xmlns:svg="http://www.w3.org/2000/svg"
   xmlns:rdf="http://www.w3.org/1999/02/22-rdf-syntax-ns#"
   xmlns:cc="http://creativecommons.org/ns#"
   xmlns:dc="http://purl.org/dc/elements/1.1/">
  <sodipodi:namedview
     id="namedview7"
     pagecolor="#9c4444"
     bordercolor="#000000"
     borderopacity="0.25"
     inkscape:showpageshadow="2"
     inkscape:pageopacity="0.0"
     inkscape:pagecheckerboard="0"
     inkscape:deskcolor="#d1d1d1"
     inkscape:zoom="12.3125"
     inkscape:cx="61.401015"
     inkscape:cy="41.664975"
     inkscape:window-width="2560"
     inkscape:window-height="1388"
     inkscape:window-x="0"
     inkscape:window-y="0"
     inkscape:window-maximized="1"
     inkscape:current-layer="svg7"
     showgrid="true">
    <inkscape:grid
       id="grid17"
       units="px"
       originx="0"
       originy="0"
       spacingx="0.26457812"
       spacingy="0.26457812"
       empcolor="#0099e5"
       empopacity="0.30196078"
       color="#0099e5"
       opacity="0.14902"
       empspacing="5"
       enabled="true"
       visible="true" />
  </sodipodi:namedview>
  <defs
     id="defs2">
    <style
       id="current-color-scheme"
       type="text/css">.ColorScheme-Text {color:#d8dee9} .ColorScheme-Highlight {color:#3b4252}</style>
  </defs>
  <metadata
     id="metadata2">
    <rdf:RDF>
      <cc:Work
         rdf:about="">
        <dc:format>image/svg+xml</dc:format>
        <dc:type
           rdf:resource="http://purl.org/dc/dcmitype/StillImage" />
      </cc:Work>
    </rdf:RDF>
  </metadata>
  <path
     id="path5"
     style="fill:currentColor"
     d="m 4.710417,1.4551797 c -1.680212,0 -3.06487,1.274342 -3.237649,2.9094829 h 0.508145 0.676385 c 1.124532,0 1.157091,1.5024257 0,1.5024257 H 1.95597 1.455162 V 10.98815 H 1.95597 2.657298 c 1.124532,0 1.157091,1.502425 0,1.502425 H 1.971131 1.470323 c 0.137722,1.672701 1.534782,2.987245 3.24254,2.987245 h 7.512129 c 1.707758,0 3.105307,-1.314544 3.24303,-2.987245 h -0.50081 c 0,0 0,0 -0.0029,0 h -0.635791 c -1.157091,0 -1.124532,-1.502425 0,-1.502425 h 0.648508 v 0.0025 h 0.500809 V 5.694446 h -0.500843 v -0.00245 h -0.648508 c -1.157091,0 -1.124532,-1.5024258 0,-1.5024258 l 0.0025,0.00245 h 0.593244 0.0054 0.503254 C 15.182404,2.642017 13.842662,1.4551797 12.222547,1.4551797 Z m -0.04744,0.5081447 h 0.0025 7.604563 c 0.415672,0 0.751213,0.311391 0.751213,0.696926 V 3.0084688 H 3.911765 V 2.6602504 c 0,-0.385535 0.335542,-0.696926 0.751212,-0.696926 z M 3.198211,2.7145372 c 0.270488,0 0.491027,0.2205913 0.491027,0.4910272 0,0.2704365 -0.220539,0.4905382 -0.491027,0.4905382 -0.27049,0 -0.491028,-0.2201017 -0.491028,-0.4905382 0,-0.2704359 0.220538,-0.4910272 0.491028,-0.4910272 z m 10.576647,0 c 0.270488,0 0.491027,0.2205913 0.491027,0.4910272 0,0.2704365 -0.220539,0.4905382 -0.491027,0.4905382 -0.270489,0 -0.491028,-0.2201017 -0.491028,-0.4905382 0,-0.2704359 0.220539,-0.4910272 0.491028,-0.4910272 z m -9.863093,1.199691 h 9.106989 v 3.2048816 h 0.576126 v 0.4582594 h -0.328167 v 0.566344 H 13.018754 V 13.021217 H 3.911765 V 8.1461586 H 3.663806 V 7.5773692 H 3.338085 V 7.1191098 h 0.57368 z m 0,3.2048816 v 1.0270488 h 0.297844 v 0.4528797 h 0.435762 v 0.6837212 h 0.06505 V 7.1191098 Z m 0.798652,0 h 7.51213 V 4.7104355 h -7.51213 z m 7.51213,0 v 2.1660949 h 0.06749 V 8.6044179 h 0.433316 V 8.1437132 h 0.295399 V 7.1191098 Z m 0,2.1660949 h -0.590798 v 0.227907 H 11.083012 V 9.6231528 H 10.539654 V 9.3957346 H 9.881364 V 9.1727183 H 9.338006 V 8.6044179 H 9.012286 V 8.1407789 H 7.923124 v 0.455814 H 7.594958 V 9.1727183 H 7.046709 V 9.4006255 H 6.390866 V 9.6231528 H 5.844573 V 9.5131117 H 5.298769 V 9.2827595 H 4.710417 v 2.9398055 h 7.51213 z M 5.096784,7.9231423 V 8.4665 H 5.639652 V 7.9231423 Z M 5.639652,8.4665 V 9.0093688 H 6.18301 V 8.4665 Z m 0.543358,0 H 6.725879 V 7.9231423 H 6.18301 Z m 0.542869,0 V 9.0093688 H 7.268747 V 8.4665 Z M 9.440711,7.9231423 V 8.4665 h 0.54287 V 7.9231423 Z M 9.983581,8.4665 v 0.5428688 h 0.542868 V 8.4665 Z m 0.542868,0 h 0.543357 V 7.9231423 h -0.543357 z m 0.543357,0 v 0.5428688 h 0.54287 V 8.4665 Z M 5.397073,9.9997373 c 0.03766,0.00102 0.07581,0.01565 0.107106,0.04695 l 1.417328,1.417328 c 0.100162,0.100162 0.03025,0.270457 -0.112486,0.270457 H 5.391694 c -0.08764,0 -0.157971,-0.07033 -0.157971,-0.157971 v -1.417326 c 0,-0.09813 0.0805,-0.1616905 0.16335,-0.1594377 z M 3.198211,13.251569 c 0.270488,0 0.491027,0.220592 0.491027,0.491027 0,0.270437 -0.220539,0.490539 -0.491027,0.490539 -0.27049,0 -0.491028,-0.2201 -0.491028,-0.490539 0,-0.270436 0.220538,-0.491027 0.491028,-0.491027 z m 10.574201,0.0025 c 0.270489,0 0.491028,0.220591 0.491028,0.491027 0,0.270437 -0.220539,0.490539 -0.491028,0.490538 -0.270489,0 -0.491027,-0.220101 -0.491027,-0.490538 0,-0.270436 0.220538,-0.491027 0.491027,-0.491027 z m -9.860647,0.54727 h 9.106989 v 0.469019 c 0,0.385535 -0.337987,0.699372 -0.753658,0.699372 H 4.730469 c -0.450727,0 -0.818704,-0.339155 -0.818704,-0.759528 z"
     class="ColorScheme-Text" />
</svg>
