<?xml version="1.0" encoding="UTF-8" standalone="no"?>
<svg
   width="64"
   height="64"
   version="1.1"
   viewBox="0 0 16.933 16.933"
   id="svg7"
   sodipodi:docname="gramps.svg"
   inkscape:version="1.4.4 (dcaf3e7d9e, 2026-05-05)"
   xmlns:inkscape="http://www.inkscape.org/namespaces/inkscape"
   xmlns:sodipodi="http://sodipodi.sourceforge.net/DTD/sodipodi-0.dtd"
   xmlns="http://www.w3.org/2000/svg"
   xmlns:svg="http://www.w3.org/2000/svg"
   xmlns:rdf="http://www.w3.org/1999/02/22-rdf-syntax-ns#"
   xmlns:cc="http://creativecommons.org/ns#"
   xmlns:dc="http://purl.org/dc/elements/1.1/">
  <sodipodi:namedview
     id="namedview7"
     pagecolor="#9c4444"
     bordercolor="#000000"
     borderopacity="0.25"
     inkscape:showpageshadow="2"
     inkscape:pageopacity="0.0"
     inkscape:pagecheckerboard="0"
     inkscape:deskcolor="#d1d1d1"
     inkscape:zoom="12.3125"
     inkscape:cx="23.959391"
     inkscape:cy="37.360406"
     inkscape:window-width="2560"
     inkscape:window-height="1388"
     inkscape:window-x="0"
     inkscape:window-y="0"
     inkscape:window-maximized="1"
     inkscape:current-layer="svg7"
     showgrid="false" />
  <defs
     id="defs2">
    <style
       id="current-color-scheme"
       type="text/css">.ColorScheme-Text {color:#d8dee9} .ColorScheme-Highlight {color:#3b4252}</style>
  </defs>
  <metadata
     id="metadata2">
    <rdf:RDF>
      <cc:Work
         rdf:about="">
        <dc:format>image/svg+xml</dc:format>
        <dc:type
           rdf:resource="http://purl.org/dc/dcmitype/StillImage" />
      </cc:Work>
    </rdf:RDF>
  </metadata>
  <path
     id="path5"
     style="fill:currentColor"
     d="m 12.011412,1.4551808 c -0.07048,0 -0.12829,0.036219 -0.163033,0.070988 -0.03474,0.034771 -0.05592,0.071397 -0.0746,0.1100923 -0.03735,0.077392 -0.06278,0.1677876 -0.08483,0.2761334 -0.03411,0.1676879 -0.05703,0.37643 -0.06557,0.6088166 H 10.825664 A 0.15402436,0.15402436 0 0 0 10.671655,2.6752205 V 4.4114309 H 10.287234 C 10.2761,4.2286513 10.255606,4.0638371 10.227675,3.9265433 10.205634,3.8181977 10.180198,3.7278016 10.14285,3.6504101 c -0.01867,-0.038696 -0.03985,-0.075322 -0.0746,-0.1100924 -0.03474,-0.03477 -0.092558,-0.070989 -0.1630328,-0.070989 H 6.6782505 c -0.070475,0 -0.1282901,0.036219 -0.163033,0.070989 -0.034743,0.034771 -0.055925,0.071396 -0.074598,0.1100924 -0.037347,0.077392 -0.062784,0.1677876 -0.084825,0.2761332 -0.044083,0.2166918 -0.069184,0.5019386 -0.069184,0.8181725 0,0.3162344 0.0251,0.6008795 0.069184,0.817571 0.022042,0.1083461 0.047478,0.1993431 0.084825,0.2767351 0.018672,0.038695 0.039855,0.07472 0.074598,0.1094904 0.034743,0.03477 0.092557,0.070989 0.163033,0.070989 h 3.2269687 c 0.070475,0 0.1282898,-0.036219 0.1630328,-0.070989 0.03474,-0.034771 0.05593,-0.070795 0.0746,-0.1094904 0.03735,-0.077392 0.06278,-0.1683891 0.08483,-0.2767351 0.04408,-0.2166915 0.06918,-0.5013366 0.06918,-0.817571 0,-0.00823 3.4e-5,-0.016476 0,-0.024666 h 0.374795 v 1.7362104 a 0.15402436,0.15402436 0 0 0 0.154009,0.154009 h 0.794109 c 0.0028,0.2938128 0.02772,0.5577945 0.06918,0.7616224 0.02204,0.108346 0.04748,0.1993436 0.08483,0.2767349 0.01867,0.038695 0.03986,0.07472 0.0746,0.1094905 0.03474,0.03477 0.09256,0.070989 0.163033,0.070989 h 3.226968 c 0.07048,0 0.12829,-0.036219 0.163034,-0.070989 0.03474,-0.034771 0.05593,-0.070795 0.0746,-0.1094905 0.03735,-0.077392 0.06278,-0.1683891 0.08483,-0.2767349 0.04408,-0.2166916 0.06918,-0.5013369 0.06918,-0.8175711 0,-0.316234 -0.0251,-0.6014808 -0.06918,-0.8181727 -0.02204,-0.108346 -0.04748,-0.1987419 -0.08483,-0.2761335 -0.01867,-0.038696 -0.03986,-0.075322 -0.0746,-0.1100925 -0.03474,-0.03477 -0.09256,-0.070989 -0.163033,-0.070989 h -3.226969 c -0.07048,0 -0.12829,0.036219 -0.163033,0.070989 -0.03474,0.034771 -0.05592,0.071397 -0.0746,0.1100924 -0.03735,0.077391 -0.06278,0.167787 -0.08482,0.2761325 -0.03201,0.1573555 -0.05412,0.3508326 -0.06377,0.5661036 H 10.979673 V 4.5660409 a 0.15402436,0.15402436 0 0 0 0,-6.161e-4 V 2.8292295 h 0.640701 c 0.0047,0.2766794 0.02914,0.5250014 0.06858,0.718909 0.02204,0.1083461 0.04748,0.1993432 0.08483,0.2767348 0.01867,0.038695 0.03986,0.074721 0.0746,0.1094905 0.03474,0.034769 0.09256,0.070988 0.163033,0.070988 h 3.226968 c 0.07048,0 0.12829,-0.036219 0.163033,-0.070988 0.03474,-0.034771 0.05592,-0.070795 0.0746,-0.1094905 0.03735,-0.077391 0.06278,-0.1683892 0.08483,-0.2767348 0.04408,-0.2166919 0.06918,-0.5013368 0.06918,-0.817571 0,-0.316234 -0.0251,-0.6014808 -0.06918,-0.8181725 -0.02204,-0.1083458 -0.04748,-0.1987416 -0.08483,-0.2761334 -0.01867,-0.038696 -0.03986,-0.075322 -0.0746,-0.1100923 -0.03474,-0.03477 -0.09256,-0.070988 -0.163033,-0.070988 z M 5.8955721,4.541376 A 0.15402436,0.15402436 0 0 0 5.7415631,4.695385 V 8.2556389 H 5.3150304 v 0.024065 0.283954 0.024065 h 0.4265327 v 3.5596521 a 0.15402436,0.15402436 0 0 0 0.154009,0.154009 H 6.2817976 V 11.993366 H 6.049581 V 8.4337149 8.4096494 4.8493954 H 6.2817976 V 4.5413775 Z M 1.6946168,7.1529105 c -0.070475,0 -0.12829,0.036219 -0.1630329,0.070989 -0.034743,0.034771 -0.055924,0.071397 -0.074598,0.1100924 -0.037347,0.077392 -0.062783,0.1677874 -0.084825,0.2761334 -0.044082,0.2166915 -0.069184,0.5019385 -0.069184,0.8181725 0,0.3162343 0.025101,0.6008792 0.069184,0.8175707 0.022041,0.108346 0.047478,0.1993434 0.084825,0.2767351 0.018674,0.038695 0.039855,0.074721 0.074598,0.1094904 0.034743,0.03477 0.092557,0.070989 0.1630329,0.070989 h 3.226969 c 0.070475,0 0.1282898,-0.036218 0.163033,-0.070989 0.034743,-0.034771 0.055924,-0.070795 0.074597,-0.1094904 0.037347,-0.077392 0.062783,-0.1683892 0.084826,-0.2767351 0.044082,-0.2166915 0.069184,-0.5013367 0.069184,-0.8175707 0,-0.316234 -0.0251,-0.601481 -0.069184,-0.8181725 C 5.2220008,7.5017792 5.1965645,7.4113835 5.1592163,7.3339919 5.1405439,7.2952969 5.1193616,7.2586699 5.0846188,7.2238995 5.0498756,7.1891295 4.992061,7.1529105 4.9215858,7.1529105 Z M 12.011412,9.1032898 c -0.07048,0 -0.12829,0.036218 -0.163033,0.070988 -0.03474,0.034771 -0.05592,0.071397 -0.0746,0.1100923 -0.03735,0.077392 -0.06278,0.1677879 -0.08483,0.2761334 -0.03572,0.1756091 -0.05924,0.396242 -0.06678,0.6419045 h -0.796513 a 0.15402436,0.15402436 0 0 0 -0.154009,0.154009 v 1.73621 H 10.29625 c -0.0039,-0.284258 -0.02825,-0.539902 -0.06858,-0.73816 -0.02204,-0.108345 -0.04748,-0.198741 -0.08483,-0.276133 -0.01867,-0.0387 -0.03986,-0.07532 -0.0746,-0.110092 -0.03474,-0.03477 -0.092558,-0.07099 -0.1630331,-0.07099 H 6.6782505 c -0.070475,0 -0.1282901,0.03622 -0.163033,0.07099 -0.034743,0.03477 -0.055925,0.0714 -0.074598,0.110092 -0.037347,0.07739 -0.062784,0.167787 -0.084825,0.276133 -0.044083,0.216692 -0.069184,0.501939 -0.069184,0.818173 0,0.316233 0.0251,0.600879 0.069184,0.81757 0.022042,0.108351 0.047478,0.199343 0.084825,0.276735 0.018672,0.0387 0.039855,0.07472 0.074598,0.109491 0.034743,0.03477 0.092557,0.07099 0.163033,0.07099 h 3.2269687 c 0.070475,0 0.1282898,-0.03622 0.1630328,-0.07099 0.03474,-0.03477 0.05593,-0.07079 0.0746,-0.109491 0.03735,-0.0774 0.06278,-0.168389 0.08483,-0.276735 0.03263,-0.160395 0.05502,-0.358023 0.06437,-0.578135 h 0.379608 v 1.735609 a 0.15402436,0.15402436 0 0 0 0.154009,0.15401 h 0.79471 c 0.0047,0.276678 0.02914,0.525 0.06858,0.718909 0.02204,0.108349 0.04748,0.199343 0.08483,0.276735 0.01867,0.0387 0.03986,0.07472 0.0746,0.109491 0.03474,0.03477 0.09256,0.07099 0.163033,0.07099 h 3.226969 c 0.07048,0 0.12829,-0.03622 0.163033,-0.07099 0.03474,-0.03477 0.05593,-0.07079 0.0746,-0.109491 0.03735,-0.0774 0.06278,-0.168389 0.08483,-0.276735 0.04408,-0.216692 0.06918,-0.501337 0.06918,-0.817571 0,-0.316235 -0.0251,-0.601481 -0.06918,-0.818173 -0.02204,-0.108351 -0.04748,-0.198742 -0.08483,-0.276134 -0.01867,-0.0387 -0.03986,-0.07532 -0.0746,-0.110097 -0.03474,-0.03477 -0.09256,-0.07099 -0.163033,-0.07099 h -3.226969 c -0.07048,0 -0.12829,0.03622 -0.163033,0.07099 -0.03474,0.03477 -0.05592,0.0714 -0.0746,0.110097 -0.03735,0.07739 -0.06278,0.167789 -0.08483,0.276134 -0.03411,0.167688 -0.05703,0.376429 -0.06557,0.608816 H 10.97968 v -1.735608 a 0.15402436,0.15402436 0 0 0 -0.006,-0.0061 0.15402436,0.15402436 0 0 0 0.006,-0.0055 v -1.736116 h 0.641302 c 0.006,0.263384 0.03011,0.499676 0.06798,0.685821 0.02204,0.108346 0.04748,0.199343 0.08483,0.276735 0.01867,0.03869 0.03986,0.07472 0.0746,0.109491 0.03474,0.03477 0.09256,0.07099 0.163033,0.07099 h 3.226969 c 0.07048,0 0.12829,-0.03622 0.163033,-0.07099 0.03474,-0.03477 0.05592,-0.0708 0.0746,-0.109491 0.03735,-0.07739 0.06278,-0.168389 0.08483,-0.276735 0.04408,-0.216692 0.06918,-0.501337 0.06918,-0.817571 0,-0.316234 -0.0251,-0.6014812 -0.06918,-0.8181729 -0.02204,-0.1082702 -0.04748,-0.1986663 -0.08483,-0.2760581 -0.01867,-0.038696 -0.03986,-0.075321 -0.0746,-0.1100923 -0.03474,-0.03477 -0.09256,-0.070988 -0.163033,-0.070988 z"
     class="ColorScheme-Text" />
</svg>
