<?xml version="1.0" encoding="UTF-8" standalone="no"?>
<svg
   width="64"
   height="64"
   version="1.1"
   viewBox="0 0 16.933 16.933"
   id="svg7"
   sodipodi:docname="gwenview.svg"
   inkscape:version="1.4.4 (dcaf3e7d9e, 2026-05-05)"
   xmlns:inkscape="http://www.inkscape.org/namespaces/inkscape"
   xmlns:sodipodi="http://sodipodi.sourceforge.net/DTD/sodipodi-0.dtd"
   xmlns="http://www.w3.org/2000/svg"
   xmlns:svg="http://www.w3.org/2000/svg"
   xmlns:rdf="http://www.w3.org/1999/02/22-rdf-syntax-ns#"
   xmlns:cc="http://creativecommons.org/ns#"
   xmlns:dc="http://purl.org/dc/elements/1.1/">
  <sodipodi:namedview
     id="namedview7"
     pagecolor="#9c4444"
     bordercolor="#000000"
     borderopacity="0.25"
     inkscape:showpageshadow="2"
     inkscape:pageopacity="0.0"
     inkscape:pagecheckerboard="0"
     inkscape:deskcolor="#d1d1d1"
     inkscape:zoom="4.3531262"
     inkscape:cx="89.935366"
     inkscape:cy="34.687715"
     inkscape:window-width="2560"
     inkscape:window-height="1388"
     inkscape:window-x="0"
     inkscape:window-y="0"
     inkscape:window-maximized="1"
     inkscape:current-layer="svg7"
     showgrid="false" />
  <defs
     id="defs2">
    <style
       id="current-color-scheme"
       type="text/css">.ColorScheme-Text {color:#d8dee9} .ColorScheme-Highlight {color:#3b4252}</style>
  </defs>
  <metadata
     id="metadata2">
    <rdf:RDF>
      <cc:Work
         rdf:about="">
        <dc:format>image/svg+xml</dc:format>
        <dc:type
           rdf:resource="http://purl.org/dc/dcmitype/StillImage" />
      </cc:Work>
    </rdf:RDF>
  </metadata>
  <path
     id="path5"
     style="fill:currentColor;stroke-width:1.13208"
     d="M 8.4665435,2.1325602 A 8.1521007,8.1521007 0 0 0 4.6459726,3.1057444 c -0.045204,0.023851 -0.092129,0.044459 -0.1368389,0.069129 A 8.1521007,8.1521007 0 0 0 4.0476666,3.4580266 C 3.9104043,3.5461624 3.7767081,3.6384349 3.6451559,3.7346205 A 8.1521007,8.1521007 0 0 0 3.3168892,3.9835252 C 3.0744726,4.1802936 2.8401458,4.3864906 2.6217757,4.6102403 1.6504258,5.6054491 0.92992775,6.8582457 0.57283155,8.2823205 a 8.1521007,8.1521007 0 0 0 -0.043676,0.1775763 8.1521007,8.1521007 0 0 0 0.00136,0.00374 h -7.268e-4 a 8.1521007,8.1521007 0 0 0 2.05331055,3.8154832 8.1521007,8.1521007 0 0 0 1.7075748,1.364 8.1521007,8.1521007 0 0 0 7.461e-4,0 8.1521007,8.1521007 0 0 0 4.1750406,1.15732 8.1521007,8.1521007 0 0 0 5.8818872,-2.516214 8.1521007,8.1521007 0 0 0 1.285413,-1.765812 8.1521007,8.1521007 0 0 0 0.770083,-2.0446035 8.1521007,8.1521007 0 0 0 -0.03349,-0.1106076 C 16.307254,8.1066915 16.231447,7.8565944 16.145445,7.6113045 A 8.1521007,8.1521007 0 0 0 16.014424,7.2597298 C 15.926484,7.041682 15.830084,6.8282554 15.724733,6.6206795 A 8.1521007,8.1521007 0 0 0 15.460517,6.1460873 C 15.386445,6.0216164 15.310059,5.8991578 15.229783,5.7792705 A 8.1521007,8.1521007 0 0 0 14.51581,4.8534098 8.1521007,8.1521007 0 0 0 14.07254,4.4006932 C 14.04363,4.3731162 14.01377,4.3469172 13.98446,4.3199002 A 8.1521007,8.1521007 0 0 0 8.4665084,2.1340927 Z m -0.064777,1.6369797 a 4.6072896,4.6072896 0 0 1 0.026932,0 4.6071495,4.6071495 0 0 1 0.010189,0 4.6727733,4.6727733 0 0 1 0.028381,0 v 0 a 4.6727733,4.6727733 0 0 1 0.024011,0 4.6727733,4.6727733 0 0 1 0.00577,0 4.6072896,4.6072896 0 0 1 0.053864,0 4.6072896,4.6072896 0 0 1 0.1150067,0.010053 4.6727733,4.6727733 0 0 1 0.1579466,0.017516 4.6071495,4.6071495 0 0 1 0.2962416,0.03205 4.6071495,4.6071495 0 0 1 0.0023,0 4.6071495,4.6071495 0 0 1 0.0023,0 4.6071495,4.6071495 0 0 1 0.0066,0 4.6727733,4.6727733 0 0 1 0.0051,0 4.6727733,4.6727733 0 0 1 4.0032656,4.605948 A 4.6727733,4.6727733 0 0 1 8.4673926,13.108023 4.6727733,4.6727733 0 0 1 3.7944907,8.4351066 4.6727733,4.6727733 0 0 1 3.7958492,8.4082741 4.6071495,4.6071495 0 0 0 3.8060379,8.5516765 4.6071495,4.6071495 0 0 1 3.7943435,8.3704482 4.6071495,4.6071495 0 0 1 5.1438089,5.1125135 4.6072896,4.6072896 0 0 1 6.6381193,4.1138761 4.6071495,4.6071495 0 0 1 7.2087652,3.9202753 4.6072896,4.6072896 0 0 1 8.4017388,3.7630469 Z M 11.813276,5.2951665 A 4.6072896,4.6072896 0 0 1 12.131353,5.691834 4.6071495,4.6071495 0 0 0 11.823466,5.303887 4.6071495,4.6071495 0 0 0 11.813276,5.295307 Z M 10.914359,6.0593961 A 0.97266243,0.97266243 0 0 0 9.9412034,7.0325802 0.97266243,0.97266243 0 0 0 10.914359,8.0049819 0.97266243,0.97266243 0 0 0 11.88679,7.0325802 0.97266243,0.97266243 0 0 0 10.914359,6.0593961 Z M 5.9197404,6.3207106 4.3308086,9.2969458 c 0.4189236,1.9357852 2.1296377,3.3180092 4.110262,3.3205432 1.7144724,0.01901 3.4509284,-1.388932 3.9785164,-2.6298042 L 11.119618,9.9214628 9.1099794,7.9336541 7.6360503,9.2576678 Z"
     class="ColorScheme-Text" />
</svg>
