<?xml version="1.0" encoding="UTF-8" standalone="no"?>
<svg
   width="64"
   height="64"
   version="1.1"
   viewBox="0 0 16.933 16.933"
   id="svg7"
   sodipodi:docname="hp_logo.svg"
   inkscape:version="1.4.4 (dcaf3e7d9e, 2026-05-05)"
   xmlns:inkscape="http://www.inkscape.org/namespaces/inkscape"
   xmlns:sodipodi="http://sodipodi.sourceforge.net/DTD/sodipodi-0.dtd"
   xmlns="http://www.w3.org/2000/svg"
   xmlns:svg="http://www.w3.org/2000/svg"
   xmlns:rdf="http://www.w3.org/1999/02/22-rdf-syntax-ns#"
   xmlns:cc="http://creativecommons.org/ns#"
   xmlns:dc="http://purl.org/dc/elements/1.1/">
  <sodipodi:namedview
     id="namedview7"
     pagecolor="#9c4444"
     bordercolor="#000000"
     borderopacity="0.25"
     inkscape:showpageshadow="2"
     inkscape:pageopacity="0.0"
     inkscape:pagecheckerboard="0"
     inkscape:deskcolor="#d1d1d1"
     inkscape:zoom="4.3531262"
     inkscape:cx="89.590787"
     inkscape:cy="35.147155"
     inkscape:window-width="2560"
     inkscape:window-height="1388"
     inkscape:window-x="0"
     inkscape:window-y="0"
     inkscape:window-maximized="1"
     inkscape:current-layer="svg7"
     showgrid="false" />
  <defs
     id="defs2">
    <style
       id="current-color-scheme"
       type="text/css">.ColorScheme-Text {color:#d8dee9} .ColorScheme-Highlight {color:#3b4252}</style>
  </defs>
  <metadata
     id="metadata2">
    <rdf:RDF>
      <cc:Work
         rdf:about="">
        <dc:format>image/svg+xml</dc:format>
        <dc:type
           rdf:resource="http://purl.org/dc/dcmitype/StillImage" />
      </cc:Work>
    </rdf:RDF>
  </metadata>
  <path
     style="fill:currentColor;stroke-width:0.876381"
     class="ColorScheme-Text"
     d="m 8.466461,1.4551844 c -0.140444,0 -0.277577,0.012488 -0.415938,0.020537 -0.412811,1.1777694 -0.832896,2.3804282 -1.239291,3.531205 0.574819,0.021398 1.463731,0.1076721 1.864065,0.6264727 0.188573,0.2444234 0.172177,0.6266834 0.06161,0.9243201 -0.520096,1.4589995 -1.05411,2.9144945 -1.571351,4.3733198 -0.457078,0.0064 -0.912228,-0.0038 -1.369349,0 -0.06396,-0.0013 -0.125174,0.0101 -0.186586,-0.01371 0.582435,-1.6005363 1.152882,-3.2160583 1.725333,-4.8218527 -0.272575,-0.00384 -0.542603,0.00517 -0.81647,0 -0.04147,0.087752 -0.07635,0.1856951 -0.107851,0.2772954 -0.527492,1.4802959 -1.060069,2.953582 -1.585024,4.4349303 -0.02517,0.0376 -0.01789,0.123237 -0.07701,0.123237 -0.436849,0.0013 -0.87389,-0.0026 -1.309401,0 -0.07907,-8.77e-4 -0.154523,0.0079 -0.231005,-0.01491 C 4.248984,8.0327327 5.295909,4.7714537 6.338893,1.784131 3.501431,2.6810202 1.45543,5.3248885 1.45543,8.4665417 c 0,3.2237703 2.156164,5.9183813 5.109394,6.7440213 1.14359,-3.180039 2.462107,-6.7659313 3.573972,-9.8847103 0.01126,-0.02365 0.01954,-0.082047 0.03081,-0.1061219 v -0.00167 c 0.733224,0.00772 1.485116,0.014144 2.218297,0.015402 0.239816,0.00517 0.474945,-0.026731 0.708633,0.046211 0.268733,0.072958 0.517443,0.2824561 0.599086,0.556301 0.06171,0.2140655 0.01491,0.4392775 -0.06161,0.6453061 -0.467032,1.3635627 -0.94877,2.7079317 -1.430956,4.0652721 -0.120537,0.353875 -0.669248,0.572865 -1.032112,0.585397 -0.572488,0.01123 -1.140438,0.0041 -1.711663,0.0154 -0.474789,1.322898 -1.170845,2.919403 -1.685982,4.296286 0.227858,0.02189 0.459224,0.03418 0.693217,0.03418 3.884123,0 7.011054,-3.12693 7.011054,-7.0110544 0,-3.884124 -3.126931,-7.0110541 -7.011054,-7.0110541 z M 6.564801,15.209997 c 0.195066,0.05454 0.392288,0.104296 0.593952,0.142071 -0.20083,-0.03944 -0.399228,-0.08763 -0.593952,-0.142071 z M 6.338864,1.7838276 C 6.61071,1.6978546 6.889844,1.629673 7.175546,1.5784041 6.890715,1.6311641 6.610631,1.697941 6.338864,1.7838276 Z M 7.175546,1.5784041 C 7.460278,1.5273801 7.751442,1.4930511 8.046794,1.4757006 7.751396,1.4930576 7.459791,1.5258766 7.175546,1.5784041 Z m 4.371655,4.500045 c -0.02319,-0.00254 -0.04581,-0.00351 -0.06847,0.00341 v -0.00175 c -0.01524,0.00384 -0.03498,0.018284 -0.04621,0.030805 -0.499546,1.3987929 -0.993202,2.7939926 -1.494318,4.1901569 0.275159,0.0013 0.557045,0.01898 0.83188,0 0.484742,-1.4090463 0.986806,-2.8144129 1.478892,-4.2193405 -0.210866,-0.00517 -0.419463,0.00384 -0.631607,0 -0.02252,0.00324 -0.04697,-8.765e-4 -0.07019,-0.00341 z m -4.33397,9.2826359 c 0.182843,0.03276 0.367028,0.06377 0.554581,0.08216 -0.187911,-0.01845 -0.371837,-0.04778 -0.554581,-0.08216 z"
     id="path5" />
</svg>
