<?xml version="1.0" encoding="UTF-8" standalone="no"?>
<svg
   width="64"
   height="64"
   version="1.1"
   viewBox="0 0 16.933 16.933"
   id="svg7"
   sodipodi:docname="imsprog.svg"
   inkscape:version="1.4.4 (dcaf3e7d9e, 2026-05-05)"
   xmlns:inkscape="http://www.inkscape.org/namespaces/inkscape"
   xmlns:sodipodi="http://sodipodi.sourceforge.net/DTD/sodipodi-0.dtd"
   xmlns="http://www.w3.org/2000/svg"
   xmlns:svg="http://www.w3.org/2000/svg"
   xmlns:rdf="http://www.w3.org/1999/02/22-rdf-syntax-ns#"
   xmlns:cc="http://creativecommons.org/ns#"
   xmlns:dc="http://purl.org/dc/elements/1.1/">
  <sodipodi:namedview
     id="namedview7"
     pagecolor="#9c4444"
     bordercolor="#000000"
     borderopacity="0.25"
     inkscape:showpageshadow="2"
     inkscape:pageopacity="0.0"
     inkscape:pagecheckerboard="0"
     inkscape:deskcolor="#d1d1d1"
     inkscape:zoom="12.3125"
     inkscape:cx="24"
     inkscape:cy="37.360406"
     inkscape:window-width="2560"
     inkscape:window-height="1388"
     inkscape:window-x="0"
     inkscape:window-y="0"
     inkscape:window-maximized="1"
     inkscape:current-layer="svg7"
     showgrid="false" />
  <defs
     id="defs2">
    <style
       id="current-color-scheme"
       type="text/css">.ColorScheme-Text {color:#d8dee9} .ColorScheme-Highlight {color:#3b4252}</style>
  </defs>
  <metadata
     id="metadata2">
    <rdf:RDF>
      <cc:Work
         rdf:about="">
        <dc:format>image/svg+xml</dc:format>
        <dc:type
           rdf:resource="http://purl.org/dc/dcmitype/StillImage" />
      </cc:Work>
    </rdf:RDF>
  </metadata>
  <path
     id="path5"
     style="fill:currentColor"
     d="m 13.511465,1.4597856 c -1.48735,-0.061254 -2.701541,0.4943758 -3.6269202,1.3146672 -0.916388,0.8122334 -1.54794,1.8855745 -1.879315,2.8720234 -0.127192,0.3780184 -0.210857,0.7449265 -0.250007,1.0817342 L 6.1472568,6.4391788 c -0.137308,-0.024727 -0.269184,0.066776 -0.293911,0.2042735 -0.01349,0.07624 0.0085,0.1507031 0.05365,0.2067127 l 3.209837,3.878756 c 0.08917,0.1079 0.249429,0.123503 0.357326,0.03415 l 0.02988,-0.02866 3.3787432,-3.8793659 c 0.09216,-0.1056493 0.08125,-0.2663831 -0.02439,-0.3585455 -0.05845,-0.050951 -0.133697,-0.070434 -0.204883,-0.059758 L 10.756516,6.7275997 C 10.841563,5.8747144 11.051464,4.9276879 11.615684,4.1287543 12.246777,3.2348455 13.334335,2.5119419 15.209067,2.288464 15.348249,2.272167 15.447508,2.1455107 15.431023,2.0061398 15.418286,1.8988047 15.340294,1.8147721 15.241385,1.7896711 14.630525,1.5858618 14.053203,1.4817013 13.511463,1.4597846 Z M 4.8301498,2.9897021 c -0.461227,0 -0.832338,0.3711103 -0.832338,0.8323381 V 14.644873 c 0,0.461228 0.371111,0.832947 0.832338,0.832947 h 4.995248 c 0.4612282,0 0.8323372,-0.371719 0.8323372,-0.832947 v -4.284254 l -0.7012372,0.804898 -0.06647,0.06403 -0.01769,0.01463 c -0.375094,0.310635 -0.927493,0.256377 -1.236616,-0.117681 l -3.212276,-3.8811953 -0.0025,-0.00306 c -0.153774,-0.190834 -0.228561,-0.44568 -0.182274,-0.7073305 0.08627,-0.479741 0.541199,-0.7964138 1.018928,-0.7103837 l 0.995147,0.1786631 c 0.04416,-0.1833171 0.09753,-0.3693429 0.160369,-0.5561114 0.27482,-0.8180905 0.7402,-1.6929915 1.39028,-2.4573789 z m -3.12203,0.8323381 c -0.11531,0 -0.207932,0.092624 -0.207932,0.2079318 v 0.416474 c 0,0.1153076 0.09263,0.2079319 0.207932,0.2079319 h 1.456744 V 3.8220402 Z m 11.0527172,0 c -0.259295,0.2026774 -0.465201,0.4269017 -0.634772,0.66709 -0.03822,0.054125 -0.07445,0.1090665 -0.10915,0.1652477 h 0.930511 c 0.11531,0 0.207932,-0.092624 0.207932,-0.2079319 V 4.029972 c 0,-0.1153075 -0.09263,-0.2079318 -0.207932,-0.2079318 z M 1.7081198,5.486716 c -0.11531,0 -0.207932,0.093235 -0.207932,0.2085419 v 0.415864 c 0,0.1153076 0.09263,0.208542 0.207932,0.208542 h 1.456744 V 5.486716 Z m 9.9289082,0 c -0.05297,0.1621698 -0.09686,0.3277638 -0.13354,0.4945244 l 1.055514,-0.1615893 c 0.204322,-0.030649 0.416149,0.00986 0.596357,0.1219543 V 5.6952579 c 0,-0.1153064 -0.09263,-0.2085419 -0.207932,-0.2085419 z M 1.7081198,7.1520016 c -0.11531,0 -0.207932,0.092625 -0.207932,0.2079322 v 0.4164737 c 0,0.1153075 0.09263,0.2079322 0.207932,0.2079322 h 1.456744 V 7.1520016 Z M 13.155359,7.4928638 12.7273,7.9843397 h 0.220127 c 0.11531,0 0.207932,-0.092626 0.207932,-0.2079322 z M 1.7081198,8.8172874 c -0.11531,0 -0.207932,0.092624 -0.207932,0.2079319 v 0.4164741 c 0,0.1153064 0.09263,0.2079317 0.207932,0.2079317 h 1.456744 V 8.8172874 Z m 10.2935512,0 -0.510988,0.5866 v 0.2457377 h 1.456744 c 0.11531,0 0.207932,-0.092625 0.207932,-0.2079317 V 9.0252193 c 0,-0.1153075 -0.09263,-0.2079319 -0.207932,-0.2079319 z M 1.7081198,10.481963 c -0.11531,0 -0.207932,0.09323 -0.207932,0.208542 v 0.415864 c 0,0.115309 0.09263,0.208541 0.207932,0.208541 h 1.456744 v -0.832947 z m 9.7825632,0 v 0.832947 h 1.456744 c 0.11531,0 0.207932,-0.09323 0.207932,-0.208541 v -0.415864 c 0,-0.115307 -0.09263,-0.208542 -0.207932,-0.208542 z m -9.7825632,1.665286 c -0.11531,0 -0.207932,0.09263 -0.207932,0.207932 v 0.416474 c 0,0.11531 0.09263,0.207932 0.207932,0.207932 h 1.456744 v -0.832338 z m 9.7825632,0 v 0.832338 h 1.456744 c 0.11531,0 0.207932,-0.09263 0.207932,-0.207932 v -0.416474 c 0,-0.11531 -0.09263,-0.207932 -0.207932,-0.207932 z m -9.7825632,1.665285 c -0.11531,0 -0.207932,0.09263 -0.207932,0.207932 v 0.416475 c 0,0.11531 0.09263,0.207932 0.207932,0.207932 h 1.456744 v -0.832339 z m 9.7825632,0 v 0.832339 h 1.456744 c 0.11531,0 0.207932,-0.09263 0.207932,-0.207932 v -0.416475 c 0,-0.11531 -0.09263,-0.207932 -0.207932,-0.207932 z"
     class="ColorScheme-Text" />
</svg>
