<?xml version="1.0" encoding="UTF-8" standalone="no"?>
<svg
   width="64"
   height="64"
   version="1.1"
   viewBox="0 0 16.933 16.933"
   id="svg7"
   sodipodi:docname="io.gitlab.news_flash.NewsFlash.svg"
   inkscape:version="1.4.4 (dcaf3e7d9e, 2026-05-05)"
   xmlns:inkscape="http://www.inkscape.org/namespaces/inkscape"
   xmlns:sodipodi="http://sodipodi.sourceforge.net/DTD/sodipodi-0.dtd"
   xmlns="http://www.w3.org/2000/svg"
   xmlns:svg="http://www.w3.org/2000/svg"
   xmlns:rdf="http://www.w3.org/1999/02/22-rdf-syntax-ns#"
   xmlns:cc="http://creativecommons.org/ns#"
   xmlns:dc="http://purl.org/dc/elements/1.1/">
  <sodipodi:namedview
     id="namedview7"
     pagecolor="#9c4444"
     bordercolor="#000000"
     borderopacity="0.25"
     inkscape:showpageshadow="2"
     inkscape:pageopacity="0.0"
     inkscape:pagecheckerboard="0"
     inkscape:deskcolor="#d1d1d1"
     inkscape:zoom="4.3531262"
     inkscape:cx="89.935366"
     inkscape:cy="34.687715"
     inkscape:window-width="2560"
     inkscape:window-height="1388"
     inkscape:window-x="0"
     inkscape:window-y="0"
     inkscape:window-maximized="1"
     inkscape:current-layer="svg7"
     showgrid="false" />
  <defs
     id="defs2">
    <style
       id="current-color-scheme"
       type="text/css">.ColorScheme-Text {color:#d8dee9} .ColorScheme-Highlight {color:#3b4252}</style>
  </defs>
  <metadata
     id="metadata2">
    <rdf:RDF>
      <cc:Work
         rdf:about="">
        <dc:format>image/svg+xml</dc:format>
        <dc:type
           rdf:resource="http://purl.org/dc/dcmitype/StillImage" />
      </cc:Work>
    </rdf:RDF>
  </metadata>
  <path
     id="path5"
     style="fill:currentColor"
     d="m 4.4599965,1.4551797 c -0.790171,0 -1.434066,0.6039 -1.497291,1.3772236 h -0.0051 v 0.1252022 0.5008086 2.9838215 0.5218387 1.5024258 1.0016172 0.4797785 0.5218382 3.505661 c 0,0.832343 0.670082,1.502425 1.502426,1.502425 h 3.255256 2.5040435 2.754446 c 0.554896,0 1.001617,-0.446721 1.001617,-1.001617 V 13.723279 10.970543 10.720139 10.469734 9.4681173 8.4665001 7.4648829 6.9640743 3.9592227 3.5836162 3.4584141 c 0,-0.5548959 -0.446721,-1.0016174 -1.001617,-1.0016174 h -1.252022 v 0.3756066 0.1252022 3.0048516 0.1252021 0.3756065 h 1.252022 c 0.290732,0 0.563401,0.1258285 0.751213,0.3391706 V 7.6355686 C 13.455822,7.2307902 12.995606,6.9640743 12.472933,6.9640743 H 4.4599965 c -0.522673,0 -0.982889,0.2667158 -1.252022,0.6714943 V 6.133632 c 0.27678,-0.4182227 0.746174,-0.6719835 1.252022,-0.6719835 h 1.001617 V 6.71367 h 0.250405 V 5.4616485 h 0.500808 2.253639 V 6.71367 H 10.247906 L 10.469699,6.657427 V 6.71367 h 1.001618 V 2.4567967 c 0,-0.554896 -0.446721,-1.001617 -1.001617,-1.001617 H 6.8388375 6.0876245 Z m 0,0.500808 v 3.0048522 c -0.505848,0 -0.975242,0.2537608 -1.252022,0.6719835 V 2.8324033 2.6279718 c 0.27678,-0.4182231 0.746174,-0.6719841 1.252022,-0.6719841 z m 0.250404,0 h 2.253639 v 3.0048522 h -2.253639 z m 2.504043,0 h 0.500809 0.250404 0.500809 V 4.9608399 H 7.7152525 V 3.9592227 h -0.500809 z m 2.504043,0.250405 H 10.469699 V 3.7088184 H 9.7184865 V 3.4584141 H 9.4680825 9.2176785 V 2.4567967 h 0.250404 0.250404 z m 2.2536385,0.7512128 h 0.250404 0.500809 v 2.0032344 h -0.500809 v 1.0016172 h -0.250404 z m 1.001617,0 c 0.25581,0 0.497712,0.097331 0.680053,0.2660546 0.02981,0.03355 0.05047,0.062976 0.07116,0.1095519 V 3.5836162 6.3016277 C 13.537143,6.0882855 13.264473,5.9624571 12.973742,5.9624571 Z M 8.9672735,4.0193784 H 10.469699 V 4.3568373 L 9.5453555,4.8879684 v 0.011738 H 10.469699 V 5.2396105 H 8.9672735 V 4.9055753 l 0.924344,-0.5340654 v -0.011738 h -0.924344 z m 0,1.4408028 H 10.469699 V 6.4632657 H 10.187995 V 5.8005746 H 9.8593395 V 6.3605609 H 9.5776345 V 5.8005746 h -0.328656 v 0.6626911 h -0.281705 z m -4.507277,2.5055103 h 8.0129365 c 0.522673,0 0.982889,0.2667159 1.252022,0.6714943 V 9.8072879 C 13.537143,9.5939457 13.264473,9.4681173 12.973742,9.4681173 H 11.972125 V 8.2160958 h -0.250404 v 1.2520215 0.1252022 0.2504043 0.1252021 2.3788411 c -0.02087,0.250404 -0.125202,0.460378 -0.250404,0.626011 h 0.0012 c -0.07104,0.09484 -0.155193,0.179204 -0.249916,0.250404 h 0.414239 0.836066 0.500809 c 0.282255,0 0.542195,0.09263 0.751212,0.249181 V 13.81229 C 13.541702,13.604925 13.273506,13.474586 12.973742,13.474586 H 12.472933 11.636868 6.2128265 c -0.255131,0 -0.487425,-0.09444 -0.663914,-0.250404 h 0.663914 0.125202 4.1316715 c 0.554896,0 1.001617,-0.446721 1.001617,-1.001618 v -0.751212 c 0,0.554896 -0.446721,1.001617 -1.001617,1.001617 h -4.0690705 -0.0626 -1.095519 -0.0313 -0.250404 -0.500809 c -0.523775,0 -0.983297,0.265388 -1.252021,0.669538 v -0.395658 c 0.317764,-0.323836 0.760791,-0.524285 1.252021,-0.524285 h 0.500809 0.250404 0.0313 1.095519 0.0626 4.0690705 c 0.420503,0 0.751213,-0.330709 0.751213,-0.751212 h 0.250404 V 8.2160958 H 10.074531 L 10.4697,8.3143988 V 8.6225136 L 8.9672735,8.2410382 V 8.2160952 H 8.4664655 V 8.4664995 H 6.2128265 V 8.2160952 h -0.751213 v 0.2504043 h -1.001617 c -0.461599,0 -0.892765,0.2113238 -1.174993,0.5660995 -0.04979,0.1354422 -0.07703,0.2821724 -0.07703,0.4355177 V 8.6371852 c 0.269133,-0.4047786 0.729349,-0.6714943 1.252022,-0.6714943 z m 4.994392,0.7957184 v 0.3286556 c -0.146722,0.00587 -0.225462,0.1056393 -0.225462,0.2640983 0,0.158459 0.07874,0.2259507 0.15797,0.2259507 0.09097,0 0.155524,-0.079229 0.228885,-0.3110491 l 0.0088,-0.029344 c 0.0763,-0.2494261 0.220081,-0.4342949 0.4426095,-0.4342949 0.25236,0 0.422558,0.234754 0.422558,0.5575408 0,0.3227868 -0.181445,0.5458031 -0.466085,0.5458031 V 9.5859839 c 0.111507,-0.00587 0.181934,-0.076295 0.181934,-0.2230164 0,-0.1320491 -0.05624,-0.2259507 -0.140852,-0.2259507 -0.093901,0 -0.1320495,0.1203114 -0.1907385,0.2817049 l -0.01761,0.041082 c -0.09977,0.2817048 -0.223017,0.448967 -0.466574,0.448967 -0.28464,0 -0.442609,-0.2288852 -0.442609,-0.5546063 0,-0.2993114 0.152103,-0.592754 0.507167,-0.592754 z m -4.994392,0.2058988 h 0.500808 V 11.97216 h -0.500808 c -0.08474,-1e-6 -0.168449,0.0072 -0.250405,0.02103 v -0.500809 c -0.130659,0.02205 -0.256852,0.06101 -0.375606,0.115421 v 0.500809 c -0.251432,0.115204 -0.469511,0.29905 -0.626011,0.535533 V 9.6392922 c 0.27678,-0.4182226 0.746174,-0.6719835 1.252022,-0.6719835 z m 0.751213,0 h 3.255256 V 11.97216 h -3.255256 z m 6.7609155,1.0016172 h 1.001617 c 0.290732,-1e-7 0.563401,0.1258281 0.751213,0.3391701 v 3.004852 c -0.187812,-0.213342 -0.460482,-0.33917 -0.751213,-0.33917 h -0.495429 v -0.500809 h -0.380986 -0.121289 -0.0039 z M 9.7184865,10.21933 H 10.4697 v 1.502426 H 9.7184865 v -0.250404 h -0.250404 -0.250404 v -1.001618 h 0.250404 0.250404 z m 1.7029455,2.067058 c -0.131124,0.400187 -0.506469,0.68739 -0.951732,0.68739 H 5.9624225 5.2112095 4.8356025 4.4599965 c -0.357718,0 -0.688515,0.191007 -0.867123,0.500808 -0.179089,0.309838 -0.179089,0.69178 0,1.001617 0.178608,0.309802 0.509405,0.500809 0.867123,0.500809 h 8.5137455 c 0.169391,0 0.326467,-0.09434 0.412287,-0.249427 0.08577,-0.154989 0.08577,-0.347775 0,-0.502764 -0.08582,-0.155085 -0.242896,-0.249426 -0.412287,-0.249426 H 6.2128265 c -0.468562,0 -0.859735,-0.318158 -0.970317,-0.751213 h 0.04206 c 0.147808,0.367498 0.506458,0.626011 0.928256,0.626011 h 6.7609155 c 0.215998,0 0.414965,0.12085 0.521839,0.313982 0.106928,0.19323 0.106928,0.430826 0,0.624056 -0.106874,0.193133 -0.305841,0.313983 -0.521839,0.313983 H 4.4599965 c -0.402299,0 -0.774785,-0.214921 -0.975697,-0.56341 -0.201407,-0.348451 -0.201407,-0.778368 0,-1.126819 0.200912,-0.348489 0.573398,-0.56341 0.975697,-0.56341 H 10.4697 c 0.344288,0 0.646681,-0.172121 0.82653,-0.435273 0.04474,-0.03926 0.08648,-0.08169 0.125202,-0.126914 z m -6.9614355,0.937794 h 0.500808 0.250405 c 0,0.554895 0.446721,1.001617 1.001617,1.001617 h 5.8419515 0.292953 0.626011 c 0.138724,0 0.250404,0.11168 0.250404,0.250404 0,0.138724 -0.11168,0.250405 -0.250404,0.250405 H 11.346115 5.7120185 4.4599965 c -0.416172,0 -0.751213,-0.335041 -0.751213,-0.751213 0,-0.416172 0.335041,-0.751213 0.751213,-0.751213 z"
     class="ColorScheme-Text" />
</svg>
