<?xml version="1.0" encoding="UTF-8" standalone="no"?>
<svg
   width="64"
   height="64"
   version="1.1"
   viewBox="0 0 16.933 16.933"
   id="svg7"
   sodipodi:docname="jlink.svg"
   inkscape:version="1.4.4 (dcaf3e7d9e, 2026-05-05)"
   xmlns:inkscape="http://www.inkscape.org/namespaces/inkscape"
   xmlns:sodipodi="http://sodipodi.sourceforge.net/DTD/sodipodi-0.dtd"
   xmlns="http://www.w3.org/2000/svg"
   xmlns:svg="http://www.w3.org/2000/svg"
   xmlns:rdf="http://www.w3.org/1999/02/22-rdf-syntax-ns#"
   xmlns:cc="http://creativecommons.org/ns#"
   xmlns:dc="http://purl.org/dc/elements/1.1/">
  <sodipodi:namedview
     id="namedview7"
     pagecolor="#9c4444"
     bordercolor="#000000"
     borderopacity="0.25"
     inkscape:showpageshadow="2"
     inkscape:pageopacity="0.0"
     inkscape:pagecheckerboard="0"
     inkscape:deskcolor="#d1d1d1"
     inkscape:zoom="12.3125"
     inkscape:cx="23.878173"
     inkscape:cy="37.19797"
     inkscape:window-width="2560"
     inkscape:window-height="1388"
     inkscape:window-x="0"
     inkscape:window-y="0"
     inkscape:window-maximized="1"
     inkscape:current-layer="svg7"
     showgrid="false" />
  <defs
     id="defs2">
    <style
       id="current-color-scheme"
       type="text/css">.ColorScheme-Text {color:#d8dee9} .ColorScheme-Highlight {color:#3b4252}</style>
  </defs>
  <metadata
     id="metadata2">
    <rdf:RDF>
      <cc:Work
         rdf:about="">
        <dc:format>image/svg+xml</dc:format>
        <dc:type
           rdf:resource="http://purl.org/dc/dcmitype/StillImage" />
      </cc:Work>
    </rdf:RDF>
  </metadata>
  <path
     id="path5"
     d="m 5.5434167,1.4551827 c -0.3243597,0 -0.5807714,0.264102 -0.5807714,0.580919 v 0.286555 H 2.2545889 c -0.1433218,0 -0.2563529,0.113178 -0.2563529,0.2565 0,0.143246 0.1130311,0.256352 0.2563529,0.256352 h 2.7005425 v 0.309392 H 2.2545889 c -0.1433218,0 -0.2563529,0.113105 -0.2563529,0.256352 0,0.143322 0.1130311,0.2565 0.2563529,0.2565 h 2.7005425 v 0.309244 H 2.2545889 c -0.1433218,0 -0.2563529,0.113178 -0.2563529,0.2565 0,0.14317 0.1130311,0.256352 0.2563529,0.256352 h 2.7005425 v 0.309391 H 2.2545889 c -0.1433218,0 -0.2563529,0.113182 -0.2563529,0.256353 0,0.143322 0.1130311,0.2565 0.2563529,0.2565 h 2.7005425 v 0.309244 H 2.2545889 c -0.1433218,0 -0.2563529,0.113178 -0.2563529,0.2565 0,0.143322 0.1130311,0.256353 0.2563529,0.256353 h 2.7005425 v 0.309391 H 2.2545889 c -0.1433218,0 -0.2563529,0.113106 -0.2563529,0.256353 0,0.143397 0.1130311,0.256499 0.2563529,0.256499 h 2.7005425 v 0.354474 c 0,0.324511 0.263955,0.580772 0.5807715,0.580772 H 9.066203 v -3.537814 h 2.013989 v 3.537814 h 0.37731 c 0.324285,0 0.580771,-0.26388 0.580771,-0.580772 v -0.354474 h 2.640138 c 0.143171,0 0.256353,-0.113178 0.256353,-0.256499 0,-0.143247 -0.113182,-0.256353 -0.256353,-0.256353 h -2.640138 v -0.309391 h 2.640138 c 0.143171,0 0.256353,-0.113107 0.256353,-0.256353 0,-0.143397 -0.113182,-0.2565 -0.256353,-0.2565 h -2.640138 v -0.309244 h 2.640138 c 0.143171,0 0.256353,-0.113103 0.256353,-0.2565 0,-0.143171 -0.113182,-0.256353 -0.256353,-0.256353 h -2.640138 v -0.30173 h 2.640138 c 0.143171,0 0.256353,-0.113178 0.256353,-0.2565 0,-0.143246 -0.113182,-0.256352 -0.256353,-0.256352 h -2.640138 v -0.316758 h 2.632477 v -1.5e-4 c 0.143246,0 0.256353,-0.113178 0.256353,-0.2565 0,-0.143247 -0.113107,-0.256352 -0.256353,-0.256352 h -2.640138 v -0.309392 h 2.640138 c 0.143246,0 0.256353,-0.113106 0.256353,-0.256352 0,-0.143322 -0.113107,-0.2565 -0.256353,-0.2565 h -2.640138 v -0.286555 c 0,-0.32436 -0.26403,-0.580919 -0.580771,-0.580919 z m -2.934059,7.656105 c -0.3244352,0 -0.5807714,0.26403 -0.5807714,0.580771 v 5.2048433 c 0,0.32436 0.2640303,0.580918 0.5807714,0.580918 H 14.278708 c 0.324435,0 0.580918,-0.264102 0.580918,-0.580918 V 9.6920587 c 0.0073,-0.324133 -0.256706,-0.580624 -0.581066,-0.580624 h -3.205882 v 2.1498263 c 0,0.618546 -0.03772,1.071108 -0.113148,1.365447 -0.07543,0.286643 -0.196259,0.543054 -0.362135,0.769352 -0.256395,0.32451 -0.6110036,0.580712 -1.0560554,0.746664 -0.4449762,0.173494 -0.9729616,0.256648 -1.5764217,0.256648 -0.5507328,0 -1.0410735,-0.07551 -1.4634202,-0.226298 C 6.0790758,14.022134 5.7245724,13.795806 5.4379289,13.501695 5.2116314,13.260235 5.0530428,12.996326 4.9551314,12.70214 4.8570692,12.407877 4.8117802,11.924979 4.8117802,11.246086 V 10.4841 h 1.9462176 v 1.184232 c 0,0.339446 0.098138,0.603518 0.3017301,0.777013 0.2037431,0.181038 0.4980483,0.271675 0.8751354,0.271675 0.4148789,0 0.7090654,-0.105514 0.867474,-0.324418 0.1660268,-0.218604 0.2488381,-0.626031 0.2488381,-1.221948 V 9.1112877 Z"
     style="fill:currentColor"
     class="ColorScheme-Text" />
</svg>
