<?xml version="1.0" encoding="UTF-8" standalone="no"?>
<svg
   width="64"
   height="64"
   version="1.1"
   viewBox="0 0 16.933 16.933"
   id="svg7"
   sodipodi:docname="juk.svg"
   inkscape:version="1.4.3 (0d15f75042, 2025-12-25)"
   xmlns:inkscape="http://www.inkscape.org/namespaces/inkscape"
   xmlns:sodipodi="http://sodipodi.sourceforge.net/DTD/sodipodi-0.dtd"
   xmlns="http://www.w3.org/2000/svg"
   xmlns:svg="http://www.w3.org/2000/svg"
   xmlns:rdf="http://www.w3.org/1999/02/22-rdf-syntax-ns#"
   xmlns:cc="http://creativecommons.org/ns#"
   xmlns:dc="http://purl.org/dc/elements/1.1/">
  <sodipodi:namedview
     id="namedview7"
     pagecolor="#9c4444"
     bordercolor="#000000"
     borderopacity="0.25"
     inkscape:showpageshadow="2"
     inkscape:pageopacity="0.0"
     inkscape:pagecheckerboard="0"
     inkscape:deskcolor="#d1d1d1"
     inkscape:zoom="4.3531262"
     inkscape:cx="89.590787"
     inkscape:cy="36.295755"
     inkscape:window-width="2560"
     inkscape:window-height="1388"
     inkscape:window-x="0"
     inkscape:window-y="0"
     inkscape:window-maximized="1"
     inkscape:current-layer="svg7"
     showgrid="false" />
  <defs
     id="defs2">
    <style
       id="current-color-scheme"
       type="text/css">.ColorScheme-Text {color:#d8dee9} .ColorScheme-Highlight {color:#3b4252}</style>
  </defs>
  <metadata
     id="metadata2">
    <rdf:RDF>
      <cc:Work
         rdf:about="">
        <dc:format>image/svg+xml</dc:format>
        <dc:type
           rdf:resource="http://purl.org/dc/dcmitype/StillImage" />
      </cc:Work>
    </rdf:RDF>
  </metadata>
  <path
     id="path5"
     style="fill:currentColor;stroke-width:0.250404"
     d="M 8.466501,1.4551797 A 7.0113201,7.0113201 0 0 0 1.45518,8.4664997 7.0113201,7.0113201 0 0 0 8.466501,15.47782 7.0113201,7.0113201 0 0 0 15.47782,8.4664997 7.0113201,7.0113201 0 0 0 8.466501,1.4551797 Z M 6.87751,3.7014822 c 0.04869,0.00133 0.09396,0.02465 0.123245,0.063579 0.462442,0.6108045 1.074648,1.0896987 1.670177,1.3816255 0.641822,0.3146197 1.296199,0.5166832 1.801737,0.9585786 0.496647,0.4341237 0.737748,1.0099787 0.72676,2.159737 v 5.009e-4 l 5e-4,5.007e-4 v 5.009e-4 h -5e-4 c -2e-4,0.020059 0.0078,0.029038 0.0074,0.049396 -0.0051,0.1806657 -0.259137,0.2152255 -0.312517,0.042549 C 10.575215,7.3029189 10.177617,7.0190483 9.669616,6.7919561 9.274419,6.6152924 8.924637,6.6728884 8.524212,6.5048716 8.996248,8.0864797 9.794246,10.329881 10.044243,11.025843 a 2.1284364,1.75283 0 0 1 0.175088,0.695912 2.1284364,1.75283 0 0 1 -2.128437,1.75283 2.1284364,1.75283 0 0 1 -2.128436,-1.75283 2.1284364,1.75283 0 0 1 2.128436,-1.7528295 2.1284364,1.75283 0 0 1 0.69497,0.095858 C 8.585725,9.5088165 7.254896,5.7972357 6.719539,3.9049359 6.692089,3.8079369 6.760389,3.7104434 6.860881,3.7024606 c 0.0055,-5.008e-4 0.01115,-0.00102 0.01663,-9.748e-4 z"
     class="ColorScheme-Text" />
</svg>
