<?xml version="1.0" encoding="UTF-8" standalone="no"?>
<svg
   width="64"
   height="64"
   version="1.1"
   viewBox="0 0 16.933 16.933"
   id="svg7"
   sodipodi:docname="kgeography.svg"
   inkscape:version="1.4.4 (dcaf3e7d9e, 2026-05-05)"
   xmlns:inkscape="http://www.inkscape.org/namespaces/inkscape"
   xmlns:sodipodi="http://sodipodi.sourceforge.net/DTD/sodipodi-0.dtd"
   xmlns="http://www.w3.org/2000/svg"
   xmlns:svg="http://www.w3.org/2000/svg"
   xmlns:rdf="http://www.w3.org/1999/02/22-rdf-syntax-ns#"
   xmlns:cc="http://creativecommons.org/ns#"
   xmlns:dc="http://purl.org/dc/elements/1.1/">
  <sodipodi:namedview
     id="namedview7"
     pagecolor="#9c4444"
     bordercolor="#000000"
     borderopacity="0.25"
     inkscape:showpageshadow="2"
     inkscape:pageopacity="0.0"
     inkscape:pagecheckerboard="0"
     inkscape:deskcolor="#d1d1d1"
     inkscape:zoom="8.706252"
     inkscape:cx="51.629565"
     inkscape:cy="26.992097"
     inkscape:window-width="2560"
     inkscape:window-height="1388"
     inkscape:window-x="0"
     inkscape:window-y="0"
     inkscape:window-maximized="1"
     inkscape:current-layer="svg7"
     showgrid="false" />
  <defs
     id="defs2">
    <style
       id="current-color-scheme"
       type="text/css">.ColorScheme-Text {color:#d8dee9} .ColorScheme-Highlight {color:#3b4252}</style>
  </defs>
  <metadata
     id="metadata2">
    <rdf:RDF>
      <cc:Work
         rdf:about="">
        <dc:format>image/svg+xml</dc:format>
        <dc:type
           rdf:resource="http://purl.org/dc/dcmitype/StillImage" />
      </cc:Work>
    </rdf:RDF>
  </metadata>
  <path
     id="path5"
     style="fill:currentColor"
     d="m 13.714334,1.5903371 -5.1393355,0.246919 c -2.378348,0.1616025 -4.274746,0.5641053 -6.418425,0.8468583 l -0.03447,0.0044 -0.02201,-0.027137 c -0.04896,-0.060147 -0.09784,-0.089107 -0.137149,-0.096567 -0.03932,-0.00746 -0.07176,0.0015 -0.106836,0.035204 -0.07016,0.067403 -0.133062,0.2524081 -0.102434,0.5534894 v 9.793e-4 l 0.309259,4.3333031 c 0.183133,-0.1582641 0.380715,-0.3038405 0.591627,-0.434917 L 2.3423675,3.5556665 c -0.01499,-0.1925424 -0.05063,-0.3877076 -0.0026,-0.5605792 l 0.01956,-0.00172 -0.0264,0.089477 c 0.183736,-0.066002 0.158716,-0.064168 0.341775,-0.1175921 h 2.53e-4 2.54e-4 l 1.765836,-0.1576858 -5.19e-4,-0.00391 0.05183,-0.00611 7.56e-4,0.00537 0.425875,-0.038138 2.642032,-0.1809107 h 2.53e-4 2.53e-4 2.53e-4 2.53e-4 c 0.399908,0.057807 0.788177,0.1379229 1.163696,0.2390957 0.375672,0.1012137 0.738659,0.2235327 1.087666,0.3662222 h 2.53e-4 C 10.162581,3.3318551 10.497432,3.4949519 10.817456,3.677156 h 2.53e-4 c 0.108907,0.062008 0.216107,0.1261977 0.321483,0.1926456 L 11.260452,3.738519 C 11.168902,3.680283 11.076124,3.6235848 10.981996,3.5686095 V 3.568368 h -2.53e-4 C 10.71277,3.4112882 10.433503,3.2676695 10.144174,3.1380934 h -2.52e-4 C 9.8544145,3.0084738 9.5551105,2.8928969 9.2466475,2.7919271 8.9383985,2.6910215 8.6210205,2.6046779 8.2951545,2.5335179 l 4.3535975,-0.2982584 0.01246,-0.013447 0.01247,0.011735 0.376246,-0.025669 1.263443,5.3696297 -0.170643,-0.7121524 C 13.849266,6.3097983 13.500081,5.7968509 13.100557,5.3310383 12.900882,5.0982343 12.688553,4.8772062 12.464435,4.6685135 l -2.53e-4,-2.416e-4 C 12.24001,4.4595917 12.00408,4.263271 11.756874,4.0798265 l -2.53e-4,-2.417e-4 C 11.610039,3.97082 11.459443,3.8666971 11.305078,3.767147 l -0.121259,0.1312825 c 0.18839,0.1204903 0.371031,0.2479712 0.547622,0.3823576 h 2.52e-4 c 0.866672,0.6595755 1.587998,1.4841738 2.133527,2.4476749 0.181817,0.3211225 0.344134,0.6576666 0.485769,1.0086992 v 2.543e-4 c 1.25e-4,2.543e-4 3.79e-4,6.339e-4 5.2e-4,0.00102 l 0.399471,1.6971393 c 0.02232,-0.00232 0.03374,-0.00342 0.03374,-0.00342 l 0.0054,0.051828 c 0,0 -0.0092,0.00102 -0.02714,0.00294 l 0.178955,0.7605582 v 2.55e-4 2.54e-4 c 0.0179,0.333765 0.01075,0.668405 -0.02103,1.001612 L 14.512111,9.5130962 c -0.631589,0.065845 -2.269064,0.2364344 -4.178552,0.4349185 0.0012,0.00506 0.0022,0.010084 0.0031,0.015158 0.197315,0.9399293 -0.0089,1.9067943 -0.4965275,2.7571783 l 5.3129435,-0.48357 -0.112703,-0.478435 v -2.55e-4 -2.54e-4 c 0.0407,-0.243096 0.06918,-0.487523 0.08434,-0.73269 l 0.337867,1.435798 -5.7874365,0.526596 c -0.171107,0.258196 -0.368404,0.503284 -0.58845,0.731223 L 16.403846,12.923978 15.87676,10.648902 14.068139,3.0721603 Z m -4.6276525,12.1283619 -0.303637,0.033 c -0.757722,0.718425 -1.756779,1.2336 -2.855213,1.372234 -0.01619,0.002 -0.03245,0.004 -0.04865,0.0059 l -0.02005,0.07823 -0.03642,-0.07212 c -1.069045,0.106738 -2.139313,-0.213563 -3.021947,-0.793317 l -0.246431,0.02322 -0.01467,-0.206336 c -1.033665,-0.773183 -1.75643599,-1.91151 -1.81962099,-3.106532 -0.0019,-0.03589 -0.0034,-0.07183 -0.0044,-0.107569 l -0.185787,-0.04352 c 8.99e-4,0.05346 0.0027,0.107068 0.0056,0.160863 0.128506,2.4305 2.77946499,4.578458 5.41534599,4.245783 1.22474,-0.154574 2.331341,-0.75643 3.13587,-1.589816 z m -6.547017,0.440786 c 0.08504,0.06361 0.172043,0.124617 0.261099,0.183112 l 1.54312,-0.144973 0.960539,-0.09046 -0.347886,-0.690394 -1.719632,0.156463 -0.186044,-2.082186 -0.713866,-0.166732 0.09584,1.340696 z m 6.24338,-0.407783 c 0.24109,-0.228584 0.457719,-0.477797 0.645412,-0.741978 l -3.078419,0.280167 -0.188489,0.7366 0.69113,-0.06503 z m 0.645412,-0.741978 0.246674,-0.02225 c 0.05807,-0.08763 0.113167,-0.176776 0.165021,-0.26721 l -0.234206,0.02127 c -0.05583,0.09096 -0.115077,0.180342 -0.177489,0.268188 z m 0.177489,-0.268188 c 0.5173795,-0.84285 0.7452085,-1.810737 0.5500665,-2.740311 -0.0025,-0.011419 -0.0048,-0.022874 -0.0074,-0.034225 -0.02788,0.0029 -0.05587,0.00588 -0.08385,0.0088 l -3.2710645,1.579548 v 2.54e-4 l -0.0555,0.217094 0.62023,0.08385 -0.08948,0.309016 0.311215,0.44592 0.575737,-0.222961 0.221738,0.136905 -0.09364,0.336397 z M 10.148679,9.9669992 c 0.06186,-0.00643 0.123498,-0.01269 0.184821,-0.01907 -0.0036,-0.017068 -0.0075,-0.03412 -0.01124,-0.051095 -0.06142,0.00638 -0.12311,0.012873 -0.185067,0.019312 6.15e-4,0.00279 0.0013,0.0055 0.002,0.00832 l 0.02273,0.00416 v 2.543e-4 h -2.52e-4 l -0.01931,0.00953 c 0.0022,0.00956 0.0042,0.019032 0.0064,0.028604 z m -0.0095,-0.04254 -0.02982,-0.00537 0.02982,0.00562 z m -0.02982,-0.00537 c 0.0093,-0.00102 0.01856,-0.00197 0.02787,-0.00294 C 9.8607595,8.7038266 9.1679195,7.7443336 8.1838805,7.1467476 l 0.123678,-0.1342157 c -0.01509,-0.00935 -0.03025,-0.018692 -0.04547,-0.02787 l -0.124194,0.1344602 c 0.01528,0.00901 0.03058,0.018434 0.04571,0.027626 l -1.36441,1.4773563 0.403139,0.3339528 -0.04107,0.4273398 2.9275785,0.533688 z m -3.2901335,-1.2949806 -0.04034,-0.033492 -0.287257,0.3112156 0.02298,0.0093 0.01174,0.03007 z m -0.292881,0.3170841 -0.256696,0.2779665 0.395069,0.072119 z m -0.256696,0.2779665 -0.01908,-0.00342 -0.01662,-0.03496 -2.53e-4,2.543e-4 0.01662,0.034961 0.01906,0.00342 z m -0.0357,-0.038383 0.257676,-0.2789443 -0.485526,-0.1990028 z M 6.7788815,8.5906163 8.1379135,7.1191258 C 7.5127095,6.7499326 6.7729515,6.5249743 5.9498695,6.4712693 c -0.31158,-0.02033 -0.635112,-0.016086 -0.96885,0.014179 -0.01038,8.9e-4 -0.0207,0.00194 -0.03105,0.00294 l 0.270389,0.5671788 0.09608,0.075787 0.797475,0.3559548 h 0.489926 l 0.13226,0.4459213 V 8.555172 Z m 1.483225,-1.6059508 0.98743,-1.069085 -1.225793,-0.880841 -0.443476,-0.3559541 h -0.400694 l -0.976184,0.043027 -1.019213,0.2698995 -0.08948,0.5789151 -0.254009,0.2141588 0.06063,0.5217085 c 0.02094,-0.00214 0.04202,-0.00421 0.06307,-0.00612 0.34293,-0.031099 0.676157,-0.034889 0.997699,-0.013202 0.863225,0.058225 1.642334,0.3008624 2.300013,0.6974848 z M 4.9012845,6.306487 c -0.01733,0.00177 -0.03457,0.00346 -0.05183,0.00537 l 0.01662,0.1422843 0.02273,-0.093878 0.02494,0.052318 z m -0.05183,0.00537 -0.05672,-0.4867478 -0.227117,0.191423 0.138372,0.3134168 c 0.0482,-0.00656 0.09665,-0.012678 0.145463,-0.018092 z m -0.145463,0.018092 c -0.771004,0.1049419 -1.462033,0.3578621 -2.049427,0.72291 l 0.01834,0.2041349 c 0.594695,-0.3849517 1.306465,-0.6489551 2.109322,-0.7500467 z m 0.07823,0.1769982 0.04596,0.1039018 0.02714,-0.1127023 c -0.02448,0.00276 -0.04879,0.00574 -0.07309,0.0088 z m -2.109323,0.7500467 c -0.213303,0.1380729 -0.411586,0.2916715 -0.593583,0.4588787 l 0.179689,2.5166164 0.657391,-0.2483856 z M 2.0793155,7.7158726 2.0629355,7.4877774 C 1.0784025,8.3386308 0.51111051,9.5580326 0.52959251,10.885724 l 0.184334,-0.06943 v -2.54e-4 C 0.71532651,9.6149302 1.2133025,8.5114948 2.0793145,7.7158633 Z m 2.713419,-1.8907634 0.04792,-0.040338 -0.347643,-2.9818509 -0.05208,0.00465 z m 4.456763,0.090456 0.01516,0.010999 0.04962,-0.00416 1.8694945,-2.0240014 c -0.0149,-0.00953 -0.02976,-0.019161 -0.04474,-0.028604 z m 0.06479,0.00685 -1.006744,1.0901106 C 9.3227605,7.6411281 10.04138,8.6411043 10.322254,9.8968312 12.227458,9.6987744 13.863036,9.5281188 14.500073,9.4616675 L 14.014305,7.3973273 h -0.0973 L 13.741961,7.3543003 13.341269,7.041373 H 12.944486 L 12.501011,6.951406 12.010839,6.7284466 11.435348,6.8184136 10.85961,6.5954529 11.081348,6.106504 10.326657,5.7036115 9.7937035,5.8835433 Z m 5.1857855,3.5392523 0.01197,0.05134 c 0.124599,-0.01299 0.210175,-0.021918 0.250831,-0.026159 l -0.01197,-0.05134 c -0.04373,0.00457 -0.129124,0.013463 -0.250831,0.026159 z m -3.195032,-5.6945363 1.393992,-1.5093833 -0.02542,-0.024203 -0.02494,0.00172 -1.388369,1.5032714 c 0.01493,0.00949 0.02988,0.019023 0.04474,0.028604 z M 5.7747905,2.0152296 c -1.223145,0.1457246 -2.500853,0.3267651 -3.709406,0.4605892 0.03247,0.021541 0.06351,0.050522 0.09363,0.081166 1.237206,-0.1637108 2.395516,-0.3678337 3.615773,-0.5417546 z m 3.597438,1.7269652 -0.564002,0.2190488 0.439565,0.6610581 0.404604,-0.1892229 0.4082725,0.2518083 0.190689,-0.7549361 -0.4356515,0.071387 z m -4.444785,2.9894297 -0.69993,2.8911517 -3.29404399,1.2443728 3.26226199,0.762515 1.625264,3.224613 0.866417,-3.386944 3.073285,-1.4842023 -3.595237,-0.6551909 z m 9.9843235,4.6056485 c -0.01964,0.18123 -0.04648,0.362024 -0.08067,0.541754 l 0.110258,-0.0093 c 3.79e-4,-9.6e-5 0.0032,-3.82e-4 0.0076,-5.2e-4 0.0058,-2.55e-4 0.01395,-3.82e-4 0.02151,5.2e-4 0.01677,0.0018 0.033,0.0065 0.04792,0.01345 -0.0065,0.03503 -0.0133,0.07015 -0.02029,0.105126 l -0.0044,-0.01809 -0.05989,0.0044 -0.123703,0.01028 c 0.04434,-0.214663 0.07818,-0.430696 0.1017,-0.647613 z m 0.06332,0.662525 0.01124,0.04621 v 2.55e-4 l 0.01418,0.05892 0.0242,0.100479 -0.58356,0.0489 v 2.54e-4 l -0.655435,0.05476 v -2.54e-4 l -0.574024,0.04816 -0.04987,-0.206092 0.572315,-0.04816 v -5.21e-4 l 0.638322,-0.05281 0.01736,-0.0015 0.365244,-0.03032 0.0489,-0.0042 z m -0.596516,0.0753 -0.608253,0.05036 0.03765,0.156463 0.608252,-0.05085 z"
     class="ColorScheme-Text" />
</svg>
