<?xml version="1.0" encoding="UTF-8" standalone="no"?>
<svg
   width="64"
   height="64"
   version="1.1"
   viewBox="0 0 16.933 16.933"
   id="svg7"
   sodipodi:docname="kiro.svg"
   inkscape:version="1.4.3 (0d15f75042, 2025-12-25)"
   xmlns:inkscape="http://www.inkscape.org/namespaces/inkscape"
   xmlns:sodipodi="http://sodipodi.sourceforge.net/DTD/sodipodi-0.dtd"
   xmlns="http://www.w3.org/2000/svg"
   xmlns:svg="http://www.w3.org/2000/svg"
   xmlns:rdf="http://www.w3.org/1999/02/22-rdf-syntax-ns#"
   xmlns:cc="http://creativecommons.org/ns#"
   xmlns:dc="http://purl.org/dc/elements/1.1/">
  <sodipodi:namedview
     id="namedview7"
     pagecolor="#9c4444"
     bordercolor="#000000"
     borderopacity="0.25"
     inkscape:showpageshadow="2"
     inkscape:pageopacity="0.0"
     inkscape:pagecheckerboard="0"
     inkscape:deskcolor="#d1d1d1"
     inkscape:zoom="4.3531262"
     inkscape:cx="89.705646"
     inkscape:cy="35.376875"
     inkscape:window-width="2560"
     inkscape:window-height="1388"
     inkscape:window-x="0"
     inkscape:window-y="0"
     inkscape:window-maximized="1"
     inkscape:current-layer="svg7"
     showgrid="false" />
  <defs
     id="defs2">
    <style
       id="current-color-scheme"
       type="text/css">.ColorScheme-Text {color:#d8dee9} .ColorScheme-Highlight {color:#3b4252}</style>
  </defs>
  <metadata
     id="metadata2">
    <rdf:RDF>
      <cc:Work
         rdf:about="">
        <dc:format>image/svg+xml</dc:format>
        <dc:type
           rdf:resource="http://purl.org/dc/dcmitype/StillImage" />
      </cc:Work>
    </rdf:RDF>
  </metadata>
  <path
     id="path5"
     style="fill:currentColor"
     d="m 4.49342,1.45518 c -1.68319,0 -3.03824,1.35505 -3.03824,3.03824 v 7.94616 c 0,1.68319 1.35505,3.03824 3.03824,3.03824 h 7.94616 c 1.68319,0 3.03824,-1.35505 3.03824,-3.03824 V 4.49342 c 0,-1.68319 -1.35505,-3.03824 -3.03824,-3.03824 z M 8.8057,3.82355 c 1.38598,-10e-4 2.78831,0.85576 3.25575,2.56728 0.13646,0.50228 0.66779,2.93534 -0.64746,5.32185 -0.59809,1.08299 -2.2617,2.1252 -2.70593,0.72873 -1.50895,1.24486 -3.5545,0.71187 -2.59702,-1.41356 l -0.1234,0.0548 C 4.60564,11.58782 4.49243,10.6152 4.75954,10.10997 4.93373,9.78481 5.04116,9.59323 5.12245,9.37542 5.2589,8.99801 5.29955,8.76865 5.3518,8.40863 5.45632,7.69732 5.45925,7.01213 5.64796,6.40823 6.05008,4.68509 7.41972,3.82497 8.8057,3.82351 Z m 0.0829,2.58783 c -0.13352,0 -0.24095,0.0552 -0.31353,0.16549 -0.0842,0.12485 -0.12776,0.31937 -0.12776,0.56615 0,0.27292 0.0581,0.73165 0.44129,0.73165 h 0.003 c 0.29326,0 0.47032,-0.27292 0.47032,-0.73165 0,-0.24098 -0.0494,-0.4355 -0.14228,-0.56325 C 9.13834,6.46654 9.02225,6.41138 8.88866,6.41138 Z m 1.57891,0 c -0.13351,0 -0.24094,0.0552 -0.31352,0.16549 -0.0842,0.12485 -0.12776,0.31937 -0.12776,0.56615 0,0.27292 0.0581,0.73165 0.44128,0.73165 h 0.003 c 0.29326,0 0.47032,-0.27292 0.47032,-0.73165 0,-0.24098 -0.0494,-0.4355 -0.14228,-0.56325 -0.0813,-0.11323 -0.1974,-0.16839 -0.33099,-0.16839 z"
     class="ColorScheme-Text" />
</svg>
