<?xml version="1.0" encoding="UTF-8" standalone="no"?>
<svg
   width="64"
   height="64"
   version="1.1"
   viewBox="0 0 16.933 16.933"
   id="svg7"
   sodipodi:docname="kmines.svg"
   inkscape:version="1.4.4 (dcaf3e7d9e, 2026-05-05)"
   xmlns:inkscape="http://www.inkscape.org/namespaces/inkscape"
   xmlns:sodipodi="http://sodipodi.sourceforge.net/DTD/sodipodi-0.dtd"
   xmlns="http://www.w3.org/2000/svg"
   xmlns:svg="http://www.w3.org/2000/svg"
   xmlns:rdf="http://www.w3.org/1999/02/22-rdf-syntax-ns#"
   xmlns:cc="http://creativecommons.org/ns#"
   xmlns:dc="http://purl.org/dc/elements/1.1/">
  <sodipodi:namedview
     id="namedview7"
     pagecolor="#9c4444"
     bordercolor="#000000"
     borderopacity="0.25"
     inkscape:showpageshadow="2"
     inkscape:pageopacity="0.0"
     inkscape:pagecheckerboard="0"
     inkscape:deskcolor="#d1d1d1"
     inkscape:zoom="4.3531262"
     inkscape:cx="89.590787"
     inkscape:cy="35.147155"
     inkscape:window-width="2560"
     inkscape:window-height="1388"
     inkscape:window-x="0"
     inkscape:window-y="0"
     inkscape:window-maximized="1"
     inkscape:current-layer="svg7"
     showgrid="false" />
  <defs
     id="defs2">
    <style
       id="current-color-scheme"
       type="text/css">.ColorScheme-Text {color:#d8dee9} .ColorScheme-Highlight {color:#3b4252}</style>
  </defs>
  <metadata
     id="metadata2">
    <rdf:RDF>
      <cc:Work
         rdf:about="">
        <dc:format>image/svg+xml</dc:format>
        <dc:type
           rdf:resource="http://purl.org/dc/dcmitype/StillImage" />
      </cc:Work>
    </rdf:RDF>
  </metadata>
  <path
     style="fill:currentColor"
     d="m 8.1158358,1.4551797 c -0.776854,0 -1.402166,0.6253124 -1.402166,1.4021667 V 3.5146576 A 5.25849,5.25849 0 0 0 5.0552308,4.4727474 L 4.4854628,4.1440918 C 3.8126878,3.7556646 2.9581998,3.9848406 2.5697728,4.6576162 l -0.350665,0.6064481 c -0.388426,0.6727757 -0.15925,1.5272633 0.513525,1.9156905 l 0.567322,0.3276775 a 5.25849,5.25849 0 0 0 -0.09194,0.9590679 5.25849,5.25849 0 0 0 0.09194,0.959068 l -0.567322,0.3276775 c -0.672775,0.3884273 -0.901951,1.2429153 -0.513525,1.9156903 l 0.350665,0.606448 c 0.388427,0.672776 1.242915,0.901952 1.91569,0.513525 l 0.565856,-0.3267 a 5.25849,5.25849 0 0 0 1.662351,0.954667 v 0.658778 c 0,0.776854 0.625312,1.402166 1.402166,1.402166 h 0.701329 c 0.776854,0 1.4021662,-0.625312 1.4021662,-1.402166 V 13.41443 a 5.25849,5.25849 0 0 0 1.658439,-0.954177 l 0.569768,0.328656 c 0.672775,0.388427 1.527263,0.159251 1.915689,-0.513525 l 0.350664,-0.606448 c 0.388428,-0.672775 0.159251,-1.527263 -0.513523,-1.9156903 L 13.633044,9.4255682 a 5.25849,5.25849 0 0 0 0.09195,-0.959068 5.25849,5.25849 0 0 0 -0.09195,-0.9590679 L 14.200368,7.1797548 C 14.873143,6.7913276 15.102319,5.93684 14.713891,5.2640643 L 14.363227,4.6576162 C 13.974801,3.9848404 13.120313,3.7556646 12.447538,4.1440918 L 11.881682,4.4707913 A 5.25849,5.25849 0 0 0 10.219331,3.5156359 V 2.8573464 c 0,-0.7768543 -0.6253122,-1.4021667 -1.4021662,-1.4021667 z"
     id="path5"
     class="ColorScheme-Text" />
</svg>
