<?xml version="1.0" encoding="UTF-8" standalone="no"?>
<svg
   width="64"
   height="64"
   version="1.1"
   viewBox="0 0 16.933 16.933"
   id="svg7"
   sodipodi:docname="org.kde.koko.svg"
   inkscape:version="1.4.3 (0d15f75042, 2025-12-25)"
   xmlns:inkscape="http://www.inkscape.org/namespaces/inkscape"
   xmlns:sodipodi="http://sodipodi.sourceforge.net/DTD/sodipodi-0.dtd"
   xmlns="http://www.w3.org/2000/svg"
   xmlns:svg="http://www.w3.org/2000/svg"
   xmlns:rdf="http://www.w3.org/1999/02/22-rdf-syntax-ns#"
   xmlns:cc="http://creativecommons.org/ns#"
   xmlns:dc="http://purl.org/dc/elements/1.1/">
  <sodipodi:namedview
     id="namedview7"
     pagecolor="#9c4444"
     bordercolor="#000000"
     borderopacity="0.25"
     inkscape:showpageshadow="2"
     inkscape:pageopacity="0.0"
     inkscape:pagecheckerboard="0"
     inkscape:deskcolor="#d1d1d1"
     inkscape:zoom="4.3531262"
     inkscape:cx="89.705646"
     inkscape:cy="36.525474"
     inkscape:window-width="2560"
     inkscape:window-height="1388"
     inkscape:window-x="0"
     inkscape:window-y="0"
     inkscape:window-maximized="1"
     inkscape:current-layer="svg7"
     showgrid="false" />
  <defs
     id="defs2">
    <style
       id="current-color-scheme"
       type="text/css">.ColorScheme-Text {color:#d8dee9} .ColorScheme-Highlight {color:#3b4252}</style>
  </defs>
  <metadata
     id="metadata2">
    <rdf:RDF>
      <cc:Work
         rdf:about="">
        <dc:format>image/svg+xml</dc:format>
        <dc:type
           rdf:resource="http://purl.org/dc/dcmitype/StillImage" />
      </cc:Work>
    </rdf:RDF>
  </metadata>
  <path
     id="path5"
     style="fill:currentColor;fill-opacity:1;stroke-width:0.359555;paint-order:stroke fill markers"
     d="m 3.4327315,1.4551797 c -1.195156,0 -2.15733,0.962169 -2.15733,2.1573295 v 9.7079818 c 0,1.19516 0.962174,2.157329 2.15733,2.157329 H 13.500269 c 1.195155,0 2.157329,-0.962169 2.157329,-2.157329 V 3.6125092 c 0,-1.1951605 -0.962174,-2.1573295 -2.157329,-2.1573295 z m 0,0.7191099 H 13.500269 c 0.796771,0 1.438219,0.6414459 1.438219,1.4382196 v 9.7079818 c 0,0.796774 -0.641449,1.438221 -1.438219,1.438221 H 3.4327315 c -0.79677,0 -1.438219,-0.641447 -1.438219,-1.438221 V 3.6125092 c 0,-0.7967737 0.641449,-1.4382196 1.438219,-1.4382196 z m 5.033769,4.6742136 a 2.8764395,2.8764392 0 0 0 -2.87644,2.8764394 2.8764395,2.8764392 0 0 0 0.209273,1.0779624 l 1.859573,-1.859573 1.799881,0.7191099 1.4522645,-1.4522648 a 2.8764395,2.8764392 0 0 0 0,-7.023e-4 2.8764395,2.8764392 0 0 0 -2.4445515,-1.3609716 z m 4.3146585,0 -3.2359945,3.2359948 -1.797774,-0.7191103 -2.15733,2.1573293 -1.078664,-1.078665 -2.158032,2.158032 v 0.717705 c 0,0.603692 0.47638,1.08007 1.080069,1.08007 H 13.50097 c 0.603688,0 1.080071,-0.476378 1.080071,-1.08007 V 7.2101651 l -0.361662,-0.3616619 -0.71911,0.7191099 z"
     class="ColorScheme-Text" />
</svg>
