<?xml version="1.0" encoding="UTF-8" standalone="no"?>
<svg
   width="64"
   height="64"
   version="1.1"
   viewBox="0 0 16.933 16.933"
   id="svg7"
   sodipodi:docname="krusader_root.svg"
   inkscape:version="1.4.4 (dcaf3e7d9e, 2026-05-05)"
   xmlns:inkscape="http://www.inkscape.org/namespaces/inkscape"
   xmlns:sodipodi="http://sodipodi.sourceforge.net/DTD/sodipodi-0.dtd"
   xmlns="http://www.w3.org/2000/svg"
   xmlns:svg="http://www.w3.org/2000/svg"
   xmlns:rdf="http://www.w3.org/1999/02/22-rdf-syntax-ns#"
   xmlns:cc="http://creativecommons.org/ns#"
   xmlns:dc="http://purl.org/dc/elements/1.1/">
  <sodipodi:namedview
     id="namedview7"
     pagecolor="#9c4444"
     bordercolor="#000000"
     borderopacity="0.25"
     inkscape:showpageshadow="2"
     inkscape:pageopacity="0.0"
     inkscape:pagecheckerboard="0"
     inkscape:deskcolor="#d1d1d1"
     inkscape:zoom="12.3125"
     inkscape:cx="41.624365"
     inkscape:cy="32.730964"
     inkscape:window-width="2560"
     inkscape:window-height="1388"
     inkscape:window-x="0"
     inkscape:window-y="0"
     inkscape:window-maximized="1"
     inkscape:current-layer="svg7"
     showgrid="true">
    <inkscape:grid
       id="grid1"
       units="px"
       originx="0"
       originy="0"
       spacingx="0.26457812"
       spacingy="0.26457812"
       empcolor="#0099e5"
       empopacity="0.30196078"
       color="#0099e5"
       opacity="0.14902"
       empspacing="5"
       enabled="true"
       visible="true" />
  </sodipodi:namedview>
  <defs
     id="defs2">
    <style
       id="current-color-scheme"
       type="text/css">.ColorScheme-Text {color:#d8dee9} .ColorScheme-Highlight {color:#3b4252}</style>
  </defs>
  <metadata
     id="metadata2">
    <rdf:RDF>
      <cc:Work
         rdf:about="">
        <dc:format>image/svg+xml</dc:format>
        <dc:type
           rdf:resource="http://purl.org/dc/dcmitype/StillImage" />
      </cc:Work>
    </rdf:RDF>
  </metadata>
  <path
     id="path5"
     style="fill:currentColor;stroke-width:0.989282"
     class="ColorScheme-Text"
     d="m 1.4035469,1.4551798 c -0.43522361,0 -0.78573823,0.3476345 -0.78573823,0.7790925 V 3.417736 H 16.31877 V 2.2342723 c 0,-0.431458 -0.349925,-0.7790925 -0.785228,-0.7790925 z M 0.61780867,3.6983933 0.61423016,14.645561 c -8.449e-5,0.241158 0.0824815,0.453845 0.23311426,0.602724 0.15063289,0.148881 0.36451218,0.229667 0.60425668,0.229535 l 7.0169437,-0.0041 h 7.0660202 c 0.434909,0 0.784205,-0.346734 0.784205,-0.778581 V 3.6983933 H 8.4685448 Z M 0.89028652,3.9703599 H 8.196067 v 2.9021704 l 3.527898,2.7907253 c 0.205802,0.1788026 0.103181,0.5099604 -0.169724,0.5480234 l -1.922681,0.270433 0.901273,1.552049 c 0.201358,0.346963 0.08191,0.788373 -0.266854,0.988691 l -0.19324,0.110935 c -0.3487637,0.200319 -0.7919333,0.08215 -0.9932917,-0.26481 L 8.196067,11.345665 v 3.856099 l -6.7444659,0.0036 c -0.180366,9.9e-5 -0.31758,-0.05643 -0.4125509,-0.150297 -0.0949711,-0.09386 -0.15291662,-0.228856 -0.1528534,-0.409484 z M 8.196067,11.345665 V 6.8725303 L 6.765686,5.7412104 C 6.7082915,5.6912711 6.6345334,5.6627439 6.5576213,5.6609496 6.3750742,5.6563707 6.2248266,5.7998973 6.2253312,5.9779032 l 0.016359,6.1407208 c 2.64e-4,0.267428 0.3200676,0.414151 0.5311529,0.243338 l 1.3715912,-1.10627 z m 5.332489,-7.1600833 h 0.570004 l -0.245383,0.9840898 h 0.674805 l 0.24794,-0.9840898 h 0.564893 l -0.24794,0.9840898 h 0.708034 V 5.714116 h -0.843506 l -0.17637,0.7003652 h 0.725926 V 6.9640379 H 14.648117 L 14.402734,7.9430154 H 13.837841 L 14.083225,6.9640379 H 13.40842 L 13.163036,7.9430154 H 12.593032 L 12.838414,6.9640379 H 12.125269 V 6.4144812 h 0.838393 L 13.142588,5.714116 h -0.72337 V 5.1696715 h 0.863955 z m 0.184037,1.5285343 -0.178925,0.7003652 h 0.674805 L 14.387398,5.714116 Z" />
</svg>
