<?xml version="1.0" encoding="UTF-8" standalone="no"?>
<svg
   width="64"
   height="64"
   version="1.1"
   viewBox="0 0 16.933 16.933"
   id="svg7"
   sodipodi:docname="kwave.svg"
   inkscape:version="1.4.3 (0d15f75042, 2025-12-25)"
   xmlns:inkscape="http://www.inkscape.org/namespaces/inkscape"
   xmlns:sodipodi="http://sodipodi.sourceforge.net/DTD/sodipodi-0.dtd"
   xmlns="http://www.w3.org/2000/svg"
   xmlns:svg="http://www.w3.org/2000/svg"
   xmlns:rdf="http://www.w3.org/1999/02/22-rdf-syntax-ns#"
   xmlns:cc="http://creativecommons.org/ns#"
   xmlns:dc="http://purl.org/dc/elements/1.1/">
  <sodipodi:namedview
     id="namedview7"
     pagecolor="#9c4444"
     bordercolor="#000000"
     borderopacity="0.25"
     inkscape:showpageshadow="2"
     inkscape:pageopacity="0.0"
     inkscape:pagecheckerboard="0"
     inkscape:deskcolor="#d1d1d1"
     inkscape:zoom="4.3531262"
     inkscape:cx="89.590787"
     inkscape:cy="36.525474"
     inkscape:window-width="2560"
     inkscape:window-height="1388"
     inkscape:window-x="0"
     inkscape:window-y="0"
     inkscape:window-maximized="1"
     inkscape:current-layer="svg7"
     showgrid="false" />
  <defs
     id="defs2">
    <style
       id="current-color-scheme"
       type="text/css">.ColorScheme-Text {color:#d8dee9} .ColorScheme-Highlight {color:#3b4252}</style>
  </defs>
  <metadata
     id="metadata2">
    <rdf:RDF>
      <cc:Work
         rdf:about="">
        <dc:format>image/svg+xml</dc:format>
        <dc:type
           rdf:resource="http://purl.org/dc/dcmitype/StillImage" />
      </cc:Work>
    </rdf:RDF>
  </metadata>
  <path
     id="path5"
     style="fill:currentColor;fill-opacity:1;stroke-width:0.250364"
     d="m 3.5601445,1.4551797 c -1.164909,0 -2.102725,0.9379412 -2.102725,2.1032218 v 9.8161965 c 0,1.165281 0.937816,2.103222 2.102725,2.103222 h 9.8127115 c 1.164909,0 2.102724,-0.937941 2.102724,-2.103222 V 3.5584015 c 0,-1.1652806 -0.937815,-2.1032218 -2.102724,-2.1032218 z m 1.207174,2.1813772 h 0.996106 a 0.29731023,0.29731023 0 0 1 0.290717,0.3594144 l -0.606324,2.8434564 3.035111,-3.1127685 a 0.29731023,0.29731023 0 0 1 0.21306,-0.090102 h 1.20817 a 0.29731023,0.29731023 0 0 1 0.2120635,0.5062666 l -2.6333825,2.667234 c 0.04247,0.050961 0.07525,0.1096826 0.103543,0.1642752 0.06652,0.1283205 0.11862,0.2760425 0.170747,0.4450368 0.104253,0.3379878 0.203933,0.7596854 0.31063,1.1743194 0.106696,0.4146338 0.221238,0.8222223 0.337511,1.1011426 0.05814,0.1394601 0.117855,0.2453792 0.162284,0.3006735 0.02149,0.026748 0.01973,0.019103 0.02937,0.025886 0.01264,-0.01895 0.02178,-0.028243 0.03982,-0.063719 0.0608,-0.1195374 0.137898,-0.3220771 0.217042,-0.5684922 0.158289,-0.4928301 0.330823,-1.1669074 0.498302,-1.8324165 0.167478,-0.6655095 0.329857,-1.3213477 0.480381,-1.8035438 0.07526,-0.2410981 0.14359,-0.4356774 0.2279935,-0.5913911 0.0422,-0.077857 0.08496,-0.152825 0.174231,-0.2140558 0.08928,-0.061231 0.263,-0.050295 0.350952,0.041317 0.157808,0.1643766 0.171714,0.3214362 0.224012,0.5396196 0.0523,0.2181835 0.101445,0.4889879 0.151333,0.8004689 0.09978,0.6229614 0.200349,1.404324 0.304655,2.1689318 0.104308,0.7646078 0.21259,1.5132638 0.322578,2.0534418 0.03756,0.184456 0.0729,0.297108 0.10852,0.420644 0.03776,-0.152949 0.07671,-0.317055 0.1135,-0.557043 0.09502,-0.6198275 0.178691,-1.4644476 0.256866,-2.3093122 0.07817,-0.8448646 0.151479,-1.6900279 0.230485,-2.3337051 0.03951,-0.3218386 0.07916,-0.590981 0.127437,-0.8004689 0.02414,-0.104744 0.04805,-0.1938209 0.08961,-0.2832504 0.02078,-0.044715 0.04608,-0.091739 0.09159,-0.1388874 0.04552,-0.047148 0.123174,-0.093799 0.206589,-0.087116 0.106409,0.00853 0.185631,0.082578 0.234466,0.1493414 0.04883,0.066763 0.07944,0.1358991 0.107027,0.2090775 0.05518,0.1463568 0.09546,0.3160847 0.133413,0.5137337 0.0759,0.3952981 0.135739,0.8954393 0.185182,1.3948467 0.04945,0.4994077 0.08737,0.9961127 0.114496,1.3694588 0.01355,0.1866733 0.02432,0.3427673 0.03236,0.4510107 0.004,0.054118 0.0082,0.09655 0.01045,0.1219618 0.0012,0.012708 0.0021,0.022378 0.002,0.021404 -6.8e-5,-4.843e-4 -6.37e-4,-0.00325 -0.003,-0.015433 -0.0012,-0.00609 -0.0024,-0.014816 -0.0075,-0.032357 -0.0025,-0.0087 -0.01239,-0.035668 -0.01245,-0.035842 -3.5e-5,-4.28e-5 -0.0035,-0.00626 -0.0085,-0.014933 0.04201,0.096904 0.05269,0.232288 0.03335,0.3066472 -0.02393,0.092032 -0.0687,0.1433676 -0.0687,0.1433676 a 0.24865646,0.31877827 0 0 1 -0.351948,0 0.24865646,0.31877827 0 0 1 0,-0.060234 c -0.0078,-0.010037 -0.01502,-0.022783 -0.02141,-0.037335 -0.01137,-0.019878 -0.02285,-0.040699 -0.0229,-0.04082 -9.6e-5,-2.388e-4 -0.01068,-0.028353 -0.01344,-0.037833 -0.0055,-0.01896 -0.0073,-0.029401 -0.009,-0.037833 -0.0033,-0.01687 -0.0039,-0.026065 -0.005,-0.034846 -0.0022,-0.017563 -0.0039,-0.031626 -0.0055,-0.049283 -0.0033,-0.035317 -0.0067,-0.080445 -0.01095,-0.1363982 -0.0083,-0.111906 -0.01939,-0.2672122 -0.03286,-0.452504 -0.02691,-0.370583 -0.06424,-0.8606152 -0.112504,-1.3480533 -0.04268,-0.4310873 -0.09712,-0.8344081 -0.154818,-1.1693414 -0.01234,0.086534 -0.02466,0.1312614 -0.03684,0.2304833 -0.07589,0.618329 -0.149034,1.4623316 -0.227497,2.3103082 -0.07846,0.8479767 -0.162062,1.7001949 -0.26284,2.3575993 -0.05039,0.328703 -0.103092,0.606573 -0.170748,0.828346 -0.03383,0.110887 -0.06987,0.208425 -0.125446,0.299678 -0.05558,0.09125 -0.149166,0.196627 -0.28325,0.2041 -0.126745,0.0071 -0.227153,-0.08189 -0.286237,-0.162782 -0.05889,-0.08089 -0.09726,-0.168038 -0.133719,-0.265827 -0.07292,-0.195578 -0.132139,-0.438927 -0.191158,-0.728785 -0.118036,-0.579715 -0.226696,-1.3371842 -0.331537,-2.1057108 -0.104842,-0.768527 -0.205144,-1.5468526 -0.301669,-2.1495177 -0.0409,-0.2554068 -0.08094,-0.4560942 -0.118976,-0.6297221 -0.02244,0.062965 -0.03716,0.084676 -0.06123,0.1617864 -0.138325,0.4431159 -0.3011155,1.0948804 -0.4689315,1.7617283 -0.167816,0.666848 -0.340717,1.3492709 -0.511244,1.8802056 -0.08526,0.2654676 -0.168284,0.4925143 -0.260352,0.6735283 -0.04603,0.09051 -0.09324,0.170571 -0.15631,0.240938 -0.06307,0.07037 -0.152215,0.140084 -0.268814,0.139883 -0.164269,-2.81e-4 -0.305144,-0.106329 -0.407701,-0.233968 -0.102558,-0.12764 -0.181262,-0.282783 -0.25388,-0.4569844 -0.145238,-0.348401 -0.262244,-0.7781532 -0.371362,-1.2021964 -0.109118,-0.424043 -0.208676,-0.8423329 -0.300175,-1.1389756 -0.04297,-0.1393275 -0.08468,-0.2446729 -0.115491,-0.307643 -0.01488,0.011582 -0.04786,0.01999 -0.133909,0.1139972 -0.05673,0.061977 -0.120103,0.1408119 -0.186677,0.22899 l 1.741318,4.1193282 a 0.29731023,0.29731023 0 0 1 -0.274289,0.413177 H 7.2294575 A 0.29731023,0.29731023 0 0 1 6.9541715,12.035506 L 5.6942295,8.9008341 C 5.5190975,8.9194706 5.3582085,8.85731 5.2193255,8.7564708 l -0.206589,0.1513324 -0.648141,3.0789178 a 0.29731023,0.29731023 0 0 1 -0.291215,0.235461 h -0.996106 a 0.29731023,0.29731023 0 0 1 -0.290718,-0.358419 l 1.690044,-7.9907494 a 0.29731023,0.29731023 0 0 1 0.290718,-0.2364567 z m 0.452007,5.1199139 0.322079,-0.2364568 0.152825,0.3808201 c 0.02042,-0.00217 0.04143,-0.00551 0.06222,-0.00996 0.206387,-0.044099 0.343565,-0.1991369 0.48735,-0.3693706 0.143785,-0.1702335 0.285259,-0.3735422 0.422138,-0.5660031 0.06611,-0.092962 0.130947,-0.1834417 0.193148,-0.2658272 l -0.07317,-0.1737336 0.696925,-0.7058861 c -0.05737,-0.068823 -0.131993,-0.1230071 -0.236954,-0.1309225 -0.01413,-0.00107 -0.02825,-0.00122 -0.04182,-9.922e-4 -0.203399,0.00348 -0.344359,0.1480425 -0.480879,0.2971889 -0.145621,0.1590903 -0.286165,0.3563832 -0.424626,0.5510689 -0.138462,0.1946865 -0.274778,0.3870746 -0.39227,0.5261791 -0.113821,0.1347576 -0.218402,0.2040613 -0.230981,0.2095753 h -5.1e-4 C 5.5515565,8.2884877 5.4714825,8.2384424 5.3432635,8.086929 5.2150445,7.9354161 5.0744415,7.6875024 4.9136585,7.4338102 a 0.24865646,0.31877827 0 0 0 -0.349956,-0.046296 0.24865646,0.31877827 0 0 0 -0.03634,0.4480234 c 0.147123,0.2321392 0.292474,0.5000426 0.478887,0.7203224 0.06268,0.074073 0.13449,0.1435677 0.21306,0.200615 z m 7.9728275,0.1906589 c 0.0051,0.00885 0.01005,0.017597 0.01394,0.024392 a 0.24865646,0.31877827 0 0 1 0.0075,-0.3778332 c 0,2e-7 -0.03277,0.036276 -0.05078,0.1055345 -0.015,0.057665 -0.0024,0.1755296 0.02937,0.2479064 z M 13.60085,8.5946846 c -0.01,-0.023031 -0.02182,-0.043886 -0.03534,-0.06123 -6.6e-5,-8.49e-5 0.02258,0.0391 0.03534,0.06123 z"
     class="ColorScheme-Text" />
</svg>
