<?xml version="1.0" encoding="UTF-8" standalone="no"?>
<svg
   width="64"
   height="64"
   version="1.1"
   viewBox="0 0 16.933 16.933"
   id="svg7"
   sodipodi:docname="io.github.radiolamp.mangojuice.svg"
   inkscape:version="1.4.4 (dcaf3e7d9e, 2026-05-05)"
   xmlns:inkscape="http://www.inkscape.org/namespaces/inkscape"
   xmlns:sodipodi="http://sodipodi.sourceforge.net/DTD/sodipodi-0.dtd"
   xmlns="http://www.w3.org/2000/svg"
   xmlns:svg="http://www.w3.org/2000/svg"
   xmlns:rdf="http://www.w3.org/1999/02/22-rdf-syntax-ns#"
   xmlns:cc="http://creativecommons.org/ns#"
   xmlns:dc="http://purl.org/dc/elements/1.1/">
  <sodipodi:namedview
     id="namedview7"
     pagecolor="#9c4444"
     bordercolor="#000000"
     borderopacity="0.25"
     inkscape:showpageshadow="2"
     inkscape:pageopacity="0.0"
     inkscape:pagecheckerboard="0"
     inkscape:deskcolor="#d1d1d1"
     inkscape:zoom="4.3531262"
     inkscape:cx="89.705646"
     inkscape:cy="35.836315"
     inkscape:window-width="2560"
     inkscape:window-height="1388"
     inkscape:window-x="0"
     inkscape:window-y="0"
     inkscape:window-maximized="1"
     inkscape:current-layer="svg7"
     showgrid="false" />
  <defs
     id="defs2">
    <style
       id="current-color-scheme"
       type="text/css">.ColorScheme-Text {color:#d8dee9} .ColorScheme-Highlight {color:#3b4252}</style>
  </defs>
  <metadata
     id="metadata2">
    <rdf:RDF>
      <cc:Work
         rdf:about="">
        <dc:format>image/svg+xml</dc:format>
        <dc:type
           rdf:resource="http://purl.org/dc/dcmitype/StillImage" />
      </cc:Work>
    </rdf:RDF>
  </metadata>
  <path
     id="path5"
     d="m 8.3115298,1.4559757 c -0.234227,0.0038 -0.468219,0.01981 -0.701803,0.05207 -0.4683893,0.06379 -0.9275648,0.182911 -1.3679519,0.354716 -0.6473238,0.253449 -1.2486638,0.579116 -1.7122197,1.113399 -0.1228608,0.141961 -0.2277385,0.30003 -0.3407861,0.459024 -0.00877,0.03201 -0.015988,0.05774 -0.027862,0.07993 -0.2581092,0.469736 -0.3886994,0.976769 -0.4439338,1.506919 -0.026815,0.254782 -0.061418,0.509049 -0.092369,0.763824 0.079492,0.04089 0.15965,0.08051 0.2404572,0.118736 0.014967,-0.176548 0.022236,-0.352458 0.03101,-0.538292 0.028911,-0.216808 0.053215,-0.4255 0.085735,-0.631987 0.027091,-0.182504 0.06614,-0.363022 0.116746,-0.540449 l 0.1465957,0.606616 c 0.086207,0.18016 0.1604138,0.359212 0.2595277,0.523366 0.1037543,0.170868 0.2323404,0.326873 0.3510677,0.495674 0.171381,0.158481 0.3406488,0.310643 0.5135829,0.469637 0.098081,0.05937 0.1916061,0.116681 0.2902065,0.164174 0.2958013,0.141954 0.5936793,0.279825 0.895661,0.424366 0.084661,0.02943 0.1651723,0.05372 0.2518993,0.08159 0.2041002,0.04453 0.4085135,0.08752 0.6132485,0.129018 0.06039,0.01186 0.120727,0.02013 0.18938,0.03201 0.275681,0.02066 0.544161,0.03973 0.821369,0.05987 0.107367,0 0.205868,-9.63e-4 0.313755,-0.0015 0.04337,-0.0051 0.07806,-0.01035 0.120394,-0.01343 0.04749,-5.14e-4 0.08715,-0.0031 0.135153,-0.0051 0.04387,-0.0051 0.07962,-0.0094 0.120395,-0.01045 0.02065,0.0041 0.03504,0.0042 0.05672,0.0042 0.02271,-0.0046 0.03816,-0.0098 0.06036,-0.01393 0.02167,-0.0046 0.03669,-0.0104 0.05837,-0.01393 0.04595,-0.0015 0.08565,-0.0052 0.133661,-0.0093 0.126994,-0.03355 0.245772,-0.06819 0.364499,-0.09917 0.5074752,-0.132667 0.9870002,-0.332944 1.4453962,-0.585886 0.08156,-0.04491 0.151284,-0.11144 0.232331,-0.170807 0.03459,-0.02065 0.06245,-0.0397 0.09652,-0.06086 0.204414,-0.184801 0.40205,-0.367052 0.605952,-0.552886 0.101469,-0.149354 0.200145,-0.300603 0.295844,-0.453718 0.04801,-0.07743 0.08667,-0.16059 0.134159,-0.245763 0.07846,-0.26995 0.152391,-0.534844 0.234985,-0.831152 0.01858,0.07485 0.03295,0.123884 0.04328,0.173958 0.03923,0.200808 0.08727,0.400115 0.113596,0.602469 0.04904,0.376867 0.111487,0.753105 0.08723,1.135621 -0.0031,0.03872 -0.01187,0.07642 -0.01857,0.122882 0.04214,0.01439 0.08587,0.02386 0.130178,0.02835 0.04491,-0.107373 0.08144,-0.214118 0.122219,-0.327685 -0.0733,-0.724212 -0.15579,-1.440259 -0.359691,-2.13559 -0.01972,-0.06757 -0.04656,-0.133464 -0.07313,-0.207622 -0.06016,0.05461 -0.120129,0.106255 -0.175119,0.154556 -0.0236,0.0199 -0.06333,0.05911 -0.103977,0.09403 -0.03086,0.02557 -0.06122,0.0508 -0.09121,0.07578 7.7e-4,0.02452 0.0017,0.04837 0.003,0.07114 0.01807,0.358255 -0.06703,0.693901 -0.230673,1.017049 -0.05988,0.109954 -0.106335,0.22043 -0.169315,0.320057 -0.178511,0.293164 -0.421188,0.541991 -0.709762,0.727839 -0.05885,0.03923 -0.110982,0.07637 -0.169316,0.115087 -0.06607,0.04543 -0.124946,0.09084 -0.186893,0.133164 -0.03407,0.02271 -0.07174,0.04034 -0.11459,0.06202 -0.04698,0.02633 -0.08836,0.05147 -0.134822,0.07728 -0.121307,0.06091 -0.231781,0.133207 -0.352062,0.177607 -0.374814,0.139374 -0.7505312,0.277277 -1.1583402,0.331997 l -0.274121,0.0403 c -0.205448,0.0052 -0.402139,0.0096 -0.608107,0.01227 -0.02943,-10e-4 -0.05009,0.0012 -0.07744,0.0012 -0.102207,-0.0026 -0.196693,-0.0042 -0.29684,-0.01094 -0.03304,-0.0062 -0.06028,-0.0068 -0.09486,-0.0083 -0.05007,-0.0026 -0.09295,-0.004 -0.140958,-0.01128 -0.04698,-0.0093 -0.08778,-0.0135 -0.136314,-0.02073 -0.06659,-0.0088 -0.127067,-0.01433 -0.194687,-0.02156 -0.181195,-0.03665 -0.3545439,-0.07136 -0.5331518,-0.111107 -0.4909159,-0.161042 -0.9653758,-0.341219 -1.3798916,-0.649401 -0.083107,-0.06143 -0.1640719,-0.12537 -0.249246,-0.194023 -0.0351,-0.03355 -0.066625,-0.06147 -0.099665,-0.09502 -0.060914,-0.06143 -0.1203255,-0.116655 -0.1817529,-0.178602 -0.3371077,-0.369615 -0.5723937,-0.782508 -0.6426006,-1.278071 -0.0052,-0.03562 -0.012445,-0.07024 -0.01758,-0.113595 -0.016521,-0.256529 0.042243,-0.487756 0.1625158,-0.710758 0.1053071,-0.154867 0.1864551,-0.32378 0.3082825,-0.45438 0.4299446,-0.458936 0.9667345,-0.755631 1.5495377,-0.977085 0.5456622,-0.207791 1.1205059,-0.329391 1.7035979,-0.360354 0.649891,-0.03562 1.287909,0.01125 1.9176862,0.181089 0.447401,0.121352 0.877902,0.297901 1.281719,0.525523 0.05643,0.03138 0.110881,0.06672 0.165335,0.103645 l 0.0068,-0.04013 0.126531,-0.01642 c 0.01135,-0.0014 0.01909,-0.0022 0.02388,-0.0036 4.81e-4,-0.0024 7.7e-4,-0.0066 0.0013,-0.01128 l 0.0099,-0.08026 0.02388,-0.01509 c -0.345565,-0.255802 -0.735974,-0.425931 -1.135123,-0.57693 -0.481609,-0.181708 -0.9828801,-0.278118 -1.4954761,-0.314253 -0.234612,-0.01652 -0.46907,-0.02503 -0.703296,-0.02123 z m 4.5985332,0.0655 c -0.180674,0.165187 -0.361247,0.334519 -0.547081,0.49816 -0.167254,0.147635 -0.339715,0.28952 -0.511096,0.431994 -0.01807,0.01497 -0.04704,0.01718 -0.07131,0.03267 -0.01291,0.110471 -0.07999,0.152157 -0.174455,0.163511 v 6.73e-4 c -0.02168,0.132668 -0.112941,0.203796 -0.231668,0.259031 -0.01601,0.02426 -0.02436,0.04762 -0.0388,0.07446 -0.213714,0.172414 -0.422183,0.340709 -0.628671,0.51209 -0.129567,0.107894 -0.252969,0.223982 -0.38357,0.330836 -0.197194,0.163635 -0.3980512,0.322545 -0.5978262,0.482572 -0.04233,0.03407 -0.08716,0.06561 -0.134656,0.103811 -0.08414,0.07072 -0.163186,0.137811 -0.245266,0.201819 -0.0222,0.01755 -0.05217,0.02476 -0.08623,0.03715 l -0.02056,0.0012 c -0.01394,0.01291 -0.02332,0.02474 -0.0388,0.03764 l -0.02007,0.001 c -0.01703,0.02994 -0.03002,0.0588 -0.04809,0.102153 0.03975,0.01187 0.07689,0.02956 0.115087,0.03366 0.179641,0.0222 0.360326,0.03605 0.539454,0.06186 0.08517,0.01188 0.167774,0.04443 0.2514022,0.06766 0.03407,0.0093 0.06813,0.01905 0.109946,0.02886 0.07537,-0.07123 0.143628,-0.143369 0.211768,-0.21409 0.02478,-0.02529 0.05158,-0.04959 0.08358,-0.07695 l 0.0051,-0.0026 c 0.0026,-0.0067 0.0062,-0.01187 0.01542,-0.01758 0.218361,-0.186355 0.435673,-0.367584 0.645254,-0.557031 0.39593,-0.357229 0.786339,-0.720138 1.180727,-1.078907 0.168282,-0.153314 0.347917,-0.294646 0.507945,-0.455707 0.163641,-0.164674 0.309636,-0.346896 0.464497,-0.521377 0.01032,-0.01187 0.02272,-0.02219 0.04079,-0.04129 -0.0067,-0.03975 -0.01281,-0.07739 -0.03449,-0.101655 -0.11666,-0.132147 -0.237057,-0.26233 -0.358364,-0.39551 z m -4.2726732,0.584891 c -0.214754,-0.0072 -0.430031,0.0036 -0.644258,0.01758 -0.207002,0.01342 -0.415477,0.0295 -0.619385,0.06667 a 5.3742774,5.3742774 0 0 0 -1.6178607,0.558524 c -0.3572347,0.194107 -0.6808767,0.430448 -0.9425918,0.75205 -0.078461,0.146087 -0.1568718,0.285488 -0.234819,0.424862 0.00257,-6.74e-4 0.00558,-9.62e-4 0.00829,-0.0015 -0.00443,8.99e-4 -0.009,0.0019 -0.013433,0.0031 v 1.66e-4 a 0.33347514,0.33347514 0 0 0 -0.025872,0.02803 c -8.343e-4,0.0047 -0.00154,0.0095 -0.00231,0.01426 0.050228,0.05136 0.1036849,0.046 0.1577069,0.0025 0.1264739,-0.101184 0.2514038,-0.204842 0.3794245,-0.304469 0.068305,-0.05313 0.138208,-0.0917 0.2102757,-0.110776 -0.072,0.01921 -0.1417444,0.05803 -0.2097783,0.111107 -0.1280207,0.09963 -0.2529506,0.20329 -0.3794245,0.304469 -0.053603,0.04318 -0.1067211,0.04861 -0.1593651,0.0045 -0.00565,0.03721 -0.00926,0.07495 -0.010943,0.113429 0.015218,0.0469 0.05997,0.06758 0.1384698,0.07048 0.1791211,0.0067 0.3107282,-0.07901 0.4170687,-0.214256 0.088267,-0.111499 0.1858165,-0.226967 0.3344843,-0.232166 0.2715282,-0.0088 0.5110676,0.0929 0.6581883,0.325198 0.1022139,0.162094 0.219811,0.268323 0.4097721,0.291036 0.042327,0.0051 0.083744,0.0197 0.1250378,0.02073 0.1089206,0.0041 0.2193161,0.01445 0.32669,0 0.09034,-0.01187 0.1110075,-0.07075 0.054226,-0.136314 C 6.8787696,4.0798157 6.7352711,3.9765857 6.5623369,3.9316717 a 0.38974213,0.38974213 0 0 0 0.028856,0.03516 c 0.067113,0.07433 0.057782,0.121903 -0.040299,0.123379 -0.043957,5.46e-4 -0.090355,-0.008 -0.1354851,-0.02222 a 0.53169642,0.53169642 0 0 0 0.1349877,0.02189 c 0.098074,-0.001 0.107404,-0.04906 0.040299,-0.122882 l -0.034657,-0.03862 c -0.09034,-0.07176 -0.1708521,-0.135356 -0.251899,-0.198337 -0.125652,-0.09344 -0.2564286,-0.180753 -0.3792592,-0.277271 0.122855,0.09608 0.2536078,0.18213 0.3792592,0.268814 0.018696,-0.12269 0.087801,-0.06646 0.1331626,-0.03914 0.1688012,0.10324 0.3341182,0.211522 0.4998193,0.318896 0.2312294,0.148667 0.4680714,0.216779 0.7354664,0.08772 0.09085,-0.04335 0.196712,-0.06859 0.300986,-0.01542 0.05162,0.02633 0.1047951,0.05674 0.1600291,0.0655 0.159514,0.02529 0.264901,-0.09329 0.258201,-0.292031 -0.08858,0.01389 -0.165797,-0.0015 -0.238633,-0.02902 0.07268,0.02649 0.150152,0.03887 0.238466,0.0204 0.0191,-0.07537 0.02844,-0.142505 0.0398,-0.209612 0.05523,-0.324176 0.108998,-0.649421 0.167325,-0.973602 0.01859,-0.100661 0.05047,-0.198081 0.07628,-0.296675 0,-0.0036 1.5e-4,-0.0073 -0.0086,-0.01559 -0.06824,0 -0.134098,0.0059 -0.198335,0.0088 0.06419,-0.0034 0.130038,-0.01054 0.198335,-0.0136 0.01023,-0.0034 0.01766,-0.0066 0.0262,-0.01 a 0.07691384,0.07691384 0 0 0 -0.01741,0.01509 c 0,0.0083 -9e-5,0.01134 0.0062,0.01443 v -4.81e-4 a 0.08104706,0.08104706 0 0 0 0.02753,-0.03483 c 0.0028,-8.99e-4 0.0058,-0.0019 0.0091,-0.0028 0.112014,-0.0057 0.209539,-0.01192 0.307619,-0.01708 a 0.38148212,0.38148212 0 0 1 0.01791,0.0046 c -0.006,-0.0011 -0.01135,-8.02e-4 -0.01625,9.95e-4 0.01395,0.0072 0.02687,0.0094 0.03615,0.0063 -0.0054,-0.0027 -0.01054,-0.0048 -0.01526,-0.0061 a 0.38148212,0.38148212 0 0 1 0.02388,0.0061 6.5630918,6.5630918 0 0 0 0.249909,0.04229 c 0.0073,-0.0013 0.0149,-0.0027 0.02471,-0.003 -0.0086,3.2e-4 -0.01595,0.003 -0.02205,0.0076 a 0.04232957,0.04232957 0 0 0 0.034,-0.0068 c -0.0016,-2.94e-4 -0.0031,-4.81e-4 -0.0046,-6.74e-4 0.0036,1.12e-4 0.0071,1.19e-4 0.01144,6.74e-4 0.02427,0.0052 0.03812,0.0058 0.05257,0.0063 a 0.98754442,0.98754442 0 0 1 0.05008,0.02736 0.93844638,0.93844638 0 0 0 0.126034,0.01227 0.2637816,0.2637816 0 0 1 0.04593,0.01294 c 0.06401,0.01291 0.116646,0.01916 0.169813,0.02587 0.01291,0.0077 0.02624,0.01539 0.04792,0.02985 0.09549,0.032 0.1822761,0.05793 0.2684831,0.08375 l 0.187391,0.03963 c 0.0035,0.0014 0.007,0.0028 0.01045,0.0041 0.03565,0.04031 0.0699,0.08201 0.108123,0.119233 0.02427,0.02374 0.0559,0.04036 0.09204,0.06617 0.05007,0.01962 0.09082,0.03289 0.15638,0.05356 -0.182228,0.158475 -0.339773,0.29438 -0.495674,0.430667 -0.2658801,0.233341 -0.5358201,0.463441 -0.7959951,0.702964 -0.231788,0.213728 -0.452227,0.439375 -0.680908,0.656697 -0.05162,0.05007 -0.07743,0.114116 -0.04129,0.163677 0.02581,0.03561 0.106862,0.06033 0.150742,0.04743 0.04432,-0.01313 0.08802,-0.029 0.131505,-0.04627 l 0.02637,-0.06335 c 0.01799,-0.04316 0.03371,-0.0817 0.05638,-0.121555 l 0.04511,-0.08026 0.05141,-0.0025 0.04013,-0.03764 0.05638,-0.0037 h 0.0013 c 0.0092,-0.0031 0.01862,-0.0067 0.02123,-0.0076 0.07707,-0.06038 0.152655,-0.124249 0.234487,-0.193029 0.05251,-0.04229 0.103941,-0.0792 0.137807,-0.106464 0.200371,-0.160507 0.3987561,-0.317923 0.5941771,-0.480086 0.125397,-0.102601 0.248684,-0.218678 0.383571,-0.331002 0.198284,-0.164572 0.399335,-0.327053 0.602967,-0.491361 0.0089,-0.01782 0.02051,-0.04044 0.03267,-0.05887 l 0.0038,-0.0058 C 11.008476,2.6876547 10.784777,2.5541517 10.546045,2.4592577 9.9347909,2.2161227 9.2905159,2.1283977 8.6374799,2.1062007 Z m 1.6762352,0.48622 c -0.06711,-0.01394 -0.126952,-0.0268 -0.188386,-0.033 -0.07278,0.06504 -0.1363212,0.144589 -0.2184012,0.177109 -0.224035,0.08827 -0.415577,0.225549 -0.575604,0.39435 -0.145575,0.154347 -0.259033,0.340132 -0.377766,0.518226 -0.05111,0.07743 -0.08734,0.167921 -0.116249,0.256709 -0.02891,0.09085 0.04339,0.179655 0.118238,0.150742 a 0.86720608,0.86720608 0 0 0 0.3674851,-0.265996 2.3761524,2.3761524 0 0 1 0.281418,-0.305464 c 0.233848,-0.201834 0.4749571,-0.393874 0.7170591,-0.585388 0.05833,-0.04594 0.130492,-0.07438 0.195019,-0.117741 -0.02891,-0.02633 -0.05982,-0.04227 -0.08408,-0.0655 -0.03923,-0.03872 -0.07433,-0.08171 -0.118735,-0.124043 z m 3.100569,-0.445757 c -0.0111,0.0115 -0.02361,0.0244 -0.02388,0.02471 -0.147623,0.16634 -0.30592,0.361251 -0.472622,0.529005 -0.164219,0.165279 -0.356084,0.317564 -0.51292,0.460351 -3.53e-4,3.2e-4 -6.42e-4,6.74e-4 -9.63e-4,9.95e-4 -0.104158,0.09475 -0.208408,0.190228 -0.31276,0.286061 -0.288389,0.264845 -0.577601,0.53237 -0.868133,0.794503 -0.20419,0.184574 -0.419328,0.362325 -0.628008,0.540116 l -0.0012,0.0013 -0.0038,0.01261 -0.03632,0.02637 -0.0038,0.0037 c -0.02909,0.02493 -0.0512,0.04453 -0.06899,0.06268 -0.03614,0.03751 -0.07457,0.07767 -0.115088,0.11857 0.04505,0.02678 0.09001,0.05489 0.130179,0.04942 0.138861,-0.02065 0.277717,-0.06095 0.407285,-0.113596 0.08053,-0.03355 0.147237,-0.103247 0.216411,-0.160028 0.22967,-0.185764 0.458058,-0.373023 0.685385,-0.561674 0.08001,-0.06659 0.153386,-0.140933 0.23598,-0.214753 0.06379,-0.05316 0.126585,-0.10578 0.189546,-0.158536 -0.06373,0.05597 -0.126238,0.111721 -0.184571,0.163842 0.01187,0.05678 0.01596,0.109974 0.03764,0.154888 0.06401,0.1337 0.162643,0.253392 0.158536,0.41342 -2.1e-4,0.0091 -8.34e-4,0.01778 -0.002,0.02604 0.08196,-0.223411 0.120625,-0.45268 0.108455,-0.694009 -0.0027,-0.04758 -0.0042,-0.10358 -0.0055,-0.158536 0.04992,-0.04173 0.100469,-0.08379 0.152069,-0.12653 0.04027,-0.03459 0.0698,-0.06551 0.102318,-0.09287 0.0764,-0.06711 0.154732,-0.133161 0.232166,-0.206462 0.100147,-0.113567 0.198242,-0.221437 0.301483,-0.325197 0.05162,-0.05317 0.116732,-0.09241 0.167325,-0.146099 0.09292,-0.09859 0.176519,-0.206553 0.270473,-0.304634 0.06555,-0.06865 0.05737,-0.133754 0.0073,-0.199827 -0.05264,-0.06966 -0.106726,-0.138243 -0.162019,-0.205799 z m -3.148661,0.161189 a 4.5174044,3.3455979 0 0 1 0.994,0.46516 l 0.04362,-0.0199 c 0.03957,-0.01841 0.0696,-0.03665 0.08988,-0.0534 -0.0455,-0.03154 -0.08888,-0.0613 -0.131339,-0.08773 a 7.290898,6.6882435 0 0 0 -0.996156,-0.304137 z m -0.8460762,0.05904 c 0.01497,0.0129 0.02843,0.01919 0.0403,0.02073 -0.01497,-0.01291 -0.02843,-0.02021 -0.0403,-0.02073 z m 0.183576,0.03748 c -0.0028,8e-5 -0.0054,5.45e-4 -0.008,0.0013 0.01446,0.0077 0.02786,0.0097 0.03715,0.0066 -0.01123,-0.0054 -0.02079,-0.0082 -0.02919,-0.008 z m 0.208286,0.04096 c 0.01444,0.01394 0.02743,0.02169 0.0393,0.02272 a 0.07536709,0.07536709 0 0 0 -0.0393,-0.02272 z m -3.8015431,0.04693 a 7.290898,6.6882435 0 0 0 -0.3407861,0.120892 c -0.1993375,0.119555 -0.3860959,0.256053 -0.5573629,0.414581 a 4.5174044,3.3455979 0 0 1 0.898149,-0.535473 z m 4.6758113,0.263507 a 0.19874115,0.19874115 0 0 1 0.02338,0.02239 0.19874115,0.19874115 0 0 1 0.01974,0.02487 c 0.04184,0.06351 0.08099,0.113197 0.121058,0.150244 -0.04007,-0.03703 -0.07939,-0.08674 -0.121224,-0.150244 -0.0057,-0.0085 -0.01234,-0.01688 -0.01957,-0.02487 -0.0072,-0.008 -0.01503,-0.01558 -0.02338,-0.02239 z m -1.5354432,0.03748 c -0.0764,10e-4 -0.162142,0.02532 -0.186395,0.113595 -0.01136,0.04078 -0.0021,0.120884 0.02056,0.130178 0.05937,0.02528 0.131726,0.0221 0.198832,0.02985 0.0031,5.14e-4 0.0067,-0.0011 0.01758,-0.0027 v -5.14e-4 c 0.07433,-0.03407 0.141973,-0.06546 0.205466,-0.103147 0.02221,-0.01291 0.05157,-0.04902 0.04644,-0.06451 a 0.10685401,0.10685401 0 0 0 -0.06517,-0.06103 c -0.07795,-0.02013 -0.158325,-0.04282 -0.237306,-0.04179 z m -2.8747049,0.127856 c 0.050266,4.82e-4 0.1020297,0.0094 0.1557166,0.02886 0.1001472,0.03613 0.1889245,0.103777 0.2839054,0.164174 0.036538,0.04303 0.072724,0.08189 0.1086203,0.123379 a 1.4593348,1.4593348 0 0 1 0.029851,0.03482 h -6.418e-4 -1.663e-4 c -0.00148,0.0024 -0.00308,0.0048 -0.00449,0.0071 -0.097547,-9.63e-4 -0.1956374,0.0032 -0.2925287,-0.0018 -0.031674,-0.0017 -0.063147,-0.0043 -0.094524,-0.0085 H 6.4610152 6.4608496 6.460684 c -9.627e-4,-1.37e-4 -0.00199,-4.17e-4 -0.00302,-6.73e-4 -0.00231,-5.46e-4 -0.00469,-0.0014 -0.00713,-0.0025 -0.00359,-0.0016 -0.00739,-0.0037 -0.01111,-0.0063 h -1.656e-4 l -1.656e-4,-1.66e-4 c -0.00244,-0.0017 -0.00469,-0.0037 -0.00713,-0.0058 -0.0099,-0.0086 -0.019749,-0.01994 -0.028523,-0.03267 -0.00443,-0.0064 -0.00853,-0.01307 -0.012272,-0.0199 -0.00942,-0.01716 -0.016392,-0.03506 -0.018902,-0.05058 -4.814e-4,-0.0029 -8.344e-4,-0.0056 -0.00103,-0.0083 -1.16e-5,-2.11e-4 1.09e-5,-4.5e-4 0,-6.74e-4 -2.7e-5,-4.82e-4 2.11e-5,-10e-4 0,-0.0015 -3.531e-4,-0.0089 2.573e-4,-0.01679 0.00199,-0.02405 0.0025,-0.01082 0.00728,-0.01976 0.0136,-0.0272 v -1.66e-4 c 0.023324,-0.02732 0.068928,-0.03284 0.1119372,-0.02438 0.06866,0.01342 0.1352942,0.03703 0.2091144,0.04942 -0.087754,-0.05988 -0.1766269,-0.127377 -0.2767741,-0.163511 -0.059803,-0.02171 -0.1172152,-0.02992 -0.1727975,-0.02836 0.00571,-1.61e-4 0.011322,-8.98e-4 0.017079,-8.34e-4 z m -0.2978349,0.08723 c -0.040915,0.02232 -0.081212,0.04689 -0.1208916,0.07346 -0.040549,0.02721 -0.070543,0.05722 -0.088223,0.08872 0.017605,-0.03162 0.047378,-0.06176 0.088057,-0.08905 0.03967,-0.02657 0.080132,-0.05082 0.1210576,-0.07313 z M 3.9592572,3.5323667 A 7.290898,6.6882435 0 0 0 1.175594,8.7894207 7.290898,6.6882435 0 0 0 8.4664168,15.477775 7.290898,6.6882435 0 0 0 15.757406,8.7894207 7.290898,6.6882435 0 0 0 13.109725,3.6330267 c 0.0039,0.01203 0.0077,0.02381 0.01111,0.03532 0.208406,0.710691 0.292822,1.44318 0.365992,2.166103 l 0.0037,0.0388 -0.01377,0.03632 c -0.02551,0.07104 -0.05049,0.143216 -0.07761,0.215417 A 5.0533111,4.9601851 0 0 1 13.515229,7.1823337 5.0533111,4.9601851 0 0 1 8.4619829,12.142548 5.0533111,4.9601851 0 0 1 3.4087373,7.1823337 5.0533111,4.9601851 0 0 1 3.5679365,5.9470477 c -0.00721,-0.0037 -0.014364,-0.0074 -0.021559,-0.01111 l -0.1053036,-0.0539 0.015092,-0.11658 c 0.031176,-0.256638 0.065099,-0.50962 0.091539,-0.760839 0.053202,-0.510646 0.1745836,-1.006409 0.4115962,-1.472261 z m 1.5898356,0.04378 c 0.023767,0.0099 0.047815,0.02201 0.072137,0.03682 0.088997,0.05435 0.1778461,0.108995 0.2669908,0.163179 -0.089075,-0.05411 -0.1779121,-0.108749 -0.2669908,-0.163013 -0.024325,-0.01484 -0.048347,-0.02707 -0.072137,-0.03698 z m 2.233265,0.09668 c 0.0033,8.7e-5 0.0065,8.03e-4 0.0098,9.95e-4 -0.02849,-0.0016 -0.05714,3.12e-4 -0.0859,0.0063 0.01546,-0.0032 0.03088,-0.0058 0.04627,-0.0068 0.01,-6.42e-4 0.01991,-7.7e-4 0.02985,-4.82e-4 z m -0.130675,0.02355 c -0.01452,0.0056 -0.02906,0.0122 -0.04362,0.02007 a 1.6394893,1.6394893 0 0 0 -0.188386,0.121389 c -0.05311,0.03893 -0.10489,0.06679 -0.15555,0.08507 0.05068,-0.0183 0.102413,-0.04645 0.15555,-0.0854 0.05989,-0.04387 0.122825,-0.08577 0.188386,-0.121389 0.01452,-0.0078 0.02913,-0.01414 0.04362,-0.01973 z m 0.291533,0.01774 c 0.01482,0.0069 0.02962,0.01381 0.04428,0.02222 0.02869,0.0167 0.0576,0.03278 0.0869,0.04743 -0.02923,-0.01451 -0.05824,-0.0301 -0.0869,-0.0466 -0.01469,-0.0085 -0.02944,-0.0161 -0.04428,-0.02305 z m -3.383811,0.660677 c 0.073729,0.43048 0.2813484,0.790907 0.5877099,1.127495 l 0.0025,0.0025 c 0.00863,0.0087 0.017272,0.0172 0.026039,0.02587 0.030827,-0.0159 0.061787,-0.02963 0.093861,-0.03897 0.3825155,-0.111501 0.7680299,-0.211541 1.1505454,-0.323041 a 3.1530566,3.1530566 0 0 0 0.4207168,-0.153396 c 0.058327,-0.02633 0.1409415,-0.09139 0.1394653,-0.136811 -0.00308,-0.09189 -0.1063694,-0.09796 -0.1822499,-0.108289 -0.1729342,-0.02375 -0.3469344,-0.04294 -0.5203821,-0.06152 -0.3087273,-0.03303 -0.6179382,-0.06608 -0.9276667,-0.09602 -0.2845829,-0.02806 -0.554184,-0.09199 -0.7905233,-0.237804 z m 3.534719,0.278931 c -0.06865,0.02375 -0.128429,0.05007 -0.190377,0.06865 -0.05885,0.01703 -0.0651,0.05271 -0.03516,0.09452 a 2.6481491,2.6481491 0 0 0 0.18424,0.236809 c 0.0191,0.02065 0.07071,0.03106 0.09652,0.02073 0.06866,-0.02736 0.1332211,-0.06606 0.195682,-0.105802 a 0.08414055,0.08414055 0 0 0 0.03101,-0.06517 c -0.0083,-0.100147 -0.171961,-0.247689 -0.281915,-0.249743 z m 4.1186142,0.02355 c -0.0228,0.02983 -0.0586,0.0474 -0.106464,0.05224 -0.106341,0.0098 -0.213717,0.01179 -0.320057,0.02056 -0.06091,0.0046 -0.120877,0.0166 -0.180757,0.02537 l 0.0026,0.0325 c 0.05369,0 0.107336,-0.0021 0.161023,10e-4 0.100661,0.0046 0.202922,0.0021 0.300489,0.02272 0.02117,0.0043 0.04179,0.01133 0.06235,0.01974 0.002,-0.0037 0.004,-0.0074 0.006,-0.01111 0.02739,-0.05412 0.05242,-0.108359 0.07479,-0.163013 z m 0.523201,0.383571 c -0.03585,0.06688 -0.07987,0.154807 -0.121555,0.222049 -0.09718,0.155484 -0.196986,0.308893 -0.299659,0.460019 l -0.01128,0.01625 -0.01509,0.01377 c -0.02543,0.02318 -0.0508,0.04634 -0.07612,0.06948 0.02484,0.04739 0.06875,0.07099 0.14527,0.08922 a 3.5242119,3.5242119 0 0 0 0.391862,0.06965 c 0.07406,0.0093 0.134641,-0.02316 0.168652,-0.07894 0.0039,-0.15209 -0.0055,-0.306146 -0.02123,-0.462673 -0.02271,-0.07866 -0.04984,-0.156411 -0.07512,-0.234321 a 0.4780095,0.4780095 0 0 0 -0.08574,-0.164506 z m -3.1234541,0.03797 c -0.07667,-0.0046 -0.154549,-0.0033 -0.2336581,0.0045 -0.03769,0.0036 -0.07232,0.03058 -0.108454,0.04709 0.01653,0.03201 0.03058,0.06661 0.05174,0.09552 a 0.14608752,0.14608752 0 0 0 0.05423,0.03914 c 0.225613,0.109954 0.450162,0.219948 0.6762632,0.328348 0.217348,0.103761 0.43207,0.214278 0.654044,0.305132 0.104351,0.04237 0.212361,0.07501 0.322047,0.106298 0.03482,-0.0257 0.07263,-0.05383 0.112765,-0.08142 0.03087,-0.0205 0.05996,-0.04001 0.08939,-0.05987 -0.336195,-0.167272 -0.654645,-0.357592 -0.955859,-0.586052 -0.212941,-0.116532 -0.4325032,-0.184851 -0.6625012,-0.198668 z m -0.894831,0.03831 c -0.04817,-0.0013 -0.07549,0.03438 -0.1003291,0.112102 -0.01188,0.03613 -0.02528,0.07798 -0.01857,0.113596 0.02787,0.135767 0.05377,0.273532 0.09817,0.404133 0.08415,0.246222 0.183255,0.486286 0.269976,0.731487 0.02717,0.07665 0.05213,0.154789 0.06102,0.234819 l 0.238301,-0.03516 c 0.0035,-4.69e-4 0.007,-10e-4 0.01045,-0.0015 -0.01863,-0.14504 -0.07003,-0.278162 -0.127028,-0.410767 -0.0105,-0.0246 -0.02104,-0.04917 -0.03151,-0.0738 a 17.302405,17.302405 0 0 0 0.03167,0.07346 c 0.05695,0.132127 0.1086,0.265617 0.130511,0.410601 0.38095,-0.05313 0.7403912,-0.183852 1.1102472,-0.321383 0.09502,-0.03507 0.200138,-0.100527 0.328515,-0.165501 0.01067,-0.0059 0.02126,-0.01205 0.03201,-0.01824 -0.123842,-0.05801 -0.246546,-0.114026 -0.365661,-0.177275 -0.363967,-0.193062 -0.7238202,-0.395861 -1.0862022,-0.592022 -0.165708,-0.08982 -0.330798,-0.179144 -0.501146,-0.260191 -0.03226,-0.01549 -0.05853,-0.02377 -0.08043,-0.02438 z m -0.9284961,0.02388 c -0.0037,1.36e-4 -0.0075,3.53e-4 -0.01161,8.34e-4 a 2.5387214,2.5387214 0 0 0 -0.277272,0.04859 c -0.195641,0.04543 -0.388714,0.130565 -0.5853886,0.138305 A 4.0945837,4.0945837 0 0 0 6.004799,5.4943357 c -0.2194298,0.05906 -0.4371087,0.121712 -0.6421029,0.220059 0.015397,0.01463 0.031822,0.03 0.05008,0.04726 0.0018,0.0015 0.00334,0.0024 0.00513,0.0038 l 0.00616,0.005 c 0.07924,0.06365 0.1560257,0.122252 0.2331603,0.179265 0.3778911,0.280951 0.8149542,0.453483 1.2830452,0.60877 0.035607,-0.133781 0.1293672,-0.242167 0.2242054,-0.339956 0.1786078,-0.183254 0.3050747,-0.395312 0.4119288,-0.620379 0.0103,-0.02153 0.01504,-0.04914 0.01509,-0.07844 6.1e-5,0.02929 -0.0044,0.0569 -0.01476,0.07844 -0.1068541,0.225067 -0.23332,0.437125 -0.4119286,0.620379 -0.094637,0.09759 -0.1879939,0.205661 -0.2217174,0.340786 0.012182,0.004 0.024421,0.0081 0.036647,0.0121 0.1682614,0.03734 0.334026,0.07175 0.506453,0.106631 0.0026,2.78e-4 0.0062,8.98e-4 0.0088,0.0012 l 0.0075,0.0013 c 0.0014,1.47e-4 0.0029,3.5e-4 0.0043,4.97e-4 0.06011,-0.133457 0.167477,-0.222954 0.32072,-0.277603 a 0.86463888,0.86463888 0 0 0 0.24792,-0.147757 c 0.06916,-0.05678 0.07274,-0.189848 0.02421,-0.250242 -0.06143,-0.07537 -0.110456,-0.08103 -0.224537,-0.02321 -0.02323,0.01187 -0.0449,0.02786 -0.06865,0.03715 -0.02271,0.0088 -0.04805,0.01178 -0.07181,0.01691 -0.0026,-0.02633 -0.0066,-0.0526 -0.0066,-0.07943 0,-0.09808 0.02629,-0.205439 -0.0037,-0.293193 a 0.32004859,0.32004859 0 0 1 0.02902,-0.295347 c 0.02529,-0.0413 0.05674,-0.07887 0.07894,-0.121721 0.02662,-0.0513 0.01236,-0.08761 -0.04312,-0.08557 z m 0.4601841,0.09585 -0.02687,0.0071 c -0.0056,0.03562 -0.01867,0.07188 -0.01559,0.106464 0.01755,0.219414 0.03872,0.43817 0.05937,0.665818 l 5.13e-4,-4.97e-4 c 0.04955,0.200807 0.09343,0.394895 0.201321,0.571956 0.02787,-0.0444 0.04908,-0.08828 0.04908,-0.132169 -10e-4,-0.113054 0.0027,-0.229174 -0.02056,-0.339127 -0.05627,-0.268442 -0.125425,-0.534294 -0.192532,-0.800142 -0.0072,-0.02943 -0.03563,-0.05311 -0.05473,-0.07943 z m -0.8212021,0.05058 c 9.63e-4,2.2e-5 0.0019,1.33e-4 0.0028,1.66e-4 -0.0078,-2.66e-4 -0.0156,-2.46e-4 -0.02355,1.66e-4 0.007,-3.53e-4 0.01391,-4.81e-4 0.02073,-3.21e-4 z m 1.4674511,0.285895 c -0.0042,0.03046 -6.09e-4,0.07203 0.0091,0.09701 a 17.302405,17.302405 0 0 0 0.148088,0.366822 c -0.05091,-0.121493 -0.100864,-0.243301 -0.148419,-0.365992 -0.0098,-0.02571 -0.01307,-0.06741 -0.0088,-0.09784 z m -5.3054767,0.364998 c -0.00655,0.04202 -0.012114,0.08353 -0.016418,0.125203 0.06556,0.04285 0.144623,0.0724 0.1807574,0.129183 0.1254405,0.197195 0.235379,0.404079 0.3525596,0.606947 0.1548614,0.266387 0.3546055,0.491007 0.58174,0.702135 0.404722,0.375263 0.8919708,0.618328 1.3596601,0.889856 0.2261205,0.131635 0.4919746,0.208029 0.7495627,0.269976 0.2922007,0.07072 0.5937719,0.105879 0.8931739,0.14046 0.267376,0.03098 0.537849,0.05517 0.806278,0.05157 a 6.6227794,6.6227794 0 0 0 0.85271,-0.07214 c 0.266368,-0.03871 0.535885,-0.08418 0.7898591,-0.16832 0.444963,-0.148154 0.875939,-0.335624 1.282715,-0.574112 0.06143,-0.03562 0.125428,-0.06662 0.187888,-0.100163 l 0.09668,-0.08507 c -0.03189,0.02841 -0.06306,0.05662 -0.08938,0.08557 0.272556,-0.122854 0.488351,-0.315987 0.694838,-0.515241 0.187388,-0.179642 0.347282,-0.388105 0.520216,-0.583233 0.01394,-0.0155 0.03612,-0.02437 0.05522,-0.04295 0.04594,-0.06814 0.09089,-0.129034 0.136315,-0.197174 h 5.13e-4 c 0.03355,-0.07949 0.06619,-0.152838 0.09303,-0.223045 a 17.680427,17.680427 0 0 0 -0.255879,0.320389 17.680427,17.680427 0 0 1 0.255216,-0.320223 c 0.01058,-0.01756 0.02011,-0.03482 0.02919,-0.05224 -0.04738,-0.007 -0.09257,-0.01879 -0.136148,-0.03366 l -0.01327,-0.0045 c -0.02847,0.06183 -0.05742,0.123458 -0.08822,0.183909 -0.02581,0.05111 -0.06298,0.097 -0.09602,0.152234 -0.0206,0.03303 -0.04211,0.06543 -0.06451,0.09718 0.02177,-0.03101 0.04053,-0.06073 0.05589,-0.09038 -0.160541,0.126467 -0.312898,0.05562 -0.460019,-0.01045 -0.223806,-0.09965 -0.443239,-0.209467 -0.666812,-0.30878 l -0.0058,0.0058 -0.01377,0.0075 c -0.02783,0.01729 -0.05833,0.03768 -0.09121,0.05754 a 1.5553488,1.5553488 0 0 0 0.08209,0.05721 c -0.02826,-0.01808 -0.05595,-0.03691 -0.08258,-0.05688 -0.06174,0.04613 -0.154803,0.127865 -0.245432,0.177772 -0.468911,0.258744 -0.961305,0.465107 -1.4842011,0.601806 -0.08951,0.02336 -0.17996,0.04931 -0.276442,0.07579 0.03255,0.03792 0.06499,0.07602 0.09668,0.114589 -0.03181,-0.03852 -0.06452,-0.07653 -0.09801,-0.114258 -0.02762,0.0076 -0.05567,0.01529 -0.08441,0.02289 l -0.01509,0.0037 -0.01377,0.0013 c -0.04403,0.0038 -0.08358,0.007 -0.127857,0.0088 -0.01074,0.0026 -0.03268,0.0073 -0.04511,0.0099 -0.0042,8.35e-4 -0.0177,0.0048 -0.03184,0.0088 0.01146,0.03513 0.02201,0.07028 0.03167,0.105469 -0.0099,-0.03504 -0.02113,-0.07002 -0.0335,-0.104972 -0.01004,0.0028 -0.02027,0.0056 -0.02786,0.0071 l -0.01625,0.0025 h -0.01758 c -0.02294,0 -0.04376,-2.83e-4 -0.06766,-0.0038 -0.02459,0.0015 -0.05077,0.0056 -0.08905,0.01011 h -0.0063 -0.0062 c -0.04318,0.0019 -0.08705,0.0043 -0.135485,0.005 -0.03544,0.0027 -0.06589,0.0075 -0.107791,0.01244 h -0.0099 -0.0088 c -0.06129,2.93e-4 -0.121836,0.0012 -0.183078,0.0018 5.45e-4,0.01462 -9.63e-4,0.0304 -0.005,0.0476 -0.01911,0.07898 -0.0382,0.15838 -0.05058,0.245101 0.05727,0.01786 0.07465,0.05156 0.08076,0.08905 -0.0062,-0.03622 -0.02404,-0.06774 -0.08176,-0.08126 -0.12234,-0.0046 -0.236963,-0.0087 -0.351564,-0.01443 -0.144021,-0.0067 -0.288524,-0.01033 -0.430999,-0.02736 -0.08879,-0.01033 -0.181211,-0.02944 -0.260191,-0.06816 -0.123381,-0.06143 -0.127573,-0.1575 -0.04394,-0.231834 0.01486,-0.01321 0.02966,-0.02639 0.04444,-0.03963 -0.02631,-0.0043 -0.05227,-0.0088 -0.07695,-0.0136 -0.2066362,-0.04188 -0.4118845,-0.08565 -0.6167311,-0.130344 l -0.00763,-0.0013 -0.00746,-0.0025 c -0.082144,-0.0264 -0.169521,-0.05279 -0.2557133,-0.08275 l -0.00995,-0.0037 -0.00763,-0.0038 C 6.1820055,6.8866557 5.8825939,6.7489547 5.5858462,6.6065467 5.4786412,6.5549067 5.3774959,6.4930237 5.2812125,6.4347437 l -0.015089,-0.0086 -0.012605,-0.01144 c -0.00513,-0.0047 -0.010128,-0.0094 -0.015256,-0.01409 -0.2815846,0.196101 -0.6140402,0.289666 -0.9281642,0.420551 -0.01394,0.0062 -0.031469,0.0035 -0.055221,0.01178 a 0.80841682,0.80841682 0 0 0 0.1321681,0.180757 c 0.091945,0.08596 0.1829938,0.173221 0.2751166,0.259197 C 4.569983,7.1869787 4.4788332,7.0997727 4.3867142,7.0138677 4.3335472,6.9632777 4.2937092,6.8981507 4.2472489,6.8331107 4.1264549,6.6069837 3.9567356,6.4124057 3.9102775,6.1558507 a 0.36908886,0.36908886 0 0 1 -0.00481,-0.04411 L 3.792038,6.0575107 c -0.067908,-0.03212 -0.1353284,-0.0653 -0.2019837,-0.09917 z m 4.4904107,0.453219 a 0.59364338,0.59364338 0 0 0 -0.3154131,0.10149 c -0.07351,0.04853 -0.09892,0.113265 -0.1058009,0.18424 0.0087,0.001 0.01743,0.0022 0.0262,0.0033 0.0431,0.0064 0.09071,0.01201 0.139133,0.02122 h 0.0038 c 0.03561,0.0051 0.07015,0.0075 0.120229,0.01012 0.02464,10e-4 0.06367,4.97e-4 0.10663,0.0075 0.09218,0.0059 0.181285,0.0088 0.280754,0.01128 0.0083,-4.9e-5 0.04251,-0.0016 0.07147,-0.0012 h 0.0088 c 0.001,-1.4e-5 0.0021,-1.52e-4 0.0031,-1.66e-4 -0.0091,-0.134244 -0.0847,-0.297081 -0.172798,-0.318896 a 0.59364338,0.59364338 0 0 0 -0.166164,-0.01891 z m 3.6546161,0.100164 a 1.5553488,1.5553488 0 0 0 0.01957,0.01078 c 0.196674,0.110981 0.39807,0.213747 0.592685,0.328348 0.144541,0.08517 0.151116,0.08916 0.273457,-0.01923 0.02427,-0.02169 0.06055,-0.03036 0.09668,-0.04842 0.0075,-0.01003 0.01476,-0.01983 0.02173,-0.02952 -0.0072,0.01008 -0.01453,0.02005 -0.02189,0.03002 -0.02623,0.03734 -0.05562,0.06806 -0.08739,0.09419 0.03022,-0.02533 0.05767,-0.05515 0.08192,-0.09071 -0.03044,0.01442 -0.06698,0.02312 -0.09121,0.04477 -0.122347,0.108414 -0.129083,0.104244 -0.273624,0.01907 -0.194614,-0.114594 -0.395844,-0.217195 -0.592518,-0.328182 -0.0065,-0.0037 -0.01295,-0.0074 -0.0194,-0.01111 z m -0.675436,0.471959 c 0.04336,0.0046 0.09082,10e-4 0.129018,0.01807 0.03303,0.01445 0.0567,0.05224 0.08457,0.0796 h 1.66e-4 c 0.172408,0.07382 0.256046,0.185318 0.224039,0.365992 -0.0021,0.01239 0.0041,0.03251 -0.0031,0.03764 -0.07589,0.06195 -0.147081,0.135735 -0.234321,0.174455 -0.04284,0.01961 -0.115111,-0.02674 -0.173958,-0.04378 l -0.0026,-0.0388 c 0.03923,-0.02168 0.07845,-0.0444 0.119233,-0.06401 0.04026,-0.01962 0.08784,-0.02887 0.12139,-0.05572 0.06349,-0.0511 0.07379,-0.116106 0.0098,-0.174953 -0.07072,-0.06607 -0.151384,-0.123434 -0.220557,-0.190541 -0.02736,-0.02633 -0.03601,-0.07182 -0.05357,-0.107957 z m -5.2686626,0.08739 c -0.02772,0.05447 -0.023972,0.111641 0.015924,0.173461 a 0.49040272,0.49040272 0 0 0 0.1296811,0.13051 c -0.050619,-0.03412 -0.09496,-0.07574 -0.1300129,-0.130178 -0.040363,-0.06194 -0.043848,-0.119226 -0.01559,-0.173793 z m 0.596002,0.272131 c -0.045247,0.03679 -0.099387,0.03862 -0.1613548,0.02355 -0.046338,-0.01128 -0.095196,-0.0088 -0.1558828,-0.01393 h -1.656e-4 v -3.3e-4 c 0.060913,0.0051 0.1100855,0.0026 0.1565459,0.01393 0.061741,0.01503 0.1152949,0.01319 0.1608573,-0.02321 z m -0.309278,0.04959 a 0.65560317,0.65560317 0 0 0 0.016251,0.05555 c 0.2113518,0.103323 0.4149799,0.207323 0.6228668,0.296508 -0.2076899,-0.08903 -0.4107814,-0.19209 -0.6217057,-0.289378 -0.03976,-0.01467 -0.076345,-0.03217 -0.1112736,-0.05141 a 0.49040272,0.49040272 0 0 0 0.1043085,0.04129 z m 3.6924255,0.133993 a 0.7175373,0.7175373 0 0 1 0.05357,0.115088 c 0.0235,0.0619 0.01328,0.121635 -0.03151,0.163676 0.04455,-0.04212 0.05484,-0.101769 0.03135,-0.163676 -0.01483,-0.03891 -0.03247,-0.07811 -0.0534,-0.115088 z m -0.471296,0.0056 c 0.02621,0.140137 0.02984,0.282264 -0.0085,0.430003 -0.169485,0.02998 -0.333603,0.06033 -0.499985,0.09071 0.166046,-0.03035 0.328696,-0.06067 0.491361,-0.09104 0.04296,-0.147205 0.04308,-0.28941 0.01708,-0.429671 z m 2.2228181,0.250738 c -0.113855,0.0759 -0.230377,0.147725 -0.350404,0.212597 -0.383542,0.206488 -0.784739,0.368508 -1.2095811,0.482076 -0.02243,0.006 -0.04471,0.01184 -0.06716,0.01758 a 6.0809682,6.0809682 0 0 0 0.067,-0.01775 C 10.38638,8.3640477 10.788122,8.2020287 11.171151,7.9955407 a 5.5182984,5.5182984 0 0 0 0.35057,-0.212431 z m -2.9277711,0.02338 c 6.1e-4,0.0059 0.0012,0.01178 0.0023,0.01741 l -1.65e-4,-1.65e-4 v -1.67e-4 c -0.0011,-0.0055 -0.0016,-0.01131 -0.0022,-0.01708 z m 0.0023,0.01758 c 0.01601,0.08466 0.02676,0.170374 0.04792,0.255548 -0.02414,0.0051 -0.04365,0.01305 -0.06218,0.01708 0.01825,-0.0041 0.03608,-0.01205 0.0539,-0.01708 -0.01288,-0.085 -0.0242,-0.170542 -0.03963,-0.255548 z m -0.915063,0.211934 a 4.2628646,4.2628646 0 0 0 0.867967,0.06285 c -0.2943,0.0091 -0.5838391,-0.01185 -0.867967,-0.06285 z m -1.2517035,0.327519 c 0.3026903,0.09994 0.6164415,0.157736 0.9319785,0.204969 a 8.1746624,8.1746624 0 0 0 0.03051,0.0046 c -0.0101,-0.0015 -0.02025,-0.003 -0.03035,-0.0045 -0.315598,-0.04724 -0.6293909,-0.105157 -0.9321447,-0.205134 z m 1.1910085,0.240955 a 8.1746624,8.1746624 0 0 0 0.484729,0.04511 c 0.245169,0.01429 0.493587,0.03117 0.738286,0.01891 -0.244621,0.01279 -0.492889,-0.0045 -0.738452,-0.01874 -0.161647,-0.0091 -0.323337,-0.02506 -0.484563,-0.04527 z"
     style="fill:currentColor"
     class="ColorScheme-Text" />
</svg>
