<?xml version="1.0" encoding="UTF-8" standalone="no"?>
<svg
   width="64"
   height="64"
   version="1.1"
   viewBox="0 0 16.933 16.933"
   id="svg7"
   sodipodi:docname="moonlight.svg"
   inkscape:version="1.4.4 (dcaf3e7d9e, 2026-05-05)"
   xmlns:inkscape="http://www.inkscape.org/namespaces/inkscape"
   xmlns:sodipodi="http://sodipodi.sourceforge.net/DTD/sodipodi-0.dtd"
   xmlns="http://www.w3.org/2000/svg"
   xmlns:svg="http://www.w3.org/2000/svg"
   xmlns:rdf="http://www.w3.org/1999/02/22-rdf-syntax-ns#"
   xmlns:cc="http://creativecommons.org/ns#"
   xmlns:dc="http://purl.org/dc/elements/1.1/">
  <sodipodi:namedview
     id="namedview7"
     pagecolor="#9c4444"
     bordercolor="#000000"
     borderopacity="0.25"
     inkscape:showpageshadow="2"
     inkscape:pageopacity="0.0"
     inkscape:pagecheckerboard="0"
     inkscape:deskcolor="#d1d1d1"
     inkscape:zoom="12.3125"
     inkscape:cx="31.309644"
     inkscape:cy="26.31472"
     inkscape:window-width="2560"
     inkscape:window-height="1388"
     inkscape:window-x="0"
     inkscape:window-y="0"
     inkscape:window-maximized="1"
     inkscape:current-layer="svg7"
     showgrid="false" />
  <defs
     id="defs2">
    <style
       id="current-color-scheme"
       type="text/css">.ColorScheme-Text {color:#d8dee9} .ColorScheme-Highlight {color:#3b4252}</style>
  </defs>
  <metadata
     id="metadata2">
    <rdf:RDF>
      <cc:Work
         rdf:about="">
        <dc:format>image/svg+xml</dc:format>
        <dc:type
           rdf:resource="http://purl.org/dc/dcmitype/StillImage" />
      </cc:Work>
    </rdf:RDF>
  </metadata>
  <path
     id="path5"
     d="M 8.4664997,1.4551795 A 7.0113202,7.0113202 0 0 0 1.4551795,8.4664995 7.0113202,7.0113202 0 0 0 8.4664997,15.47782 7.0113202,7.0113202 0 0 0 15.477821,8.4664995 7.0113202,7.0113202 0 0 0 8.4664997,1.4551795 Z m -0.2191037,1.75743 v 4.724746 L 4.9064915,4.5964515 A 5.2584903,5.2584903 0 0 1 8.247396,3.2126095 Z m 0.4382076,0 a 5.2584903,5.2584903 0 0 1 3.3409044,1.383842 l -3.3409044,3.340904 z m -4.0891524,1.693882 3.3409042,3.340905 H 3.2126099 a 5.2584903,5.2584903 0 0 1 1.3838413,-3.340905 z m 7.7400968,0 a 5.2584903,5.2584903 0 0 1 1.383842,3.340905 H 8.9956441 Z M 3.2126099,8.6856035 H 7.9373554 L 4.5964512,12.026508 A 5.2584903,5.2584903 0 0 1 3.2126099,8.6856035 Z m 5.7830342,0 H 13.72039 A 5.2584903,5.2584903 0 0 1 12.336548,12.026508 Z M 8.247396,8.9956445 V 13.720389 A 5.2584903,5.2584903 0 0 1 4.9064915,12.336548 Z m 0.4382076,0 3.3409044,3.3409035 a 5.2584903,5.2584903 0 0 1 -3.3409044,1.383841 z"
     style="fill:currentColor"
     class="ColorScheme-Text" />
</svg>
