<?xml version="1.0" encoding="UTF-8" standalone="no"?>
<svg
   width="64"
   height="64"
   version="1.1"
   viewBox="0 0 16.933 16.933"
   id="svg7"
   sodipodi:docname="edit.svg"
   inkscape:version="1.4.4 (dcaf3e7d9e, 2026-05-05)"
   xmlns:inkscape="http://www.inkscape.org/namespaces/inkscape"
   xmlns:sodipodi="http://sodipodi.sourceforge.net/DTD/sodipodi-0.dtd"
   xmlns="http://www.w3.org/2000/svg"
   xmlns:svg="http://www.w3.org/2000/svg"
   xmlns:rdf="http://www.w3.org/1999/02/22-rdf-syntax-ns#"
   xmlns:cc="http://creativecommons.org/ns#"
   xmlns:dc="http://purl.org/dc/elements/1.1/">
  <sodipodi:namedview
     id="namedview7"
     pagecolor="#9c4444"
     bordercolor="#000000"
     borderopacity="0.25"
     inkscape:showpageshadow="2"
     inkscape:pageopacity="0.0"
     inkscape:pagecheckerboard="0"
     inkscape:deskcolor="#d1d1d1"
     inkscape:zoom="4.3531262"
     inkscape:cx="89.705646"
     inkscape:cy="36.066035"
     inkscape:window-width="2560"
     inkscape:window-height="1388"
     inkscape:window-x="0"
     inkscape:window-y="0"
     inkscape:window-maximized="1"
     inkscape:current-layer="svg7"
     showgrid="false" />
  <defs
     id="defs2">
    <style
       id="current-color-scheme"
       type="text/css">.ColorScheme-Text {color:#d8dee9} .ColorScheme-Highlight {color:#3b4252}</style>
  </defs>
  <metadata
     id="metadata2">
    <rdf:RDF>
      <cc:Work
         rdf:about="">
        <dc:format>image/svg+xml</dc:format>
        <dc:type
           rdf:resource="http://purl.org/dc/dcmitype/StillImage" />
      </cc:Work>
    </rdf:RDF>
  </metadata>
  <path
     id="path5"
     style="fill:currentColor"
     d="m 9.8450265,1.4551795 c -0.552724,0 -1.034505,0.3767211 -1.168553,0.9129323 l -2.492305,9.9715032 c -0.03586,0.143513 -0.04668,0.29214 -0.03195,0.439349 l 0.241927,2.422693 c 0.01568,0.156548 0.147384,0.276163 0.30469,0.276163 0.100855,0 0.195062,-0.04929 0.252199,-0.132368 l 1.336304,-1.943403 c 0.118588,-0.172493 0.204845,-0.365236 0.255621,-0.568301 L 11.013586,2.9523884 C 11.20363,2.1921628 10.628644,1.4551795 9.8450265,1.4551795 Z m -2.380471,2.2538018 -5.363476,2.6817385 c -0.395813,0.1979241 -0.645849,0.6027616 -0.6459,1.0453076 v 1.837277 c 0,0.221309 0.125014,0.424818 0.322949,0.523794 l 0.09929,0.04907 c -0.08007,-0.04004 -0.130093,-0.12159 -0.130093,-0.211116 0,-0.08953 0.05002,-0.171078 0.130093,-0.211115 l 4.752953,-2.377047 z m 3.9883745,0.9916727 -0.649324,2.5972924 1.098942,0.550042 2.572187,-1.2860936 a 0.58427669,0.58427669 0 0 1 0.05819,-0.3206675 z m 3.60266,1.8019002 c 0.08005,0.040037 0.130093,0.1215886 0.130093,0.2111145 0,0.089526 -0.05004,0.1710773 -0.130093,0.2111144 L 10.302635,9.3006894 9.4684435,12.639739 14.83192,9.9580004 c 0.395818,-0.197924 0.645857,-0.602761 0.6459,-1.045307 v -1.837274 c 0,-0.2213094 -0.125036,-0.4248188 -0.322951,-0.5237952 z M 5.0293095,8.5007344 2.4582645,9.7868284 a 0.58427669,0.58427669 0 0 1 -0.05819,0.3206666 l 3.080007,1.540574 0.649323,-2.5972926 z"
     class="ColorScheme-Text" />
</svg>
