<?xml version="1.0" encoding="UTF-8" standalone="no"?>
<svg
   width="64"
   height="64"
   version="1.1"
   viewBox="0 0 16.933 16.933"
   id="svg7"
   sodipodi:docname="office-calendar.svg"
   inkscape:version="1.4.4 (dcaf3e7d9e, 2026-05-05)"
   xmlns:inkscape="http://www.inkscape.org/namespaces/inkscape"
   xmlns:sodipodi="http://sodipodi.sourceforge.net/DTD/sodipodi-0.dtd"
   xmlns="http://www.w3.org/2000/svg"
   xmlns:svg="http://www.w3.org/2000/svg"
   xmlns:rdf="http://www.w3.org/1999/02/22-rdf-syntax-ns#"
   xmlns:cc="http://creativecommons.org/ns#"
   xmlns:dc="http://purl.org/dc/elements/1.1/">
  <sodipodi:namedview
     id="namedview7"
     pagecolor="#9c4444"
     bordercolor="#000000"
     borderopacity="0.25"
     inkscape:showpageshadow="2"
     inkscape:pageopacity="0.0"
     inkscape:pagecheckerboard="0"
     inkscape:deskcolor="#d1d1d1"
     inkscape:zoom="4.3531262"
     inkscape:cx="90.165086"
     inkscape:cy="35.147155"
     inkscape:window-width="2560"
     inkscape:window-height="1388"
     inkscape:window-x="0"
     inkscape:window-y="0"
     inkscape:window-maximized="1"
     inkscape:current-layer="svg7"
     showgrid="false" />
  <defs
     id="defs2">
    <style
       id="current-color-scheme"
       type="text/css">.ColorScheme-Text {color:#d8dee9} .ColorScheme-Highlight {color:#3b4252}</style>
  </defs>
  <metadata
     id="metadata2">
    <rdf:RDF>
      <cc:Work
         rdf:about="">
        <dc:format>image/svg+xml</dc:format>
        <dc:type
           rdf:resource="http://purl.org/dc/dcmitype/StillImage" />
      </cc:Work>
    </rdf:RDF>
  </metadata>
  <path
     id="path5"
     style="fill:currentColor;fill-opacity:1;stroke-width:0.188984"
     d="m 5.064782,4.3088435 c -0.2088279,0 -0.377969,0.1691411 -0.377969,0.3779688 v 0.7559374 c 0,0.2088278 0.1691411,0.3779687 0.377969,0.3779687 0.2088278,0 0.3779683,-0.1691409 0.3779683,-0.3779687 V 4.6868123 c 0,-0.2088277 -0.1691405,-0.3779688 -0.3779683,-0.3779688 z m 6.803437,0 c -0.208829,0 -0.377969,0.1691411 -0.377969,0.3779688 v 0.7559374 c 0,0.2088278 0.16914,0.3779687 0.377969,0.3779687 0.208828,0 0.377969,-0.1691409 0.377969,-0.3779687 V 4.6868123 c 0,-0.2088277 -0.169141,-0.3779688 -0.377969,-0.3779688 z M 4.3088439,3.1749373 c -0.6262943,0 -1.1339056,0.5076121 -1.1339056,1.1339062 V 5.064781 H 4.497828 V 4.6868123 c 0,-0.1694585 0.074226,-0.3213548 0.1919367,-0.4252149 0.023283,-0.1864558 0.1822286,-0.3307226 0.3750173,-0.3307226 0.1927887,0 0.3517335,0.1442668 0.3750166,0.3307226 0.1177124,0.1038601 0.1919359,0.2557564 0.1919359,0.4252149 V 5.064781 H 11.301266 V 4.6868123 c 0,-0.1694585 0.07423,-0.3213548 0.191936,-0.4252149 0.02328,-0.1864558 0.182228,-0.3307226 0.375017,-0.3307226 0.192788,0 0.351733,0.1442668 0.375016,0.3307226 0.117713,0.1038601 0.191936,0.2557564 0.191936,0.4252149 V 5.064781 h 1.322891 V 4.3088435 c 0,-0.6262941 -0.507612,-1.1339062 -1.133905,-1.1339062 z M 3.1749383,5.2537654 v 7.3703906 c 0,0.626295 0.5076113,1.133907 1.1339056,1.133907 h 8.3153131 c 0.626293,0 1.133905,-0.507612 1.133905,-1.133907 V 5.2537654 h -1.322891 v 0.1889843 c 0,0.1694586 -0.07423,0.3213545 -0.191936,0.4252148 -0.02328,0.1864558 -0.182228,0.3307226 -0.375016,0.3307226 -0.192789,0 -0.351734,-0.1442668 -0.375017,-0.3307226 C 11.375489,5.7641042 11.301266,5.6122082 11.301266,5.4427496 V 5.2537654 H 5.6317345 v 0.1889843 c 0,0.1694586 -0.074226,0.3213545 -0.1919359,0.4252148 C 5.4165156,6.0544203 5.2575707,6.1986871 5.064782,6.1986871 4.8719933,6.1986871 4.7130477,6.0544203 4.6897647,5.8679645 4.5720522,5.7641042 4.497828,5.6122082 4.497828,5.4427496 V 5.2537654 Z M 4.686813,6.9546245 h 0.377969 c 0.2088278,0 0.3779683,0.169141 0.3779683,0.3779689 v 0.3779687 c 0,0.2088277 -0.1691405,0.3779686 -0.3779683,0.3779686 H 4.686813 c -0.208828,0 -0.3779691,-0.1691409 -0.3779691,-0.3779686 V 7.3325934 c 0,-0.2088278 0.1691411,-0.3779689 0.3779691,-0.3779689 z m 1.8898437,0 h 0.3779689 c 0.2088272,0 0.3779683,0.169141 0.3779683,0.3779689 v 0.3779687 c 0,0.2088277 -0.1691411,0.3779686 -0.3779683,0.3779686 H 6.5766567 c -0.2088281,0 -0.3779683,-0.1691409 -0.3779683,-0.3779686 V 7.3325934 c 0,-0.2088278 0.1691402,-0.3779689 0.3779683,-0.3779689 z m 1.8898436,0 h 0.3779683 c 0.2088279,0 0.377969,0.169141 0.377969,0.3779689 v 0.3779687 c 0,0.2088277 -0.1691411,0.3779686 -0.377969,0.3779686 H 8.4665003 c -0.2088279,0 -0.3779682,-0.1691409 -0.3779682,-0.3779686 V 7.3325934 c 0,-0.2088278 0.1691403,-0.3779689 0.3779682,-0.3779689 z m 1.8898447,0 h 0.377967 c 0.208828,0 0.377969,0.169141 0.377969,0.3779689 v 0.3779687 c 0,0.2088277 -0.169141,0.3779686 -0.377969,0.3779686 h -0.377967 c -0.208829,0 -0.3779703,-0.1691409 -0.3779703,-0.3779686 V 7.3325934 c 0,-0.2088278 0.1691413,-0.3779689 0.3779703,-0.3779689 z m -5.669532,1.889844 h 0.377969 c 0.2088278,0 0.3779683,0.1691411 0.3779683,0.3779682 v 0.377969 c 0,0.2088276 -0.1691405,0.377968 -0.3779683,0.377968 H 4.686813 c -0.208828,0 -0.3779691,-0.1691404 -0.3779691,-0.377968 v -0.377969 c 0,-0.2088271 0.1691411,-0.3779682 0.3779691,-0.3779682 z m 1.8898437,0 h 0.3779689 c 0.2088272,0 0.3779683,0.1691411 0.3779683,0.3779682 v 0.377969 c 0,0.2088276 -0.1691411,0.377968 -0.3779683,0.377968 H 6.5766567 c -0.2088281,0 -0.3779683,-0.1691404 -0.3779683,-0.377968 v -0.377969 c 0,-0.2088271 0.1691402,-0.3779682 0.3779683,-0.3779682 z m 1.8898436,0 h 0.3779683 c 0.2088279,0 0.377969,0.1691411 0.377969,0.3779682 v 0.377969 c 0,0.2088276 -0.1691411,0.377968 -0.377969,0.377968 H 8.4665003 c -0.2088279,0 -0.3779682,-0.1691404 -0.3779682,-0.377968 v -0.377969 c 0,-0.2088271 0.1691403,-0.3779682 0.3779682,-0.3779682 z M 12.849314,9.600774 a 0.46024781,0.46024781 0 0 1 0.329983,0.1232835 0.46024781,0.46024781 0 0 1 0.02288,0.6503725 l -2.312466,2.481158 a 0.46029382,0.46029382 0 0 1 -0.689866,-0.01846 L 9.2748542,11.729794 a 0.46024781,0.46024781 0 0 1 0.058325,-0.648159 0.46024781,0.46024781 0 0 1 0.648156,0.05795 L 10.57191,11.846796 12.528563,9.7469275 A 0.46024781,0.46024781 0 0 1 12.84932,9.6007626 Z m -8.162501,1.133539 h 0.377969 c 0.2088278,0 0.3779683,0.169139 0.3779683,0.377967 v 0.377969 c 0,0.208827 -0.1691405,0.377969 -0.3779683,0.377969 H 4.686813 c -0.208828,0 -0.3779691,-0.169142 -0.3779691,-0.377969 V 11.11228 c 0,-0.208828 0.1691411,-0.377967 0.3779691,-0.377967 z m 1.8898437,0 h 0.3779689 c 0.2088272,0 0.3779683,0.169139 0.3779683,0.377967 v 0.377969 c 0,0.208827 -0.1691411,0.377969 -0.3779683,0.377969 H 6.5766567 c -0.2088281,0 -0.3779683,-0.169142 -0.3779683,-0.377969 V 11.11228 c 0,-0.208828 0.1691402,-0.377967 0.3779683,-0.377967 z"
     class="ColorScheme-Text" />
</svg>
