<?xml version="1.0" encoding="UTF-8" standalone="no"?>
<svg
   width="64"
   height="64"
   version="1.1"
   viewBox="0 0 16.933 16.933"
   id="svg7"
   sodipodi:docname="office2024-presentations.svg"
   inkscape:version="1.4.4 (dcaf3e7d9e, 2026-05-05)"
   xmlns:inkscape="http://www.inkscape.org/namespaces/inkscape"
   xmlns:sodipodi="http://sodipodi.sourceforge.net/DTD/sodipodi-0.dtd"
   xmlns="http://www.w3.org/2000/svg"
   xmlns:svg="http://www.w3.org/2000/svg"
   xmlns:rdf="http://www.w3.org/1999/02/22-rdf-syntax-ns#"
   xmlns:cc="http://creativecommons.org/ns#"
   xmlns:dc="http://purl.org/dc/elements/1.1/">
  <sodipodi:namedview
     id="namedview7"
     pagecolor="#9c4444"
     bordercolor="#000000"
     borderopacity="0.25"
     inkscape:showpageshadow="2"
     inkscape:pageopacity="0.0"
     inkscape:pagecheckerboard="0"
     inkscape:deskcolor="#d1d1d1"
     inkscape:zoom="4.3531262"
     inkscape:cx="89.935366"
     inkscape:cy="34.457995"
     inkscape:window-width="2560"
     inkscape:window-height="1388"
     inkscape:window-x="0"
     inkscape:window-y="0"
     inkscape:window-maximized="1"
     inkscape:current-layer="svg7"
     showgrid="false" />
  <defs
     id="defs2">
    <style
       id="current-color-scheme"
       type="text/css">.ColorScheme-Text {color:#d8dee9} .ColorScheme-Highlight {color:#3b4252}</style>
  </defs>
  <metadata
     id="metadata2">
    <rdf:RDF>
      <cc:Work
         rdf:about="">
        <dc:format>image/svg+xml</dc:format>
        <dc:type
           rdf:resource="http://purl.org/dc/dcmitype/StillImage" />
      </cc:Work>
    </rdf:RDF>
  </metadata>
  <path
     id="path5"
     style="fill:currentColor"
     d="m 2.6381754,2.072537 c -1.1683966,0 -2.10901909,0.940623 -2.10901909,2.109019 v 8.569887 c 0,1.168397 0.94062249,2.10902 2.10901909,2.10902 h 8.5837426 c 1.168397,0 2.10902,-0.940623 2.10902,-2.10902 v -0.191229 h -2.560757 c -0.9913664,0 -1.7894702,-0.798104 -1.7894702,-1.789471 V 6.146029 c 0,-0.991366 0.7981038,-1.78947 1.7894702,-1.78947 h 2.560757 V 4.181556 c 0,-1.168396 -0.940623,-2.109019 -2.10902,-2.109019 z M 5.7836046,4.704692 V 8.331815 H 2.1343875 A 3.7706705,3.7706705 0 0 1 5.7836046,4.704692 Z m 0.2556388,5.07e-4 a 3.7706705,3.7706705 0 0 1 2.6341519,1.211038 c -0.00812,0.07546 -0.012232,0.152135 -0.012232,0.2298 v 2.185787 h -2.621919 z m 4.7587736,0.168387 c -0.725822,0 -1.3101478,0.584326 -1.3101478,1.310148 v 4.539575 c 0,0.725822 0.5843258,1.310148 1.3101478,1.310148 h 4.295679 c 0.725822,0 1.310148,-0.584326 1.310148,-1.310148 V 6.183726 c 0,-0.725822 -0.584326,-1.310148 -1.310148,-1.310148 z m 2.204759,1.102566 c 0.254504,0 0.495369,0.02954 0.722604,0.08862 0.231779,0.05908 0.472645,0.143071 0.722604,0.252144 l -0.334029,0.804488 c -0.22269,-0.09089 -0.422658,-0.161335 -0.599902,-0.211326 -0.177243,-0.04999 -0.35902,-0.07502 -0.545354,-0.07502 -0.195422,0 -0.34546,0.04541 -0.449988,0.136307 -0.104529,0.09089 -0.156779,0.209068 -0.156779,0.354499 0,0.172699 0.07728,0.309063 0.231797,0.409047 0.15452,0.09998 0.384032,0.222674 0.688527,0.368104 0.249959,0.118163 0.46128,0.240853 0.633979,0.368105 0.177244,0.127251 0.313609,0.27729 0.409047,0.449989 0.09544,0.172699 0.143173,0.386216 0.143173,0.640719 0,0.431747 -0.156876,0.777238 -0.47046,1.036286 -0.30904,0.254503 -0.749874,0.38171 -1.322506,0.38171 -0.513551,0 -0.972576,-0.09766 -1.377054,-0.293085 V 9.725463 c 0.23178,0.09998 0.47045,0.193131 0.715864,0.279481 0.249958,0.0818 0.49766,0.122701 0.743074,0.122701 0.254504,0 0.433961,-0.04773 0.538489,-0.143172 0.109073,-0.09998 0.163644,-0.224871 0.163644,-0.374846 0,-0.122707 -0.04322,-0.227332 -0.129568,-0.313681 C 13.248138,9.209596 13.136796,9.130123 12.995911,9.057408 12.855025,8.980148 12.693758,8.898354 12.51197,8.812005 12.398352,8.757465 12.275537,8.693865 12.14374,8.621149 12.011944,8.543889 11.884737,8.450742 11.76203,8.34167 11.643868,8.228052 11.546204,8.091687 11.468944,7.932623 11.391684,7.773558 11.352983,7.582622 11.352983,7.359932 c 0,-0.436291 0.147718,-0.77482 0.443123,-1.015689 0.295406,-0.245414 0.697664,-0.368105 1.20667,-0.368105 z M 2.1333889,8.587454 h 3.6502157 v 3.654834 A 3.7706705,3.7706705 0 0 1 2.1333889,8.587454 Z m 3.9058545,0 h 2.6219189 v 2.183289 c 0,0.08689 0.00522,0.172546 0.015353,0.256637 a 3.7706705,3.7706705 0 0 1 -2.6372721,1.214283 z"
     class="ColorScheme-Text" />
</svg>
