<?xml version="1.0" encoding="UTF-8" standalone="no"?>
<svg
   width="64"
   height="64"
   version="1.1"
   viewBox="0 0 16.933 16.933"
   id="svg7"
   sodipodi:docname="ollama.svg"
   inkscape:version="1.4.4 (dcaf3e7d9e, 2026-05-05)"
   xmlns:inkscape="http://www.inkscape.org/namespaces/inkscape"
   xmlns:sodipodi="http://sodipodi.sourceforge.net/DTD/sodipodi-0.dtd"
   xmlns="http://www.w3.org/2000/svg"
   xmlns:svg="http://www.w3.org/2000/svg"
   xmlns:rdf="http://www.w3.org/1999/02/22-rdf-syntax-ns#"
   xmlns:cc="http://creativecommons.org/ns#"
   xmlns:dc="http://purl.org/dc/elements/1.1/">
  <sodipodi:namedview
     id="namedview7"
     pagecolor="#9c4444"
     bordercolor="#000000"
     borderopacity="0.25"
     inkscape:showpageshadow="2"
     inkscape:pageopacity="0.0"
     inkscape:pagecheckerboard="0"
     inkscape:deskcolor="#d1d1d1"
     inkscape:zoom="12.3125"
     inkscape:cx="21.319797"
     inkscape:cy="37.035533"
     inkscape:window-width="2560"
     inkscape:window-height="1392"
     inkscape:window-x="0"
     inkscape:window-y="0"
     inkscape:window-maximized="1"
     inkscape:current-layer="svg7"
     showgrid="true">
    <inkscape:grid
       id="grid19"
       units="px"
       originx="0"
       originy="0"
       spacingx="0.26457812"
       spacingy="0.26457812"
       empcolor="#0099e5"
       empopacity="0.30196078"
       color="#0099e5"
       opacity="0.14902"
       empspacing="5"
       enabled="true"
       visible="true" />
  </sodipodi:namedview>
  <defs
     id="defs2">
    <inkscape:path-effect
       effect="offset"
       id="path-effect18"
       is_visible="true"
       lpeversion="1.3"
       linejoin_type="miter"
       unit="mm"
       offset="-0.13229167"
       miter_limit="4"
       attempt_force_join="false"
       update_on_knot_move="true" />
    <style
       id="current-color-scheme"
       type="text/css">.ColorScheme-Text {color:#d8dee9} .ColorScheme-Highlight {color:#3b4252}</style>
  </defs>
  <metadata
     id="metadata2">
    <rdf:RDF>
      <cc:Work
         rdf:about="">
        <dc:format>image/svg+xml</dc:format>
        <dc:type
           rdf:resource="http://purl.org/dc/dcmitype/StillImage" />
      </cc:Work>
    </rdf:RDF>
  </metadata>
  <path
     id="path5"
     d="m 5.545075,1.4551676 c -0.0299,-9e-5 -0.0559,10e-4 -0.0737,0.004 -0.13088,0.0211 -0.28795,0.0896 -0.3987,0.17417 -0.33526,0.25473 -0.59501,0.79537 -0.70475,1.46892 -0.0413,0.25472 -0.0695,0.60812 -0.0695,0.87794 0,0.31815 0.0373,0.72489 0.0906,1.0058 0.0121,0.0624 0.0181,0.11779 0.0131,0.12182 -0.004,0.004 -0.0534,0.0443 -0.10873,0.0886 -0.18928,0.15102 -0.40575,0.38359 -0.55475,0.59603 -0.28593,0.40574 -0.47118,0.86685 -0.5487,1.36622 -0.0302,0.19733 -0.0383,0.59603 -0.0141,0.79337 0.0534,0.4551 0.19029,0.83967 0.42488,1.19207 l 0.0765,0.11372 -0.0222,0.0373 c -0.15706,0.26376 -0.29096,0.64531 -0.35338,1.0118304 -0.0493,0.28996 -0.0554,0.36744 -0.0554,0.75609 0,0.39167 0.005,0.46914 0.0513,0.74 0.0554,0.32416 0.16812,0.66751 0.29398,0.89607 0.0413,0.0745 0.14196,0.22955 0.15404,0.23755 0.004,0.002 -0.008,0.0393 -0.0272,0.0826 -0.14498,0.31714 -0.26882,0.73894 -0.32017,1.09436 -0.0362,0.24367 -0.0413,0.3222 -0.0413,0.57894 0,0.32718 0.0181,0.48628 0.0866,0.74701 l 0.0101,0.0383 h 0.43091 0.43191 l -0.0282,-0.0534 c -0.17418,-0.3222 -0.19029,-0.92024 -0.0403,-1.51722 0.0685,-0.27591 0.14599,-0.47829 0.29096,-0.75715 l 0.0866,-0.16913 v -0.10368 c 0,-0.0967 -0.002,-0.10775 -0.0332,-0.17118 -0.0242,-0.0483 -0.0564,-0.0896 -0.11376,-0.14596 -0.0977,-0.0947 -0.16813,-0.19436 -0.22451,-0.31714 -0.24768,-0.53763 -0.296,-1.33607 -0.12182,-2.01664 0.0725,-0.2839204 0.1923,-0.5366504 0.31814,-0.6745304 0.0856,-0.0947 0.12987,-0.20041 0.12987,-0.31013 0,-0.11379 -0.0403,-0.20742 -0.13087,-0.30506 -0.25975,-0.27788 -0.41984,-0.61615 -0.47723,-1.00978 -0.0816,-0.56083 0.0665,-1.17195 0.40272,-1.65622 0.32923,-0.47521 0.79134,-0.78027 1.30783,-0.86182 0.11579,-0.0191 0.33224,-0.0161 0.45306,0.006 0.13189,0.0231 0.21444,0.0161 0.29901,-0.0242 0.10471,-0.0493 0.15706,-0.11073 0.21848,-0.25169 0.0544,-0.12585 0.0967,-0.19431 0.21043,-0.33627 0.13693,-0.17015 0.26881,-0.28593 0.48024,-0.42587 0.24163,-0.15808 0.51649,-0.27285 0.79034,-0.32822 0.0997,-0.0201 0.14599,-0.0232 0.33225,-0.0232 0.18625,0 0.23252,0.003 0.3322,0.0232 0.40171,0.0815 0.80041,0.28895 1.1186,0.58293 0.0684,0.0634 0.23258,0.2668 0.28491,0.35137 0.0202,0.0332 0.0553,0.10371 0.0775,0.15606 0.0614,0.14096 0.11372,0.20236 0.21845,0.25169 0.0815,0.0393 0.1671,0.0473 0.29396,0.0262 0.2004,-0.0342 0.35445,-0.0312 0.55078,0.009 0.66849,0.13492 1.25044,0.68563 1.50816,1.42361 0.22449,0.64738 0.16105,1.32499 -0.17316,1.84246 -0.0564,0.0876 -0.11281,0.15803 -0.19436,0.24464 -0.17616,0.18825 -0.17616,0.42188 -9.7e-4,0.61519 0.28792,0.3151 0.46816,1.0903604 0.4138,1.7739504 -0.0362,0.45102 -0.15201,0.85478 -0.31111,1.08334 -0.0282,0.0402 -0.0866,0.10874 -0.13086,0.15102 -0.0574,0.0563 -0.0896,0.0976 -0.1138,0.14596 -0.0312,0.0634 -0.0332,0.0745 -0.0332,0.17118 v 0.10368 l 0.0866,0.16913 c 0.14498,0.27886 0.22246,0.48124 0.29095,0.75715 0.148,0.58898 0.13493,1.17493 -0.0342,1.50815 -0.0141,0.0282 -0.0262,0.0544 -0.0262,0.0574 0,0.003 0.19232,0.005 0.42792,0.005 h 0.42685 l 0.0111,-0.0433 c 0.006,-0.0231 0.0161,-0.0584 0.0211,-0.0785 0.011,-0.0443 0.0332,-0.17518 0.0514,-0.30098 0.0171,-0.12685 0.0171,-0.59403 0,-0.73501 -0.0645,-0.51143 -0.17217,-0.91714 -0.34841,-1.30073 -0.0191,-0.0433 -0.0312,-0.0806 -0.0272,-0.0826 0.005,-0.003 0.0332,-0.0433 0.0634,-0.0886 0.21951,-0.33224 0.35445,-0.75002 0.42286,-1.30178 0.0181,-0.152 0.0181,-0.80546 0,-0.95142 -0.0483,-0.37657 -0.1067,-0.6322404 -0.20335,-0.8910204 -0.0402,-0.10775 -0.14702,-0.33527 -0.19233,-0.40874 l -0.0221,-0.0373 0.0765,-0.11372 c 0.23461,-0.3524 0.37152,-0.73697 0.42491,-1.19207 0.0242,-0.19734 0.0161,-0.59604 -0.0141,-0.79337 -0.0785,-0.50038 -0.26277,-0.95948 -0.54866,-1.36622 -0.14905,-0.21244 -0.36545,-0.44501 -0.55476,-0.59603 -0.0554,-0.0443 -0.10473,-0.0846 -0.10873,-0.0886 -0.005,-0.004 9.7e-4,-0.0594 0.013,-0.12182 0.12187,-0.6353 0.11781,-1.42765 -0.01,-2.04684 -0.11077,-0.53964 -0.31209,-0.96853 -0.57184,-1.21621 -0.20743,-0.19733 -0.41886,-0.28189 -0.67257,-0.26579 -0.58195,0.0342 -1.0511,0.70375 -1.23633,1.75887 -0.0302,0.17015 -0.0564,0.3695 -0.0564,0.42387 0,0.0211 -0.004,0.0383 -0.009,0.0383 -0.005,0 -0.0443,-0.0201 -0.0866,-0.0453 -0.44898,-0.26579 -0.94839,-0.40775 -1.43464,-0.40775 -0.48629,0 -0.98566,0.14196 -1.43469,0.40775 -0.0423,0.0252 -0.0816,0.0453 -0.0866,0.0453 -0.005,0 -0.009,-0.0171 -0.009,-0.0383 0,-0.0564 -0.0272,-0.26177 -0.0564,-0.42387 -0.16814,-0.94739 -0.55374,-1.57462 -1.06619,-1.73269 -0.0529,-0.0159 -0.17877,-0.0277 -0.26858,-0.028 z m 0.0471,0.79471 c 0.013,1.1e-4 0.0263,0.009 0.0504,0.0287 0.14498,0.11478 0.30605,0.443 0.39868,0.81048 0.0171,0.0665 0.0353,0.14296 0.0403,0.17115 0.004,0.0272 0.0151,0.0886 0.0241,0.13592 0.0393,0.21344 0.0574,0.444 0.0594,0.72489 l 0.001,0.27688 -0.0695,0.10269 -0.0695,0.1037 h -0.16208 c -0.18928,0 -0.37755,0.0242 -0.55777,0.0725 -0.0644,0.0161 -0.12686,0.0322 -0.13894,0.0352 -0.0191,0.004 -0.0222,-0.002 -0.0332,-0.0846 -0.0594,-0.44803 -0.0564,-0.94437 0.009,-1.35716 0.0725,-0.4601 0.24162,-0.87692 0.40674,-0.99975 0.0184,-0.0137 0.0297,-0.0207 0.0413,-0.0206 z m 5.74903,1.7e-4 c 0.0117,3e-5 0.0232,0.007 0.0421,0.0215 0.0997,0.0735 0.20939,0.26882 0.29094,0.5185 0.16416,0.49938 0.21045,1.18501 0.12384,1.83741 -0.011,0.0826 -0.014,0.0886 -0.0332,0.0846 -0.0121,-0.003 -0.0745,-0.0191 -0.13894,-0.0352 -0.18017,-0.0483 -0.36848,-0.0725 -0.55771,-0.0725 h -0.16213 l -0.0695,-0.1037 -0.0695,-0.10269 9.7e-4,-0.27688 c 0.002,-0.39063 0.0383,-0.69569 0.1249,-1.03498 0.0916,-0.36446 0.2537,-0.69268 0.39762,-0.80746 0.0241,-0.0192 0.0374,-0.0285 0.0506,-0.0285 z m -3.03065,5.08869 c -0.21847,0.0212 -0.27787,0.0292 -0.38258,0.0503 -0.17014,0.0352 -0.39769,0.11377 -0.55576,0.1913 -0.54971,0.26882 -0.92826,0.71681 -1.04404,1.23534 -0.0232,0.10269 -0.0262,0.1369 -0.0262,0.31012 0,0.1711 0.003,0.20841 0.0252,0.30605 0.15404,0.6775504 0.77826,1.1779404 1.58571,1.2695404 0.17519,0.0192 0.93232,0.0192 1.10751,0 0.64832,-0.0735 1.20611,-0.42482 1.45681,-0.9182004 0.0664,-0.13184 0.0987,-0.21746 0.12889,-0.35134 0.0221,-0.0976 0.0251,-0.13495 0.0251,-0.30605 0,-0.17322 -0.003,-0.20743 -0.0262,-0.31012 -0.16808,-0.75306 -0.89902,-1.34609 -1.7951,-1.45885 -0.11681,-0.0141 -0.42285,-0.0262 -0.49937,-0.0181 z m -2.53838,0.0955 c -0.0506,6.3e-4 -0.0999,0.007 -0.13465,0.0183 -0.17821,0.0564 -0.31111,0.18726 -0.37957,0.37351 -0.0332,0.0887 -0.0493,0.22856 -0.0352,0.30407 0.0332,0.18025 0.18123,0.34433 0.34936,0.38963 0.21142,0.0553 0.36949,0.0191 0.50944,-0.11983 0.0815,-0.0795 0.12585,-0.14898 0.17014,-0.26171 0.0322,-0.0796 0.0342,-0.0936 0.0342,-0.20645 l 0.001,-0.12081 -0.0423,-0.0866 c -0.0675,-0.13693 -0.18928,-0.23862 -0.33023,-0.27587 -0.0398,-0.0101 -0.0916,-0.0149 -0.14221,-0.0142 z m 5.38083,1.4e-4 c -0.0504,0 -0.10145,0.005 -0.13819,0.0151 -0.13796,0.0373 -0.26073,0.13995 -0.3262,0.27486 l -0.0423,0.0866 9.7e-4,0.12081 c 0,0.11282 0.002,0.12686 0.0343,0.20645 0.0443,0.11273 0.0886,0.1822 0.17012,0.26172 0.13992,0.13893 0.29805,0.17517 0.50947,0.11982 0.1218,-0.0322 0.2436,-0.13494 0.30204,-0.25469 0.0503,-0.10172 0.0624,-0.17518 0.0463,-0.29101 -0.0372,-0.26478 -0.19232,-0.45707 -0.42285,-0.52453 -0.0337,-0.0101 -0.0833,-0.0151 -0.13365,-0.0151 z m -2.46593,0.45204 c 0.29902,0.0322 0.60008,0.13894 0.84171,0.30007 0.12988,0.0865 0.31314,0.26776 0.39167,0.38661 0.0967,0.14694 0.15199,0.29697 0.17714,0.47918 0.0111,0.0836 0.005,0.14703 -0.0251,0.28197 -0.0474,0.2013 -0.19429,0.41175 -0.39266,0.55877 -0.0926,0.0674 -0.28489,0.1650604 -0.40269,0.2033404 -0.22351,0.0715 -0.36955,0.0846 -0.89105,0.0806 -0.3403,-0.003 -0.40071,-0.006 -0.49836,-0.0242 -0.33325,-0.0625 -0.59704,-0.1953404 -0.78833,-0.3977104 -0.15504,-0.1631 -0.22551,-0.31208 -0.26377,-0.55273 -0.0171,-0.11175 0.0151,-0.29698 0.0805,-0.45305 0.0795,-0.19029 0.28492,-0.42686 0.48829,-0.56278 0.2356,-0.15706 0.54569,-0.26882 0.83061,-0.29903 0.10974,-0.0121 0.34231,-0.0121 0.45203,-0.001 z m 0.0242,0.71485 c -0.0735,0 -0.12081,0.0171 -0.20734,0.0725 l -0.0494,0.0312 -0.0312,-0.0191 c -0.12786,-0.0755 -0.15103,-0.0846 -0.22855,-0.0836 -0.0554,0 -0.0856,0.005 -0.11277,0.0192 -0.0765,0.0412 -0.12987,0.14596 -0.11376,0.22351 0.0181,0.0835 0.0916,0.16807 0.2064,0.23754 0.0614,0.0373 0.0654,0.0423 0.0685,0.0796 0.002,0.0221 -0.006,0.0856 -0.0171,0.14196 -0.0121,0.0554 -0.0212,0.11371 -0.0212,0.12987 10e-4,0.0433 0.0413,0.11372 0.0836,0.148 0.0373,0.0302 0.0443,0.0312 0.14902,0.0342 0.0956,0.003 0.11577,9.9e-4 0.15405,-0.0171 0.0986,-0.0483 0.12384,-0.1369 0.0876,-0.30702 -0.0302,-0.14196 -0.0241,-0.16415 0.0514,-0.20742 0.0795,-0.0463 0.16407,-0.12785 0.18921,-0.18327 0.0483,-0.10572 0.004,-0.22547 -0.10269,-0.28089 -0.0261,-0.0131 -0.0584,-0.0191 -0.10571,-0.0191 z"
     style="fill:currentColor"
     class="ColorScheme-Text" />
</svg>
