<?xml version="1.0" encoding="UTF-8" standalone="no"?>
<svg
   width="64"
   height="64"
   version="1.1"
   viewBox="0 0 16.933 16.933"
   id="svg7"
   sodipodi:docname="org.kde.keepsecret.svg"
   inkscape:version="1.4.4 (dcaf3e7d9e, 2026-05-05)"
   xmlns:inkscape="http://www.inkscape.org/namespaces/inkscape"
   xmlns:sodipodi="http://sodipodi.sourceforge.net/DTD/sodipodi-0.dtd"
   xmlns="http://www.w3.org/2000/svg"
   xmlns:svg="http://www.w3.org/2000/svg"
   xmlns:rdf="http://www.w3.org/1999/02/22-rdf-syntax-ns#"
   xmlns:cc="http://creativecommons.org/ns#"
   xmlns:dc="http://purl.org/dc/elements/1.1/">
  <sodipodi:namedview
     id="namedview7"
     pagecolor="#9c4444"
     bordercolor="#000000"
     borderopacity="0.25"
     inkscape:showpageshadow="2"
     inkscape:pageopacity="0.0"
     inkscape:pagecheckerboard="0"
     inkscape:deskcolor="#d1d1d1"
     inkscape:zoom="4.3531262"
     inkscape:cx="89.820506"
     inkscape:cy="34.917435"
     inkscape:window-width="2560"
     inkscape:window-height="1388"
     inkscape:window-x="0"
     inkscape:window-y="0"
     inkscape:window-maximized="1"
     inkscape:current-layer="svg7"
     showgrid="false" />
  <defs
     id="defs2">
    <style
       id="current-color-scheme"
       type="text/css">.ColorScheme-Text {color:#d8dee9} .ColorScheme-Highlight {color:#3b4252}</style>
  </defs>
  <metadata
     id="metadata2">
    <rdf:RDF>
      <cc:Work
         rdf:about="">
        <dc:format>image/svg+xml</dc:format>
        <dc:type
           rdf:resource="http://purl.org/dc/dcmitype/StillImage" />
      </cc:Work>
    </rdf:RDF>
  </metadata>
  <path
     id="path5"
     d="m 12.200026,1.5639352 c -0.08993,0.00238 -0.18057,0.02661 -0.264225,0.074819 L 0.80869389,8.0509274 C 0.54099534,8.2051901 0.44975736,8.5451541 0.60446015,8.8125967 L 4.2348562,15.087938 c 0.1547018,0.267442 0.4946421,0.358501 0.7623426,0.204234 L 16.124307,8.8799985 C 16.392003,8.7257388 16.483242,8.3864492 16.328541,8.1190047 L 12.698145,1.8429884 C 12.591786,1.6591197 12.397857,1.5586795 12.200018,1.5639472 Z m -7.463008,0.00202 c -0.1978314,-0.00526 -0.3917612,0.095184 -0.4981174,0.27905 L 1.8312548,6.0065756 2.7479852,6.5356433 8.1221319,3.4390864 5.0013141,1.6407405 C 4.91765,1.5925337 4.8270155,1.5683008 4.7370869,1.5659212 Z m 7.87013,2.9058003 0.174578,0.3019699 L 10.66523,5.9930698 10.491326,5.691772 Z M 9.7936911,4.484564 10.142844,5.0878331 9.53823,5.4363115 9.1890766,4.8330424 Z M 8.8864308,5.0069455 9.2355842,5.6102147 6.8171156,7.0041377 6.4679622,6.4008681 Z m 4.2457962,0.3693778 0.174578,0.30197 L 7.8639054,8.8146169 7.6893291,8.5126434 Z M 10.189354,5.8650024 10.363932,6.1669753 9.7593148,6.5154568 9.5847376,6.2134843 Z M 1.6559678,6.3038057 0.90912626,7.5952711 2.4028043,6.7345203 Z M 9.2820927,6.3880605 9.4566699,6.690034 7.3401728,7.9093778 7.1655976,7.6074053 Z M 5.861998,6.7500235 8.6545587,11.57752 5.0261829,13.668403 2.2336222,8.8409034 Z m 8.141094,0.1361574 0.697632,1.2072077 -1.20923,0.6969629 -0.69831,-1.2072096 z m -1.524687,0.886365 0.69831,1.2072116 -1.209908,0.696962 -0.698309,-1.2072116 z M 4.7181439,7.9585799 C 4.5493871,7.9631087 4.3790759,8.0083078 4.2220496,8.0987818 3.7195688,8.3883326 3.5489543,9.0252913 3.8391923,9.52708 4.1294304,10.028524 4.7670349,10.199483 5.2695128,9.9099363 5.7719946,9.6203904 5.9432805,8.9834278 5.6530435,8.4816391 5.4535049,8.1368953 5.0894184,7.9486215 4.718139,7.9585868 Z m 11.3158391,1.3716788 -4.226253,2.4353193 2.111792,1.21932 z M 7.0267435,10.055529 c -0.3639595,-0.0043 -0.8845869,0.155462 -1.4080773,0.457004 l -5.32e-5,7.65e-4 C 4.7810318,10.995765 4.2626303,11.65302 4.4558877,11.98743 l 0.6983088,1.207212 3.023085,-1.742401 -0.6976344,-1.207213 C 7.4071769,10.119625 7.2450657,10.058177 7.0266903,10.055621 Z M 11.461948,11.965092 9.9541139,12.833938 12.99075,14.587 13.746395,13.283424 Z m -1.8536175,1.067687 -0.7960465,0.459023 3.127559,1.802395 c 0.267702,0.154264 0.607641,0.06321 0.762345,-0.204238 l 0.117276,-0.202886 z"
     style="fill:currentColor"
     class="ColorScheme-Text" />
</svg>
