<?xml version="1.0" encoding="UTF-8" standalone="no"?>
<svg
   width="64"
   height="64"
   version="1.1"
   viewBox="0 0 16.933 16.933"
   id="svg7"
   sodipodi:docname="org.xfce.mousepad.svg"
   inkscape:version="1.4.4 (dcaf3e7d9e, 2026-05-05)"
   xmlns:inkscape="http://www.inkscape.org/namespaces/inkscape"
   xmlns:sodipodi="http://sodipodi.sourceforge.net/DTD/sodipodi-0.dtd"
   xmlns="http://www.w3.org/2000/svg"
   xmlns:svg="http://www.w3.org/2000/svg"
   xmlns:rdf="http://www.w3.org/1999/02/22-rdf-syntax-ns#"
   xmlns:cc="http://creativecommons.org/ns#"
   xmlns:dc="http://purl.org/dc/elements/1.1/">
  <sodipodi:namedview
     id="namedview7"
     pagecolor="#9c4444"
     bordercolor="#000000"
     borderopacity="0.25"
     inkscape:showpageshadow="2"
     inkscape:pageopacity="0.0"
     inkscape:pagecheckerboard="0"
     inkscape:deskcolor="#d1d1d1"
     inkscape:zoom="8.7062522"
     inkscape:cx="65.010752"
     inkscape:cy="22.857137"
     inkscape:window-width="2560"
     inkscape:window-height="1388"
     inkscape:window-x="0"
     inkscape:window-y="0"
     inkscape:window-maximized="1"
     inkscape:current-layer="svg7"
     showgrid="true">
    <inkscape:grid
       id="grid8"
       units="px"
       originx="0"
       originy="0"
       spacingx="0.26457812"
       spacingy="0.26457812"
       empcolor="#0099e5"
       empopacity="0.30196078"
       color="#0099e5"
       opacity="0.14902"
       empspacing="5"
       enabled="true"
       visible="true" />
  </sodipodi:namedview>
  <defs
     id="defs2">
    <inkscape:path-effect
       effect="offset"
       id="path-effect1"
       is_visible="true"
       lpeversion="1.3"
       linejoin_type="miter"
       unit="mm"
       offset="-0.3"
       miter_limit="4"
       attempt_force_join="false"
       update_on_knot_move="true" />
    <style
       id="current-color-scheme"
       type="text/css">.ColorScheme-Text {color:#d8dee9} .ColorScheme-Highlight {color:#3b4252}</style>
  </defs>
  <metadata
     id="metadata2">
    <rdf:RDF>
      <cc:Work
         rdf:about="">
        <dc:format>image/svg+xml</dc:format>
        <dc:type
           rdf:resource="http://purl.org/dc/dcmitype/StillImage" />
      </cc:Work>
    </rdf:RDF>
  </metadata>
  <path
     id="path5"
     style="fill:currentColor"
     d="M 3.2395318 1.4551797 C 2.5014827 1.4551797 1.9073396 2.0493228 1.9073396 2.7873719 L 1.9073396 14.145628 C 1.9073396 14.883676 2.5014827 15.47782 3.2395318 15.47782 L 11.958208 15.47782 C 12.696258 15.47782 13.2904 14.883676 13.2904 14.145628 L 13.2904 8.5564152 L 13.2904 6.8903998 L 11.543254 5.1427373 L 12.473928 4.2120631 C 12.696786 3.9899615 13.001217 3.8996012 13.2904 3.9402504 L 13.2904 3.924231 L 13.2904 3.5976424 L 13.2904 2.7873719 C 13.2904 2.0493229 12.696258 1.4551797 11.958208 1.4551797 L 3.2395318 1.4551797 z M 13.2904 3.9402504 L 13.2904 6.8903998 L 13.72189 7.3213728 L 14.80759 6.2361891 C 15.098819 5.9449409 15.098819 5.4753079 14.80759 5.1840776 L 13.835576 4.2120631 C 13.682194 4.0586824 13.490107 3.9683222 13.2904 3.9402504 z M 2.6933226 1.8484296 C 2.7188136 1.844176 3.3548638 2.1799903 3.7821236 2.2959387 C 4.5440069 2.4906383 5.2401529 3.0765466 5.576294 3.4131612 L 5.5768108 3.4136779 L 5.5768108 3.4141947 L 5.5773275 3.4141947 L 5.5783611 3.4141947 L 5.5788778 3.4147114 L 5.5793946 3.4147114 C 5.5798033 3.4146962 5.580771 3.4146877 5.5809448 3.4147114 C 5.6282458 3.4173839 5.8798775 3.2158391 6.1411063 3.2312637 C 6.5181866 3.2541037 7.6843024 3.5833505 7.840194 3.3599355 C 7.9347256 3.2287772 7.9279241 3.0677359 8.0458621 3.0018249 L 8.0463789 3.0018249 L 8.0474124 3.0013081 L 8.0479291 3.0007914 L 8.0484459 2.9997578 L 8.0489626 2.9997578 L 8.0499962 2.9992411 C 8.0904601 2.9507921 7.8196493 2.4308244 8.128026 2.2607994 C 8.3549941 2.1473626 8.547228 2.7818295 8.6055069 2.8529997 C 8.6316154 2.8848424 8.7702054 2.8935059 8.7538153 2.8209609 C 8.7360586 2.7421665 8.5116397 2.1320647 8.7863708 2.0298103 C 9.232585 1.8531159 9.1540552 2.8097816 9.1656684 2.8369803 L 9.1656684 2.8380138 L 9.1661851 2.8380138 L 9.1672186 2.8385305 C 9.2369279 2.8952809 10.721276 2.9504035 10.812564 3.6276141 C 10.866203 4.0062108 9.5863454 4.4953898 9.4612517 4.5825758 C 9.3362138 4.6697611 9.3478937 4.8089262 9.3966575 4.8952121 C 9.4527129 4.988795 9.8247681 5.3049304 9.7749215 5.4553736 C 9.7406618 5.5422758 9.0462602 5.2230586 9.0018573 5.2900122 C 8.9005981 5.4179005 9.5077262 5.7387694 9.2979574 5.9659267 C 9.2147987 6.0203237 8.2579057 5.5652544 8.2603151 5.5706097 C 8.2346332 5.5803716 6.9083448 5.8126494 5.8889303 5.5044652 L 5.8878968 5.5044652 L 5.88738 5.5044652 L 5.8868633 5.5044652 C 5.8338624 5.5131821 5.2331392 6.1017318 5.1639242 6.0811628 C 5.0677821 6.0459089 5.3050806 5.5528426 5.2786436 5.4553736 C 5.2354301 5.401072 4.8409587 5.6751444 4.8182157 5.5370207 C 4.7910169 5.3554934 5.1647739 5.147809 5.1473881 5.0275011 C 5.0509616 4.3440375 5.1905969 3.9441902 5.4274688 3.6105612 C 5.506457 3.4877423 4.4990058 2.727418 3.7697215 2.4271942 C 3.0855289 2.1455147 2.6999489 1.9035164 2.6907389 1.8551474 L 2.6907389 1.8541139 L 2.6902221 1.8535971 L 2.6902221 1.8530804 L 2.6902221 1.8525636 L 2.6907389 1.8515301 L 2.6907389 1.8510134 L 2.6907389 1.8504966 L 2.6917724 1.8504966 L 2.6922891 1.8504966 L 2.6922891 1.8499799 L 2.6922891 1.8489464 L 2.6928059 1.8489464 L 2.6933226 1.8484296 z M 10.664255 2.299556 L 10.664772 2.299556 L 10.665289 2.299556 L 10.666839 2.3005895 L 10.666839 2.3011062 L 10.667356 2.3011062 L 10.667873 2.301623 C 10.668173 2.301943 10.669173 2.3033135 10.669423 2.30369 C 10.699673 2.357695 10.638737 2.8239843 10.595527 2.8643683 C 10.594827 2.8649183 10.592613 2.8661216 10.59191 2.8664353 L 10.591393 2.8664353 L 10.590876 2.866952 L 10.59036 2.866952 L 10.589326 2.866952 L 10.588809 2.8664353 L 10.588293 2.8664353 L 10.587776 2.8664353 L 10.586742 2.8659185 L 10.586226 2.8659185 C 10.585926 2.8657285 10.584524 2.8646103 10.584159 2.8643683 C 10.540746 2.8265031 10.634268 2.335408 10.662188 2.301623 L 10.662705 2.3011062 L 10.663222 2.3005895 L 10.664255 2.299556 z M 11.039936 2.3724183 L 11.040969 2.3724183 L 11.041486 2.3724183 L 11.042003 2.3724183 L 11.042519 2.3724183 L 11.043553 2.3724183 L 11.04407 2.3724183 L 11.044586 2.3724183 L 11.044586 2.3729351 L 11.04562 2.3729351 L 11.046137 2.3729351 L 11.046653 2.3729351 L 11.04717 2.3734518 L 11.04717 2.3744853 L 11.048204 2.3744853 L 11.04872 2.3744853 L 11.04872 2.3750021 C 11.048761 2.3753221 11.048709 2.3766926 11.04872 2.3770691 C 11.046172 2.4315307 10.801863 2.9237007 10.750553 2.9181107 L 10.74952 2.9181107 L 10.749003 2.9181107 L 10.748486 2.9175939 L 10.74797 2.9175939 L 10.746936 2.9175939 L 10.746936 2.9170772 C 10.677153 2.8654067 10.974396 2.3886583 11.039936 2.3724183 z M 10.975858 5.7090999 L 13.154494 7.8877354 L 7.6391766 13.402536 L 5.4620914 11.2239 L 10.975858 5.7090999 z M 4.8724749 11.813517 L 7.0495601 13.992669 L 4.6223659 14.581252 C 4.4439066 14.624645 4.2819684 14.464623 4.321615 14.286185 L 4.8724749 11.813517 z "
     class="ColorScheme-Text" />
</svg>
