<?xml version="1.0" encoding="UTF-8" standalone="no"?>
<svg
   width="64"
   height="64"
   version="1.1"
   viewBox="0 0 16.933 16.933"
   id="svg7"
   sodipodi:docname="org.gnome.Papers.svg"
   inkscape:version="1.4.4 (dcaf3e7d9e, 2026-05-05)"
   xmlns:inkscape="http://www.inkscape.org/namespaces/inkscape"
   xmlns:sodipodi="http://sodipodi.sourceforge.net/DTD/sodipodi-0.dtd"
   xmlns="http://www.w3.org/2000/svg"
   xmlns:svg="http://www.w3.org/2000/svg"
   xmlns:rdf="http://www.w3.org/1999/02/22-rdf-syntax-ns#"
   xmlns:cc="http://creativecommons.org/ns#"
   xmlns:dc="http://purl.org/dc/elements/1.1/">
  <sodipodi:namedview
     id="namedview7"
     pagecolor="#9c4444"
     bordercolor="#000000"
     borderopacity="0.25"
     inkscape:showpageshadow="2"
     inkscape:pageopacity="0.0"
     inkscape:pagecheckerboard="0"
     inkscape:deskcolor="#d1d1d1"
     inkscape:zoom="4.3531262"
     inkscape:cx="89.935366"
     inkscape:cy="34.457995"
     inkscape:window-width="2560"
     inkscape:window-height="1388"
     inkscape:window-x="0"
     inkscape:window-y="0"
     inkscape:window-maximized="1"
     inkscape:current-layer="svg7"
     showgrid="false" />
  <defs
     id="defs2">
    <style
       id="current-color-scheme"
       type="text/css">.ColorScheme-Text {color:#d8dee9} .ColorScheme-Highlight {color:#3b4252}</style>
  </defs>
  <metadata
     id="metadata2">
    <rdf:RDF>
      <cc:Work
         rdf:about="">
        <dc:format>image/svg+xml</dc:format>
        <dc:type
           rdf:resource="http://purl.org/dc/dcmitype/StillImage" />
      </cc:Work>
    </rdf:RDF>
  </metadata>
  <path
     id="path5"
     style="fill:currentColor"
     d="m 5.9927156,1.4552407 c -0.351267,0.004 -0.673292,0.21499 -0.813764,0.545069 h 2.966839 l -1.907191,-0.513703 c -0.08231,-0.02217 -0.164822,-0.0323 -0.245884,-0.03137 z m -1.278334,0.88198 c -0.55623,0 -1.032229,0.39815 -1.03223,0.91554 v 5.373476 4.4921543 c 0,0.49773 0.4007,0.898431 0.898431,0.898431 l 8.0858774,-10e-7 c 0.49773,0 0.898431,-0.4007 0.898431,-0.89843 V 8.3522767 8.1770217 6.0000377 l -3e-6,-0.0011 c -3.38e-4,-0.03142 -0.0019,-0.06271 -0.0046,-0.0941 l -0.0026,-0.02895 -0.07874,-0.167797 -0.0083,-0.01185 c -9e-6,-1.1e-5 -0.0048,-0.0047 -0.0059,-0.0059 -0.114367,-0.155948 -0.294681,-0.290411 -0.519624,-0.290411 l -1.715482,-5e-6 c -0.393125,0 -0.705189,-0.313614 -0.705189,-0.711551 v -2.22831 l -0.103969,-0.103969 v -0.01886 l -0.01886,10e-7 h -0.0092 z m 5.7060014,1e-6 2.807596,2.807596 c 0.189045,0.184357 0.305855,0.428538 0.331648,0.689177 0.0021,0.0073 0.0038,0.01457 0.0053,0.02171 v -2.620057 c 0,-0.497731 -0.400699,-0.898431 -0.898431,-0.898431 z m 3.139244,3.496773 c -0.0114,-0.03886 -0.03267,-0.07959 -0.0612,-0.118884 l 0.06186,0.130728 c -3.48e-4,-0.0039 -2.67e-4,-0.0079 -6.37e-4,-0.01184 z M 4.7143826,2.6642617 H 10.19753 v 2.024102 c 0,0.571997 0.462263,1.038591 1.032011,1.038591 h 1.715485 c 0.06979,0 0.193591,0.07477 0.254219,0.154857 l 0.03663,0.07765 c 8.91e-4,0.01448 0.0018,0.02894 0.002,0.04365 l -1e-6,2.022128 H 4.2864676 c -0.101538,0 -0.193056,0.03217 -0.27725,0.07721 v -4.849684 c 0,-0.313249 0.301939,-0.588499 0.705189,-0.588499 z m 9.1874204,0.886587 -10e-7,4.02912 0.77823,-2.888973 c 0.129457,-0.480601 -0.153301,-0.971867 -0.633901,-1.101323 z m -10.5565624,0.493961 -0.458209,0.123271 c -0.480635,0.129326 -0.763447,0.620468 -0.634122,1.101104 l 1.017535,3.7821393 -0.703435,2.611722 c -0.129456,0.480601 0.153302,0.971868 0.633902,1.101323 l 0.144329,0.03882 V 9.3290127 8.7740738 Z m 2.021908,1.436919 c -0.186004,0 -0.336912,0.150908 -0.336912,0.336912 0,0.186003 0.150908,0.336911 0.336912,0.336911 h 3.593723 c 0.186442,0 0.336911,-0.150908 0.336911,-0.336911 0,-0.186004 -0.150469,-0.336912 -0.336911,-0.336912 z m -0.112304,1.347646 c -0.12371,0 -0.224608,0.100459 -0.224608,0.224608 0,0.124148 0.100898,0.224608 0.224608,0.224608 h 1.571815 c 0.124149,0 0.224608,-0.10046 0.224608,-0.224608 0,-0.124149 -0.100459,-0.224608 -0.224608,-0.224608 z m -4.24e-4,2.0214695 h 6.7382304 c 0.01869,-3e-7 0.03683,0.00229 0.05418,0.00658 -0.103611,0.118546 -0.166496,0.2734782 -0.166496,0.442635 H 5.7858766 C 5.5971716,9.0837763 5.3142616,8.9809273 5.0381346,9.0142546 c 0.02662,-0.094344 0.113352,-0.1634109 0.216273,-0.1634108 z m 7.2997504,0.1123039 c 0.186002,-2e-7 0.336911,0.1509083 0.336911,0.3369115 v 2.9927224 0.03948 0.634342 h -0.633464 c -0.265845,0.276811 -0.639167,0.449215 -1.051094,0.449215 -0.411928,0 -0.78525,-0.172405 -1.051094,-0.449215 l -1.2669284,-10e-7 c -0.265844,0.276812 -0.639166,0.449217 -1.051094,0.449216 -0.411927,0 -0.785249,-0.172404 -1.051093,-0.449215 h -0.633464 v -0.490013 l -1.452931,-2.324383 c -0.150799,-0.2417224 -0.0821,-0.5629021 0.155295,-0.7209822 0.05914,-0.039471 0.123728,-0.064997 0.189732,-0.077428 0.198013,-0.037293 0.40917,0.043561 0.527521,0.2208788 l 0.224593,0.3369116 -0.18688,0.1245868 -0.224608,-0.3369113 c -0.0905,-0.1355827 -0.270325,-0.1715703 -0.405785,-0.081157 -0.138119,0.091971 -0.177339,0.2744043 -0.08949,0.4152173 l 1.412353,2.259457 0.114716,0 c -0.02588,-0.107918 -0.03992,-0.220661 -0.03992,-0.336911 -1e-6,-0.803237 0.656275,-1.459951 1.459949,-1.459951 0.861143,0 1.394147,0.684352 1.45337,1.348524 0.01097,0.123271 0.102214,0.22373 0.225924,0.22373 l 0.01053,4e-6 c 0.12371,0 0.214957,-0.100458 0.225924,-0.223729 0.05922,-0.664172 0.5922274,-1.348524 1.4533694,-1.348525 0.803675,10e-7 1.45995,0.656715 1.45995,1.459951 V 9.3000642 c -1e-6,-0.061855 -0.05045,-0.1123037 -0.112303,-0.1123039 -0.06186,2e-7 -0.112304,0.050449 -0.112304,0.1123039 v 0.5615193 l -0.224608,-10e-8 V 9.3000642 c 0,-0.1860033 0.150908,-0.3369115 0.336912,-0.3369116 z m 0.112303,2.9927219 c 1e-6,0.116252 -0.01404,0.228995 -0.03992,0.336912 l 0.03992,4e-6 z m -6.4230344,-1.9819874 5.6369074,2e-7 V 10.19849 l 0.336912,1e-6 c 10e-7,0.08574 -0.04791,0.160211 -0.118445,0.198067 -0.263028,-0.15108 -0.567725,-0.237549 -0.89229,-0.237549 -0.363423,0 -0.681059,0.09952 -0.944054,0.264089 H 8.7814626 c -0.262994,-0.164569 -0.580629,-0.264089 -0.944054,-0.264089 -0.343095,0 -0.664084,0.09663 -0.937035,0.264089 h -1.263199 l 0.627103,-0.418069 z m 7.6583774,0.5531844 v 2.591323 c 0,0.05675 -0.0038,0.112671 -0.01119,0.167359 0.380563,-0.184597 0.587479,-0.61704 0.473343,-1.041223 z m -6.0644224,0.418069 c -0.561081,-10e-7 -1.010735,0.450092 -1.010735,1.010734 0,0.561081 0.449654,1.010735 1.010735,1.010735 0.56108,0 1.010734,-0.449654 1.010734,-1.010735 0,-0.560642 -0.449654,-1.010734 -1.010734,-1.010734 z m 3.3691154,0 c -0.561081,0 -1.010735,0.450092 -1.010735,1.010735 1e-6,0.56108 0.449654,1.010734 1.010735,1.010734 0.56108,0 1.010734,-0.449655 1.010735,-1.010734 -10e-7,-0.560644 -0.449654,-1.010736 -1.010735,-1.010735 z m -5.2541534,0.151785 h 0.307081 c -0.05019,0.09183 -0.09261,0.188492 -0.126342,0.289095 z m 1.885038,0.185126 c 0.171113,0 0.324515,0.0591 0.441538,0.158804 -0.03467,0.01626 -0.06994,0.03226 -0.105504,0.04782 -0.179862,0.06273 -0.398767,0.07107 -0.625568,0.04826 -0.07167,-0.0089 -0.142524,-0.02141 -0.211886,-0.03773 0.121955,-0.134421 0.299266,-0.217149 0.50142,-0.21715 z m 3.3691154,0 c 0.142952,0 0.273445,0.04123 0.38078,0.112962 -0.02207,0.0038 -0.04426,0.0075 -0.06668,0.01074 -0.221098,0.02676 -0.443951,0.01843 -0.646186,-0.03334 -0.0026,-8.54e-4 -0.0053,-0.0018 -0.0079,-0.0026 0.09894,-0.0561 0.214731,-0.08774 0.339983,-0.08774 z m -6.1767114,0.03356 0.131605,0.21057 c -0.07772,-0.03531 -0.131606,-0.113646 -0.131606,-0.204648 1e-6,-0.002 -5.1e-5,-0.0039 1e-6,-0.0059 z m 5.5779034,0.323751 c 0.06033,0.02185 0.122332,0.04181 0.185126,0.05988 0.246981,0.06229 0.51107,0.07326 0.770773,0.04036 0.08977,-0.01205 0.178294,-0.02888 0.264309,-0.05111 0.03383,0.08142 0.05242,0.171635 0.05242,0.267379 0,0.06586 -0.0088,0.129106 -0.02523,0.188636 -0.0775,0.01728 -0.15566,0.03079 -0.234039,0.0408 -0.311028,0.03992 -0.630831,0.02632 -0.937035,-0.05001 -0.04609,-0.01106 -0.09204,-0.02383 -0.137529,-0.03838 -0.0091,-0.04529 -0.01382,-0.09245 -0.01382,-0.141038 -10e-7,-0.115406 0.02684,-0.222897 0.07502,-0.316513 z m -2.1350894,0.08489 c 0.02511,0.07178 0.03861,0.149702 0.03861,0.231627 0,0.0953 -0.01835,0.185011 -0.05176,0.266063 -0.01444,0.0049 -0.02888,0.0098 -0.04343,0.01426 -0.311029,0.10046 -0.641799,0.119762 -0.960724,0.0816 -0.07046,-0.0083 -0.140652,-0.01939 -0.210351,-0.03334 -0.05208,-0.09637 -0.08138,-0.208079 -0.08138,-0.328577 0,-0.05143 0.0054,-0.101198 0.01557,-0.148934 0.107315,0.02965 0.217641,0.05109 0.329235,0.06471 0.266283,0.02939 0.533004,0.01623 0.769018,-0.06273 0.06662,-0.02522 0.132156,-0.05348 0.195216,-0.08467 z m -3.218207,0.495716 0.34086,0 0.220659,0.353143 v 0.09607 l -0.561519,0 c -0.124148,0 -0.224607,-0.100459 -0.224607,-0.224607 -1e-6,-0.12415 0.100458,-0.224609 0.224607,-0.224609 z m -0.557352,2.133773 0.123491,0.458647 c 0.129325,0.480636 0.620468,0.763449 1.101104,0.634123 l 3.620263,-0.974105 1.4665314,0.395037 c 0.439008,0.118253 0.886759,-0.107451 1.059648,-0.513702 l -2.0850794,10e-7 h -0.88176 z"
     class="ColorScheme-Text" />
</svg>
