<?xml version="1.0" encoding="UTF-8" standalone="no"?>
<svg
   width="64"
   height="64"
   version="1.1"
   viewBox="0 0 16.933 16.933"
   id="svg7"
   sodipodi:docname="pulseview.svg"
   inkscape:version="1.4.4 (dcaf3e7d9e, 2026-05-05)"
   xmlns:inkscape="http://www.inkscape.org/namespaces/inkscape"
   xmlns:sodipodi="http://sodipodi.sourceforge.net/DTD/sodipodi-0.dtd"
   xmlns="http://www.w3.org/2000/svg"
   xmlns:svg="http://www.w3.org/2000/svg"
   xmlns:rdf="http://www.w3.org/1999/02/22-rdf-syntax-ns#"
   xmlns:cc="http://creativecommons.org/ns#"
   xmlns:dc="http://purl.org/dc/elements/1.1/">
  <sodipodi:namedview
     id="namedview7"
     pagecolor="#9c4444"
     bordercolor="#000000"
     borderopacity="0.25"
     inkscape:showpageshadow="2"
     inkscape:pageopacity="0.0"
     inkscape:pagecheckerboard="0"
     inkscape:deskcolor="#d1d1d1"
     inkscape:zoom="12.3125"
     inkscape:cx="23.959391"
     inkscape:cy="37.360406"
     inkscape:window-width="2560"
     inkscape:window-height="1388"
     inkscape:window-x="0"
     inkscape:window-y="0"
     inkscape:window-maximized="1"
     inkscape:current-layer="svg7"
     showgrid="false" />
  <defs
     id="defs2">
    <style
       id="current-color-scheme"
       type="text/css">.ColorScheme-Text {color:#d8dee9} .ColorScheme-Highlight {color:#3b4252}</style>
  </defs>
  <metadata
     id="metadata2">
    <rdf:RDF>
      <cc:Work
         rdf:about="">
        <dc:format>image/svg+xml</dc:format>
        <dc:type
           rdf:resource="http://purl.org/dc/dcmitype/StillImage" />
      </cc:Work>
    </rdf:RDF>
  </metadata>
  <path
     id="path5"
     style="fill:currentColor"
     d="M 2.5134923,1.4551797 V 1.7197578 9.3925233 H 3.8363829 V 1.7197578 H 5.1592735 V 9.3925233 H 6.4821642 V 1.7197578 h 1.322891 v 7.6727655 h 1.32289 V 1.7197578 h 1.3228908 v 7.6727655 h 1.32289 V 1.7197578 h 1.322891 v 7.6727655 h 1.32289 V 1.7197578 1.4551797 H 13.096617 11.773726 10.450836 9.1279452 7.8050552 6.4821642 5.1592735 3.8363829 Z M 2.1827696,9.6571014 c -0.549661,0 -0.9921679,0.4867576 -0.9921679,1.0913846 v 3.637949 c 0,0.604627 0.4425069,1.091385 0.9921679,1.091385 H 14.75023 c 0.549661,0 0.992168,-0.486758 0.992168,-1.091385 v -3.637949 c 0,-0.604627 -0.442507,-1.0913846 -0.992168,-1.0913846 z M 4.100961,10.450836 h 5.0269842 v 3.439515 h 1.0583128 v -3.439515 h 2.645781 v 3.439515 h 1.058312 v 0.793734 H 12.038304 V 11.24457 h -1.058312 v 3.439515 H 8.3342112 V 11.24457 H 4.8946954 v 3.439515 H 3.0426485 V 13.890351 H 4.100961 Z"
     class="ColorScheme-Text" />
</svg>
