<?xml version="1.0" encoding="UTF-8" standalone="no"?>
<svg
   width="64"
   height="64"
   version="1.1"
   viewBox="0 0 16.933 16.933"
   id="svg7"
   sodipodi:docname="org.kde.qrca.svg"
   inkscape:version="1.4.4 (dcaf3e7d9e, 2026-05-05)"
   xmlns:inkscape="http://www.inkscape.org/namespaces/inkscape"
   xmlns:sodipodi="http://sodipodi.sourceforge.net/DTD/sodipodi-0.dtd"
   xmlns="http://www.w3.org/2000/svg"
   xmlns:svg="http://www.w3.org/2000/svg"
   xmlns:rdf="http://www.w3.org/1999/02/22-rdf-syntax-ns#"
   xmlns:cc="http://creativecommons.org/ns#"
   xmlns:dc="http://purl.org/dc/elements/1.1/">
  <sodipodi:namedview
     id="namedview7"
     pagecolor="#9c4444"
     bordercolor="#000000"
     borderopacity="0.25"
     inkscape:showpageshadow="2"
     inkscape:pageopacity="0.0"
     inkscape:pagecheckerboard="0"
     inkscape:deskcolor="#d1d1d1"
     inkscape:zoom="17.412504"
     inkscape:cx="24.752327"
     inkscape:cy="21.191667"
     inkscape:window-width="2560"
     inkscape:window-height="1388"
     inkscape:window-x="0"
     inkscape:window-y="0"
     inkscape:window-maximized="1"
     inkscape:current-layer="svg7"
     showgrid="false" />
  <defs
     id="defs2">
    <style
       id="current-color-scheme"
       type="text/css">.ColorScheme-Text {color:#d8dee9} .ColorScheme-Highlight {color:#3b4252}</style>
  </defs>
  <metadata
     id="metadata2">
    <rdf:RDF>
      <cc:Work
         rdf:about="">
        <dc:format>image/svg+xml</dc:format>
        <dc:type
           rdf:resource="http://purl.org/dc/dcmitype/StillImage" />
      </cc:Work>
    </rdf:RDF>
  </metadata>
  <path
     id="path5"
     style="fill:currentColor"
     class="ColorScheme-Text"
     d="M 3.2080098 1.4551797 C 2.2369418 1.4551797 1.4551797 2.2369421 1.4551797 3.2080098 L 1.4551797 13.72499 C 1.4551797 14.696057 2.2369418 15.47782 3.2080098 15.47782 L 13.72499 15.47782 C 14.696057 15.47782 15.47782 14.696057 15.47782 13.72499 L 15.47782 3.2080098 C 15.47782 2.2369421 14.696057 1.4551797 13.72499 1.4551797 L 3.2080098 1.4551797 z M 3.2080098 2.5036739 L 4.6104805 2.5036739 L 4.6104805 3.2043925 L 3.2080098 3.2043925 C 3.0137958 3.2043925 2.8576505 3.361055 2.8576505 3.5552686 L 2.8576505 4.9572226 L 2.1564151 4.9572226 L 2.1564151 3.5552686 C 2.1564151 2.9726279 2.6253688 2.5036739 3.2080098 2.5036739 z M 12.322519 2.5036739 L 13.72499 2.5036739 C 14.307631 2.5036739 14.776585 2.9726279 14.776585 3.5552686 L 14.776585 4.9572226 L 14.07535 4.9572226 L 14.07535 3.5552686 C 14.07535 3.361055 13.919203 3.2043925 13.72499 3.2043925 L 12.322519 3.2043925 L 12.322519 2.5036739 z M 8.8545824 4.3996448 C 8.8988924 4.4005213 8.9294843 4.4134691 8.9450143 4.4306501 C 8.9805243 4.4699221 8.9375443 4.5305651 8.8799033 4.6363182 C 8.8222833 4.7420704 8.7493116 4.8944641 8.7238436 5.0605734 C 8.6983736 5.2266696 8.7203637 5.4082434 8.7972227 5.5613082 C 8.8740027 5.7143969 9.0055182 5.8400375 9.4307632 5.9586921 C 9.8560072 6.0773552 10.572838 6.1881242 11.18256 6.4077515 C 11.792278 6.6273547 12.276808 6.9442529 12.701817 7.3611629 C 13.126799 7.7780462 13.459481 8.2729617 13.707937 8.8401133 C 13.95641 9.4072373 14.119417 10.043998 14.293937 10.333016 C 14.46845 10.622027 14.65345 10.562478 14.675301 10.635834 C 14.697141 10.709194 14.555784 10.915146 14.453614 11.056472 C 14.351444 11.197805 14.28845 11.274671 14.243811 11.453856 C 14.199161 11.633049 14.172881 11.914752 14.104288 11.829019 C 14.035698 11.743279 13.897076 11.247259 13.76478 10.952087 C 13.365857 10.062263 11.909189 9.0960141 10.247235 9.055083 C 9.8254996 9.055715 9.3582283 9.1110328 8.9346793 9.208559 C 8.5388523 9.3395508 6.3206009 10.010069 5.7974648 10.124764 C 4.7560964 10.434673 3.5095659 10.696161 2.4395963 10.917982 L 2.4390796 10.916431 C 2.3261648 10.934417 2.2633233 10.871464 2.238579 10.754687 C 2.206199 10.601921 2.2398255 10.35691 2.3362455 10.084457 C 2.4327455 9.8120307 2.5918633 9.5125541 2.8747033 9.1599841 C 3.1575163 8.8073881 3.5638916 8.4019637 4.0218976 8.0200244 C 4.4799036 7.6380852 4.9893959 7.2801088 5.4987809 6.9746308 C 6.0081899 6.6691791 6.5169397 6.4164987 6.8464757 6.2465242 C 7.1759867 6.0765474 7.3245459 5.9900865 7.4557289 5.8723942 C 7.5869169 5.754705 7.699653 5.6077285 7.779217 5.4620914 C 7.858797 5.3164257 7.9041694 5.1732696 8.0494794 4.9887446 C 8.1947764 4.8042431 8.4386752 4.5793422 8.6173922 4.4761245 C 8.7179202 4.4180565 8.7976124 4.3985278 8.8545824 4.3996448 z M 7.7735327 6.1111346 L 6.8273558 6.5700123 L 7.2852 7.5161891 L 8.2318936 7.0578282 L 7.7735327 6.1111346 z M 7.6515787 6.4625274 L 7.8810175 6.936391 L 7.407154 7.1647963 L 7.1787487 6.6919662 L 7.6515787 6.4625274 z M 6.3534923 6.7984176 L 5.4073154 7.2567785 L 5.8651596 8.2034721 L 6.81237 7.745628 L 6.3534923 6.7984176 z M 6.2315383 7.1498104 L 6.4609771 7.623674 L 5.9871136 7.8520793 L 5.7587083 7.3792493 L 6.2315383 7.1498104 z M 10.346452 7.6112719 C 10.26716 7.6151605 10.190494 7.6321206 10.109778 7.6686316 C 9.9483639 7.7416746 9.7690445 7.8947593 9.6173115 8.1295763 C 9.4655705 8.3643777 9.3400559 8.6845635 9.2654019 8.8731855 C 9.2448257 8.925179 9.2279273 8.9675649 9.210626 9.0028908 C 9.5227926 8.9480928 9.8459153 8.915786 10.151635 8.9098751 C 10.230822 8.825211 10.360209 8.7306034 10.469956 8.680953 C 10.656244 8.596653 10.823363 8.5877426 10.943819 8.5998226 C 11.064261 8.6119026 11.137496 8.6442317 11.238369 8.6142917 C 11.339228 8.5843717 11.465647 8.4935202 11.525168 8.3988052 C 11.584718 8.3040952 11.576086 8.2064263 11.512766 8.1021883 C 11.449434 7.9979356 11.330798 7.8867688 11.16344 7.8029877 C 10.996082 7.7192157 10.778996 7.6626687 10.598111 7.631942 C 10.507662 7.616566 10.425744 7.6073832 10.346452 7.6112719 z M 7.9879857 7.7606138 L 7.5141221 7.9900527 L 7.7435609 8.4628827 L 8.216391 8.2339606 L 7.9879857 7.7606138 z M 7.0407753 8.218458 L 6.0940817 8.6768189 L 6.5529594 9.6235125 L 7.4991362 9.1656684 L 7.0407753 8.218458 z M 6.9193381 8.5698508 L 7.1477434 9.0431976 L 6.6743966 9.2726365 L 6.4454745 8.7992897 L 6.9193381 8.5698508 z M 5.0238839 9.5449659 C 4.9318959 9.5492659 4.8242073 9.5649435 4.7086638 9.5899235 C 4.4775708 9.6398635 4.2138159 9.7270314 3.9748729 9.8508844 C 3.7359169 9.9747264 3.5217601 10.135252 3.2746711 10.337667 C 3.126961 10.458687 2.9672847 10.594736 2.8225112 10.704045 C 3.6894357 10.522765 4.6334045 10.317341 5.4698427 10.083424 C 5.4381297 10.059524 5.4212664 10.033115 5.4093824 10.014695 C 5.3816524 9.9717054 5.3891642 9.8050084 5.3804442 9.7563184 C 5.3717442 9.7076484 5.3545872 9.6106696 5.2466049 9.5687366 C 5.1926109 9.5477816 5.1158719 9.5406649 5.0238839 9.5449659 z M 2.1564151 11.968543 L 2.8576505 11.968543 L 2.8576505 13.371014 C 2.8576505 13.565227 3.0137968 13.721373 3.2080098 13.721373 L 4.6104805 13.721373 L 4.6104805 14.422608 L 3.2080098 14.422608 C 2.6253688 14.422608 2.1564151 13.953655 2.1564151 13.371014 L 2.1564151 11.968543 z M 14.07535 11.968543 L 14.776585 11.968543 L 14.776585 13.371014 C 14.776585 13.953655 14.307631 14.422608 13.72499 14.422608 L 12.322519 14.422608 L 12.322519 13.721373 L 13.72499 13.721373 C 13.919204 13.721373 14.07535 13.565227 14.07535 13.371014 L 14.07535 11.968543 z " />
</svg>
