<?xml version="1.0" encoding="UTF-8" standalone="no"?>
<svg
   width="64"
   height="64"
   version="1.1"
   viewBox="0 0 16.933 16.933"
   id="svg7"
   sodipodi:docname="re.sonny.Eloquent.svg"
   inkscape:version="1.4.4 (dcaf3e7d9e, 2026-05-05)"
   xmlns:inkscape="http://www.inkscape.org/namespaces/inkscape"
   xmlns:sodipodi="http://sodipodi.sourceforge.net/DTD/sodipodi-0.dtd"
   xmlns="http://www.w3.org/2000/svg"
   xmlns:svg="http://www.w3.org/2000/svg"
   xmlns:rdf="http://www.w3.org/1999/02/22-rdf-syntax-ns#"
   xmlns:cc="http://creativecommons.org/ns#"
   xmlns:dc="http://purl.org/dc/elements/1.1/">
  <sodipodi:namedview
     id="namedview7"
     pagecolor="#9c4444"
     bordercolor="#000000"
     borderopacity="0.25"
     inkscape:showpageshadow="2"
     inkscape:pageopacity="0.0"
     inkscape:pagecheckerboard="0"
     inkscape:deskcolor="#d1d1d1"
     inkscape:zoom="4.3531262"
     inkscape:cx="89.820506"
     inkscape:cy="34.687715"
     inkscape:window-width="2560"
     inkscape:window-height="1388"
     inkscape:window-x="0"
     inkscape:window-y="0"
     inkscape:window-maximized="1"
     inkscape:current-layer="svg7"
     showgrid="false" />
  <defs
     id="defs2">
    <style
       id="current-color-scheme"
       type="text/css">.ColorScheme-Text {color:#d8dee9} .ColorScheme-Highlight {color:#3b4252}</style>
  </defs>
  <metadata
     id="metadata2">
    <rdf:RDF>
      <cc:Work
         rdf:about="">
        <dc:format>image/svg+xml</dc:format>
        <dc:type
           rdf:resource="http://purl.org/dc/dcmitype/StillImage" />
      </cc:Work>
    </rdf:RDF>
  </metadata>
  <path
     id="path5"
     d="m 12.896144,1.4551797 c -1.2906,0 -2.337107,1.0465087 -2.337107,2.3371068 0,1.2905981 1.046507,2.3371067 2.337107,2.3371067 1.290598,0 2.337106,-1.0465086 2.337106,-2.3371067 0,-1.2905981 -1.046508,-2.3371068 -2.337106,-2.3371068 z M 4.0382975,1.701191 c -0.271957,0 -0.492022,0.2200646 -0.492022,0.4920225 v 5.9042696 h 2.952135 V 8.3434944 8.4665 8.5895056 h -3.444158 c -0.458488,0 -0.843801,0.3136293 -0.953053,0.7380337 H 14.8318 C 14.722548,8.9031349 14.337235,8.5895056 13.878747,8.5895056 H 10.680601 10.43459 V 8.3434944 8.0974831 h 2.952134 V 6.3287969 c -0.158837,0.030551 -0.322844,0.046608 -0.49058,0.046608 -0.269218,0 -0.527867,-0.043192 -0.771909,-0.1196422 0.0111,0.00348 0.02126,0.00892 0.03243,0.012253 V 6.3754053 H 9.9425655 V 6.6214165 6.8674277 H 4.5303205 V 6.6214157 6.3754045 5.3913595 4.1613033 h 5.8088915 c -0.01725,-0.1205247 -0.02619,-0.2437307 -0.02619,-0.3690168 0,-0.8597405 0.420208,-1.6215277 1.066449,-2.0910955 z m 9.9634545,1.2286146 a 0.24601124,0.24601124 0 0 1 0.173938,0.072074 0.24601124,0.24601124 0 0 1 0,0.3478753 l -1.415045,1.4155255 a 0.24603584,0.24603584 0 0 1 -0.347875,0 l -0.799056,-0.799056 a 0.24601124,0.24601124 0 0 1 0,-0.3478752 0.24601124,0.24601124 0 0 1 0.347875,0 l 0.625118,0.6251184 1.241108,-1.241588 a 0.24601124,0.24601124 0 0 1 0.173937,-0.072074 z m -9.4714315,0.00144 h 3.93618 v 0.7380337 h -3.93618 z m 5.8804845,1.5577508 c 0.0065,0.023087 0.01262,0.046129 0.0197,0.06895 -0.0071,-0.022772 -0.01325,-0.045914 -0.0197,-0.06895 z m 1.049392,1.4477185 c 0.01842,0.012359 0.03651,0.024864 0.05526,0.036757 -0.0187,-0.011864 -0.03689,-0.02443 -0.05526,-0.036757 z M 2.3162195,6.3754032 c -0.408898,0 -0.738034,0.3291361 -0.738034,0.7380337 v 1.7220786 c 0,0.2255274 0.100095,0.426776 0.258504,0.5619339 0.08549,-0.5957171 0.598295,-1.0539563 1.217563,-1.0539563 V 6.3754045 Z m 11.5625275,0 v 1.9680899 c 0.619268,0 1.132073,0.4582392 1.217564,1.0539563 0.158409,-0.1351579 0.258503,-0.3364065 0.258503,-0.5619339 V 7.1134369 c 0,-0.4088976 -0.329135,-0.7380337 -0.738033,-0.7380337 z M 2.0702075,9.5735493 V 10.065572 H 14.862792 V 9.5735506 Z m 0,0.7380337 v 3.444158 c 0,0.543436 0.44061,0.984045 0.984045,0.984045 H 13.878747 c 0.543435,0 0.984045,-0.440609 0.984045,-0.984045 v -3.444157 z m 1.96809,0.246011 c 0.271958,0 0.492023,0.220065 0.492023,0.492023 0,0.271957 -0.220065,0.492022 -0.492023,0.492022 -0.271957,0 -0.492022,-0.220065 -0.492022,-0.492022 0,-0.271958 0.220065,-0.492023 0.492022,-0.492023 z m 1.476068,0 c 0.271958,0 0.492022,0.220065 0.492022,0.492023 0,0.271957 -0.220064,0.492022 -0.492022,0.492022 -0.271958,0 -0.492023,-0.220065 -0.492023,-0.492022 0,-0.271958 0.220065,-0.492023 0.492023,-0.492023 z m 1.476067,0 c 0.271958,0 0.492023,0.220065 0.492023,0.492023 0,0.271957 -0.220065,0.492022 -0.492023,0.492022 -0.271958,0 -0.492022,-0.220065 -0.492022,-0.492022 0,-0.271958 0.220064,-0.492023 0.492022,-0.492023 z m 1.476068,0 c 0.271957,0 0.492022,0.220065 0.492022,0.492023 0,0.271957 -0.220065,0.492022 -0.492022,0.492022 -0.271958,0 -0.492023,-0.220065 -0.492023,-0.492022 0,-0.271958 0.220065,-0.492023 0.492023,-0.492023 z m 1.476067,0 c 0.2719585,0 0.4920225,0.220065 0.4920225,0.492023 0,0.271957 -0.220065,0.492022 -0.4920225,0.492022 -0.271958,0 -0.492022,-0.220065 -0.492022,-0.492022 0,-0.271958 0.220064,-0.492023 0.492022,-0.492023 z m 1.4760685,0 c 0.271957,0 0.492021,0.220065 0.492021,0.492023 0,0.271957 -0.220065,0.492022 -0.492021,0.492022 -0.271959,0 -0.492023,-0.220065 -0.492023,-0.492022 0,-0.271958 0.220065,-0.492023 0.492023,-0.492023 z m 1.476067,0 c 0.271958,0 0.492022,0.220065 0.492022,0.492023 0,0.271957 -0.220065,0.492022 -0.492022,0.492022 -0.271958,0 -0.492022,-0.220065 -0.492022,-0.492022 0,-0.271958 0.220064,-0.492023 0.492022,-0.492023 z m -8.3643825,1.968091 c 0.271958,0 0.492022,0.220065 0.492022,0.492023 0,0.271957 -0.220064,0.492022 -0.492022,0.492022 -0.271958,0 -0.492023,-0.220065 -0.492023,-0.492022 0,-0.271958 0.220065,-0.492023 0.492023,-0.492023 z m 1.476067,0 h 3.444158 c 0.271957,0 0.492022,0.220065 0.492022,0.492023 0,0.271957 -0.220065,0.492022 -0.492022,0.492022 h -3.444158 c -0.271958,0 -0.492022,-0.220065 -0.492022,-0.492022 0,-0.271958 0.220064,-0.492023 0.492022,-0.492023 z m 4.9202245,0 c 0.271958,0 0.492023,0.220065 0.492023,0.492023 0,0.271957 -0.220065,0.492022 -0.492023,0.492022 -0.271958,0 -0.492022,-0.220065 -0.492022,-0.492022 0,-0.271958 0.220064,-0.492023 0.492022,-0.492023 z m 1.476068,0 c 0.271957,0 0.492022,0.220065 0.492022,0.492023 0,0.271957 -0.220065,0.492022 -0.492022,0.492022 -0.271958,0 -0.492023,-0.220065 -0.492023,-0.492022 0,-0.271958 0.220065,-0.492023 0.492023,-0.492023 z m -10.3324725,1.96809 c 0,0.543435 0.44061,0.984045 0.984045,0.984045 H 13.878747 c 0.543435,0 0.984045,-0.44061 0.984045,-0.984045 -0.224468,0.298787 -0.58179,0.492023 -0.984045,0.492023 H 3.0542525 c -0.402255,0 -0.759577,-0.193236 -0.984045,-0.492023 z"
     style="fill:currentColor"
     class="ColorScheme-Text" />
</svg>
