<?xml version="1.0" encoding="UTF-8" standalone="no"?>
<svg
   width="64"
   height="64"
   version="1.1"
   viewBox="0 0 16.933 16.933"
   id="svg7"
   sodipodi:docname="rustdesk.svg"
   inkscape:version="1.4.4 (dcaf3e7d9e, 2026-05-05)"
   xmlns:inkscape="http://www.inkscape.org/namespaces/inkscape"
   xmlns:sodipodi="http://sodipodi.sourceforge.net/DTD/sodipodi-0.dtd"
   xmlns="http://www.w3.org/2000/svg"
   xmlns:svg="http://www.w3.org/2000/svg"
   xmlns:rdf="http://www.w3.org/1999/02/22-rdf-syntax-ns#"
   xmlns:cc="http://creativecommons.org/ns#"
   xmlns:dc="http://purl.org/dc/elements/1.1/">
  <sodipodi:namedview
     id="namedview7"
     pagecolor="#9c4444"
     bordercolor="#000000"
     borderopacity="0.25"
     inkscape:showpageshadow="2"
     inkscape:pageopacity="0.0"
     inkscape:pagecheckerboard="0"
     inkscape:deskcolor="#d1d1d1"
     inkscape:zoom="4.3531262"
     inkscape:cx="89.590787"
     inkscape:cy="36.295755"
     inkscape:window-width="2560"
     inkscape:window-height="1388"
     inkscape:window-x="0"
     inkscape:window-y="0"
     inkscape:window-maximized="1"
     inkscape:current-layer="svg7"
     showgrid="false" />
  <defs
     id="defs2">
    <style
       id="current-color-scheme"
       type="text/css">.ColorScheme-Text {color:#d8dee9} .ColorScheme-Highlight {color:#3b4252}</style>
  </defs>
  <metadata
     id="metadata2">
    <rdf:RDF>
      <cc:Work
         rdf:about="">
        <dc:format>image/svg+xml</dc:format>
        <dc:type
           rdf:resource="http://purl.org/dc/dcmitype/StillImage" />
      </cc:Work>
    </rdf:RDF>
  </metadata>
  <path
     d="m 13.496039,4.7279534 -1.151496,1.1444838 c -0.20279,0.1817582 -0.300952,0.4740817 -0.187155,0.7211003 0.766944,1.605082 0.4757,3.5186675 -0.783126,4.7764135 -1.259364,1.257206 -3.175106,1.547912 -4.781805,0.781507 -0.236772,-0.106251 -0.514534,-0.01619 -0.696831,0.168274 l -1.170373,1.168754 a 0.62240075,0.62240075 0 0 0 0.112179,0.976209 7.0141438,7.0141438 0 0 0 8.580932,-1.031222 6.9952667,6.9952667 0 0 0 1.054954,-8.5685277 0.62240075,0.62240075 0 0 0 -0.977287,-0.1369932 z M 3.536007,3.4847698 A 6.9947273,6.9947273 0 0 0 2.446538,12.052219 0.62240075,0.62240075 0 0 0 3.423825,12.189212 L 4.569388,11.0512 C 4.777035,10.869982 4.877892,10.574422 4.763004,10.324167 3.99552,8.7190851 4.286226,6.8054994 5.545588,5.5477537 6.804414,4.2900079 8.720696,3.9993025 10.327395,4.7657078 10.56147,4.8703398 10.835456,4.7835039 11.018293,4.603906 L 12.195137,3.4281403 A 0.62132206,0.62132206 0 0 0 12.082958,2.4519311 7.0163011,7.0163011 0 0 0 3.511195,3.516053 Z"
     style="fill:currentColor"
     id="path5"
     class="ColorScheme-Text" />
</svg>
