<?xml version="1.0" encoding="UTF-8" standalone="no"?>
<svg
   width="64"
   height="64"
   version="1.1"
   viewBox="0 0 16.933 16.933"
   id="svg7"
   sodipodi:docname="systemsettings.svg"
   inkscape:version="1.4.4 (dcaf3e7d9e, 2026-05-05)"
   xmlns:inkscape="http://www.inkscape.org/namespaces/inkscape"
   xmlns:sodipodi="http://sodipodi.sourceforge.net/DTD/sodipodi-0.dtd"
   xmlns="http://www.w3.org/2000/svg"
   xmlns:svg="http://www.w3.org/2000/svg"
   xmlns:rdf="http://www.w3.org/1999/02/22-rdf-syntax-ns#"
   xmlns:cc="http://creativecommons.org/ns#"
   xmlns:dc="http://purl.org/dc/elements/1.1/">
  <sodipodi:namedview
     id="namedview7"
     pagecolor="#9c4444"
     bordercolor="#000000"
     borderopacity="0.25"
     inkscape:showpageshadow="2"
     inkscape:pageopacity="0.0"
     inkscape:pagecheckerboard="0"
     inkscape:deskcolor="#d1d1d1"
     inkscape:zoom="12.3125"
     inkscape:cx="59.411168"
     inkscape:cy="24.609137"
     inkscape:window-width="2560"
     inkscape:window-height="1376"
     inkscape:window-x="0"
     inkscape:window-y="0"
     inkscape:window-maximized="1"
     inkscape:current-layer="svg7"
     showgrid="false" />
  <defs
     id="defs2">
    <style
       id="current-color-scheme"
       type="text/css">.ColorScheme-Text {color:#d8dee9} .ColorScheme-Highlight {color:#3b4252}</style>
  </defs>
  <metadata
     id="metadata2">
    <rdf:RDF>
      <cc:Work
         rdf:about="">
        <dc:format>image/svg+xml</dc:format>
        <dc:type
           rdf:resource="http://purl.org/dc/dcmitype/StillImage" />
      </cc:Work>
    </rdf:RDF>
  </metadata>
  <path
     id="path5"
     style="fill:currentColor"
     d="M 9.6114442,1.4551921 7.3039817,1.8018705 V 2.5122687 A 6.1261788,6.1411559 0 0 0 5.4608871,3.1811293 L 4.8921428,2.5016178 3.1342538,3.9996311 3.6923478,4.6674269 A 6.1261788,6.1411559 0 0 0 3.1358515,5.4758104 C 2.9677821,5.7677903 2.8353883,6.0691989 2.7199435,6.3747254 L 1.8402006,6.2186934 1.4551795,8.4973988 2.3264018,8.6518334 c 0.01241,0.6572012 0.1270486,1.3058455 0.3424184,1.9235066 l -0.7822894,0.454783 1.1657128,1.995399 0.7737697,-0.44786 c 0.4176353,0.482698 0.9152283,0.908839 1.49109,1.253048 l -0.3099338,0.85791 2.1737969,0.775367 0.3062064,-0.844064 c 0.649822,0.104502 1.3060891,0.107948 1.9448076,0.0053 l 0.3099339,0.852585 2.1636787,-0.803059 -0.304608,-0.839271 c 0.554031,-0.329801 1.05953,-0.749674 1.494285,-1.254113 l 0.78229,0.451054 1.141749,-2.009244 -0.770574,-0.446263 C 14.466507,9.9477829 14.576017,9.2988807 14.58423,8.6534057 L 15.47782,8.4958015 15.061912,6.2202907 14.183766,6.3747254 C 13.953713,5.7677569 13.6229,5.199056 13.208167,4.6860656 L 13.79342,3.9879155 12.014762,2.5122687 11.44655,3.1917792 A 6.1174146,6.1323702 0 0 0 9.6114442,2.5170612 Z m -1.15879,1.8276502 A 5.2585226,5.2713784 0 0 1 13.71141,8.5538473 5.2585226,5.2713784 0 0 1 8.4526542,13.825385 5.2585226,5.2713784 0 0 1 3.1944297,8.5538473 5.2585226,5.2713784 0 0 1 8.4526542,3.2828423 Z M 8.6640696,4.1673787 A 4.361068,4.3717298 0 0 0 8.1443181,4.173237 4.3724615,4.3831512 0 0 0 4.6546337,6.3539561 4.3934956,4.4042367 0 0 0 6.2639458,12.358258 4.383855,4.3945725 0 0 0 10.916681,12.188914 L 8.1400579,9.4117571 8.133667,9.4058989 C 7.492051,9.6150197 6.7585046,9.4651869 6.2501002,8.9559094 5.7637911,8.4696054 5.6044035,7.7825805 5.7713537,7.1639377 L 6.8199101,8.2108967 7.8466323,7.9366427 8.121951,6.9109853 7.0744603,5.8629615 c 0.618057,-0.167824 1.3056193,-0.00901 1.7925042,0.4755512 0.4880303,0.4895002 0.6462838,1.1847564 0.4723555,1.8068827 l 2.79686,2.7941966 A 4.383855,4.3945725 0 0 0 12.249609,10.753739 4.3908663,4.401601 0 0 0 10.640828,4.7515669 4.361068,4.3717298 0 0 0 8.6640696,4.1673787 Z"
     class="ColorScheme-Text" />
</svg>
