<?xml version="1.0" encoding="UTF-8" standalone="no"?>
<svg
   width="64"
   height="64"
   version="1.1"
   viewBox="0 0 16.933 16.933"
   id="svg7"
   sodipodi:docname="SystemView.svg"
   inkscape:version="1.4.4 (dcaf3e7d9e, 2026-05-05)"
   xmlns:inkscape="http://www.inkscape.org/namespaces/inkscape"
   xmlns:sodipodi="http://sodipodi.sourceforge.net/DTD/sodipodi-0.dtd"
   xmlns="http://www.w3.org/2000/svg"
   xmlns:svg="http://www.w3.org/2000/svg"
   xmlns:rdf="http://www.w3.org/1999/02/22-rdf-syntax-ns#"
   xmlns:cc="http://creativecommons.org/ns#"
   xmlns:dc="http://purl.org/dc/elements/1.1/">
  <sodipodi:namedview
     id="namedview7"
     pagecolor="#9c4444"
     bordercolor="#000000"
     borderopacity="0.25"
     inkscape:showpageshadow="2"
     inkscape:pageopacity="0.0"
     inkscape:pagecheckerboard="0"
     inkscape:deskcolor="#d1d1d1"
     inkscape:zoom="12.3125"
     inkscape:cx="24"
     inkscape:cy="37.360406"
     inkscape:window-width="2560"
     inkscape:window-height="1388"
     inkscape:window-x="0"
     inkscape:window-y="0"
     inkscape:window-maximized="1"
     inkscape:current-layer="svg7"
     showgrid="false" />
  <defs
     id="defs2">
    <style
       id="current-color-scheme"
       type="text/css">.ColorScheme-Text {color:#d8dee9} .ColorScheme-Highlight {color:#3b4252}</style>
  </defs>
  <metadata
     id="metadata2">
    <rdf:RDF>
      <cc:Work
         rdf:about="">
        <dc:format>image/svg+xml</dc:format>
        <dc:type
           rdf:resource="http://purl.org/dc/dcmitype/StillImage" />
      </cc:Work>
    </rdf:RDF>
  </metadata>
  <path
     id="path5"
     style="fill:currentColor"
     d="m 9.0146272,1.4555403 c -0.01541,0.0173 -0.07846,0.20327 -0.07105,0.20954 0.0034,0.003 0.07352,0.0291 0.155867,0.0583 0.367606,0.13043 0.479497,0.17081 0.727244,0.26243 0.145091,0.0537 0.2679378,0.0938 0.2729928,0.0892 0.0051,-0.005 0.02553,-0.0542 0.04548,-0.1102 l 0.0363,-0.10183 -0.180962,-0.0667 c -0.09952,-0.0366 -0.2034088,-0.0755 -0.2308588,-0.0863 -0.22335,-0.088 -0.746312,-0.26426 -0.755009,-0.25448 z m -0.02274,0.52157 c -0.04167,0.002 -0.07706,0.01 -0.108686,0.0242 -0.07816,0.0352 -0.09259,0.0605 -0.191689,0.33628 -0.03663,0.10196 -0.0909,0.25274 -0.120588,0.33509 -0.02969,0.0823 -0.06782,0.18824 -0.08474,0.2353 -0.223953,0.62282 -0.274791,0.76311 -0.292047,0.80567 -0.01113,0.0275 -0.03908,0.10443 -0.06209,0.1711 -0.04579,0.13264 -0.188944,0.5275 -0.268807,0.7415 -0.02781,0.0745 -0.06546,0.18034 -0.08368,0.23518 -0.03714,0.11177 -0.03744,0.11109 0.06506,0.14453 0.02745,0.009 0.104432,0.0364 0.171096,0.061 0.06666,0.0246 0.166138,0.0605 0.221038,0.0798 0.0549,0.0193 0.221737,0.0798 0.37075,0.13448 0.149013,0.0547 0.278411,0.0997 0.287566,0.10007 0.0092,3.5e-4 0.02658,-0.0266 0.03872,-0.06 0.01214,-0.0333 0.04431,-0.12155 0.07148,-0.19605 0.02718,-0.0745 0.06859,-0.19002 0.09203,-0.25668 0.02344,-0.0667 0.05235,-0.14688 0.06422,-0.17825 0.02265,-0.0598 0.06501,-0.17697 0.242445,-0.6702 0.05925,-0.16469 0.124461,-0.34436 0.144914,-0.39926 0.02045,-0.0549 0.05239,-0.14475 0.07094,-0.19965 0.01856,-0.0549 0.05097,-0.14473 0.07203,-0.19963 0.02106,-0.0549 0.05643,-0.15115 0.07864,-0.21389 0.0222,-0.0627 0.06376,-0.17825 0.09235,-0.25668 0.08903,-0.24429 0.09689,-0.27747 0.07947,-0.3356 -0.03341,-0.11151 -0.178936,-0.21098 -0.4669,-0.31914 -0.199673,-0.075 -0.337166,-0.11317 -0.439654,-0.11889 -0.01537,-8.6e-4 -0.02997,-9.7e-4 -0.04385,-3.9e-4 z m -1.976374,3.01089 c -0.0091,8e-5 -0.01328,0.003 -0.01518,0.007 -0.0055,0.0128 -0.0546,0.14844 -0.108981,0.30137 -0.121066,0.34045 -0.323328,0.90012 -0.535962,1.483 -0.0186,0.051 -0.05094,0.14081 -0.07189,0.19963 -0.02095,0.0588 -0.04677,0.12942 -0.05736,0.15687 -0.01059,0.0274 -0.0353,0.0948 -0.0549,0.14971 -0.0196,0.0549 -0.08179,0.22815 -0.138194,0.385 -0.191483,0.53248 -0.210968,0.59156 -0.197843,0.59967 0.0072,0.004 0.05642,0.0233 0.109342,0.0418 0.05292,0.0186 0.131514,0.0472 0.174649,0.0637 0.0851,0.0325 0.255826,0.094 0.513334,0.18478 0.09019,0.0318 0.17361,0.064 0.185374,0.0715 0.0468,0.0299 0.04805,0.0183 0.01211,-0.11301 -0.0286,-0.10452 -0.03156,-0.38693 -0.0057,-0.54169 0.03842,-0.22979 0.175129,-0.58278 0.26401,-0.68167 0.01204,-0.0134 0.03948,-0.0503 0.06096,-0.0819 0.09061,-0.13358 0.206135,-0.24441 0.431101,-0.41363 0.06175,-0.0464 0.32077,-0.16304 0.421279,-0.18963 0.19381,-0.0513 0.315195,-0.0635 0.544969,-0.0551 0.119739,0.004 0.230538,0.0117 0.246224,0.0163 0.0253,0.007 0.03439,-0.009 0.08051,-0.14509 0.02859,-0.0844 0.07245,-0.20796 0.09749,-0.27462 0.07144,-0.19025 0.146816,-0.41439 0.140999,-0.41929 -0.0029,-0.002 -0.09833,-0.0378 -0.212054,-0.0787 -0.11372,-0.0408 -0.274144,-0.0985 -0.356494,-0.12824 -0.08235,-0.0297 -0.278069,-0.0998 -0.434924,-0.15582 -0.156856,-0.056 -0.468062,-0.16851 -0.691581,-0.25002 -0.274309,-0.10004 -0.368888,-0.1323 -0.401298,-0.13202 z m 2.768245,1.05192 c -1.62e-4,0.006 -0.103062,0.30193 -0.217621,0.62596 l -0.07832,0.22151 0.111944,0.10357 c 0.176824,0.16359 0.314748,0.36139 0.4104408,0.58867 l 0.0277,0.0658 0.147495,0.01 c 0.859866,0.0577 1.483773,0.38578 1.75124,0.92083 0.123333,0.24673 0.171594,0.47627 0.171594,0.81641 0,0.23608 -0.0224,0.43747 -0.0725,0.6523397 -0.107265,0.45997 -0.423528,1.01321 -0.884717,1.54765 -0.205628,0.23828 -0.602169,0.63336 -0.821674,0.81862 -0.04117,0.0348 -0.07486,0.0684 -0.07486,0.0748 0,0.006 0.525895,0.0116 1.168663,0.0116 h 1.168663 l 0.07716,-0.0962 c 0.289145,-0.36074 0.599264,-0.9428 0.765577,-1.43688 0.168117,-0.49944 0.242218,-0.92778 0.242218,-1.3999797 0,-0.51573 -0.08252,-0.89522 -0.284693,-1.30912 -0.254304,-0.52061 -0.659111,-0.9606 -1.19611,-1.30006 -0.172387,-0.10898 -0.597492,-0.31486 -0.843511,-0.40854 -0.448595,-0.17082 -1.5679928,-0.53248 -1.5686938,-0.50682 z m -1.303825,0.89639 c -0.182595,0 -0.279303,0.0173 -0.449181,0.0803 -0.405307,0.15024 -0.727952,0.5267 -0.80744,0.94215 -0.02558,0.13369 -0.02542,0.34948 3.4e-4,0.48912 0.06317,0.34237 0.292305,0.66532 0.603916,0.85118 0.114937,0.0685 0.315947,0.14345 0.430558,0.16041 0.201284,0.0298 0.458953,0.009 0.613172,-0.0493 0.101457,-0.0384 0.162259,-0.0642 0.185375,-0.0787 0.01176,-0.007 0.04062,-0.024 0.06415,-0.037 0.219482,-0.12133 0.453316,-0.40242 0.538112,-0.64691 0.06712,-0.19352 0.07508,-0.24168 0.07438,-0.44918 -7.05e-4,-0.20958 -0.01258,-0.27439 -0.08499,-0.46344 -0.178289,-0.46549 -0.665596,-0.79855 -1.168392,-0.79855 z m -2.409692,1.96979 c -0.0025,0.003 -0.0512,0.13352 -0.10812,0.29037 -0.05692,0.15686 -0.125679,0.34615 -0.15279,0.42065 -0.07117,0.19558 -0.106021,0.30186 -0.100743,0.30714 0.0061,0.006 0.165273,0.0652 0.36068,0.1340297 0.08627,0.0304 0.201779,0.0726 0.256678,0.0938 0.0549,0.0212 0.115871,0.0439 0.135478,0.0503 0.01961,0.006 0.115853,0.0406 0.213888,0.0759 0.09803,0.0353 0.182567,0.0646 0.187841,0.0651 0.0053,5e-4 0.01725,-0.0232 0.02663,-0.0526 0.0094,-0.0294 0.04169,-0.12085 0.07178,-0.2032 0.168626,-0.4614897 0.272029,-0.7583497 0.266182,-0.7641997 -0.0036,-0.004 -0.166325,-0.0643 -0.361518,-0.13482 -0.195192,-0.0705 -0.377356,-0.13736 -0.404806,-0.14856 -0.100204,-0.0409 -0.38669,-0.13903 -0.391183,-0.13401 z M 5.6266492,10.1875 c -0.01622,0 -0.05148,0.076 -0.08366,0.18038 -0.01023,0.0332 0.02601,0.0504 0.298134,0.14183 0.06274,0.0211 0.120485,0.0429 0.128327,0.0484 0.0078,0.006 0.07523,0.0303 0.149735,0.0551 0.07451,0.0248 0.228517,0.0796 0.342237,0.12179 0.113721,0.0422 0.213326,0.0775 0.221355,0.0783 0.01366,10e-4 0.100664,-0.20963 0.09009,-0.2186 -0.0027,-0.002 -0.04337,-0.0175 -0.09042,-0.0338 -0.09318,-0.0323 -0.351433,-0.12494 -0.598893,-0.21479 -0.387362,-0.14063 -0.439228,-0.15865 -0.456898,-0.15865 z m -0.174174,0.47518 c -0.01132,6.2e-4 -0.01621,0.007 -0.02338,0.0191 -0.0262,0.045 -0.06517,0.18216 -0.05447,0.19175 0.0056,0.005 0.07436,0.0319 0.15279,0.0598 0.07843,0.0279 0.242036,0.0869 0.363599,0.13113 0.121563,0.0443 0.285194,0.10338 0.363622,0.13138 0.07843,0.028 0.165053,0.0594 0.192503,0.0698 0.02745,0.0104 0.05853,0.0175 0.06906,0.0158 0.02177,-0.004 0.09158,-0.19766 0.07635,-0.2123 -0.0097,-0.009 -0.273894,-0.10677 -0.459115,-0.16933 -0.05098,-0.0172 -0.111927,-0.0399 -0.135456,-0.0504 -0.05157,-0.023 -0.385558,-0.14199 -0.483577,-0.17223 -0.03287,-0.0101 -0.05062,-0.0151 -0.06193,-0.0145 z m -1.655452,1.0083 c -0.06125,0.004 -0.10895,0.026 -0.151862,0.0665 -0.138405,0.13054 -0.155942,0.36506 -0.03553,0.47493 0.08917,0.0814 0.113015,0.0946 0.270798,0.15012 0.340897,0.11995 0.741556,0.25901 0.862699,0.29942 0.07843,0.0262 0.283768,0.0966 0.45631,0.15653 0.172541,0.0599 0.377881,0.13068 0.456309,0.15722 0.07843,0.0265 0.283768,0.0969 0.456309,0.15632 0.429348,0.14789 0.806983,0.27474 0.841315,0.28261 0.200974,0.0461 0.375685,-0.0864 0.412952,-0.31309 0.01942,-0.11812 -0.0576,-0.24816 -0.177681,-0.30004 -0.05569,-0.0241 -0.576598,-0.20563 -1.076586,-0.37525 -0.180384,-0.0612 -0.488406,-0.16674 -0.684475,-0.23457 -0.19607,-0.0678 -0.417443,-0.14297 -0.49195,-0.16698 -0.07451,-0.024 -0.141256,-0.0471 -0.148331,-0.0514 -0.01573,-0.009 -0.579747,-0.20391 -0.757159,-0.26109 -0.0971,-0.0313 -0.171876,-0.0453 -0.233121,-0.0412 z m 6.165117,1.18384 -0.363621,0.35819 c -0.767573,0.75613 -0.954711,0.9441 -0.947331,0.95148 0.0042,0.004 0.740437,0.0115 1.6360818,0.0161 0.895645,0.005 1.83539,0.01 2.08832,0.0112 0.25293,0.001 0.459861,-0.002 0.459861,-0.007 0,-0.005 -0.0622,-0.17382 -0.138216,-0.37432 -0.07602,-0.2005 -0.187538,-0.49609 -0.24783,-0.65687 l -0.109637,-0.29232 -1.188803,-0.003 z m 2.8590548,1.75206 c 0,-0.0192 -8.9065348,-0.0173 -9.0250998,0.002 -0.252095,0.0409 -0.468113,0.24964 -0.529038,0.51118 -0.01974,0.0847 -0.01104,0.2817 0.01455,0.32952 0.01516,0.0283 0.03345,0.0284 4.27324,0.0283 l 4.2580098,-1.3e-4 0.165507,-0.1685 c 0.11451,-0.11658 0.246786,-0.2293 0.429313,-0.36586 0.296306,-0.22168 0.413518,-0.31704 0.413518,-0.3364 z"
     class="ColorScheme-Text" />
</svg>
