<?xml version="1.0" encoding="UTF-8" standalone="no"?>
<svg
   width="64"
   height="64"
   version="1.1"
   viewBox="0 0 16.933 16.933"
   id="svg7"
   sodipodi:docname="tsMuxerGUI.svg"
   inkscape:version="1.4.4 (dcaf3e7d9e, 2026-05-05)"
   xmlns:inkscape="http://www.inkscape.org/namespaces/inkscape"
   xmlns:sodipodi="http://sodipodi.sourceforge.net/DTD/sodipodi-0.dtd"
   xmlns="http://www.w3.org/2000/svg"
   xmlns:svg="http://www.w3.org/2000/svg"
   xmlns:rdf="http://www.w3.org/1999/02/22-rdf-syntax-ns#"
   xmlns:cc="http://creativecommons.org/ns#"
   xmlns:dc="http://purl.org/dc/elements/1.1/">
  <sodipodi:namedview
     id="namedview7"
     pagecolor="#9c4444"
     bordercolor="#000000"
     borderopacity="0.25"
     inkscape:showpageshadow="2"
     inkscape:pageopacity="0.0"
     inkscape:pagecheckerboard="0"
     inkscape:deskcolor="#d1d1d1"
     inkscape:zoom="6.15625"
     inkscape:cx="15.918782"
     inkscape:cy="27.28934"
     inkscape:window-width="2560"
     inkscape:window-height="1388"
     inkscape:window-x="0"
     inkscape:window-y="0"
     inkscape:window-maximized="1"
     inkscape:current-layer="svg7"
     showgrid="false" />
  <defs
     id="defs2">
    <style
       id="current-color-scheme"
       type="text/css">.ColorScheme-Text {color:#d8dee9} .ColorScheme-Highlight {color:#3b4252}</style>
  </defs>
  <metadata
     id="metadata2">
    <rdf:RDF>
      <cc:Work
         rdf:about="">
        <dc:format>image/svg+xml</dc:format>
        <dc:type
           rdf:resource="http://purl.org/dc/dcmitype/StillImage" />
      </cc:Work>
    </rdf:RDF>
  </metadata>
  <path
     id="path5"
     style="fill:currentColor"
     d="m 7.6844119,1.4551797 c -0.3193751,0 -0.576489,0.257114 -0.576489,0.5764888 V 2.9826499 A 5.6495906,5.6495906 0 0 0 5.5496014,3.6280471 L 4.8771816,2.955627 c -0.2258324,-0.2258321 -0.5895846,-0.2258321 -0.8154167,0 L 2.955627,4.0617649 c -0.2258321,0.2258321 -0.2258321,0.5895844 0,0.8154165 L 3.6280471,5.5496015 A 5.6495906,5.6495906 0 0 0 2.9826499,7.1079229 H 2.0316685 c -0.3193748,0 -0.5764888,0.257114 -0.5764888,0.5764888 V 9.248588 c 0,0.319375 0.257114,0.5764889 0.5764888,0.5764889 h 0.9509814 a 5.6495906,5.6495906 0 0 0 0.6453972,1.5583211 l -0.6724201,0.67242 c -0.2258321,0.225833 -0.2258321,0.589585 0,0.815416 l 1.1061379,1.106139 c 0.2258321,0.225832 0.5895843,0.225832 0.8154167,0 l 0.6724198,-0.672421 a 5.6495906,5.6495906 0 0 0 1.5583215,0.645398 v 0.950982 c 0,0.319374 0.2571139,0.576488 0.576489,0.576488 h 1.5641763 c 0.319375,0 0.576488,-0.257114 0.576488,-0.576488 V 13.95035 a 5.6495906,5.6495906 0 0 0 1.5583218,-0.645398 l 0.67242,0.672421 c 0.225832,0.225832 0.589584,0.225832 0.815416,0 l 1.106139,-1.106139 c 0.225831,-0.225831 0.225831,-0.589583 0,-0.815416 l -0.672421,-0.67242 A 5.6495906,5.6495906 0 0 0 13.95035,9.8250769 h 0.950981 c 0.319375,0 0.576489,-0.2571139 0.576489,-0.5764889 V 7.6844117 c 0,-0.3193748 -0.257114,-0.5764888 -0.576489,-0.5764888 H 13.95035 A 5.6495906,5.6495906 0 0 0 13.304952,5.5496015 l 0.672421,-0.6724201 c 0.225831,-0.2258321 0.225831,-0.5895844 0,-0.8154165 L 12.871234,2.955627 c -0.225832,-0.2258321 -0.589584,-0.2258321 -0.815416,0 l -0.67242,0.6724201 A 5.6495906,5.6495906 0 0 0 9.8250762,2.9826499 V 2.0316685 c 0,-0.3193748 -0.257113,-0.5764888 -0.576488,-0.5764888 z M 8.4665002,4.6616736 A 3.8048263,3.8048263 0 0 1 12.271326,8.4664999 3.8048263,3.8048263 0 0 1 8.4665002,12.271326 3.8048263,3.8048263 0 0 1 4.6616737,8.4664999 3.8048263,3.8048263 0 0 1 8.4665002,4.6616736 Z m -0.77218,1.9924895 A 0.79668799,0.79668799 0 0 0 6.8523312,7.4495376 V 9.388882 a 0.80165087,0.80165087 0 0 0 1.1455462,0.724214 L 9.9732522,9.1747254 a 0.80462057,0.80462057 0 0 0 0.01464,-1.4464015 L 8.0053087,6.7370334 a 0.79668799,0.79668799 0 0 0 -0.3109885,-0.08287 z"
     class="ColorScheme-Text" />
</svg>
