<?xml version="1.0" encoding="UTF-8" standalone="no"?>
<svg
   width="64"
   height="64"
   version="1.1"
   viewBox="0 0 16.933 16.933"
   id="svg7"
   sodipodi:docname="utilities-terminal_su.svg"
   inkscape:version="1.4.4 (dcaf3e7d9e, 2026-05-05)"
   xmlns:inkscape="http://www.inkscape.org/namespaces/inkscape"
   xmlns:sodipodi="http://sodipodi.sourceforge.net/DTD/sodipodi-0.dtd"
   xmlns="http://www.w3.org/2000/svg"
   xmlns:svg="http://www.w3.org/2000/svg"
   xmlns:rdf="http://www.w3.org/1999/02/22-rdf-syntax-ns#"
   xmlns:cc="http://creativecommons.org/ns#"
   xmlns:dc="http://purl.org/dc/elements/1.1/">
  <sodipodi:namedview
     id="namedview7"
     pagecolor="#9c4444"
     bordercolor="#000000"
     borderopacity="0.25"
     inkscape:showpageshadow="2"
     inkscape:pageopacity="0.0"
     inkscape:pagecheckerboard="0"
     inkscape:deskcolor="#d1d1d1"
     inkscape:zoom="6.15625"
     inkscape:cx="15.918782"
     inkscape:cy="27.28934"
     inkscape:window-width="2560"
     inkscape:window-height="1388"
     inkscape:window-x="0"
     inkscape:window-y="0"
     inkscape:window-maximized="1"
     inkscape:current-layer="svg7"
     showgrid="false" />
  <defs
     id="defs2">
    <style
       id="current-color-scheme"
       type="text/css">.ColorScheme-Text {color:#d8dee9} .ColorScheme-Highlight {color:#3b4252}</style>
  </defs>
  <metadata
     id="metadata2">
    <rdf:RDF>
      <cc:Work
         rdf:about="">
        <dc:format>image/svg+xml</dc:format>
        <dc:type
           rdf:resource="http://purl.org/dc/dcmitype/StillImage" />
      </cc:Work>
    </rdf:RDF>
  </metadata>
  <path
     id="path5"
     style="fill:currentColor"
     d="M 2.7362132 2.8075253 C 2.0266559 2.8075253 1.4551797 3.3790016 1.4551797 4.0885588 L 1.4551797 12.844441 C 1.4551797 13.553998 2.0266559 14.125475 2.7362132 14.125475 L 14.196787 14.125475 C 14.906344 14.125475 15.47782 13.553998 15.47782 12.844441 L 15.47782 4.0885588 C 15.47782 3.3790016 14.906344 2.8075253 14.196787 2.8075253 L 2.7362132 2.8075253 z M 3.3433994 4.9401697 L 3.707711 5.1339525 C 3.9078412 5.2403931 4.7854005 5.7199372 5.6584579 6.2000163 L 7.2454099 7.0733308 L 7.2299073 7.6252242 L 7.2149214 8.1766009 L 5.7302868 8.9951395 C 4.9137587 9.4450008 4.0421697 9.9242714 3.794009 10.06017 L 3.3433994 10.307178 L 3.3433994 9.7857733 L 3.3433994 9.2638517 L 4.1433348 8.844764 C 5.6344544 8.0642582 6.3186529 7.672616 6.2976828 7.6097216 C 6.2730811 7.5359201 5.7269153 7.2285324 4.3469359 6.509552 L 3.3433994 5.9860801 L 3.3433994 5.4631249 L 3.3433994 4.9401697 z M 9.3832219 5.9793623 C 9.5651192 5.9793623 9.7565481 5.9931424 9.956819 6.0207026 C 10.15709 6.0482628 10.374816 6.0916128 10.609996 6.1504079 L 10.609996 6.9002182 C 10.398701 6.8120255 10.194755 6.7458809 9.9981593 6.7017846 C 9.8015632 6.6576882 9.6156463 6.63564 9.4410983 6.63564 C 9.2536889 6.63564 9.1143948 6.6591811 9.0225275 6.7069521 C 8.9324975 6.7528858 8.8871379 6.8245425 8.8871379 6.9219218 C 8.8871379 7.0009278 8.9214734 7.0615603 8.9894552 7.1038193 C 9.0592744 7.1460783 9.1832955 7.1776577 9.3615182 7.1978686 L 9.5351476 7.2226728 C 10.040418 7.2869799 10.380156 7.3924553 10.554704 7.5394431 C 10.729251 7.6864308 10.816698 7.9171905 10.816698 8.2313769 C 10.816698 8.560262 10.695433 8.8070411 10.452903 8.9724023 C 10.210373 9.1377635 9.8480706 9.2204443 9.3666857 9.2204443 C 9.1627402 9.2204443 8.9517894 9.2039082 8.7331451 9.1708359 C 8.5163382 9.139601 8.2931001 9.0920022 8.0634318 9.027695 L 8.0634318 8.2778847 C 8.2600279 8.3734268 8.4612177 8.4450834 8.6670006 8.4928545 C 8.8746208 8.5406255 9.0848252 8.5646833 9.2979574 8.5646833 C 9.4908789 8.5646833 9.6362018 8.5378695 9.7335812 8.4845864 C 9.8309606 8.4313033 9.8793058 8.3526418 9.8793058 8.247913 C 9.8793058 8.1597203 9.8454871 8.0943222 9.7775053 8.0520632 C 9.7113608 8.0079668 9.5783251 7.9741481 9.3780543 7.9502626 L 9.2044249 7.9280422 C 8.765299 7.8729218 8.4573706 7.7709488 8.2809853 7.6221237 C 8.1045999 7.4732986 8.0164071 7.2473045 8.0164071 6.9441423 C 8.0164071 6.6170945 8.1286578 6.3745643 8.3528141 6.2165524 C 8.5769704 6.0585406 8.9202104 5.9793623 9.3832219 5.9793623 z M 11.524651 6.0537749 L 12.516819 6.0537749 L 12.516819 6.3627939 C 12.516819 6.5299924 12.516073 6.7401968 12.514235 6.9937507 C 12.512398 7.2454672 12.511651 7.4135848 12.511651 7.4981027 C 12.511651 7.7461446 12.51791 7.9252862 12.530771 8.035527 C 12.543633 8.1439305 12.565681 8.2231088 12.596916 8.2727172 C 12.637338 8.3370243 12.689702 8.3866328 12.754009 8.4215424 C 12.820154 8.456452 12.895313 8.4737346 12.979831 8.4737346 C 13.185614 8.4737346 13.347473 8.3945562 13.465063 8.2365444 C 13.582653 8.0785326 13.641276 7.8593137 13.641276 7.5781996 L 13.641276 6.0537749 L 14.628276 6.0537749 L 14.628276 9.1408642 L 13.641276 9.1408642 L 13.641276 8.6943886 C 13.492451 8.8744486 13.334611 9.0074842 13.167413 9.0938395 C 13.002051 9.1783575 12.819407 9.2204443 12.619136 9.2204443 C 12.262691 9.2204443 11.990591 9.1114665 11.803182 8.8928222 C 11.61761 8.6741779 11.524651 8.3559718 11.524651 7.938894 L 11.524651 6.0537749 z M 9.1067584 11.003246 L 11.348438 11.003246 L 13.589601 11.003246 L 13.589601 11.49778 L 13.589601 11.99283 L 11.348438 11.99283 L 9.1067584 11.99283 L 9.1067584 11.49778 L 9.1067584 11.003246 z "
     class="ColorScheme-Text" />
</svg>
