<?xml version="1.0" encoding="UTF-8" standalone="no"?>
<svg
   width="64"
   height="64"
   version="1.1"
   viewBox="0 0 16.933 16.933"
   id="svg7"
   sodipodi:docname="preferences-system.svg"
   inkscape:version="1.4.4 (dcaf3e7d9e, 2026-05-05)"
   xmlns:inkscape="http://www.inkscape.org/namespaces/inkscape"
   xmlns:sodipodi="http://sodipodi.sourceforge.net/DTD/sodipodi-0.dtd"
   xmlns="http://www.w3.org/2000/svg"
   xmlns:svg="http://www.w3.org/2000/svg"
   xmlns:rdf="http://www.w3.org/1999/02/22-rdf-syntax-ns#"
   xmlns:cc="http://creativecommons.org/ns#"
   xmlns:dc="http://purl.org/dc/elements/1.1/">
  <sodipodi:namedview
     id="namedview7"
     pagecolor="#9c4444"
     bordercolor="#000000"
     borderopacity="0.25"
     inkscape:showpageshadow="2"
     inkscape:pageopacity="0.0"
     inkscape:pagecheckerboard="0"
     inkscape:deskcolor="#d1d1d1"
     inkscape:zoom="12.3125"
     inkscape:cx="59.411168"
     inkscape:cy="24.609137"
     inkscape:window-width="2560"
     inkscape:window-height="1376"
     inkscape:window-x="0"
     inkscape:window-y="0"
     inkscape:window-maximized="1"
     inkscape:current-layer="svg7"
     showgrid="false" />
  <defs
     id="defs2">
    <style
       id="current-color-scheme"
       type="text/css">.ColorScheme-Text {color:#d8dee9} .ColorScheme-Highlight {color:#3b4252}</style>
  </defs>
  <metadata
     id="metadata2">
    <rdf:RDF>
      <cc:Work
         rdf:about="">
        <dc:format>image/svg+xml</dc:format>
        <dc:type
           rdf:resource="http://purl.org/dc/dcmitype/StillImage" />
      </cc:Work>
    </rdf:RDF>
  </metadata>
  <path
     id="path5"
     style="fill:currentColor;stroke-width:0.754718"
     d="M 9.3306105,3.1749375 7.5891263,3.436582 V 3.9727326 A 4.6235393,4.6348428 0 0 0 6.1981091,4.4775339 L 5.7688673,3.9646941 4.4421563,5.0952722 4.8633601,5.5992699 A 4.6235393,4.6348428 0 0 0 4.4433621,6.2093718 C 4.3165171,6.4297343 4.2165971,6.6572129 4.1294688,6.8877994 L 3.4655107,6.7700392 3.1749282,8.4898199 3.8324556,8.6063745 c 0.00937,0.4960018 0.095886,0.9855455 0.2584295,1.4517055 l -0.5904082,0.343233 0.8797848,1.505964 0.5839782,-0.338008 c 0.315197,0.364301 0.6907395,0.685917 1.1253529,0.945698 l -0.2339127,0.64748 1.6406043,0.585184 0.2310996,-0.63703 c 0.4904326,0.07887 0.9857294,0.08147 1.4677819,0.004 l 0.2339128,0.643461 1.6329683,-0.606083 -0.229894,-0.633413 c 0.418138,-0.248907 0.799647,-0.565793 1.127765,-0.946502 l 0.590409,0.340418 0.861698,-1.516413 -0.581566,-0.336802 C 12.994816,9.5844513 13.077465,9.0947129 13.083663,8.6075611 L 13.758072,8.4886143 13.444179,6.7712447 12.781426,6.8877994 C 12.607801,6.4297091 12.35813,6.0005001 12.045123,5.6133369 l 0.441702,-0.5269067 -1.342386,-1.1136976 -0.42884,0.512839 A 4.6169248,4.6282121 0 0 0 9.3306105,3.9763496 Z m -0.87456,1.3793611 A 3.9687033,3.9784058 0 0 1 12.42493,8.5324226 3.9687033,3.9784058 0 0 1 8.4560505,12.510948 3.9687033,3.9784058 0 0 1 4.4875722,8.5324226 3.9687033,3.9784058 0 0 1 8.4560505,4.5542986 Z m 0.1595591,0.6675758 a 3.2913779,3.2994245 0 0 0 -0.392266,0.00442 3.2999768,3.3080445 0 0 0 -2.6337287,1.6458286 3.3158516,3.3239581 0 0 0 1.2145773,4.5315566 3.3085756,3.3166643 0 0 0 3.5115048,-0.127807 L 8.2201283,9.1799028 8.215305,9.1754815 C 7.7310657,9.3333088 7.1774448,9.2202273 6.7937427,8.8358662 6.4267163,8.4688437 6.3064235,7.9503334 6.4324239,7.4834323 L 7.2237886,8.2735915 7.9986747,8.066607 8.2064627,7.2925245 7.4159023,6.5015618 c 0.466459,-0.1266599 0.9853748,-0.0068 1.3528358,0.3589072 0.3683254,0.3694347 0.4877622,0.8941573 0.3564953,1.3636874 L 11.236075,10.332988 A 3.3085756,3.3166643 0 0 0 11.321682,10.192721 3.3138672,3.3219689 0 0 0 10.107505,5.6627719 3.2913779,3.2994245 0 0 0 8.6156096,5.2218744 Z"
     class="ColorScheme-Text" />
</svg>
